
<svg width="100" height="30" viewBox="0 0 100 30" fill="none" xmlns="http://www.w3.org/2000/svg">
<path d="M59.8834 24.8834C57.9287 26.8382 55.4382 28.1694 52.7268 28.7087C50.0155 29.248 47.2051 28.9712 44.6511 27.9133C42.0971 26.8554 39.9142 25.0639 38.3783 22.7654C36.8425 20.4668 36.0227 17.7644 36.0227 15C36.0227 12.2356 36.8425 9.5332 38.3783 7.23464C39.9142 4.93609 42.0971 3.14459 44.6511 2.08668C47.2051 1.02878 50.0155 0.75198 52.7268 1.2913C55.4382 1.83061 57.9287 3.16182 59.8834 5.11657" stroke="white" stroke-width="2.04545" stroke-linecap="round"/>
<path d="M47.0638 20.1819H45.0063V14.5489C45.0063 14.3935 45.0086 14.2027 45.013 13.9763C45.0174 13.7454 45.0241 13.5102 45.033 13.2705C45.0419 13.0263 45.0507 12.8066 45.0596 12.6113C45.0108 12.669 44.9109 12.7689 44.76 12.9109C44.6135 13.0485 44.4759 13.1728 44.3472 13.2838L43.2286 14.1827L42.2365 12.9442L45.3726 10.4473H47.0638V20.1819ZM53.1362 10.3208C53.6955 10.3208 54.2104 10.4074 54.681 10.5805C55.1559 10.7536 55.5355 11.0155 55.8196 11.3662C56.1036 11.7124 56.2457 12.1474 56.2457 12.6712C56.2457 13.0619 56.168 13.4037 56.0127 13.6966C55.8617 13.9896 55.6553 14.247 55.3934 14.469C55.1315 14.6865 54.8341 14.8774 54.5012 15.0416C54.8474 15.2236 55.1759 15.4367 55.4866 15.6808C55.7974 15.9205 56.0504 16.2024 56.2457 16.5264C56.4454 16.8505 56.5453 17.2278 56.5453 17.6584C56.5453 18.1999 56.4011 18.6704 56.1125 19.0699C55.824 19.465 55.4245 19.7713 54.914 19.9888C54.4035 20.2063 53.8109 20.3151 53.1362 20.3151C52.4082 20.3151 51.789 20.2107 51.2785 20.0021C50.7681 19.7935 50.3797 19.4961 50.1133 19.1099C49.847 18.7193 49.7138 18.2532 49.7138 17.7116C49.7138 17.2677 49.7959 16.8815 49.9602 16.5531C50.1289 16.2246 50.3552 15.9427 50.6393 15.7075C50.9234 15.4678 51.2364 15.2636 51.5782 15.0949C51.2896 14.9129 51.0255 14.7065 50.7858 14.4757C50.5506 14.2448 50.3619 13.9807 50.2199 13.6833C50.0823 13.3859 50.0134 13.0441 50.0134 12.6579C50.0134 12.143 50.1577 11.7124 50.4462 11.3662C50.7392 11.02 51.1232 10.7603 51.5981 10.5872C52.0731 10.4096 52.5858 10.3208 53.1362 10.3208ZM51.6181 17.5918C51.6181 17.9424 51.7424 18.2332 51.991 18.464C52.244 18.6904 52.6169 18.8036 53.1096 18.8036C53.6201 18.8036 54.0018 18.6948 54.2548 18.4773C54.5079 18.2554 54.6344 17.9646 54.6344 17.6051C54.6344 17.3565 54.5611 17.139 54.4146 16.9526C54.2726 16.7661 54.0928 16.5997 53.8753 16.4532C53.6578 16.3023 53.4381 16.1624 53.2161 16.0337L53.0364 15.9405C52.7523 16.0692 52.5037 16.2135 52.2906 16.3733C52.082 16.5331 51.9177 16.7129 51.7979 16.9126C51.678 17.1124 51.6181 17.3388 51.6181 17.5918ZM53.1229 11.8256C52.7856 11.8256 52.5059 11.9122 52.284 12.0853C52.062 12.2584 51.951 12.5026 51.951 12.8177C51.951 13.0397 52.0043 13.235 52.1108 13.4037C52.2218 13.5679 52.3661 13.7122 52.5436 13.8364C52.7256 13.9607 52.9232 14.0761 53.1362 14.1827C53.3404 14.085 53.5313 13.9763 53.7089 13.8564C53.8864 13.7366 54.0307 13.5923 54.1416 13.4236C54.2526 13.2549 54.3081 13.053 54.3081 12.8177C54.3081 12.5026 54.1949 12.2584 53.9685 12.0853C53.7466 11.9122 53.4647 11.8256 53.1229 11.8256ZM61.659 14.6488H64.2358V16.107H61.659V18.6704H60.2008V16.107H57.624V14.6488H60.2008V12.052H61.659V14.6488Z" fill="white"/>
</svg>
