
<svg width="150" height="60" viewBox="0 0 150 60" fill="none" xmlns="http://www.w3.org/2000/svg">
<g clip-path="url(#clip0_11278_7192)">
<mask id="mask0_11278_7192" style="mask-type:luminance" maskUnits="userSpaceOnUse" x="10" y="18" width="130" height="24">
<path d="M140 18.4956H10V41.5045H140V18.4956Z" fill="white"/>
</mask>
<g mask="url(#mask0_11278_7192)">
<path fill-rule="evenodd" clip-rule="evenodd" d="M49.0046 18.4956H55.9156C55.6336 18.7362 55.4042 19.0406 55.2752 19.4727C54.3241 19.5169 53.3682 19.6544 52.4171 19.895C51.3513 20.165 50.4241 20.8181 50.4241 21.9425C50.4241 22.3059 50.5197 22.6496 50.6822 22.9491L50.6726 22.7134L50.816 22.6398C50.9451 22.571 51.0836 22.5121 51.2175 22.4532C51.5616 22.3059 51.9201 22.1831 52.2785 22.08C54.3814 21.4711 57.4785 21.4711 59.5814 22.08C59.9399 22.1831 60.2983 22.3108 60.6425 22.4532C60.7763 22.5072 60.9149 22.571 61.0439 22.6398L61.1873 22.7134L61.1778 22.9491C61.3403 22.6496 61.4358 22.3059 61.4358 21.9425C61.4358 20.8181 60.5086 20.1552 59.4428 19.895C58.4296 19.6495 57.4164 19.5022 56.4031 19.4678C56.6134 19.1928 56.9384 19.0161 57.2634 18.8442C57.4689 18.7313 57.6745 18.6233 57.8608 18.4956H62.8553C63.534 18.4956 64.0884 19.0652 64.0884 19.7624V40.2328C64.0884 40.93 63.534 41.4996 62.8553 41.4996H49.0046C48.3259 41.4996 47.7715 40.93 47.7715 40.2328V19.7624C47.7667 19.0652 48.3211 18.4956 49.0046 18.4956ZM56.9623 28.4632C58.7164 27.437 59.5193 26.2536 59.6197 24.2945C58.9076 26.6906 57.8656 27.8494 56.9623 28.4632ZM51.0454 25.3992C51.2939 28.8364 54.9072 29.126 55.93 31.0705C56.9528 29.126 60.566 28.8314 60.8145 25.3992L60.9292 22.8656C58.4583 21.5448 53.4064 21.5448 50.9355 22.8656L51.0454 25.3992Z" fill="white"/>
<path fill-rule="evenodd" clip-rule="evenodd" d="M30.1169 18.4956H43.9676C44.6463 18.4956 45.2007 19.0652 45.2007 19.7624V40.2328C45.2007 40.93 44.6463 41.4996 43.9676 41.4996H30.1169C29.4382 41.4996 28.8838 40.93 28.8838 40.2328V19.7624C28.8838 19.0652 29.4382 18.4956 30.1169 18.4956ZM38.1511 34.2424C39.9051 33.2162 40.7081 32.0328 40.8084 30.0737C40.0963 32.4698 39.0544 33.6286 38.1511 34.2424ZM32.1625 31.365C32.411 34.8021 36.0242 35.0967 37.047 37.0363C38.0698 35.0918 41.683 34.7972 41.9316 31.365L42.0463 28.8314C39.5754 27.5106 34.5235 27.5106 32.0526 28.8314L32.1625 31.365ZM36.3923 25.4385C35.4411 25.4827 34.4853 25.6202 33.5342 25.8608C32.4683 26.1309 31.5411 26.7839 31.5411 27.9083C31.5411 28.2717 31.6367 28.6154 31.7992 28.9149L31.7897 28.6792L31.9331 28.6056C32.0621 28.5368 32.2007 28.4779 32.3345 28.419C32.6786 28.2717 33.0371 28.1489 33.3956 28.0458C35.4985 27.437 38.5956 27.437 40.6985 28.0458C41.057 28.1489 41.4154 28.2766 41.7595 28.419C41.8933 28.473 42.032 28.5368 42.161 28.6056L42.3044 28.6792L42.2948 28.9149C42.4573 28.6154 42.5529 28.2717 42.5529 27.9083C42.5529 26.7839 41.6257 26.121 40.5599 25.8608C39.5467 25.6153 38.5334 25.468 37.5202 25.4336C37.7305 25.1586 38.0555 24.9819 38.3805 24.81C39.0974 24.4221 39.7952 24.044 39.8812 22.9589C38.5526 23.1308 39.2217 23.0669 37.9121 23.8967C37.2812 24.2405 36.636 24.5891 36.3923 25.4385Z" fill="white"/>
<path fill-rule="evenodd" clip-rule="evenodd" d="M11.2331 18.4956H13.2261L13.2739 19.5709C13.5224 23.008 17.1357 23.2977 18.1585 25.2421C19.1812 23.2977 22.7945 23.0031 23.043 19.5709L23.0908 18.4956H25.0838C25.7625 18.4956 26.3169 19.0652 26.3169 19.7624V40.2328C26.3169 40.93 25.7625 41.4996 25.0838 41.4996H23.0956L23.1577 40.1395C20.6867 38.8186 15.6349 38.8186 13.164 40.1395L13.2261 41.4996H11.2331C10.5544 41.5045 10 40.93 10 40.2328V19.7624C10 19.0652 10.5544 18.4956 11.2331 18.4956ZM21.9437 18.4956C21.2412 20.5431 20.2901 21.5792 19.4537 22.1438C21.0452 21.2109 21.853 20.1454 22.0633 18.4956H21.9437ZM17.5085 36.7515C16.5573 36.7956 15.6015 36.9331 14.6504 37.1737C13.5846 37.4438 12.6574 38.0968 12.6574 39.2212C12.6574 39.5846 12.7529 39.9283 12.9154 40.2278L12.9059 39.9921L13.0493 39.9185C13.1783 39.8497 13.3169 39.7908 13.4507 39.7319C13.7949 39.5846 14.1533 39.4618 14.5118 39.3587C16.6147 38.7499 19.7117 38.7499 21.8147 39.3587C22.1732 39.4618 22.5316 39.5895 22.8758 39.7319C23.0095 39.7859 23.1482 39.8497 23.2772 39.9185L23.4206 39.9921L23.4111 40.2278C23.5736 39.9283 23.6691 39.5846 23.6691 39.2212C23.6691 38.0968 22.7419 37.434 21.6761 37.1737C20.6629 36.9282 19.6496 36.7809 18.6364 36.7465C18.8467 36.4716 19.1717 36.2948 19.4967 36.123C20.2136 35.735 20.9114 35.357 20.9974 34.2719C19.6688 34.4437 20.3379 34.3799 19.0283 35.2097C18.3974 35.5485 17.7522 35.8971 17.5085 36.7515Z" fill="white"/>
<path fill-rule="evenodd" clip-rule="evenodd" d="M77.4663 31.7284C80.2435 31.7284 81.9496 29.9558 81.9496 27.5449V27.5106C81.9496 25.1341 80.2958 24.2208 78.6041 23.9262L81.754 20.8377V18.7166H73.3373V21.1274H78.2313L75.2586 24.1962L75.6837 25.9885H76.8215C78.351 25.9885 79.2587 26.5728 79.2587 27.6137V27.6481C79.2587 28.6006 78.5276 29.1997 77.495 29.1997C76.2336 29.1997 75.3443 28.6497 74.4889 27.6628L72.6108 29.5188C73.6767 30.8151 75.2252 31.7284 77.4663 31.7284Z" fill="white"/>
<path fill-rule="evenodd" clip-rule="evenodd" d="M95.8619 31.7284C99.7044 31.7284 102.496 28.7479 102.496 25.1096V25.0752C102.496 21.4368 99.7377 18.4956 95.8953 18.4956C92.0528 18.4956 89.2612 21.4761 89.2612 25.1096V25.1439C89.2612 28.7872 92.0194 31.7284 95.8619 31.7284ZM95.8953 29.1309C93.687 29.1309 92.1241 27.3044 92.1241 25.1096V25.0752C92.1241 22.8804 93.6536 21.0931 95.8619 21.0931C98.0702 21.0931 99.633 22.9196 99.633 25.1144V25.1488C99.633 27.3437 98.1035 29.1309 95.8953 29.1309Z" fill="white"/>
<path fill-rule="evenodd" clip-rule="evenodd" d="M103.064 31.5077H105.855L106.993 28.6402H112.26L113.397 31.5077H116.26L110.931 18.6235H108.403L103.064 31.5077ZM107.977 26.1557L109.631 22.0066L111.285 26.1557H107.977Z" fill="white"/>
<path fill-rule="evenodd" clip-rule="evenodd" d="M118.187 31.5074H120.93V27.599L122.369 26.0621L126.23 31.5074H129.519L124.218 24.1422L129.289 18.7166H125.982L120.93 24.3092V18.7166H118.187V31.5074Z" fill="white"/>
<path fill-rule="evenodd" clip-rule="evenodd" d="M135.426 31.694C138.112 31.694 140 30.2701 140 27.7267V27.6923C140 25.4631 138.576 24.5302 136.053 23.8526C133.902 23.2879 133.366 23.0129 133.366 22.1733V22.134C133.366 21.5104 133.916 21.0194 134.968 21.0194C136.019 21.0194 137.104 21.4957 138.203 22.2813L139.628 20.1602C138.366 19.1192 136.817 18.5349 135.001 18.5349C132.459 18.5349 130.642 20.0718 130.642 22.3894V22.4237C130.642 24.9623 132.262 25.6791 134.772 26.3371C136.856 26.887 137.281 27.2504 137.281 27.9624V27.9967C137.281 28.748 136.607 29.2046 135.484 29.2046C134.059 29.2046 132.888 28.6007 131.765 27.653L130.145 29.6465C131.637 31.0164 133.543 31.694 135.426 31.694Z" fill="white"/>
<path fill-rule="evenodd" clip-rule="evenodd" d="M75.3441 41.5041C76.2955 41.5041 77.0312 41.1212 77.5668 40.6547V38.3371H75.3061V39.3535H76.4577V40.1146C76.1661 40.3306 75.7985 40.4337 75.3826 40.4337C74.46 40.4337 73.81 39.7169 73.81 38.7397V38.725C73.81 37.8166 74.4698 37.0605 75.3015 37.0605C75.9038 37.0605 76.2622 37.2569 76.6585 37.6006L77.3804 36.707C76.8403 36.2356 76.2714 35.9753 75.3395 35.9753C73.7668 35.9753 72.6152 37.2176 72.6152 38.7397V38.7545C72.6106 40.3355 73.7243 41.5041 75.3441 41.5041Z" fill="white"/>
<path fill-rule="evenodd" clip-rule="evenodd" d="M85.3516 41.4113H86.5175L86.9909 40.2132H89.1894L89.6629 41.4113H90.8576L88.6303 36.0298H87.5742L85.3516 41.4113ZM87.4022 39.1772L88.0948 37.4439L88.7879 39.1772H87.4022Z" fill="white"/>
<path fill-rule="evenodd" clip-rule="evenodd" d="M98.8066 41.4113H99.9249V37.9448L101.373 40.2083H101.407L102.869 37.9251V41.4113H104.007V36.0691H102.774L101.407 38.3278L100.04 36.0691H98.8066V41.4113Z" fill="white"/>
<path d="M113.583 36.0691H112.441V41.4113H113.583V36.0691Z" fill="white"/>
<path fill-rule="evenodd" clip-rule="evenodd" d="M122.02 41.4113H123.153V38.0135L125.672 41.4113H126.642V36.0691H125.514V39.3588L123.076 36.0691H122.02V41.4113Z" fill="white"/>
<path fill-rule="evenodd" clip-rule="evenodd" d="M137.53 41.5041C138.481 41.5041 139.217 41.1212 139.752 40.6547V38.3371H137.491V39.3535H138.644V40.1146C138.352 40.3306 137.984 40.4337 137.568 40.4337C136.646 40.4337 135.991 39.7169 135.991 38.7397V38.725C135.991 37.8166 136.65 37.0605 137.482 37.0605C138.084 37.0605 138.443 37.2569 138.839 37.6006L139.561 36.707C139.021 36.2356 138.452 35.9753 137.52 35.9753C135.948 35.9753 134.796 37.2176 134.796 38.7397V38.7545C134.796 40.3355 135.914 41.5041 137.53 41.5041Z" fill="white"/>
</g>
</g>
<defs>
<clipPath id="clip0_11278_7192">
<rect width="130" height="23.0089" fill="white" transform="translate(10 18.4956)"/>
</clipPath>
</defs>
</svg>
