<svg width="595" height="595" viewBox="0 0 595 595" fill="none" xmlns="http://www.w3.org/2000/svg">
<path d="M257.126 239.045L257.661 223.407L248.06 220.27C247.665 214.927 246.772 209.651 245.501 204.567L253.638 198.567L248.11 183.879L238.045 184.689C235.646 179.94 232.827 175.422 229.668 171.183L234.881 162.48L224.162 151.043L215.163 155.651C211.11 152.206 206.838 149.087 202.264 146.329L203.722 136.34L189.445 129.86L182.903 137.526C177.919 135.909 172.756 134.7 167.414 133.898L164.982 124.107L149.302 123.57L146.206 133.172C140.821 133.606 135.586 134.46 130.504 135.732L124.461 127.634L109.774 133.121L110.586 143.187C105.835 145.626 101.318 148.444 97.0791 151.605L88.4183 146.393L76.9396 157.07L81.5461 166.109C78.1034 170.121 74.982 174.436 72.2629 179.011L62.2764 177.513L55.7564 191.788L63.4628 198.33C61.8468 203.315 60.5937 208.519 59.8345 213.822L50.0003 216.292L49.4648 231.93L59.1062 235.07C59.5001 240.453 60.395 245.69 61.6671 250.771L53.5311 256.771L59.0586 271.461L69.1236 270.648C71.5227 275.397 74.3418 279.916 77.5012 284.154L72.2867 292.857L83.0074 304.295L92.005 299.686C96.0176 303.13 100.331 306.253 104.905 309.011L103.405 318.996L117.683 325.476L124.266 317.811C129.25 319.428 134.413 320.637 139.756 321.439L142.188 331.231L157.868 331.767L160.965 322.165C166.349 321.731 171.584 320.878 176.666 319.606L182.667 327.701L197.354 322.214L196.583 312.152C201.335 309.712 205.811 306.89 210.09 303.731L218.752 308.946L230.229 298.268L225.624 289.229C229.067 285.216 232.188 280.901 234.907 276.327L244.894 277.826L251.414 263.55L243.706 257.007C245.323 252.023 246.574 246.861 247.334 241.518L257.126 239.045ZM151.459 289.705C117.213 288.531 90.3961 259.812 91.5694 225.565C92.744 191.277 121.463 164.463 155.709 165.636C189.955 166.81 216.772 195.527 215.597 229.814C214.424 264.061 185.704 290.878 151.459 289.705Z" fill="#EBEBEB"/>
<path d="M524.739 187.334L528.683 183.65L527.107 180.545C528.314 179.145 529.382 177.641 530.312 176.092L533.759 176.613L535.993 171.684L533.34 169.428C533.914 167.684 534.328 165.896 534.591 164.092L537.985 163.241L538.16 157.838L534.842 156.767C534.693 154.939 534.412 153.137 533.97 151.349L536.761 149.269L534.86 144.208L531.396 144.482C530.575 142.872 529.611 141.317 528.504 139.82L530.299 136.839L526.606 132.885L523.508 134.47C522.089 133.262 520.605 132.195 519.055 131.265L519.556 127.817L514.637 125.574L512.381 128.226C510.628 127.662 508.839 127.248 507.034 126.985L506.193 123.602L500.79 123.407L499.71 126.734C497.891 126.873 496.079 127.164 494.3 127.617L492.23 124.817L487.16 126.708L487.443 130.183C485.833 131.004 484.259 131.968 482.781 133.075L479.781 131.28L475.837 134.963L477.422 138.079C476.206 139.488 475.147 140.983 474.217 142.532L470.77 142.011L468.535 146.941L471.188 149.198C470.614 150.941 470.2 152.73 469.937 154.534L466.543 155.384L466.368 160.788L469.686 161.858C469.825 163.676 470.115 165.49 470.557 167.277L467.757 169.347L469.658 174.408L473.133 174.144C473.954 175.754 474.918 177.307 476.026 178.806L474.232 181.787L477.924 185.741L481.021 184.155C482.439 185.362 483.924 186.43 485.474 187.36L484.963 190.798L489.883 193.041L492.148 190.399C493.902 190.963 495.681 191.366 497.495 191.639L498.336 195.022L503.739 195.217L504.819 191.89C506.638 191.751 508.45 191.46 510.229 191.007L512.299 193.808L517.37 191.917L517.086 188.443C518.695 187.622 520.26 186.668 521.748 185.551L524.739 187.334ZM496.636 164.568C493.735 161.461 493.901 156.588 497.008 153.686C500.119 150.781 504.992 150.948 507.893 154.056C510.794 157.163 510.628 162.037 507.517 164.941C504.41 167.843 499.537 167.675 496.636 164.568Z" fill="#EBEBEB"/>
<path d="M380.787 347.88L368.482 339.381C368.478 339.371 368.478 339.361 368.474 339.351C367.257 334.88 365.578 330.577 363.525 326.532L366.677 314.159L348.827 295.042L336.262 297.342C332.371 295.02 328.195 293.052 323.822 291.532C323.812 291.53 323.801 291.527 323.791 291.523L316.151 278.659L290.013 277.763L281.514 290.068C281.498 290.072 281.482 290.077 281.465 290.08C276.999 291.298 272.7 292.973 268.661 295.024L256.293 291.871L237.177 309.723L239.472 322.263C239.47 322.267 239.468 322.269 239.465 322.273C237.095 326.209 235.172 330.386 233.652 334.761L220.791 342.398L219.895 368.537L232.211 377.043C233.427 381.545 235.054 385.839 237.146 389.917C237.147 389.919 237.147 389.919 237.148 389.921L234.004 402.257L251.854 421.372L264.341 419.087C268.282 421.417 272.464 423.388 276.891 424.91C276.894 424.912 276.897 424.912 276.901 424.912L284.528 437.757L310.667 438.653L319.16 426.356C323.678 425.141 327.983 423.463 332.072 421.408C332.072 421.408 332.075 421.408 332.076 421.405L344.388 424.542L363.504 406.693L361.208 394.151C363.579 390.215 365.502 386.036 367.021 381.66L367.023 381.658L379.889 374.017L380.787 347.88ZM299.329 387.614C283.081 387.057 270.389 373.416 270.943 357.214C271.5 340.966 285.095 328.272 301.343 328.828C317.591 329.385 330.285 342.979 329.729 359.228C329.175 375.43 315.578 388.171 299.329 387.614Z" fill="#EBEBEB"/>
<path d="M408.822 273.645C408.794 273.645 408.765 273.646 408.736 273.644L388.129 272.939C387.274 272.91 386.492 272.446 386.055 271.711L380.506 262.367C377.556 261.297 374.649 259.947 371.839 258.347L362.906 259.981C362.063 260.14 361.202 259.851 360.618 259.224L346.545 244.155C345.96 243.529 345.735 242.648 345.946 241.819L348.193 233.001C346.828 230.208 345.685 227.225 344.791 224.112L335.829 217.923C335.124 217.437 334.716 216.624 334.745 215.77L335.45 195.163C335.479 194.307 335.943 193.525 336.678 193.088L346.039 187.53C347.149 184.491 348.495 181.598 350.049 178.905L348.408 169.941C348.255 169.099 348.539 168.235 349.165 167.652L364.236 153.578C364.862 152.993 365.743 152.769 366.572 152.979L375.42 155.235C378.282 153.842 381.256 152.695 384.284 151.818L390.469 142.863C390.954 142.159 391.753 141.723 392.623 141.78L413.23 142.487C414.085 142.516 414.867 142.979 415.304 143.715L420.864 153.076C423.817 154.158 426.702 155.503 429.464 157.089L438.453 155.442C439.297 155.288 440.158 155.573 440.743 156.198L454.816 171.271C455.4 171.897 455.625 172.778 455.414 173.607L453.158 182.458C454.551 185.321 455.697 188.294 456.576 191.319L465.53 197.502C466.235 197.988 466.643 198.8 466.614 199.656L465.909 220.264C465.88 221.12 465.416 221.902 464.681 222.339L455.317 227.9C454.206 230.938 452.863 233.829 451.311 236.519L452.952 245.487C453.106 246.328 452.821 247.192 452.195 247.775L437.124 261.845C436.499 262.431 435.62 262.657 434.789 262.444L425.982 260.2C423.079 261.602 420.089 262.747 417.071 263.615L410.893 272.563C410.42 273.241 409.647 273.645 408.822 273.645ZM389.674 267.963L407.534 268.576L413.45 260.01C413.788 259.521 414.29 259.167 414.865 259.012C418.155 258.128 421.419 256.876 424.569 255.292C424.575 255.29 424.58 255.287 424.586 255.284C425.111 255.026 425.722 254.946 426.321 255.102L434.696 257.235L447.759 245.039L446.196 236.502C446.086 235.9 446.2 235.279 446.515 234.753C448.238 231.893 449.7 228.756 450.859 225.43C451.049 224.84 451.453 224.344 451.979 224.034L460.931 218.717L461.543 200.856L452.971 194.935C452.522 194.626 452.187 194.178 452.014 193.663C451.993 193.599 451.974 193.531 451.957 193.462C451.061 190.18 449.814 186.955 448.252 183.877C447.975 183.333 447.908 182.708 448.056 182.118L450.203 173.695L438.006 160.63L429.451 162.196C428.851 162.307 428.233 162.194 427.711 161.882C424.736 160.106 421.594 158.639 418.374 157.519C418.192 157.456 418.008 157.372 417.849 157.275C417.502 157.061 417.213 156.767 417.006 156.417L411.684 147.458L393.823 146.845L387.903 155.418C387.551 155.928 387.024 156.288 386.424 156.432C383.119 157.337 379.905 158.58 376.84 160.135C376.296 160.411 375.67 160.48 375.082 160.329L366.663 158.182L353.6 170.381L355.163 178.917C355.261 179.452 355.182 180.006 354.939 180.492C354.904 180.561 354.866 180.628 354.826 180.695C353.099 183.565 351.635 186.711 350.478 190.047C350.282 190.606 349.897 191.08 349.388 191.382L340.429 196.702L339.818 214.563L348.397 220.489C348.887 220.826 349.24 221.327 349.396 221.901C350.32 225.323 351.565 228.573 353.097 231.56C353.185 231.731 353.254 231.912 353.3 232.1C353.401 232.504 353.4 232.926 353.298 233.329L351.158 241.724L363.356 254.785L371.85 253.231C372.446 253.123 373.06 253.233 373.58 253.54C376.609 255.331 379.766 256.797 382.967 257.902C383.545 258.085 384.046 258.477 384.364 259.013L389.674 267.963ZM400.706 245.395C400.266 245.395 399.827 245.387 399.384 245.371C378.623 244.659 362.312 227.191 363.024 206.431C363.735 185.671 381.232 169.365 401.964 170.069C422.725 170.781 439.036 188.249 438.325 209.011C437.981 219.054 433.743 228.371 426.394 235.241C419.36 241.817 410.281 245.395 400.706 245.395ZM400.661 175.073C383.17 175.073 368.65 188.99 368.047 206.603C367.43 224.594 381.565 239.732 399.557 240.348C408.275 240.64 416.587 237.53 422.963 231.569C429.333 225.615 433.005 217.542 433.303 208.838C433.919 190.848 419.783 175.708 401.793 175.092C401.414 175.08 401.036 175.073 400.661 175.073Z" fill="#EBEBEB"/>
<path d="M456.293 125.335L447.756 123.043L445.464 114.507L448.807 111.164L452.333 118.466L459.634 121.993L456.293 125.335Z" fill="#E0E0E0"/>
<path d="M456.822 119.62C458.377 118.064 458.377 115.53 456.822 113.974C455.267 112.419 452.744 112.431 451.188 113.986L455.434 107.616L461.13 110.495L462.378 116.479L456.822 119.62Z" fill="#E0E0E0"/>
<path d="M448.133 111.837L454.389 105.582L462.925 107.873L465.218 116.411L458.962 122.666L450.425 120.373L448.133 111.837ZM459.491 116.952C461.047 115.397 461.047 112.862 459.491 111.307C457.936 109.751 455.413 109.763 453.858 111.319C452.303 112.874 452.303 115.386 453.858 116.94C455.413 118.495 457.936 118.507 459.491 116.952Z" fill="#F0F0F0"/>
<path d="M107.363 353.083L111.943 351.852L113.173 347.272L111.38 345.479L109.488 349.397L105.569 351.289L107.363 353.083Z" fill="#E0E0E0"/>
<path d="M107.079 350.016C106.245 349.182 106.245 347.822 107.079 346.986C107.913 346.152 109.267 346.158 110.101 346.992L107.823 343.573L104.767 345.118L104.097 348.328L107.079 350.016Z" fill="#E0E0E0"/>
<path d="M111.742 345.84L108.385 342.483L103.805 343.714L102.574 348.295L105.931 351.652L110.512 350.422L111.742 345.84ZM105.646 348.585C104.811 347.75 104.811 346.39 105.646 345.555C106.48 344.721 107.834 344.727 108.668 345.561C109.502 346.395 109.502 347.743 108.668 348.577C107.835 349.413 106.481 349.419 105.646 348.585Z" fill="#F0F0F0"/>
<path d="M90.8724 101.938L94.6745 105.74C95.6646 106.73 97.2842 106.73 98.2742 105.74C99.2643 104.75 99.2643 103.13 98.2742 102.14L94.4722 98.3383C93.4821 97.3482 91.8625 97.3482 90.8724 98.3383C89.8824 99.3283 89.8824 100.949 90.8724 101.938Z" fill="#F0F0F0"/>
<path d="M88.1941 92.4692C91.1239 91.4172 94.3 92.7928 95.2877 95.5429C96.2754 98.293 94.701 101.375 91.7713 102.428C88.8415 103.48 85.6654 102.105 84.6777 99.3545C83.69 96.6044 85.2643 93.5223 88.1941 92.4692Z" fill="#E0E0E0"/>
<path d="M84.0505 98.7196L84.6016 100.254L95.9149 96.1907L95.3638 94.6564L84.0505 98.7196Z" fill="#F0F0F0"/>
<path d="M297.5 508.797C424.928 508.797 528.228 502.765 528.228 495.323C528.228 487.881 424.928 481.849 297.5 481.849C170.073 481.849 66.7725 487.881 66.7725 495.323C66.7725 502.765 170.073 508.797 297.5 508.797Z" fill="#F5F5F5"/>
<path d="M113.681 102.452C113.018 97.1198 113.988 92.7835 116.59 89.4409C119.192 86.1006 123.146 84.1012 128.449 83.4415C133.886 82.7653 138.257 83.7044 141.561 86.2588C144.866 88.812 146.845 92.7178 147.498 97.9773C147.973 101.796 147.719 105.007 146.739 107.61C145.756 110.214 144.136 112.347 141.877 114.008C139.616 115.67 136.674 116.724 133.049 117.175C129.365 117.634 126.243 117.426 123.682 116.554C121.122 115.68 118.934 114.066 117.117 111.711C115.301 109.357 114.155 106.272 113.681 102.452ZM123.781 101.243C124.191 104.542 125.099 106.835 126.504 108.123C127.908 109.413 129.665 109.924 131.776 109.661C133.945 109.393 135.536 108.479 136.549 106.92C137.561 105.362 137.842 102.754 137.386 99.1C137.004 96.0252 136.105 93.8553 134.688 92.5891C133.27 91.3252 131.5 90.8249 129.376 91.0893C127.34 91.3421 125.796 92.2661 124.741 93.8599C123.687 95.4549 123.367 97.9153 123.781 101.243Z" fill="#EBEBEB"/>
<path d="M151.817 102.328C151.368 98.7189 152.217 95.5916 154.363 92.9483C156.508 90.3049 159.654 88.7258 163.799 88.2119C168.538 87.6223 172.289 88.5507 175.053 90.9995C177.273 92.9717 178.586 95.5765 178.989 98.8149C179.441 102.456 178.605 105.587 176.479 108.212C174.354 110.837 171.159 112.415 166.895 112.945C163.093 113.418 159.897 112.836 157.309 111.195C154.129 109.162 152.299 106.207 151.817 102.328ZM160.907 101.177C161.169 103.285 161.79 104.792 162.771 105.698C163.75 106.602 164.886 106.973 166.179 106.812C167.485 106.649 168.497 106.018 169.212 104.918C169.928 103.819 170.149 102.169 169.877 99.972C169.622 97.9217 169.009 96.4467 168.037 95.5492C167.065 94.6516 165.955 94.2797 164.708 94.4358C163.385 94.5999 162.357 95.2455 161.622 96.3702C160.886 97.4936 160.648 99.0963 160.907 101.177Z" fill="#EBEBEB"/>
<path d="M185.998 119.171L181.937 86.5002L190.428 85.4435L190.863 88.9422C191.854 87.3265 192.806 86.1985 193.722 85.556C194.958 84.6943 196.378 84.1621 197.983 83.9641C201.147 83.5696 203.745 84.4769 205.777 86.6826C207.809 88.8895 209.047 91.775 209.49 95.3415C209.979 99.2786 209.409 102.4 207.78 104.708C206.151 107.014 203.895 108.348 201.013 108.706C199.617 108.879 198.314 108.8 197.102 108.467C195.892 108.134 194.775 107.558 193.753 106.735L195.157 118.033L185.998 119.171ZM192.509 97.2708C192.741 99.143 193.308 100.483 194.207 101.292C195.107 102.101 196.159 102.429 197.362 102.28C198.417 102.149 199.248 101.605 199.852 100.647C200.456 99.6889 200.63 98.1707 200.372 96.0902C200.134 94.1731 199.587 92.8123 198.733 92.0067C197.878 91.1988 196.916 90.8631 195.847 90.9952C194.689 91.1399 193.779 91.7136 193.119 92.7143C192.458 93.7173 192.255 95.2349 192.509 97.2708Z" fill="#EBEBEB"/>
<path d="M212.854 100.015L221.751 98.0487C222.255 99.0715 222.871 99.7731 223.596 100.152C224.322 100.528 225.242 100.648 226.357 100.51C227.574 100.358 228.486 99.9817 229.09 99.3786C229.562 98.9284 229.762 98.415 229.69 97.8349C229.609 97.1822 229.205 96.7195 228.477 96.4492C227.956 96.2583 226.617 96.1085 224.462 95.999C221.244 95.8428 218.994 95.6054 217.709 95.2912C216.425 94.9748 215.294 94.3137 214.317 93.3045C213.339 92.2964 212.761 91.0784 212.585 89.6542C212.392 88.0957 212.678 86.6976 213.443 85.4563C214.21 84.2152 215.352 83.2175 216.873 82.4633C218.393 81.7091 220.49 81.1658 223.164 80.8334C225.987 80.4824 228.097 80.4403 229.496 80.7024C230.893 80.9669 232.099 81.4955 233.11 82.2892C234.122 83.0843 235.02 84.216 235.806 85.688L227.309 87.604C226.992 86.8727 226.552 86.3621 225.988 86.0712C225.215 85.6828 224.324 85.5516 223.314 85.6788C222.288 85.8057 221.564 86.08 221.142 86.5017C220.719 86.9234 220.539 87.3945 220.605 87.9141C220.676 88.4929 221.028 88.8929 221.659 89.1152C222.289 89.3398 223.616 89.4441 225.635 89.4348C228.693 89.4027 230.996 89.5976 232.543 90.0241C234.09 90.4494 235.323 91.1781 236.243 92.2092C237.162 93.2401 237.707 94.4308 237.875 95.7824C238.044 97.1484 237.797 98.5277 237.134 99.9203C236.469 101.314 235.298 102.503 233.617 103.488C231.937 104.472 229.566 105.155 226.506 105.537C222.182 106.075 219.026 105.839 217.038 104.835C215.051 103.83 213.656 102.224 212.854 100.015Z" fill="#EBEBEB"/>
<path d="M244.697 73.6263L254.421 74.5457L253.716 82.0131L250.42 96.8369L244.406 96.2677L243.99 81.0936L244.697 73.6263ZM242.693 98.4067L251.769 99.2648L251.012 107.29L241.936 106.432L242.693 98.4067Z" fill="#EBEBEB"/>
<path d="M153.13 204.181C153.058 204.181 152.986 204.168 152.915 204.141C147.558 202.067 144.354 200.04 142.69 197.605C141.481 197.848 140.128 197.687 138.844 197.077C137.597 196.484 136.396 195.448 135.535 193.957C134.731 194.577 133.739 194.746 132.649 194.403C131.44 194.023 130.182 193.005 129.136 191.534C128.471 192.015 127.789 192.087 127.289 192.046C123.751 191.758 118.958 184.715 118.614 177.21C118.598 176.883 118.853 176.603 119.182 176.59C119.503 176.562 119.788 176.828 119.803 177.157C120.129 184.28 124.692 190.641 127.387 190.86C127.823 190.903 128.189 190.766 128.496 190.528C126.88 187.693 126.041 183.649 127.278 179.328C128.302 175.752 129.206 174.354 130.291 174.613C132.342 175.124 132.073 182.91 130.986 188.046C130.74 189.211 130.385 190.046 129.981 190.644C130.92 192.03 132.032 192.963 133.007 193.27C133.878 193.544 134.523 193.312 134.999 192.858C134.064 190.554 133.87 187.415 135.139 183.411C136.81 178.14 137.483 177.998 137.885 177.913C138.168 177.852 138.451 177.946 138.652 178.175C139.752 179.416 138.438 187.602 137.053 191.65C136.873 192.176 136.65 192.637 136.39 193.027C137.129 194.476 138.218 195.462 139.357 196.003C140.271 196.438 141.208 196.596 142.062 196.516C141.955 196.291 141.858 196.063 141.771 195.831C140.828 193.276 141.289 190.326 143.181 186.813C144.437 184.483 145.46 183.397 146.403 183.395C146.682 183.395 147.207 183.499 147.577 184.183C148.615 186.098 147.864 192.417 145.813 195.552C145.329 196.291 144.662 196.852 143.887 197.216C145.482 199.313 148.509 201.16 153.346 203.035C153.652 203.154 153.805 203.498 153.687 203.804C153.594 204.037 153.368 204.181 153.13 204.181ZM146.402 184.582C146.398 184.582 145.729 184.587 144.228 187.375C142.507 190.57 142.068 193.2 142.886 195.416C142.986 195.687 143.105 195.951 143.243 196.213C143.879 195.94 144.423 195.498 144.815 194.899C146.481 192.351 147.28 187.119 146.66 185.073C146.533 184.654 146.403 184.582 146.402 184.582ZM137.867 179.568C137.56 180.146 137.043 181.334 136.272 183.768C135.251 186.99 135.245 189.58 135.814 191.56C135.853 191.46 135.89 191.36 135.925 191.261C137.324 187.17 138.006 181.534 137.867 179.568ZM130.03 175.82C129.829 176.004 129.25 176.754 128.421 179.653C127.327 183.476 128.001 186.964 129.286 189.466C129.532 188.949 129.704 188.354 129.821 187.797C131.055 181.953 130.696 176.666 130.03 175.82Z" fill="#263238"/>
<path d="M198.371 266.556C196.556 266.556 194.647 266.142 192.943 265.141C192.66 264.974 192.565 264.611 192.731 264.326C192.897 264.042 193.262 263.95 193.545 264.113C197.79 266.606 203.277 264.866 204.407 263.05C204.537 262.837 204.658 262.567 204.582 262.252C202.902 262.429 200.837 261.984 198.476 260.507C195.447 258.614 195.214 258.051 195.233 257.601C195.245 257.335 195.396 257.103 195.639 256.979C196.824 256.378 202.19 258.852 204.427 260.323C204.72 260.516 204.967 260.724 205.167 260.944C206.156 260.704 206.922 260.192 207.432 259.582C207.781 259.162 208.015 258.705 208.13 258.246C208.052 258.258 207.972 258.268 207.892 258.275C205.989 258.467 204.081 257.65 202.048 255.771C200.651 254.48 200.108 253.59 200.289 252.884C200.346 252.659 200.534 252.26 201.145 252.107C202.791 251.698 206.853 253.429 208.514 255.251C208.888 255.661 209.143 256.143 209.278 256.66C210.831 255.931 212.474 254.294 214.418 251.578C214.61 251.31 214.981 251.249 215.249 251.441C215.516 251.631 215.577 252.004 215.387 252.27C213.139 255.412 211.265 257.192 209.382 257.918C209.308 258.756 208.962 259.608 208.348 260.346C207.745 261.068 206.865 261.689 205.752 262.025C205.871 262.56 205.764 263.127 205.419 263.681C204.414 265.296 201.536 266.556 198.371 266.556ZM197.314 258.302C197.714 258.598 198.288 258.988 199.106 259.501C200.721 260.511 202.16 260.976 203.39 261.074C201.418 259.852 198.84 258.77 197.314 258.302ZM201.467 253.247C201.534 253.433 201.798 253.922 202.855 254.899C204.623 256.534 206.232 257.261 207.771 257.093C207.897 257.08 208.024 257.062 208.152 257.036C208.067 256.674 207.894 256.34 207.635 256.054C205.961 254.218 202.28 253.056 201.467 253.247Z" fill="#263238"/>
<path d="M214.131 264.923L195.589 268.291L178.754 176.409L142.978 182.907L84.6807 286.436L90.9401 320.599L165.716 307.016L170.835 334.958L206.612 328.46L201.492 300.519L220.035 297.15L214.131 264.923ZM120.302 281.968L151.193 227.743L159.814 274.791L120.302 281.968Z" fill="#407BFF"/>
<path d="M363.462 170.16C362.769 163.813 361.502 158.173 359.657 153.241C357.814 148.308 355.04 143.473 351.339 138.736C347.638 133.999 342.599 129.886 336.222 126.4C329.843 122.916 321.425 120.49 310.966 119.127C289.199 116.291 272.23 120.157 260.056 130.718C247.879 141.281 239.87 161.516 236.02 191.421C234.454 203.584 234.066 214.827 234.857 225.151C235.646 235.475 237.541 243.778 240.543 250.062C244.65 258.89 250.462 265.941 257.975 271.21C265.488 276.481 275.78 279.969 288.856 281.672C312.176 284.71 329.458 280.234 340.703 268.24C351.946 256.248 359.406 235.977 363.081 207.43C364.722 194.693 364.848 182.271 363.462 170.16Z" fill="#407BFF"/>
<path d="M299.601 269.455C296.739 269.357 293.694 269.099 290.549 268.689C279.656 267.27 271.227 264.513 265.496 260.492C259.841 256.527 255.563 251.31 252.415 244.539L252.357 244.416C250.069 239.629 248.574 232.81 247.912 224.153C247.193 214.766 247.56 204.317 249.005 193.091C253.252 160.103 262.025 146.34 268.636 140.604C276.345 133.916 286.749 130.894 300.445 131.363C303.251 131.459 306.222 131.71 309.276 132.108C318.065 133.252 325.02 135.197 329.946 137.887C334.717 140.495 338.445 143.492 341.025 146.795C343.886 150.455 346.029 154.167 347.396 157.825C348.852 161.716 349.879 166.344 350.45 171.579C351.717 182.656 351.597 194.133 350.101 205.758C346.801 231.389 340.428 249.399 331.157 259.285C324.28 266.622 313.959 269.949 299.605 269.456C299.603 269.455 299.601 269.455 299.601 269.455Z" fill="#263238"/>
<path d="M322.89 170.512L323.045 166.004L320.278 165.099C320.164 163.56 319.907 162.039 319.54 160.573L321.886 158.844L320.292 154.61L317.391 154.843C316.7 153.474 315.887 152.171 314.977 150.949L316.48 148.441L313.389 145.144L310.795 146.472C309.626 145.48 308.395 144.58 307.076 143.785L307.496 140.905L303.381 139.037L301.496 141.247C300.06 140.781 298.571 140.432 297.032 140.201L296.331 137.378L291.811 137.224L290.918 139.992C289.366 140.117 287.858 140.363 286.393 140.729L284.651 138.396L280.417 139.977L280.651 142.879C279.281 143.582 277.98 144.393 276.757 145.305L274.261 143.803L270.953 146.88L272.281 149.485C271.288 150.642 270.389 151.886 269.604 153.204L266.726 152.772L264.847 156.887L267.069 158.773C266.602 160.211 266.241 161.71 266.022 163.238L263.188 163.95L263.033 168.458L265.812 169.363C265.925 170.915 266.183 172.424 266.55 173.889L264.204 175.618L265.798 179.852L268.699 179.617C269.39 180.986 270.203 182.289 271.113 183.511L269.61 186.02L272.701 189.317L275.294 187.989C276.45 188.981 277.694 189.881 279.011 190.677L278.579 193.556L282.694 195.424L284.592 193.214C286.029 193.681 287.517 194.029 289.057 194.26L289.758 197.083L294.278 197.238L295.17 194.47C296.722 194.345 298.231 194.098 299.696 193.732L301.426 196.066L305.66 194.484L305.438 191.583C306.807 190.88 308.097 190.067 309.331 189.155L311.828 190.658L315.136 187.58L313.808 184.975C314.801 183.818 315.7 182.575 316.483 181.256L319.362 181.688L321.241 177.573L319.019 175.687C319.486 174.25 319.846 172.762 320.065 171.222L322.89 170.512ZM292.432 185.114C282.561 184.776 274.831 176.497 275.169 166.626C275.508 156.743 283.786 149.014 293.657 149.352C303.528 149.69 311.258 157.968 310.919 167.851C310.582 177.722 302.303 185.452 292.432 185.114Z" fill="#407BFF"/>
<path opacity="0.3" d="M341.675 253.309L342.003 250.271L340.176 249.526C340.17 248.481 340.08 247.447 339.906 246.439L341.572 245.381L340.726 242.442L338.748 242.458C338.349 241.497 337.879 240.575 337.325 239.707L338.453 238.089L336.543 235.711L334.721 236.471C333.994 235.75 333.208 235.082 332.352 234.482L332.794 232.547L330.116 231.078L328.716 232.491C327.756 232.082 326.763 231.783 325.769 231.555L325.432 229.608L322.394 229.268L321.649 231.094C320.604 231.1 319.584 231.205 318.562 231.379L317.505 229.698L314.565 230.559L314.58 232.537C313.633 232.936 312.712 233.406 311.83 233.961L310.212 232.819L307.835 234.728L308.594 236.55C307.886 237.279 307.206 238.063 306.605 238.92L304.683 238.491L303.213 241.17L304.614 242.555C304.219 243.531 303.907 244.509 303.677 245.517L301.731 245.84L301.403 248.878L303.229 249.637C303.222 250.667 303.325 251.701 303.5 252.711L301.821 253.767L302.681 256.708L304.659 256.705C305.059 257.653 305.528 258.574 306.084 259.442L304.942 261.061L306.852 263.452L308.69 262.679C309.417 263.4 310.201 264.068 311.059 264.669L310.616 266.604L313.295 268.075L314.693 266.674C315.655 267.069 316.647 267.368 317.642 267.596L317.979 269.543L321.017 269.883L321.762 268.057C322.792 268.051 323.826 267.947 324.849 267.774L325.905 269.453L328.832 268.592L328.83 266.615C329.778 266.215 330.699 265.746 331.581 265.191L333.185 266.333L335.575 264.424L334.802 262.601C335.523 261.874 336.191 261.088 336.805 260.233L338.725 260.66L340.195 257.981L338.794 256.596C339.189 255.621 339.488 254.642 339.717 253.647L341.675 253.309ZM326.356 252.13C324.945 254.699 321.709 255.647 319.14 254.236C316.571 252.825 315.637 249.59 317.048 247.021C318.46 244.452 321.68 243.518 324.25 244.928C326.819 246.339 327.767 249.561 326.356 252.13Z" fill="#407BFF"/>
<path d="M358.535 201.882L354.987 199.432C354.986 199.43 354.986 199.426 354.985 199.424C354.634 198.135 354.15 196.895 353.558 195.729L354.467 192.162L349.322 186.652L345.701 187.314C344.58 186.644 343.375 186.078 342.115 185.64C342.113 185.639 342.109 185.639 342.106 185.638L339.904 181.93L332.37 181.671L329.92 185.219C329.915 185.22 329.911 185.221 329.906 185.222C328.618 185.573 327.38 186.057 326.214 186.647L322.649 185.738L317.14 190.883L317.801 194.498C317.8 194.5 317.8 194.501 317.799 194.502C317.116 195.636 316.561 196.84 316.123 198.102L312.416 200.303L312.158 207.837L315.708 210.289C316.058 211.586 316.528 212.823 317.13 213.999C317.13 214 317.13 214 317.13 214L316.224 217.556L321.369 223.066L324.969 222.407C326.104 223.079 327.309 223.647 328.586 224.085C328.587 224.087 328.589 224.087 328.59 224.087L330.788 227.789L338.322 228.047L340.769 224.502C342.071 224.152 343.312 223.668 344.492 223.075C344.492 223.075 344.493 223.075 344.493 223.074L348.041 223.978L353.551 218.834L352.89 215.219C353.573 214.085 354.127 212.879 354.565 211.619L358.273 209.415L358.535 201.882ZM335.055 213.336C330.371 213.175 326.713 209.244 326.873 204.574C327.033 199.89 330.952 196.232 335.635 196.392C340.318 196.552 343.976 200.471 343.817 205.154C343.658 209.823 339.738 213.497 335.055 213.336Z" fill="white"/>
<path d="M384.421 141.758L385.041 140.262C385.042 140.262 385.044 140.261 385.045 140.261C385.49 140.031 385.908 139.755 386.29 139.445L387.671 139.498L389.29 137.175L388.761 135.897C388.918 135.433 389.033 134.946 389.093 134.449C389.093 134.447 389.093 134.446 389.093 134.445L390.281 133.344L389.782 130.557L388.286 129.937C388.285 129.936 388.285 129.934 388.284 129.933C388.054 129.487 387.78 129.071 387.47 128.689L387.522 127.309L385.2 125.69L383.924 126.217H383.923C383.453 126.056 382.967 125.947 382.47 125.885L381.369 124.698L378.582 125.196L377.961 126.693C377.512 126.924 377.094 127.194 376.71 127.509L375.333 127.456L373.716 129.779L374.241 131.049C374.084 131.519 373.97 132.006 373.91 132.509L372.724 133.608L373.222 136.395L374.717 137.015C374.948 137.466 375.224 137.884 375.534 138.27L375.482 139.644L377.805 141.263L379.081 140.734C379.551 140.896 380.037 141.004 380.535 141.066L381.636 142.255L384.421 141.758ZM378.365 134.038C378.056 132.305 379.211 130.653 380.938 130.343C382.671 130.034 384.323 131.183 384.633 132.916C384.944 134.649 383.792 136.3 382.06 136.611C380.334 136.92 378.676 135.771 378.365 134.038Z" fill="#407BFF"/>
<path d="M351.772 133.862L350.863 133.094C352.444 131.224 354.684 128.853 358.013 127.11L358.565 128.165C355.016 130.023 352.743 132.714 351.772 133.862Z" fill="#407BFF"/>
<path d="M361.274 127.094L360.804 126C365.305 124.072 370.008 123.32 374.773 123.762L374.662 124.948C370.093 124.512 365.59 125.243 361.274 127.094Z" fill="#407BFF"/>
<path d="M359.027 135.327L358.044 134.657C360.488 131.066 365.318 127.94 369.79 127.054L370.021 128.22C365.83 129.053 361.309 131.974 359.027 135.327Z" fill="#407BFF"/>
<path d="M280.059 249.849C279.899 249.849 279.744 249.784 279.631 249.668L277.136 247.096C275.865 246.976 274.608 246.743 273.392 246.399L269.503 248.114C269.319 248.198 269.105 248.177 268.935 248.066L262.419 243.746C262.25 243.633 262.15 243.444 262.153 243.241L262.217 239.001C261.426 238.015 260.72 236.946 260.115 235.815L256.778 234.52C256.588 234.447 256.45 234.284 256.409 234.085L254.856 226.424C254.815 226.225 254.879 226.019 255.025 225.877L257.596 223.383C257.715 222.118 257.948 220.86 258.291 219.636L256.579 215.752C256.497 215.566 256.516 215.352 256.626 215.182L260.945 208.665C261.057 208.496 261.216 208.391 261.451 208.399L265.688 208.464C266.683 207.669 267.754 206.963 268.876 206.364L270.171 203.023C270.245 202.834 270.409 202.696 270.608 202.654L278.269 201.1C278.468 201.062 278.673 201.124 278.814 201.269L281.306 203.839C282.572 203.958 283.831 204.192 285.058 204.535L288.941 202.822C289.125 202.741 289.339 202.759 289.51 202.871L296.025 207.19C296.194 207.303 296.294 207.492 296.291 207.695L296.227 211.938C297.02 212.924 297.724 213.994 298.326 215.121L301.667 216.417C301.856 216.491 301.994 216.654 302.036 216.852L303.589 224.514C303.629 224.712 303.565 224.918 303.42 225.06L300.847 227.555C300.729 228.806 300.496 230.061 300.151 231.295L301.865 235.186C301.948 235.371 301.928 235.587 301.818 235.756L297.5 242.273C297.389 242.442 297.21 242.527 296.996 242.54L292.756 242.475C291.768 243.263 290.698 243.967 289.573 244.569L288.274 247.916C288.202 248.105 288.036 248.243 287.838 248.285L280.176 249.839C280.137 249.845 280.098 249.849 280.059 249.849ZM273.351 245.172C273.407 245.172 273.464 245.18 273.518 245.197C274.793 245.571 276.117 245.818 277.459 245.93C277.603 245.942 277.736 246.005 277.836 246.109L280.259 248.606L287.282 247.182L288.543 243.931C288.596 243.796 288.696 243.684 288.823 243.618C290.017 242.995 291.144 242.255 292.173 241.415C292.281 241.327 292.404 241.266 292.557 241.282L296.688 241.345L300.647 235.371L298.976 231.582C298.92 231.455 298.911 231.31 298.95 231.175C299.326 229.877 299.572 228.551 299.683 227.235C299.695 227.091 299.758 226.958 299.861 226.857L302.359 224.434L300.936 217.412L297.691 216.153C297.553 216.099 297.44 215.997 297.373 215.865C296.754 214.675 296.013 213.553 295.17 212.526C295.081 212.416 295.032 212.279 295.035 212.139L295.098 208.005L289.124 204.046L285.345 205.712C285.216 205.768 285.073 205.777 284.939 205.739C283.649 205.364 282.318 205.117 280.984 205.006C280.84 204.994 280.707 204.93 280.607 204.829L278.188 202.333L271.165 203.758L269.907 207.003C269.854 207.137 269.754 207.249 269.626 207.316C268.441 207.933 267.313 208.676 266.275 209.522C266.167 209.61 266.021 209.673 265.888 209.658L261.759 209.593L257.8 215.567L259.468 219.35C259.539 219.513 259.535 219.699 259.456 219.857C259.121 221.046 258.874 222.373 258.762 223.704C258.751 223.847 258.687 223.98 258.584 224.082L256.087 226.503L257.511 233.525L260.754 234.783C260.9 234.839 261.016 234.95 261.079 235.089C261.696 236.27 262.436 237.391 263.274 238.41C263.363 238.52 263.413 238.659 263.411 238.8L263.347 242.931L269.321 246.892L273.11 245.221C273.186 245.19 273.269 245.172 273.351 245.172ZM279.203 241.322C276.195 241.322 273.155 240.47 270.465 238.688C266.935 236.348 264.527 232.773 263.683 228.624C262.839 224.473 263.664 220.243 266.004 216.712H266.005C270.842 209.423 280.704 207.422 287.988 212.249C295.273 217.084 297.272 226.946 292.443 234.234C289.395 238.83 284.345 241.322 279.203 241.322ZM266.996 217.37C264.833 220.634 264.07 224.547 264.85 228.387C265.63 232.226 267.858 235.532 271.123 237.695C277.867 242.162 286.984 240.314 291.449 233.575C295.917 226.835 294.069 217.713 287.33 213.242C280.592 208.776 271.47 210.627 266.996 217.37Z" fill="white"/>
<path d="M506.734 275.663L488.057 273.143L500.409 180.551L464.374 175.689L376.965 256.164L372.373 290.589L447.691 300.754L443.935 328.912L479.969 333.775L483.725 305.617L502.402 308.137L506.734 275.663ZM412.226 262.909L458.348 220.869L452.023 268.279L412.226 262.909Z" fill="#407BFF"/>
<path d="M469.02 332.892C468.984 332.892 468.949 332.888 468.913 332.882C468.591 332.823 468.375 332.513 468.435 332.19L496.193 179.953C496.251 179.632 496.564 179.429 496.884 179.475C497.208 179.534 497.422 179.845 497.362 180.167L469.604 332.404C469.552 332.691 469.302 332.892 469.02 332.892Z" fill="#263238"/>
<path d="M493.649 182.51C493.63 183.048 493.179 183.469 492.641 183.451C492.103 183.432 491.682 182.981 491.7 182.443C491.718 181.905 492.17 181.484 492.708 181.502C493.247 181.52 493.668 181.971 493.649 182.51Z" fill="#263238"/>
<path d="M489.684 203.098C489.665 203.636 489.214 204.057 488.676 204.04C488.138 204.022 487.717 203.57 487.735 203.032C487.753 202.494 488.205 202.073 488.743 202.09C489.281 202.108 489.702 202.559 489.684 203.098Z" fill="#263238"/>
<path d="M485.718 223.685C485.699 224.223 485.248 224.644 484.71 224.627C484.172 224.609 483.751 224.156 483.769 223.619C483.787 223.081 484.239 222.659 484.777 222.677C485.316 222.696 485.737 223.147 485.718 223.685Z" fill="#263238"/>
<path d="M477.919 245.118C477.9 245.656 477.449 246.077 476.912 246.06C476.374 246.041 475.952 245.59 475.97 245.052C475.988 244.514 476.44 244.093 476.978 244.11C477.516 244.128 477.939 244.579 477.919 245.118Z" fill="#263238"/>
<path d="M477.787 264.862C477.768 265.399 477.317 265.821 476.779 265.803C476.241 265.784 475.82 265.333 475.837 264.795C475.855 264.257 476.307 263.836 476.845 263.854C477.384 263.871 477.806 264.324 477.787 264.862Z" fill="#263238"/>
<path d="M473.822 285.45C473.803 285.988 473.352 286.409 472.814 286.391C472.276 286.373 471.855 285.921 471.873 285.383C471.89 284.845 472.343 284.424 472.881 284.442C473.418 284.46 473.84 284.911 473.822 285.45Z" fill="#263238"/>
<path d="M469.855 306.038C469.836 306.576 469.385 306.997 468.847 306.979C468.309 306.96 467.888 306.509 467.906 305.971C467.925 305.433 468.376 305.012 468.914 305.03C469.453 305.048 469.874 305.499 469.855 306.038Z" fill="#263238"/>
<path d="M465.89 326.625C465.871 327.163 465.42 327.584 464.882 327.566C464.344 327.548 463.923 327.096 463.941 326.558C463.959 326.02 464.411 325.599 464.949 325.617C465.487 325.635 465.908 326.087 465.89 326.625Z" fill="#263238"/>
<path d="M476.946 245.68C476.672 245.68 476.424 245.489 476.365 245.209C476.296 244.887 476.501 244.572 476.822 244.502L479.778 243.868C480.104 243.803 480.416 244.002 480.485 244.326C480.554 244.647 480.349 244.962 480.028 245.033L477.072 245.667C477.029 245.675 476.987 245.68 476.946 245.68Z" fill="#263238"/>
<path d="M486.812 234.716C486.812 234.716 484.149 241.653 483.253 245.856C482.356 250.059 482.302 259.45 482.302 259.45" fill="#263238"/>
<path d="M482.302 260.046H482.298C481.97 260.043 481.705 259.776 481.707 259.447C481.709 259.062 481.771 249.946 482.671 245.731C483.567 241.532 486.147 234.789 486.256 234.502C486.374 234.196 486.717 234.044 487.025 234.161C487.332 234.279 487.486 234.624 487.368 234.93C487.342 235 484.712 241.872 483.835 245.98C482.961 250.076 482.898 259.361 482.897 259.454C482.895 259.783 482.629 260.046 482.302 260.046Z" fill="#263238"/>
<path d="M264.718 362.761C266.371 336.101 263.33 287.64 313.441 294.055C367.152 300.931 351.785 363.737 351.785 363.737L264.718 362.761Z" fill="#263238"/>
<path d="M299.302 346.736C311.378 346.736 321.168 336.946 321.168 324.87C321.168 312.793 311.378 303.003 299.302 303.003C287.225 303.003 277.436 312.793 277.436 324.87C277.436 336.946 287.225 346.736 299.302 346.736Z" fill="white"/>
<path d="M302.174 303.038C291.816 301.27 280.742 308.905 279.65 316.64L320.714 320.416C319.267 311.598 310.392 304.441 302.174 303.038Z" fill="#263238"/>
<path d="M316.035 324.326C315.741 330.043 312.626 334.529 309.076 334.347C305.526 334.165 302.887 329.382 303.179 323.666C303.473 317.949 306.589 313.462 310.139 313.645C313.688 313.827 316.329 318.609 316.035 324.326Z" fill="#263238"/>
<path d="M299.302 347.926C286.588 347.926 276.244 337.584 276.244 324.87C276.244 312.156 286.588 301.813 299.302 301.813C312.016 301.813 322.358 312.156 322.358 324.87C322.358 337.584 312.014 347.926 299.302 347.926ZM299.302 304.193C287.9 304.193 278.624 313.468 278.624 324.87C278.624 336.271 287.899 345.546 299.302 345.546C310.703 345.546 319.978 336.271 319.978 324.87C319.978 313.468 310.702 304.193 299.302 304.193Z" fill="#407BFF"/>
<path opacity="0.3" d="M345.677 362.089C345.631 362.089 345.584 362.083 345.537 362.073C345.218 361.995 345.02 361.674 345.098 361.354C345.137 361.193 348.928 345.058 344.99 328.744C344.913 328.426 345.109 328.104 345.43 328.026C345.745 327.954 346.07 328.145 346.147 328.465C350.155 345.065 346.295 361.468 346.254 361.632C346.189 361.907 345.946 362.089 345.677 362.089Z" fill="white"/>
<path opacity="0.3" d="M342.361 319.823C342.135 319.823 341.919 319.695 341.819 319.476C340.289 316.137 338.391 313.071 336.176 310.364C335.968 310.109 336.006 309.736 336.261 309.527C336.514 309.318 336.889 309.355 337.099 309.611C339.376 312.396 341.329 315.549 342.901 318.981C343.038 319.279 342.907 319.633 342.608 319.768C342.527 319.805 342.444 319.823 342.361 319.823Z" fill="white"/>
<path d="M153.194 487.802C153.047 487.802 152.899 487.801 152.752 487.796C149.467 487.706 146.878 484.97 146.967 481.684C147.056 478.4 149.762 475.859 153.078 475.901C153.115 475.902 153.153 475.902 153.192 475.902C156.63 475.902 164.9 471.725 182.202 444.451C183.131 442.987 184.654 441.999 186.37 441.749C188.09 441.505 189.827 442.015 191.136 443.153C212.486 461.769 235.112 473.356 235.338 473.471C238.266 474.959 239.436 478.54 237.949 481.469C236.461 484.399 232.882 485.571 229.953 484.082C229.054 483.627 209.278 473.515 188.543 456.539C174.042 478.338 163.281 487.802 153.194 487.802Z" fill="#263238"/>
<path d="M190.008 442.085C189.839 442.085 189.67 442.073 189.498 442.049C187.547 441.771 186.19 439.962 186.47 438.009C187.316 432.086 186.268 409.894 178.765 392.639C178.08 391.067 178.611 389.231 180.028 388.265C196.329 377.156 231.051 375.828 232.522 375.777C234.482 375.734 236.144 377.25 236.213 379.221C236.282 381.19 234.74 382.844 232.77 382.912C232.449 382.924 202.092 384.088 186.494 392.672C193.139 409.854 194.645 431.272 193.537 439.019C193.283 440.801 191.756 442.085 190.008 442.085Z" fill="#263238"/>
<path d="M196.005 437.463C193.631 431.863 182.929 432.499 176.646 437.299C173.288 439.863 168.743 447.581 168.265 450.378C167.788 453.176 169.725 455.709 173.052 455.421C177.156 455.067 182.788 449.103 182.788 449.103C179.041 452.778 183.876 455.371 191.091 450.057C195.094 447.109 198.664 443.734 196.005 437.463Z" fill="#407BFF"/>
<path d="M400.68 364.332C400.626 364.332 400.57 364.324 400.516 364.308C400.2 364.217 400.017 363.887 400.109 363.572C401.694 358.051 403.425 354.677 405.702 352.802C405.353 351.616 405.392 350.255 405.884 348.923C406.362 347.628 407.287 346.34 408.694 345.348C408.005 344.603 407.748 343.628 407.992 342.513C408.262 341.274 409.163 339.931 410.534 338.757C409.995 338.137 409.863 337.463 409.859 336.963C409.83 333.414 416.413 328.008 423.856 326.992C424.182 326.931 424.482 327.174 424.526 327.501C424.57 327.826 424.343 328.126 424.017 328.171C416.951 329.136 411.026 334.251 411.049 336.953C411.053 337.391 411.215 337.743 411.48 338.028C414.159 336.163 418.113 334.964 422.526 335.811C426.178 336.509 427.663 337.281 427.492 338.39C427.168 340.476 419.389 340.906 414.176 340.286C412.994 340.146 412.129 339.866 411.498 339.518C410.202 340.578 409.372 341.768 409.155 342.766C408.961 343.658 409.249 344.279 409.744 344.713C411.953 343.574 415.062 343.098 419.164 344.005C424.563 345.196 424.764 345.854 424.886 346.246C424.971 346.526 424.902 346.814 424.694 347.034C423.556 348.239 415.286 347.667 411.13 346.649C410.589 346.517 410.112 346.336 409.699 346.113C408.322 346.98 407.437 348.151 407 349.335C406.65 350.285 406.57 351.231 406.731 352.076C406.945 351.948 407.164 351.832 407.388 351.725C409.85 350.556 412.827 350.752 416.496 352.321C418.93 353.363 420.103 354.284 420.189 355.223C420.215 355.501 420.16 356.033 419.51 356.463C417.696 357.669 411.335 357.486 408.029 355.725C407.25 355.309 406.632 354.696 406.199 353.957C404.253 355.734 402.685 358.915 401.253 363.9C401.176 364.163 400.938 364.332 400.68 364.332ZM407.136 353.228C407.464 353.837 407.953 354.339 408.586 354.676C411.272 356.105 416.554 356.432 418.537 355.633C418.942 355.468 419.002 355.332 419.002 355.332C419.002 355.328 418.937 354.662 416.026 353.417C412.69 351.99 410.031 351.79 407.897 352.8C407.638 352.924 407.383 353.066 407.136 353.228ZM411.103 345.412C411.205 345.442 411.309 345.47 411.41 345.495C415.612 346.523 421.285 346.699 423.23 346.379C422.628 346.125 421.398 345.718 418.905 345.168C415.605 344.441 413.025 344.668 411.103 345.412ZM412.605 338.722C413.141 338.922 413.748 339.039 414.315 339.106C420.245 339.808 425.479 338.979 426.262 338.24C426.06 338.056 425.262 337.547 422.301 336.981C418.394 336.237 414.981 337.216 412.605 338.722Z" fill="#263238"/>
<path d="M245.767 485.815C246.551 485.564 246.288 484.807 245.414 484.807H229.302C198.623 481.558 177.187 485.912 190.695 486.939C204.201 487.966 189.744 487.751 179.88 491.482C170.016 495.214 253.249 496.154 260.818 491.482C267.799 487.173 234.896 489.299 245.767 485.815Z" fill="#263238"/>
<path d="M361.128 490.563L220.944 485.916L215.126 349.992L380.668 353.694L361.128 490.563Z" fill="#407BFF"/>
<path d="M264.718 487.963C264.411 487.963 264.15 487.729 264.125 487.417L252.888 350.899C252.86 350.572 253.104 350.284 253.433 350.257C253.77 350.238 254.048 350.474 254.074 350.801L265.311 487.319C265.338 487.646 265.095 487.934 264.766 487.961C264.75 487.962 264.733 487.963 264.718 487.963Z" fill="#263238"/>
<path d="M361.128 490.563L398.806 484.828L410.674 358.438L380.668 353.694L361.128 490.563Z" fill="#407BFF"/>
<path opacity="0.2" d="M361.128 490.563L398.806 484.828L410.674 358.438L380.668 353.694L361.128 490.563Z" fill="black"/>
<path d="M232.923 459.716L229.468 378.961C229.107 370.531 235.946 363.552 244.381 363.741L349.171 366.084C357.922 366.279 364.535 374.079 363.297 382.744L351.68 464.129C350.626 471.505 344.188 476.905 336.743 476.658L247.027 473.684C239.397 473.43 233.251 467.342 232.923 459.716Z" fill="#263238"/>
<path d="M244.244 388.521L260.457 389.037L260.324 393.217L250.174 392.895L250.075 396.007L259.491 396.307L259.363 400.299L249.948 399.999L249.826 403.858L260.269 404.19L260.129 408.624L243.622 408.1L244.244 388.521Z" fill="white"/>
<path d="M263.467 408.73L264.089 389.152L274.172 389.474C276.042 389.533 277.466 389.739 278.443 390.091C279.421 390.443 280.198 391.062 280.777 391.95C281.355 392.838 281.624 393.904 281.583 395.151C281.549 396.238 281.287 397.167 280.799 397.94C280.311 398.714 279.653 399.333 278.827 399.796C278.301 400.091 277.585 400.326 276.678 400.503C277.391 400.767 277.909 401.024 278.23 401.274C278.447 401.441 278.758 401.795 279.164 402.334C279.57 402.873 279.84 403.287 279.973 403.577L282.722 409.344L275.887 409.126L272.844 403.041C272.458 402.254 272.11 401.739 271.797 401.497C271.37 401.181 270.881 401.013 270.328 400.995L269.794 400.979L269.542 408.925L263.467 408.73ZM269.914 397.279L272.464 397.36C272.74 397.368 273.277 397.297 274.076 397.144C274.479 397.077 274.812 396.883 275.076 396.561C275.341 396.24 275.48 395.865 275.493 395.438C275.513 394.806 275.329 394.315 274.938 393.964C274.548 393.612 273.802 393.42 272.698 393.384L270.04 393.299L269.914 397.279Z" fill="white"/>
<path d="M284.74 409.407L285.363 389.83L295.445 390.151C297.315 390.21 298.739 390.416 299.716 390.769C300.695 391.121 301.472 391.74 302.05 392.627C302.628 393.515 302.897 394.582 302.857 395.828C302.822 396.915 302.56 397.844 302.073 398.618C301.583 399.391 300.927 400.01 300.101 400.473C299.575 400.768 298.858 401.004 297.952 401.18C298.664 401.444 299.182 401.701 299.503 401.951C299.721 402.119 300.032 402.472 300.439 403.011C300.845 403.55 301.115 403.964 301.248 404.255L303.997 410.021L297.16 409.804L294.117 403.718C293.733 402.931 293.383 402.416 293.07 402.175C292.643 401.858 292.154 401.69 291.602 401.672L291.067 401.656L290.815 409.601L284.74 409.407ZM291.188 397.956L293.738 398.037C294.014 398.045 294.551 397.974 295.349 397.82C295.753 397.753 296.086 397.559 296.35 397.237C296.614 396.916 296.753 396.541 296.766 396.114C296.787 395.482 296.602 394.991 296.212 394.64C295.822 394.289 295.074 394.096 293.971 394.06L291.314 393.976L291.188 397.956Z" fill="white"/>
<path d="M305.016 400.267C305.119 397.071 306.087 394.611 307.925 392.887C309.762 391.164 312.269 390.352 315.448 390.453C318.706 390.557 321.19 391.511 322.896 393.316C324.604 395.122 325.407 397.6 325.307 400.753C325.234 403.041 324.789 404.906 323.973 406.346C323.156 407.786 322.007 408.89 320.526 409.659C319.044 410.427 317.217 410.776 315.045 410.707C312.837 410.637 311.021 410.227 309.597 409.478C308.172 408.728 307.035 407.579 306.184 406.027C305.333 404.475 304.944 402.556 305.016 400.267ZM311.065 400.486C311.002 402.463 311.325 403.894 312.031 404.781C312.738 405.667 313.724 406.131 314.989 406.172C316.288 406.214 317.308 405.822 318.047 405C318.786 404.176 319.19 402.67 319.261 400.479C319.319 398.637 318.991 397.278 318.274 396.404C317.558 395.53 316.563 395.073 315.29 395.032C314.07 394.993 313.076 395.394 312.31 396.234C311.544 397.074 311.128 398.492 311.065 400.486Z" fill="white"/>
<path d="M328.33 410.794L328.952 391.216L339.035 391.537C340.905 391.597 342.329 391.802 343.306 392.155C344.284 392.507 345.061 393.126 345.64 394.014C346.218 394.901 346.487 395.969 346.447 397.215C346.412 398.301 346.15 399.23 345.662 400.004C345.174 400.777 344.516 401.396 343.691 401.859C343.163 402.154 342.447 402.39 341.541 402.566C342.254 402.83 342.772 403.087 343.093 403.337C343.31 403.505 343.622 403.858 344.027 404.397C344.433 404.937 344.703 405.351 344.837 405.641L347.585 411.408L340.75 411.19L337.707 405.104C337.322 404.318 336.973 403.802 336.66 403.561C336.233 403.244 335.744 403.077 335.192 403.059L334.657 403.042L334.405 410.988L328.33 410.794ZM334.777 399.342L337.328 399.423C337.604 399.432 338.14 399.36 338.939 399.207C339.342 399.139 339.676 398.945 339.94 398.624C340.204 398.302 340.343 397.927 340.356 397.5C340.376 396.868 340.192 396.377 339.802 396.026C339.411 395.675 338.665 395.482 337.561 395.446L334.904 395.362L334.777 399.342Z" fill="white"/>
<path d="M337.959 444.058C337.535 444.058 337.114 443.886 336.805 443.55L326.617 432.401L315.625 442.443C314.988 443.026 314.001 442.98 313.419 442.344L303.231 431.195L292.239 441.237C291.602 441.819 290.614 441.774 290.033 441.139L279.845 429.99L268.853 440.033C268.549 440.313 268.137 440.459 267.73 440.441C267.316 440.422 266.927 440.24 266.647 439.934L256.459 428.785L245.467 438.828C244.831 439.41 243.843 439.363 243.261 438.729C242.679 438.092 242.724 437.103 243.361 436.521L255.505 425.425C256.142 424.84 257.129 424.887 257.712 425.524L267.9 436.673L278.892 426.629C279.197 426.349 279.607 426.204 280.015 426.221C280.43 426.24 280.819 426.422 281.098 426.728L291.286 437.877L302.278 427.834C302.913 427.251 303.902 427.297 304.484 427.933L314.672 439.082L325.664 429.04C326.301 428.456 327.288 428.501 327.871 429.139L339.112 441.441C339.694 442.078 339.649 443.066 339.012 443.648C338.712 443.923 338.335 444.058 337.959 444.058Z" fill="white"/>
<path d="M149.643 493.453L142.196 489.901L135.552 457.573L139.157 453.602L149.643 493.453Z" fill="#407BFF"/>
<path d="M149.642 493.453L159.525 487.68L151.052 461.044L139.157 453.602L149.642 493.453Z" fill="#407BFF"/>
<path opacity="0.2" d="M149.642 493.453L159.525 487.68L151.052 461.044L139.157 453.602L149.642 493.453Z" fill="black"/>
<path d="M311.72 499.33C311.439 499.33 311.164 499.325 310.897 499.318C307.613 499.227 305.022 496.492 305.113 493.206C305.203 489.923 307.916 487.341 311.223 487.423C320.39 487.723 339.79 482.091 350.873 471.333C351.558 470.667 352.393 470.177 353.308 469.903C372.095 464.265 379.088 475.656 379.377 476.144L369.135 482.201C369.135 482.201 369.174 482.283 369.272 482.419C369.157 482.262 366.498 478.802 358.024 480.943C344.116 493.638 322.767 499.33 311.72 499.33Z" fill="#263238"/>
<path d="M311.06 507.24L289.387 505.874L287.677 465.918L316.804 467.007L311.06 507.24Z" fill="#407BFF"/>
<path d="M311.061 507.24L316.126 502.198L319.267 477.284L316.805 467.007L311.061 507.24Z" fill="#407BFF"/>
<path opacity="0.2" d="M311.061 507.24L316.126 502.198L319.267 477.284L316.805 467.007L311.061 507.24Z" fill="black"/>
<path d="M436.623 492.109C435.871 492.109 435.112 491.872 434.466 491.382C422.096 481.981 405.376 465.29 398.96 449.188C398.866 448.954 398.798 448.708 398.756 448.459C395.628 429.855 392.638 390.695 392.512 389.036C392.364 387.071 393.836 385.355 395.801 385.207C397.761 385.063 399.482 386.53 399.631 388.497C399.662 388.897 402.681 428.44 405.733 446.894C412.133 462.549 429.482 478.626 438.785 485.696C440.355 486.89 440.661 489.129 439.467 490.699C438.766 491.623 437.701 492.109 436.623 492.109Z" fill="#263238"/>
<path d="M453.126 493.913C450.367 493.913 447.237 492.661 443.828 490.194C442.231 489.038 441.873 486.806 443.029 485.209C444.186 483.612 446.417 483.254 448.014 484.41C450.962 486.543 452.572 486.773 453.128 486.773C455.099 486.773 456.698 488.371 456.698 490.343C456.696 492.315 455.098 493.913 453.126 493.913Z" fill="#263238"/>
<path d="M444.827 490.092C448.647 478.745 464.308 480.987 469.701 482.672C475.094 484.357 479.952 486.478 482.874 488.388C485.795 490.298 485.842 493.487 481.947 495.309C477.144 497.556 465.095 495.562 465.095 495.562C471.332 498.293 465.083 502.669 454.141 498.371C450.579 496.971 443.479 494.25 444.827 490.092Z" fill="#407BFF"/>
<path d="M406.816 393.933C405.399 403.574 397.415 410.683 390.92 409.729C384.425 408.774 384.155 400.164 385.572 390.522C386.99 380.881 389.558 373.861 396.053 374.815C402.548 375.771 408.234 384.293 406.816 393.933Z" fill="#263238"/>
<path d="M249.751 355.446C250.289 355.446 250.726 355.009 250.726 354.471C250.726 353.933 250.289 353.497 249.751 353.497C249.213 353.497 248.776 353.933 248.776 354.471C248.776 355.009 249.213 355.446 249.751 355.446Z" fill="#263238"/>
<path d="M259.667 361.496C259.667 362.033 259.23 362.47 258.693 362.47C258.155 362.47 257.717 362.033 257.717 361.496C257.717 360.957 258.154 360.521 258.693 360.521C259.232 360.521 259.667 360.957 259.667 361.496Z" fill="#263238"/>
<path d="M260.759 476.813C260.759 477.352 260.322 477.787 259.784 477.787C259.245 477.787 258.809 477.35 258.809 476.813C258.809 476.273 259.245 475.838 259.784 475.838C260.322 475.837 260.759 476.273 260.759 476.813Z" fill="#263238"/>
<path d="M269.7 483.837C269.7 484.376 269.264 484.812 268.725 484.812C268.187 484.812 267.75 484.375 267.75 483.837C267.75 483.298 268.187 482.863 268.725 482.863C269.264 482.862 269.7 483.298 269.7 483.837Z" fill="#263238"/>
<path d="M98.1867 495.539C95.3545 495.539 91.5251 493.823 89.4604 490.839C89.2736 490.569 89.3402 490.199 89.6104 490.012C89.8805 489.824 90.2506 489.892 90.4386 490.163C92.6591 493.369 97.5536 495.079 99.7266 494.066C99.955 493.959 100.141 493.825 100.282 493.663C98.3402 492.766 96.5647 491.009 96.0863 488.329C95.8162 486.822 95.602 484.783 96.8468 484.501C98.5532 484.118 100.786 488.245 101.645 491.374C101.804 491.952 101.854 492.489 101.8 492.972C102.552 493.178 103.292 493.231 103.926 493.139C104.441 493.065 105.173 492.853 105.562 492.253C104.116 491.276 103.144 489.553 102.819 487.268C102.358 484.015 102.704 483.447 103.065 483.17C103.299 482.99 103.596 482.955 103.883 483.077C105.155 483.618 106.698 488.234 106.993 490.846C107.025 491.134 107.025 491.41 106.996 491.671C107.483 491.865 108.02 491.971 108.602 491.983C109.633 492.042 110.653 491.714 111.469 491.234C111.3 491.128 111.141 491.011 110.991 490.883C109.756 489.828 109.258 488.141 109.468 485.729C109.63 483.865 110.055 482.845 110.804 482.525C111.067 482.408 111.603 482.3 112.242 482.809C113.527 483.836 114.726 487.091 114.296 489.422C114.206 489.904 113.998 490.367 113.698 490.792C115.882 491.168 118.955 490.555 121.605 489.9C121.922 489.823 122.246 490.016 122.325 490.335C122.403 490.655 122.209 490.976 121.89 491.055C118.665 491.852 115.194 492.5 112.742 491.789C111.652 492.656 110.116 493.182 108.579 493.172C107.878 493.157 107.225 493.032 106.629 492.805C106.16 493.604 105.287 494.144 104.101 494.318C103.311 494.435 102.38 494.359 101.438 494.09C101.17 494.537 100.765 494.895 100.232 495.145C99.6611 495.409 98.9614 495.537 98.1867 495.539ZM97.1585 485.689C97.0895 485.871 96.9646 486.473 97.2597 488.121C97.6512 490.311 99.0685 491.766 100.638 492.534C100.631 492.28 100.585 491.999 100.5 491.691C99.5647 488.289 97.788 485.945 97.1585 485.689ZM103.788 484.651C103.781 485.099 103.821 485.851 103.999 487.101C104.24 488.801 104.866 490.105 105.806 490.937C105.528 488.546 104.468 485.779 103.788 484.651ZM111.274 483.617H111.272C111.27 483.618 110.826 483.843 110.652 485.83C110.478 487.833 110.842 489.19 111.763 489.976C111.973 490.155 112.211 490.305 112.476 490.427C112.813 490.055 113.043 489.638 113.122 489.204C113.441 487.48 112.62 484.955 111.699 483.932C111.461 483.667 111.308 483.617 111.274 483.617Z" fill="#263238"/>
<path d="M272.358 504.534L275.583 498.941L272.358 493.348H268.906L270.857 498.941L268.906 504.534H272.358Z" fill="#263238"/>
<path d="M269.134 501.856C267.527 501.856 266.218 500.547 266.218 498.941C266.218 497.334 267.527 496.037 269.134 496.037L263.65 494.94L262.196 499.368L264.643 503.103L269.134 501.856Z" fill="#263238"/>
<path d="M269.603 493.348H263.141L259.916 498.941L263.141 504.534H269.603L272.828 498.941L269.603 493.348ZM266.378 501.856C264.771 501.856 263.462 500.547 263.462 498.941C263.462 497.334 264.771 496.037 266.378 496.037C267.984 496.037 269.281 497.334 269.281 498.941C269.281 500.547 267.984 501.856 266.378 501.856Z" fill="#407BFF"/>
<path d="M497.288 492.975L494.894 488.821L497.288 484.668H499.852L498.404 488.822L499.852 492.975H497.288Z" fill="#407BFF"/>
<path d="M499.684 490.987C500.877 490.987 501.849 490.015 501.849 488.821C501.849 487.629 500.877 486.665 499.684 486.665L503.756 485.85L504.836 489.139L503.019 491.913L499.684 490.987Z" fill="#407BFF"/>
<path d="M499.336 484.668H504.135L506.531 488.821L504.135 492.975H499.336L496.94 488.821L499.336 484.668ZM501.731 490.987C502.925 490.987 503.897 490.015 503.897 488.821C503.897 487.629 502.925 486.665 501.731 486.665C500.538 486.665 499.575 487.629 499.575 488.821C499.574 490.015 500.538 490.987 501.731 490.987Z" fill="#263238"/>
<path d="M408.108 498.489H413.484C414.884 498.489 416.03 497.344 416.03 495.943C416.03 494.544 414.884 493.398 413.484 493.398H408.108C406.707 493.398 405.562 494.544 405.562 495.943C405.563 497.344 406.707 498.489 408.108 498.489Z" fill="#263238"/>
<path d="M399.518 493.687C400.847 490.872 404.064 489.6 406.708 490.845C409.351 492.091 410.418 495.384 409.091 498.2C407.764 501.015 404.545 502.287 401.902 501.041C399.257 499.795 398.19 496.503 399.518 493.687Z" fill="#407BFF"/>
<path d="M401.032 501.019L402.507 501.714L407.634 490.841L406.159 490.145L401.032 501.019Z" fill="#263238"/>
</svg>
