
<svg width="150" height="60" viewBox="0 0 150 60" fill="none" xmlns="http://www.w3.org/2000/svg">
<g clip-path="url(#clip0_11278_7227)">
<path d="M48.4944 19.5652H47.6099V40.229H48.4944V19.5652Z" fill="white"/>
<path d="M65.742 19.5652H64.769V40.229H65.742V19.5652Z" fill="white"/>
<path d="M133.791 40.2584H134.764V19.5652H133.791V40.2584Z" fill="white"/>
<path d="M117.487 19.5652H116.514V40.229H117.487V19.5652Z" fill="white"/>
<path d="M82.9899 19.5652H82.0464V40.229H82.9899V19.5652Z" fill="white"/>
<path d="M100.239 19.5652H99.2656V40.229H100.239V19.5652Z" fill="white"/>
<path d="M55.7464 23.0334L51.4712 36.7897H53.4466L54.4491 33.3213H58.8717L59.8741 36.7897H61.8201L57.6039 23.0334H55.7464ZM54.8619 31.8222L56.6014 25.8259H56.6604L58.3705 31.8222H54.8619Z" fill="white"/>
<path d="M39.7375 31.2639V29.7942H44.0127V34.7911C43.6294 35.4084 43.0987 35.9375 42.4796 36.2902C41.654 36.7899 40.7105 36.9663 39.767 36.9663C38.4697 36.9663 37.1724 36.5548 36.2584 35.6436C35.3739 34.7911 34.9316 33.4978 34.9316 31.8812V27.8542C34.9316 26.267 35.3739 25.0324 36.1995 24.18C37.0545 23.2688 38.2633 22.8279 39.5311 22.8279C40.74 22.8279 41.8899 23.0924 42.7744 23.9154C43.5999 24.6797 43.9832 25.7673 44.0127 26.8842V26.943H42.1552C42.1847 26.2376 41.9488 25.5027 41.4771 24.9736C41.0053 24.4739 40.2977 24.2976 39.5606 24.2976C38.794 24.2976 38.0569 24.6209 37.5852 25.2382C37.084 25.8554 36.8776 26.7079 36.8776 27.8836V31.9987C36.8776 33.1745 37.1429 34.0563 37.6737 34.6736C38.2044 35.2908 38.971 35.6142 39.7965 35.6142C40.3272 35.6142 40.8874 35.526 41.3297 35.2614C41.6835 35.0557 41.9194 34.7324 42.0963 34.3796V31.2639H39.7375Z" fill="white"/>
<path d="M76.8278 23.0334H79.3634V36.7897H77.4174V31.4988L77.5943 26.208H77.5354L74.528 36.7897H73.2307L70.2233 26.208H70.1938L70.3413 31.4988V36.7897H68.4248V23.0334H70.9015L73.8793 33.9091L76.8278 23.0334Z" fill="white"/>
<path d="M111.029 23.0334H112.945V36.7897H111.029L105.81 26.5607H105.722V36.7897H103.805V23.0334H105.722L110.94 33.2625L111.029 33.2331V23.0334Z" fill="white"/>
<path d="M87.855 23.0334H94.371V24.5325H92.0712V35.2612H94.371V36.7897H87.855V35.2319H90.1547V24.5031H87.855V23.0334Z" fill="white"/>
<path opacity="0.2" d="M15.8845 40.2584H30.3907C30.8919 40.2584 31.2752 39.8763 31.2752 39.3766V20.447C31.2752 19.9473 30.8919 19.5652 30.3907 19.5652H15.8845C15.3833 19.5652 15 19.9473 15 20.447V39.3472C15 39.8469 15.4128 40.2584 15.8845 40.2584Z" fill="white"/>
<path d="M27.5007 30.764C27.1469 30.1761 26.5572 29.794 25.8791 29.647C26.4393 29.4119 26.911 29.0298 27.2058 28.5007C27.5007 27.9716 27.6481 27.3543 27.6481 26.7665C27.6481 25.6495 27.2943 24.6207 26.4393 23.974C25.5842 23.3274 24.5818 23.0334 23.4024 23.0334H19.0093V36.8191H23.9626C25.024 36.8191 26.0854 36.4664 26.8815 35.7609C27.6481 35.1143 28.0314 34.0855 28.0314 32.7628C28.0314 31.9691 27.8545 31.3519 27.5007 30.764ZM21.5744 25.1792H22.9307C23.5203 25.1792 23.9331 25.2968 24.2869 25.6495C24.6407 26.0022 24.7587 26.5313 24.7292 27.031C24.7292 27.5013 24.6407 28.001 24.2869 28.3537C23.9626 28.677 23.5793 28.8534 23.0486 28.8534H21.5449V25.1792H21.5744ZM24.6997 34.2031C24.3754 34.5558 23.8447 34.644 23.3729 34.644H21.6039V30.7052H23.5793C24.0805 30.7052 24.5523 30.8522 24.8176 31.2343C25.1125 31.6752 25.1714 32.2043 25.1714 32.7334C25.142 33.2625 25.0535 33.821 24.6997 34.2031Z" fill="white"/>
<path d="M125.919 31.264V29.7943H130.194V34.7912C129.811 35.4085 129.28 35.9376 128.661 36.2903C127.836 36.79 126.892 36.9664 125.949 36.9664C124.651 36.9664 123.354 36.5549 122.44 35.6437C121.556 34.7912 121.113 33.4979 121.113 31.8813V27.8249C121.113 26.2377 121.556 25.0031 122.381 24.1507C123.236 23.2395 124.445 22.7986 125.713 22.7986C126.922 22.7986 128.072 23.0631 128.956 23.8862C129.782 24.6504 130.165 25.738 130.194 26.8549V26.9137H128.337C128.366 26.2083 128.13 25.4734 127.659 24.9443C127.187 24.4446 126.479 24.2683 125.742 24.2683C124.976 24.2683 124.239 24.5916 123.767 25.2089C123.266 25.8261 123.059 26.6786 123.059 27.8543V31.9694C123.059 33.1452 123.325 34.027 123.855 34.6443C124.386 35.2615 125.153 35.5849 125.978 35.5849C126.509 35.5849 127.069 35.4967 127.511 35.2321C127.865 35.0264 128.101 34.7031 128.278 34.3503V31.264H125.919Z" fill="white"/>
</g>
<defs>
<clipPath id="clip0_11278_7227">
<rect width="120" height="20.8696" fill="white" transform="translate(15 19.5652)"/>
</clipPath>
</defs>
</svg>
