
<svg width="100" height="30" viewBox="0 0 100 30" fill="none" xmlns="http://www.w3.org/2000/svg">
<path d="M8.14988 22.0651C7.84288 21.918 7.50088 21.9171 7.17788 21.8321C5.57322 21.4079 4.16682 20.4371 3.20114 19.0872C2.23545 17.7372 1.77098 16.0927 1.88781 14.437C2.00463 12.7813 2.69542 11.2183 3.8411 10.0173C4.98678 8.81636 6.51555 8.05272 8.16388 7.85805C12.1069 7.36605 15.7429 10.2581 16.1339 14.193C16.5179 18.0491 13.9099 21.3871 10.0339 22.0001C9.97888 22.0091 9.90588 21.982 9.88088 22.0651H8.14988ZM11.5999 15.1391C12.1849 14.8141 12.3559 14.6301 12.4749 14.1991C12.7179 13.3191 12.3839 12.6931 11.4569 12.2591C11.2479 12.1591 10.9179 12.1671 10.8499 11.9651C10.7819 11.7631 10.9259 11.5131 10.9769 11.2831C11.1219 10.6311 11.1209 10.6361 10.4669 10.5081C10.2999 10.4751 10.2209 10.5081 10.1939 10.6841C10.1579 10.9171 10.1039 11.1461 10.0539 11.3771C9.95388 11.8261 9.95388 11.8221 9.49788 11.7141C9.36388 11.6821 9.30888 11.6381 9.34888 11.4861C9.42988 11.1791 9.49288 10.8671 9.54888 10.5561C9.56888 10.4561 9.64088 10.3161 9.44888 10.3031C9.20488 10.2871 8.97588 10.0861 8.72188 10.2421C8.69188 10.2601 8.70088 10.3421 8.68988 10.3891C8.62488 10.6891 8.55088 10.9891 8.49688 11.2891C8.46388 11.4721 8.38288 11.5181 8.20388 11.4741C7.79488 11.3741 7.37788 11.3031 6.96988 11.1981C6.78988 11.1521 6.74788 11.2051 6.70888 11.3721C6.55688 12.0261 6.54988 12.0251 7.17788 12.2031C7.20832 12.208 7.23839 12.2151 7.26788 12.2241C7.49288 12.3241 7.61388 12.4741 7.55788 12.7301C7.30055 13.9214 7.04455 15.1127 6.78988 16.304C6.73988 16.536 6.62088 16.63 6.37688 16.604C6.17688 16.58 5.94388 16.4101 5.79288 16.5491C5.64188 16.6881 5.61388 16.9291 5.53088 17.1271C5.5179 17.1661 5.5022 17.2042 5.48388 17.2411C5.37288 17.4281 5.46188 17.4811 5.64188 17.5131C5.97588 17.5731 6.30688 17.649 6.64188 17.7231C7.08588 17.8231 7.08488 17.8231 6.98588 18.2831C6.96288 18.3931 6.94188 18.5041 6.91888 18.6141C6.78688 19.2391 6.78788 19.2341 7.43088 19.3521C7.59588 19.3831 7.67388 19.3521 7.70488 19.1771C7.76422 18.8551 7.83088 18.5344 7.90488 18.215C7.98288 17.8911 8.19788 18.1211 8.35088 18.1211C8.50388 18.1211 8.61288 18.1431 8.55088 18.3561C8.46188 18.6561 8.42088 18.977 8.34088 19.284C8.28988 19.484 8.36188 19.552 8.54788 19.5931C9.14788 19.722 9.14788 19.7271 9.28088 19.1281C9.33688 18.8781 9.31788 18.5461 9.47388 18.4021C9.64588 18.2431 9.97388 18.4021 10.2309 18.4201C11.4769 18.5001 12.2179 17.9341 12.4399 16.7281C12.5469 16.1441 12.3549 15.6821 11.8799 15.3281C11.7919 15.2631 11.6999 15.2001 11.5999 15.1391Z" fill="white"/>
<path d="M22.6131 8.47981C22.2831 9.85181 21.9561 11.2098 21.6191 12.6078C22.0391 12.4828 22.4131 12.3468 22.8191 12.3378C24.5401 12.2988 25.6621 13.2318 25.9351 15.0108C26.3521 17.7268 24.7461 20.3728 22.0951 21.1008C20.5251 21.5318 18.9781 21.3078 17.4621 20.7718C17.2341 20.6908 17.2741 20.5518 17.3141 20.3868C17.8768 18.0388 18.4394 15.6908 19.0021 13.3428C19.3411 11.9298 19.6831 10.5178 20.0121 9.10181C20.0561 8.91381 20.1261 8.83181 20.3231 8.80181C21.0461 8.70181 21.7651 8.57981 22.4871 8.46881C22.5294 8.46824 22.5716 8.47192 22.6131 8.47981ZM23.5581 16.0288C23.5706 15.6995 23.5238 15.3706 23.4201 15.0578C23.3719 14.8832 23.2728 14.7268 23.1356 14.6086C22.9983 14.4904 22.829 14.4156 22.6491 14.3938C22.188 14.3209 21.7157 14.405 21.3081 14.6328C21.2409 14.669 21.1827 14.7199 21.1378 14.7817C21.093 14.8435 21.0627 14.9147 21.0491 14.9898C20.7338 16.3231 20.4104 17.6545 20.0791 18.9838C20.0291 19.1838 20.0731 19.2568 20.2671 19.2768C20.9531 19.3488 21.6061 19.2688 22.1721 18.8418C23.1081 18.1368 23.5201 17.1718 23.5581 16.0288Z" fill="white"/>
<path d="M89.6333 21.0791C89.9333 19.8331 90.2213 18.6101 90.5153 17.3871C91.1683 14.6691 91.8273 11.9531 92.4683 9.23205C92.5373 8.94005 92.6513 8.81005 92.9553 8.77405C93.6553 8.69105 94.3553 8.57405 95.1163 8.45605C94.7853 9.82105 94.4623 11.1561 94.1313 12.5161C94.6903 12.4421 95.2103 12.3491 95.7483 12.3821C97.3403 12.4821 98.0803 13.5821 98.1313 14.9581C98.1673 15.9511 97.8593 16.8801 97.6443 17.8261C97.4173 18.8261 97.1603 19.8161 96.9303 20.8131C96.8833 21.0131 96.8083 21.0931 96.5863 21.0861C95.9583 21.0681 95.3293 21.0651 94.7013 21.0861C94.4343 21.0951 94.4213 21.0041 94.4743 20.7861C94.8313 19.3131 95.1863 17.8391 95.5293 16.3631C95.6213 15.9631 95.7293 15.5631 95.6473 15.1491C95.5473 14.6241 95.2753 14.3901 94.7383 14.3671C94.4706 14.3646 94.2032 14.3826 93.9383 14.4211C93.7323 14.4441 93.6383 14.5331 93.5953 14.7321C93.2263 16.3071 92.8483 17.8801 92.4723 19.4541C92.3573 19.9321 92.2403 20.4091 92.1253 20.8871C92.1013 20.9871 92.0933 21.0801 91.9433 21.0781C91.1813 21.0761 90.4203 21.0791 89.6333 21.0791Z" fill="white"/>
<path d="M78.6369 12.3209C79.8959 12.3459 80.8899 12.4679 81.8429 12.8379C82.0429 12.9129 82.0989 12.9919 82.0429 13.2199C81.7089 14.5489 81.413 15.8879 81.0749 17.2199C80.7881 18.3481 80.8301 19.5348 81.196 20.6399C81.267 20.8639 81.243 20.9399 80.996 20.9649C80.485 21.0189 79.975 21.0919 79.47 21.1839C79.2 21.2329 79.007 21.2089 78.94 20.9069C78.9376 20.8968 78.9339 20.887 78.9289 20.8779C78.7509 20.4869 78.748 20.4829 78.4 20.7179C78.0241 20.982 77.5975 21.1651 77.1472 21.2555C76.6968 21.3459 76.2326 21.3416 75.784 21.2429C74.564 20.9889 73.876 20.1959 73.601 19.0099C73.094 16.8229 73.9539 14.5019 75.7479 13.2529C76.6859 12.5999 77.7329 12.2849 78.6369 12.3209ZM75.894 17.5649C75.8876 17.8522 75.9212 18.1389 75.994 18.4169C76.17 19.0329 76.537 19.2869 77.178 19.2569C77.612 19.2359 77.962 19.0449 78.278 18.7639C78.3757 18.675 78.4352 18.5517 78.444 18.4199C78.503 17.9739 78.5619 17.5259 78.6609 17.0879C78.8459 16.2599 79.0609 15.4379 79.2609 14.6139C79.2879 14.5039 79.3529 14.3969 79.1609 14.3729C78.4439 14.2859 77.7679 14.3469 77.1789 14.8249C76.3059 15.5339 75.933 16.4709 75.894 17.5649Z" fill="white"/>
<path d="M52.2879 15.844C52.2289 17.759 51.6239 19.422 49.9789 20.563C48.8729 21.33 47.6349 21.487 46.3519 21.163C45.1169 20.855 44.4419 19.992 44.1759 18.781C43.7179 16.703 44.6699 14.253 46.4039 13.053C47.5129 12.285 48.7369 12.106 50.0269 12.423C51.3319 12.743 52.1819 13.849 52.2869 15.287C52.2999 15.474 52.2879 15.66 52.2879 15.844ZM49.8879 16.044C49.8901 15.8174 49.869 15.5912 49.8249 15.369C49.6759 14.563 49.1559 14.21 48.3549 14.379C48.0723 14.4447 47.8115 14.5825 47.5979 14.779C46.6839 15.579 46.2259 17.46 46.6689 18.592C46.731 18.7731 46.8463 18.9313 46.9997 19.0459C47.1532 19.1604 47.3376 19.226 47.5289 19.234C47.7703 19.2618 48.0148 19.2337 48.2435 19.1518C48.4722 19.07 48.679 18.9366 48.8479 18.762C49.5999 18.013 49.8349 17.065 49.8839 16.048L49.8879 16.044Z" fill="white"/>
<path d="M56.748 21.0799C57.107 19.5889 57.459 18.1259 57.813 16.6639C58.094 15.4999 58.382 14.3369 58.655 13.1709C58.6675 13.0876 58.7048 13.01 58.762 12.9483C58.8193 12.8865 58.8939 12.8435 58.976 12.8249C60.1612 12.4313 61.4104 12.2667 62.657 12.3399C63.0703 12.3562 63.4771 12.4484 63.857 12.6119C64.84 13.0479 65.2161 13.8659 65.276 14.8759C65.3201 15.6249 65.1231 16.3399 64.9521 17.0569C64.6521 18.3119 64.341 19.5639 64.047 20.8199C64.002 21.0119 63.94 21.0899 63.73 21.0849C63.091 21.0699 62.4521 21.0649 61.8141 21.0849C61.5371 21.0939 61.549 20.9949 61.599 20.7849C61.9744 19.2123 62.3437 17.6376 62.707 16.0609C62.7676 15.8221 62.7968 15.5763 62.794 15.3299C62.775 14.7129 62.451 14.3839 61.832 14.3679C61.585 14.3619 61.34 14.3929 61.094 14.4089C60.848 14.4249 60.7601 14.5219 60.7091 14.7419C60.3621 16.2269 60.0091 17.7099 59.6521 19.1939C59.5211 19.7419 59.3881 20.2889 59.2651 20.8379C59.2261 21.0089 59.1651 21.0859 58.9651 21.0819C58.2311 21.0709 57.5 21.0799 56.748 21.0799Z" fill="white"/>
<path d="M84.9311 21.3161C83.9361 21.2851 82.9681 21.1401 82.0661 20.6831C81.8861 20.5921 81.8261 20.5251 81.9261 20.3241C82.1411 19.8941 82.3381 19.4541 82.5181 19.0081C82.6181 18.7631 82.7041 18.6871 82.9731 18.8341C83.75 19.2731 84.6523 19.4373 85.5341 19.3001C85.6771 19.2822 85.8166 19.2431 85.9481 19.1841C86.5041 18.9191 86.5641 18.3511 86.0691 17.9891C85.7441 17.7511 85.3641 17.6121 85.0031 17.4411C84.5281 17.2151 84.0721 16.9671 83.7181 16.5591C82.9181 15.6391 83.0341 13.5791 84.6351 12.7751C85.5301 12.3261 86.4871 12.2541 87.4621 12.2971C88.1616 12.3373 88.8484 12.5019 89.4901 12.7831C89.6791 12.8631 89.7381 12.9401 89.6351 13.1441C89.4131 13.5821 89.2091 14.0291 89.0161 14.4811C88.9341 14.6741 88.8571 14.7131 88.6541 14.6221C87.9891 14.3221 87.2941 14.1641 86.5541 14.2421C86.369 14.2546 86.1886 14.3054 86.0241 14.3911C85.5781 14.6411 85.5481 15.2061 85.9871 15.4641C86.4871 15.7641 87.0211 16.0121 87.5331 16.2951C88.1451 16.6341 88.6331 17.0721 88.8011 17.7951C89.0791 19.0361 88.5671 20.1641 87.4351 20.7691C86.6531 21.1911 85.8001 21.3001 84.9311 21.3161Z" fill="white"/>
<path d="M37.3999 12.5242C37.2459 13.1542 37.0949 13.7572 36.9509 14.3622C36.9139 14.5192 36.8019 14.5042 36.6889 14.5042C35.9679 14.5042 35.2459 14.5152 34.5259 14.4972C34.2779 14.4912 34.1939 14.5752 34.1429 14.8062C33.9099 15.8562 33.6379 16.8972 33.4169 17.9482C33.2389 18.7962 33.5989 19.2132 34.4679 19.2412C34.9319 19.252 35.3942 19.1799 35.8329 19.0282C35.9939 18.9742 36.0549 18.9962 36.0689 19.1702C36.1109 19.6702 36.1619 20.1702 36.2149 20.6702C36.2207 20.6948 36.2214 20.7202 36.217 20.7451C36.2125 20.7699 36.203 20.7936 36.189 20.8146C36.1751 20.8356 36.1569 20.8535 36.1357 20.8672C36.1145 20.8809 36.0908 20.8901 36.0659 20.8942C34.9019 21.2892 33.7099 21.4382 32.5139 21.1172C31.3349 20.8012 30.8939 19.9072 30.9409 18.7172C30.9939 17.3552 31.4409 16.0652 31.7339 14.7482C32.0339 13.3892 32.3769 12.0382 32.6949 10.6832C32.7399 10.4832 32.7949 10.3752 33.0379 10.3462C33.7209 10.2652 34.4009 10.1462 35.0799 10.0312C35.2709 9.99821 35.3149 10.0312 35.2639 10.2252C35.0909 10.8892 34.9439 11.5592 34.7639 12.2252C34.6999 12.4622 34.7189 12.5442 34.9949 12.5382C35.7849 12.5122 36.5779 12.5242 37.3999 12.5242Z" fill="white"/>
<path d="M66.3754 17.594C66.4464 15.54 67.1964 13.85 69.0924 12.859C70.5694 12.087 72.1164 12.108 73.6654 12.691C73.8594 12.764 73.8864 12.844 73.8004 13.026C73.5724 13.5073 73.3564 13.994 73.1524 14.486C73.0814 14.659 73.0094 14.693 72.8364 14.619C72.2285 14.3516 71.5521 14.2816 70.9024 14.419C69.8314 14.645 69.2554 15.368 69.0124 16.382C68.8477 16.989 68.8501 17.6293 69.0194 18.235C69.2194 18.888 69.6194 19.189 70.3064 19.235C70.8935 19.2746 71.4824 19.1897 72.0344 18.986C72.2074 18.923 72.2914 18.921 72.3054 19.14C72.3394 19.64 72.3924 20.14 72.4374 20.64C72.4484 20.753 72.4654 20.853 72.3124 20.909C71.0044 21.382 69.6754 21.523 68.3634 20.996C66.9634 20.433 66.4244 19.278 66.3754 17.843C66.3734 17.758 66.3754 17.676 66.3754 17.594Z" fill="white"/>
<path d="M42.9579 18.908C43.0179 19.52 43.0739 20.108 43.1339 20.698C43.1388 20.7201 43.1393 20.743 43.1352 20.7653C43.131 20.7875 43.1225 20.8087 43.11 20.8276C43.0974 20.8465 43.0812 20.8626 43.0623 20.8751C43.0434 20.8875 43.0222 20.896 42.9999 20.9C41.7159 21.371 40.4129 21.5 39.1109 21.015C37.8809 20.556 37.2429 19.6 37.0999 18.333C36.9199 16.733 37.2599 15.247 38.3279 13.997C39.4609 12.672 40.9529 12.197 42.6639 12.297C43.2483 12.3386 43.8223 12.4737 44.3639 12.697C44.5399 12.768 44.5639 12.838 44.4879 13.008C44.2659 13.48 44.0519 13.957 43.8559 14.441C43.7739 14.641 43.6929 14.704 43.4779 14.608C43.0323 14.4162 42.5482 14.331 42.0639 14.359C41.1069 14.397 40.3849 14.815 39.9519 15.668C39.5677 16.4258 39.468 17.2961 39.6709 18.121C39.8369 18.856 40.2709 19.187 41.0239 19.235C41.6889 19.276 42.3149 19.14 42.9579 18.908Z" fill="white"/>
<path d="M52.5371 21.08C52.9431 19.374 53.3371 17.702 53.7371 16.03C53.9961 14.945 54.2621 13.861 54.5091 12.773C54.5551 12.573 54.6361 12.515 54.8361 12.519C55.4841 12.531 56.1361 12.533 56.7821 12.519C57.0011 12.519 57.0151 12.592 56.9721 12.769C56.3174 15.475 55.6651 18.1817 55.0151 20.889C54.9841 21.019 54.9491 21.089 54.8011 21.083C54.0631 21.076 53.3221 21.08 52.5371 21.08Z" fill="white"/>
<path d="M30.7103 12.524C30.3523 14.017 30.0023 15.48 29.6513 16.943C29.3433 18.227 29.0313 19.51 28.7293 20.796C28.6813 21.005 28.6053 21.096 28.3673 21.087C27.7503 21.066 27.1313 21.067 26.5133 21.087C26.2633 21.094 26.2253 21.027 26.2813 20.797C26.8033 18.6376 27.3207 16.477 27.8333 14.315C27.9613 13.778 28.0933 13.241 28.2223 12.703C28.2433 12.616 28.2393 12.522 28.3783 12.523C29.1483 12.526 29.9183 12.524 30.7103 12.524Z" fill="white"/>
<path d="M29.8273 11.4869C28.8123 11.4869 28.2443 10.6959 28.5793 9.73992C28.7063 9.39032 28.9445 9.09204 29.2574 8.89082C29.5702 8.6896 29.9404 8.59654 30.3113 8.62592C31.3113 8.72592 31.7773 9.51892 31.3943 10.4419C31.266 10.7518 31.0486 11.0166 30.7696 11.2026C30.4906 11.3887 30.1626 11.4876 29.8273 11.4869Z" fill="white"/>
<path d="M54.814 10.2699C54.8176 10.0183 54.8779 9.77074 54.9902 9.54555C55.1025 9.32036 55.264 9.12331 55.4628 8.96899C55.6616 8.81468 55.8925 8.70704 56.1385 8.65406C56.3845 8.60108 56.6393 8.60411 56.884 8.66293C57.494 8.81393 57.83 9.23893 57.826 9.85593C57.818 10.9499 56.691 11.7559 55.646 11.4139C55.079 11.2289 54.814 10.8639 54.814 10.2699Z" fill="white"/>
<path d="M9.56827 17.2069C9.16756 17.1955 8.7694 17.1392 8.38127 17.0389C8.24627 17.0099 8.18127 16.9699 8.21827 16.8179C8.33027 16.3289 8.43027 15.8379 8.53827 15.3479C8.55727 15.2579 8.57527 15.1779 8.71727 15.2059C9.23227 15.3059 9.74827 15.3979 10.2103 15.6659C10.6103 15.8989 10.7853 16.2129 10.7103 16.5659C10.6223 16.9659 10.3353 17.1789 9.84827 17.2109C9.75327 17.2119 9.66127 17.2069 9.56827 17.2069Z" fill="white"/>
<path d="M9.85223 14.4921C9.51123 14.4921 9.09423 14.5111 8.87523 14.3151C8.64123 14.1061 8.94323 13.7281 8.95623 13.4151C8.96311 13.3644 8.97483 13.3145 8.99123 13.2661C9.13123 12.6421 9.13123 12.6441 9.77323 12.8101C10.0238 12.8666 10.2642 12.961 10.4862 13.0901C10.8232 13.2991 10.9532 13.5901 10.8672 13.9461C10.7932 14.2461 10.5312 14.4511 10.1602 14.4881C10.0577 14.4949 9.95489 14.4963 9.85223 14.4921Z" fill="white"/>
</svg>
