
<svg width="150" height="60" viewBox="0 0 150 60" fill="none" xmlns="http://www.w3.org/2000/svg">
<g clip-path="url(#clip0_11278_7214)">
<mask id="mask0_11278_7214" style="mask-type:luminance" maskUnits="userSpaceOnUse" x="17" y="1" width="117" height="58">
<path d="M17.2637 1.98096H133.301V58.0187H17.2637V1.98096Z" fill="white"/>
</mask>
<g mask="url(#mask0_11278_7214)">
<path opacity="0.4" fill-rule="evenodd" clip-rule="evenodd" d="M64.6333 31.2917H61.4617L56.3008 44.6541H58.72C58.9753 44.6541 59.1903 44.5801 59.3649 44.4456C59.5396 44.3044 59.6605 44.1497 59.7277 43.9809L60.507 41.6447H65.5805L66.3666 43.9742C66.4539 44.1759 66.5748 44.3313 66.7428 44.4591C66.9107 44.5868 67.1257 44.6474 67.3944 44.6474H69.7935L64.6333 31.2917ZM61.2332 39.5445L62.4492 35.9091C62.5433 35.6737 62.644 35.3973 62.7448 35.0812C62.8523 34.7651 62.9464 34.4148 63.0404 34.0442C63.1412 34.4148 63.2487 34.751 63.3495 35.0678C63.4569 35.3838 63.551 35.6602 63.645 35.8889L64.8812 39.5445H61.2332Z" fill="white"/>
<path d="M65.9307 18.5515C65.1782 17.9395 64.2303 17.5892 63.2226 17.5892C61.9327 17.5892 60.7765 18.1608 59.9912 19.07C58.9834 20.261 58.0019 21.5804 57.095 22.6846C56.188 23.7888 54.8437 25.1082 54.79 25.1553C54.6961 25.2426 54.6089 25.3232 54.5217 25.4037L54.5212 25.4041C54.5011 25.4243 54.4742 25.4445 54.4541 25.4647C54.4003 25.505 54.3533 25.5521 54.2995 25.5992C54.1786 25.7068 54.0577 25.8076 53.9435 25.9085C53.9099 25.9421 53.8696 25.9758 53.836 26.0027C53.6815 26.1311 53.5337 26.2589 53.3859 26.3732C53.3657 26.3866 53.3523 26.4001 53.3321 26.4135C53.312 26.4337 53.2851 26.4539 53.2583 26.474L53.2582 26.4741C53.1575 26.548 53.0567 26.6287 52.9559 26.7027C52.9089 26.7363 52.8686 26.7632 52.8283 26.7969C52.7275 26.8708 52.6267 26.9381 52.5327 27.0053C52.4856 27.0322 52.4386 27.0659 52.3983 27.0928C52.2975 27.16 52.2035 27.2205 52.1095 27.281L52.1094 27.2811C52.0758 27.3012 52.0355 27.3281 52.0019 27.3483C51.7466 27.5104 51.4914 27.6516 51.2562 27.7794C51.2226 27.7928 51.1958 27.813 51.1622 27.8264C51.0748 27.8735 50.9875 27.9139 50.9069 27.9542C50.8733 27.9744 50.833 27.9946 50.7994 28.008C50.7188 28.0484 50.6382 28.082 50.5643 28.1156C50.5441 28.1223 50.5239 28.1358 50.5038 28.1425C50.4971 28.1425 50.1141 28.3443 49.7379 28.4317C49.5028 28.4855 49.2273 28.5527 48.9183 28.5864C48.616 28.62 48.045 28.5998 47.9173 28.5931C44.3291 28.3503 41.5069 25.2542 41.7084 21.5515C41.8965 18.0774 44.7994 15.2973 48.2734 15.2502C50.3634 15.2233 52.225 16.1662 53.5149 17.6134C53.5753 17.6806 54.4823 18.6369 54.6973 18.9193C54.6569 18.9664 53.5612 20.2589 53.1044 20.7505C52.8491 20.4338 51.6459 19.1345 51.4981 18.9933C50.6113 18.1251 49.4215 17.5461 48.0712 17.6335C45.9617 17.7748 44.2344 19.4849 44.0799 21.5985C43.8978 24.0424 45.7796 26.1022 48.1585 26.2165C48.6489 26.2165 48.8908 26.1694 49.1998 26.0753C49.5088 25.9811 49.8783 25.8258 50.3217 25.5837C50.3822 25.5501 50.4427 25.5164 50.5098 25.4761C50.5367 25.4626 50.5636 25.4425 50.5905 25.429C50.6576 25.3887 50.7248 25.3483 50.7987 25.3012C50.8256 25.2878 50.8457 25.2743 50.8659 25.2609L51.1078 25.0995C51.1346 25.0861 51.1548 25.0726 51.1817 25.0524C51.2622 24.9919 51.3496 24.9314 51.4369 24.8709L51.4369 24.8709C51.4638 24.8574 51.4907 24.8372 51.5175 24.8171L51.5176 24.8171C51.5377 24.7969 51.5646 24.7767 51.5915 24.7565C51.6519 24.7095 51.7191 24.6624 51.7863 24.6086C51.8064 24.5884 51.8333 24.5682 51.8602 24.5481C51.9542 24.4741 52.055 24.3934 52.1558 24.3127C52.1759 24.2992 52.2028 24.2791 52.223 24.2589C52.3305 24.1715 52.4379 24.0773 52.5454 23.9832L52.5454 23.9832C52.5589 23.9697 52.579 23.9563 52.5925 23.9428L52.5925 23.9428C52.6798 23.8688 52.7671 23.7949 52.8478 23.7142C54.3667 22.2199 58.0557 17.7028 58.1027 17.6423V17.6356C59.3261 16.1541 61.1668 15.2119 63.23 15.2119C65.0177 15.2119 66.6912 15.912 67.9206 17.144L69.1366 16.2825L69.6203 21.4526L64.9095 19.2852L65.9307 18.5515Z" fill="white"/>
<path d="M83.2944 15.3942C83.375 15.3605 83.4623 15.3471 83.5631 15.3404C83.6639 15.3336 83.7781 15.3336 83.9131 15.3343H86.298V28.6966H83.5698V21.0155C83.5698 20.8518 83.5757 20.6699 83.582 20.4764L83.5832 20.4365C83.5897 20.2364 83.6085 20.0358 83.6278 19.8298L83.6303 19.8037L80.0891 26.6698C79.9817 26.8856 79.8339 27.047 79.6457 27.1546C79.4576 27.2622 79.2494 27.3227 79.0075 27.3227H78.5843C78.3491 27.3227 78.1342 27.2689 77.9461 27.1546C77.7579 27.047 77.6101 26.885 77.5027 26.6698L73.9615 19.7835C73.9803 19.9899 73.9932 20.1911 74.0057 20.386L74.0085 20.4297C74.022 20.6382 74.0287 20.8339 74.0287 21.0088V28.6892H71.3005V15.3336H73.6592C73.7936 15.3336 73.9078 15.3336 74.0085 15.3404C74.1093 15.3471 74.1967 15.3673 74.2773 15.3942C74.3579 15.4278 74.4251 15.4749 74.4923 15.5354C74.5594 15.6026 74.6199 15.6901 74.6804 15.8044L78.114 22.5831C78.2349 22.8184 78.3559 23.0545 78.4633 23.31C78.5776 23.5588 78.6851 23.8151 78.7858 24.0773C78.8866 23.8083 79.0008 23.5454 79.1083 23.2898C79.2225 23.0343 79.3434 22.7915 79.4711 22.5562L82.8913 15.8044C82.9517 15.6901 83.0122 15.5959 83.0794 15.5354C83.1466 15.4681 83.2138 15.4211 83.2944 15.3942Z" fill="white"/>
<g opacity="0.4">
<path d="M103.622 36.4281C103.266 36.3265 102.944 36.2055 102.668 36.0777C102.392 35.95 102.164 35.7953 101.996 35.6218C101.828 35.4469 101.741 35.2243 101.741 34.9553C101.741 34.531 101.882 34.2008 102.164 33.952C102.446 33.7025 102.883 33.5815 103.461 33.5815C103.797 33.5815 104.099 33.6285 104.361 33.716C104.623 33.8034 104.858 33.9042 105.06 34.0118C105.268 34.1194 105.449 34.2203 105.611 34.3077C105.772 34.3952 105.92 34.4422 106.061 34.4422C106.222 34.4422 106.35 34.4086 106.45 34.3346C106.551 34.26 106.645 34.1524 106.739 34.0045L107.512 32.5573C107.27 32.3353 107.001 32.1396 106.699 31.9648C106.397 31.7893 106.074 31.6413 105.725 31.5136C105.376 31.3925 105.013 31.2916 104.623 31.2311C104.233 31.1706 103.837 31.137 103.427 31.137C102.694 31.137 102.043 31.252 101.478 31.4739C100.907 31.6958 100.43 31.9984 100.04 32.369C99.6504 32.7395 99.3548 33.1632 99.1532 33.6413C98.9517 34.1188 98.8509 34.6104 98.8509 35.1087C98.8509 35.7348 98.9382 36.2593 99.1062 36.6836C99.2741 37.108 99.5026 37.4651 99.778 37.7475C100.053 38.03 100.369 38.2593 100.725 38.4341C101.081 38.6096 101.444 38.7509 101.814 38.8719C102.183 38.9862 102.546 39.0938 102.902 39.1947C103.258 39.2895 103.574 39.4039 103.849 39.5316C104.125 39.6594 104.353 39.8215 104.521 40.0165C104.689 40.2115 104.776 40.4677 104.776 40.7771C104.776 41.3157 104.622 41.7065 104.313 41.9553C103.997 42.2048 103.567 42.3258 103.003 42.3258C102.586 42.3258 102.223 42.2653 101.921 42.151C101.612 42.036 101.343 41.9082 101.108 41.767C100.873 41.6251 100.665 41.4973 100.477 41.383C100.295 41.2687 100.107 41.2081 99.9258 41.2081C99.7847 41.2081 99.6571 41.2485 99.5362 41.3157C99.4152 41.3897 99.3212 41.4771 99.2473 41.578L98.3336 43.0252C98.5956 43.2875 98.9047 43.5235 99.2607 43.7387C99.6168 43.9472 99.993 44.1362 100.396 44.2908C100.799 44.4462 101.216 44.5672 101.646 44.6546C102.076 44.7421 102.499 44.7824 102.915 44.7824C103.675 44.7824 104.347 44.6674 104.945 44.4388C105.537 44.2101 106.041 43.8941 106.444 43.4966C106.847 43.0998 107.156 42.6284 107.371 42.0898C107.586 41.5578 107.693 40.9788 107.693 40.3595C107.693 39.8006 107.606 39.3299 107.438 38.9324C107.27 38.5424 107.042 38.2055 106.766 37.9298C106.484 37.654 106.168 37.4247 105.812 37.2499C105.456 37.0676 105.087 36.9197 104.717 36.7852C104.341 36.6567 103.978 36.5357 103.622 36.4281Z" fill="white"/>
<path d="M91.9964 33.6749H97.473V31.2916H88.8852V44.654H97.473V42.2713H91.9964V39.0871H96.1898V36.7912H91.9964V33.6749Z" fill="white"/>
<path d="M74.2766 31.3522C74.196 31.3253 74.1087 31.3051 74.0079 31.2984C73.9071 31.2916 73.7929 31.2916 73.6585 31.2923H71.2998V44.6479H74.028V36.9668C74.028 36.7919 74.0213 36.5962 74.0079 36.3877C73.9945 36.1793 73.981 35.9634 73.9609 35.7415L77.502 42.6278C77.6095 42.8436 77.7573 43.005 77.9454 43.1126C78.1335 43.2269 78.3485 43.2807 78.5836 43.2807H79.0069C79.2487 43.2807 79.457 43.2202 79.6451 43.1126C79.8332 43.005 79.981 42.843 80.0885 42.6278L83.6296 35.7617L83.6271 35.788C83.6078 35.9939 83.589 36.1945 83.5826 36.3945L83.5813 36.4343C83.575 36.6279 83.5691 36.8098 83.5691 36.9735V44.654H86.2974V31.2916H83.9118C83.7774 31.2916 83.6632 31.2916 83.5624 31.2984C83.4617 31.3051 83.3743 31.3185 83.2937 31.3522C83.2131 31.3791 83.1459 31.4261 83.0787 31.4934C83.0115 31.5539 82.9511 31.6481 82.8906 31.7624L79.4704 38.5142C79.3428 38.7495 79.2218 38.9923 79.1076 39.2478C79.0001 39.5034 78.8859 39.7663 78.7852 40.0353C78.6844 39.7731 78.5769 39.5168 78.4627 39.268C78.3552 39.0125 78.2343 38.7764 78.1133 38.5411L74.6797 31.7624C74.6192 31.6481 74.5588 31.5606 74.4916 31.4934C74.4244 31.4329 74.3572 31.3858 74.2766 31.3522Z" fill="white"/>
</g>
<path fill-rule="evenodd" clip-rule="evenodd" d="M63.2296 26.1924H63.1356C62.8333 26.1857 62.5108 26.1925 61.7046 25.8488C60.9052 25.5052 60.7305 25.3034 60.1453 24.8461C59.8094 24.5839 59.3257 24.0788 58.8487 23.6545C58.3785 24.1662 57.3096 25.3512 57.2156 25.4453C57.6254 25.8898 58.627 26.7647 59.0301 27.0741L58.9697 27.0203C59.8565 27.7607 60.9387 28.2792 62.1279 28.4742C62.4974 28.5347 62.8198 28.5616 63.1289 28.5616C63.4648 28.5616 63.7402 28.5482 64.0358 28.5146C66.6901 28.1911 68.9145 26.3 69.6401 23.7083L67.4493 22.678C67.0731 24.7177 65.2995 26.1924 63.2296 26.1924ZM115.221 23.479C115.221 23.6404 115.281 23.7749 115.389 23.8764C115.496 23.9773 115.651 24.0311 115.845 24.0311H117.162V26.0573C116.88 26.1851 116.584 26.2792 116.282 26.3532C115.98 26.4271 115.637 26.4608 115.268 26.4608C114.663 26.4608 114.112 26.3599 113.614 26.1649C113.117 25.9631 112.687 25.6733 112.331 25.2967C111.974 24.9194 111.699 24.4554 111.504 23.9033C111.309 23.3512 111.209 22.7184 111.209 22.0116C111.209 21.3721 111.296 20.793 111.471 20.2678C111.645 19.7426 111.894 19.2921 112.223 18.9215C112.545 18.5442 112.942 18.2551 113.405 18.0533C113.869 17.8449 114.393 17.744 114.971 17.744C115.28 17.744 115.563 17.7574 115.811 17.7911C116.06 17.8247 116.295 17.8718 116.523 17.939C116.752 18.0063 116.973 18.0937 117.188 18.2013C117.403 18.3089 117.639 18.4366 117.88 18.5853C118.136 18.7467 118.378 18.8005 118.599 18.7534C118.821 18.6996 119.002 18.5718 119.143 18.3559L120.037 16.9827C119.768 16.7272 119.466 16.4911 119.123 16.2692C118.781 16.054 118.404 15.8651 117.995 15.7037C117.585 15.5423 117.135 15.4212 116.644 15.3264C116.154 15.239 115.637 15.1919 115.078 15.1919C114.003 15.1919 113.029 15.36 112.162 15.6969C111.295 16.0332 110.549 16.5046 109.938 17.1105C109.326 17.7164 108.856 18.4366 108.527 19.2712C108.198 20.1058 108.03 21.0217 108.03 22.0176C108.03 22.9934 108.204 23.9026 108.554 24.7372C108.903 25.5717 109.4 26.292 110.039 26.8979C110.677 27.5038 111.45 27.9819 112.351 28.3249C113.251 28.6679 114.253 28.8434 115.348 28.8434C116.187 28.8434 116.994 28.7358 117.767 28.5065C118.539 28.2846 119.266 27.914 119.951 27.4157V21.7749H115.22L115.221 23.479ZM103.468 22.409C103.468 22.6175 103.475 22.8468 103.488 23.0889C103.502 23.331 103.522 23.5805 103.555 23.8361L97.212 15.8119C97.1247 15.7043 97.0508 15.6236 96.9836 15.5631C96.9164 15.5026 96.8492 15.4555 96.7753 15.4219C96.7014 15.3883 96.6208 15.3681 96.5267 15.3546C96.4394 15.3412 96.3252 15.3345 96.1908 15.3345H94.5644V28.6968H97.2926V21.5341C97.2926 21.3391 97.2859 21.13 97.2792 20.908C97.2725 20.6861 97.259 20.4501 97.2322 20.2147L103.522 28.185C103.683 28.3733 103.844 28.5078 104.005 28.5825C104.167 28.6564 104.368 28.6968 104.603 28.6968H106.216V15.3412H103.468V22.409ZM88.8855 15.3338H91.9967V28.6961H88.8855V15.3338ZM38.3262 21.7897C38.7292 21.6417 39.0719 21.4669 39.3607 21.2645C39.6496 21.0627 39.8848 20.8401 40.0662 20.598C40.2475 20.3559 40.3819 20.093 40.4692 19.8173C40.5566 19.5348 40.5969 19.2517 40.5969 18.9491C40.5969 18.397 40.5028 17.8987 40.3147 17.4548C40.1266 17.0103 39.831 16.6337 39.4212 16.317C39.0114 16.0009 38.4807 15.7581 37.8351 15.59C37.1901 15.4219 36.4041 15.3345 35.483 15.3345H30.5781V28.7102H35.907C36.7064 28.7102 37.4125 28.6026 38.0373 28.4009C38.6621 28.1924 39.1861 27.9093 39.61 27.5462C40.0332 27.1824 40.3557 26.7587 40.5774 26.2671C40.7991 25.7755 40.9066 25.2436 40.9066 24.6787C40.9066 23.9248 40.6983 23.3055 40.2751 22.8273C39.8518 22.3485 39.2062 22.0049 38.3262 21.7897ZM33.6691 17.6566V17.6498H35.4837C35.8331 17.6498 36.1287 17.6767 36.3839 17.7305C36.6325 17.7843 36.8408 17.8785 37.0087 18.0063C37.17 18.134 37.2909 18.3089 37.3715 18.518C37.4521 18.7332 37.4924 18.9962 37.4924 19.3122C37.4924 19.635 37.4454 19.9047 37.3446 20.1199C37.2439 20.3351 37.1028 20.5039 36.908 20.6249C36.7199 20.746 36.4847 20.8334 36.2093 20.8805C35.9338 20.9275 35.6248 20.9544 35.2822 20.9544H33.6691V17.6566ZM37.7618 25.2429C37.7081 25.4514 37.6073 25.6336 37.4595 25.8017C37.3117 25.9699 37.1102 26.1044 36.8482 26.2059C36.5929 26.3068 36.257 26.3606 35.8472 26.3606H33.6698V23.0351H35.8337C36.2234 23.0351 36.5458 23.0687 36.8011 23.1427C37.0564 23.2167 37.2647 23.3176 37.4192 23.4527C37.5737 23.5872 37.6812 23.7554 37.7484 23.951C37.8089 24.1461 37.8424 24.3687 37.8424 24.6108C37.8424 24.8253 37.8156 25.0344 37.7618 25.2429Z" fill="white"/>
<path opacity="0.4" d="M47.0384 31.6491C46.1711 31.9853 45.4254 32.4567 44.814 33.0627C44.2027 33.6686 43.7324 34.3888 43.4039 35.2254C43.0747 36.0599 42.9067 36.9752 42.9067 37.9718C42.9067 38.9476 43.0814 39.8568 43.4308 40.6914C43.7808 41.5259 44.2779 42.2461 44.9161 42.8521C45.5544 43.458 46.3276 43.9354 47.2278 44.2791C48.1281 44.6227 49.1298 44.7976 50.2248 44.7976C51.0646 44.7976 51.8714 44.6893 52.644 44.4606C53.4173 44.2381 54.1428 43.8682 54.8281 43.3699V37.7284H50.0972V39.4251C50.0972 39.5871 50.1576 39.7216 50.2651 39.8225C50.3726 39.9234 50.5271 39.9772 50.722 39.9772H52.0387V42.0034C51.7565 42.1311 51.4609 42.2253 51.1586 42.2993C50.8563 42.3732 50.5137 42.4069 50.1442 42.4069C49.5389 42.4069 48.988 42.306 48.4909 42.111C47.993 41.9092 47.5631 41.6201 47.207 41.2428C46.851 40.8662 46.5755 40.4015 46.3807 39.8494C46.1859 39.2973 46.0851 38.6645 46.0851 37.9577C46.0851 37.3182 46.1724 36.7391 46.3471 36.2139C46.5218 35.6887 46.7703 35.2382 47.0995 34.8676C47.422 34.491 47.8184 34.2012 48.2819 33.9994C48.7461 33.7903 49.2702 33.6894 49.8479 33.6894C50.157 33.6894 50.4391 33.7029 50.6877 33.7365C50.9363 33.7701 51.1714 33.8172 51.3998 33.8844C51.6282 33.9517 51.8499 34.0391 52.0649 34.1467C52.2799 34.255 52.515 34.3827 52.7569 34.5307C53.0122 34.6921 53.254 34.7459 53.4757 34.6988C53.6974 34.645 53.8788 34.5166 54.0199 34.3014L54.9134 32.9349C54.6447 32.6793 54.3424 32.4433 53.9997 32.2214C53.6571 32.0062 53.2809 31.8172 52.8711 31.6558C52.4613 31.4937 52.0112 31.3727 51.5207 31.2785C51.0296 31.1911 50.5123 31.144 49.9547 31.144C48.8798 31.144 47.905 31.3122 47.0384 31.6491Z" fill="white"/>
</g>
</g>
<defs>
<clipPath id="clip0_11278_7214">
<rect width="90.566" height="30" fill="white" transform="translate(29.7183 15)"/>
</clipPath>
</defs>
</svg>
