
<svg width="100" height="30" viewBox="0 0 100 30" fill="none" xmlns="http://www.w3.org/2000/svg">
<path d="M17.3328 12.2627L16.8628 14.1487C17.3958 14.2807 19.0398 14.8237 19.3058 13.7567C19.5838 12.6437 17.8668 12.3997 17.3328 12.2627Z" fill="white"/>
<path d="M16.6259 15.1001L16.1069 17.1801C16.7469 17.3391 18.7219 17.9731 19.0139 16.8001C19.3189 15.5771 17.2659 15.2601 16.6259 15.1001Z" fill="white"/>
<path d="M19.4583 6.64798C17.8064 6.23615 16.0695 6.32342 14.4671 6.89875C12.8648 7.47407 11.4691 8.51162 10.4564 9.88019C9.44374 11.2488 8.85965 12.8869 8.77798 14.5874C8.69631 16.2879 9.12073 17.9745 9.99758 19.4338C10.8744 20.8931 12.1643 22.0596 13.7041 22.7859C15.2439 23.5121 16.9645 23.7654 18.6483 23.5138C20.3321 23.2622 21.9035 22.5169 23.1637 21.3722C24.4239 20.2275 25.3164 18.7349 25.7283 17.083C26.0018 15.9861 26.0566 14.8461 25.8895 13.7281C25.7225 12.61 25.3368 11.5359 24.7546 10.5669C24.1723 9.59789 23.4049 8.75308 22.4962 8.08067C21.5875 7.40826 20.5552 6.92143 19.4583 6.64798ZM21.1733 13.774C21.0493 14.612 20.5843 15.018 19.9673 15.161C20.8143 15.602 21.2453 16.279 20.8353 17.452C20.3253 18.908 19.1143 19.031 17.5033 18.727L17.1123 20.293L16.1673 20.058L16.5533 18.512C16.3083 18.451 16.0583 18.387 15.8003 18.312L15.4133 19.865L14.4703 19.629L14.8613 18.06C14.6403 18.003 14.4163 17.943 14.1873 17.886L12.9583 17.58L13.4273 16.5C13.4273 16.5 14.1273 16.685 14.1133 16.671C14.1565 16.685 14.2021 16.6902 14.2473 16.6865C14.2926 16.6828 14.3366 16.6702 14.377 16.6494C14.4173 16.6285 14.4531 16.5999 14.4824 16.5652C14.5116 16.5305 14.5337 16.4903 14.5473 16.447L15.1643 13.97L15.2643 13.995C15.2318 13.9822 15.1984 13.9718 15.1643 13.964L15.6073 12.2C15.6183 12 15.5493 11.746 15.1663 11.65C15.1813 11.641 14.4803 11.48 14.4803 11.48L14.7323 10.471L16.0323 10.796C16.2323 10.845 16.4323 10.896 16.6323 10.938L17.0183 9.38698L17.9633 9.62198L17.5833 11.143C17.8367 11.2003 18.089 11.2596 18.3403 11.321L18.7173 9.80998L19.6613 10.045L19.2793 11.6C20.4723 12.012 21.3443 12.628 21.1733 13.774Z" fill="white"/>
<path d="M34 11.6C34.6229 11.585 35.2411 11.7115 35.808 11.97C36.2999 12.2042 36.7329 12.546 37.075 12.97C37.4173 13.4101 37.6688 13.9139 37.815 14.452C37.9777 15.0482 38.0578 15.664 38.053 16.282C38.0585 18.2099 37.3169 20.065 35.984 21.458C35.3374 22.1228 34.5674 22.6551 33.717 23.025C32.8245 23.4148 31.8598 23.6117 30.886 23.603C30.755 23.603 30.524 23.603 30.198 23.592C29.8231 23.5796 29.4492 23.5463 29.078 23.492C28.6268 23.427 28.1792 23.3389 27.737 23.228C27.2743 23.1166 26.8248 22.9564 26.396 22.75L30.166 6.90899L33.543 6.38599L32.193 12.007C32.474 11.8817 32.7654 11.7813 33.064 11.707C33.3705 11.6334 33.6848 11.5975 34 11.6ZM31.168 20.927C31.6709 20.9274 32.1657 20.8001 32.606 20.557C33.0585 20.3092 33.4556 19.9717 33.773 19.565C34.1049 19.1411 34.3659 18.6663 34.546 18.159C34.7349 17.6346 34.831 17.0813 34.83 16.524C34.83 15.824 34.713 15.283 34.481 14.89C34.249 14.497 33.817 14.3 33.193 14.3C32.9256 14.31 32.66 14.3469 32.4 14.41C32.0711 14.4854 31.7669 14.6433 31.516 14.869L30.078 20.838C30.165 20.854 30.242 20.868 30.307 20.882C30.3746 20.897 30.4431 20.9077 30.512 20.914C30.5993 20.9235 30.6872 20.9279 30.775 20.927H31.168ZM41.553 23.3H38.328L41.051 11.84H44.3L41.553 23.3ZM43.122 10.443C42.6824 10.4474 42.2537 10.3068 41.902 10.043C41.537 9.77599 41.356 9.36499 41.356 8.81099C41.3542 8.51469 41.417 8.22156 41.54 7.95199C41.6588 7.68993 41.8257 7.45249 42.032 7.25199C42.2381 7.05506 42.4774 6.89626 42.739 6.78299C43.0113 6.66785 43.3043 6.60965 43.6 6.61199C44.0396 6.60762 44.4683 6.7482 44.82 7.01199C45.182 7.27865 45.3633 7.68899 45.364 8.24299C45.3656 8.54045 45.3021 8.83466 45.178 9.10499C45.0609 9.36721 44.8949 9.60477 44.689 9.80499C44.483 10.0022 44.2432 10.1607 43.981 10.273C43.7096 10.3901 43.4166 10.4491 43.121 10.446L43.122 10.443ZM47.122 8.98399L50.5 8.46399L49.67 11.842H53.288L52.637 14.5H49.042L48.084 18.508C48.0008 18.8142 47.9498 19.1282 47.932 19.445C47.9104 19.7016 47.9473 19.9597 48.04 20.2C48.13 20.4153 48.2968 20.5896 48.508 20.689C48.733 20.806 49.055 20.865 49.477 20.865C49.8178 20.8654 50.1578 20.8319 50.492 20.765C50.8281 20.6984 51.159 20.6075 51.482 20.493L51.723 22.978C51.2601 23.145 50.7871 23.2829 50.307 23.391C49.7129 23.5148 49.1068 23.5721 48.5 23.562C47.5 23.562 46.7227 23.414 46.168 23.118C45.6491 22.8559 45.2335 22.4269 44.988 21.9C44.7505 21.3399 44.6478 20.732 44.688 20.125C44.7218 19.4125 44.8222 18.7047 44.988 18.011L47.125 8.99099L47.122 8.98399ZM53.146 18.724C53.1398 17.773 53.3019 16.8284 53.625 15.934C53.9296 15.0895 54.3968 14.3129 55 13.648C55.6076 12.9865 56.3467 12.4592 57.17 12.1C58.0667 11.7126 59.0353 11.5194 60.012 11.533C60.6019 11.5259 61.1907 11.5883 61.766 11.719C62.2509 11.8324 62.7225 11.9967 63.173 12.209L62.061 14.74C61.7637 14.6213 61.462 14.516 61.156 14.424C60.7841 14.3204 60.399 14.2722 60.013 14.281C58.936 14.281 58.085 14.653 57.452 15.392C56.819 16.131 56.5 17.129 56.5 18.378C56.5 19.1187 56.6603 19.7187 56.981 20.178C57.3 20.636 57.89 20.864 58.745 20.864C59.1555 20.865 59.5649 20.8214 59.966 20.734C60.3239 20.6573 60.6741 20.5478 61.012 20.407L61.256 23C60.8149 23.1689 60.3641 23.3111 59.906 23.426C59.3267 23.557 58.7339 23.6187 58.14 23.61C57.2393 23.61 56.4767 23.4793 55.852 23.218C55.2659 22.9824 54.7382 22.6217 54.306 22.161C53.8963 21.7149 53.5943 21.1809 53.423 20.6C53.2395 19.9927 53.1471 19.3614 53.149 18.727L53.146 18.724ZM67.472 23.604C66.789 23.6179 66.1097 23.499 65.472 23.254C64.9336 23.0415 64.4524 22.7059 64.067 22.274C63.6889 21.8388 63.4035 21.3311 63.228 20.782C63.0336 20.1677 62.9387 19.5263 62.947 18.882C62.949 17.9931 63.0917 17.1102 63.37 16.266C63.6427 15.4125 64.0676 14.6153 64.624 13.913C65.1775 13.213 65.8653 12.6306 66.647 12.2C67.447 11.758 68.361 11.536 69.391 11.536C70.0739 11.5226 70.753 11.6411 71.391 11.885C71.9305 12.0977 72.4129 12.4332 72.8 12.865C73.1773 13.3008 73.462 13.8088 73.637 14.358C73.8329 14.974 73.9284 15.6176 73.92 16.264C73.917 17.1519 73.778 18.0341 73.508 18.88C73.2427 19.7298 72.8294 20.526 72.287 21.232C71.7419 21.9362 71.0555 22.5187 70.272 22.942C69.4673 23.3853 68.534 23.607 67.472 23.607V23.604ZM69.084 14.279C68.6288 14.2715 68.1842 14.4166 67.821 14.691C67.4509 14.9769 67.1403 15.3326 66.907 15.738C66.6557 16.1701 66.4681 16.6362 66.35 17.122C66.2311 17.5881 66.1693 18.067 66.166 18.548C66.166 19.276 66.282 19.8427 66.514 20.248C66.747 20.653 67.167 20.857 67.778 20.857C68.234 20.8646 68.6793 20.7184 69.042 20.442C69.413 20.1581 69.7246 19.8041 69.959 19.4C70.2107 18.968 70.3987 18.5018 70.517 18.016C70.634 17.5499 70.6955 17.0715 70.7 16.591C70.7 15.866 70.583 15.298 70.35 14.891C70.117 14.484 69.696 14.281 69.086 14.281L69.084 14.279ZM77.438 23.3H74.21L76.934 11.84H80.182L77.438 23.3ZM79.005 10.443C78.5657 10.4478 78.1371 10.3072 77.786 10.043C77.422 9.77632 77.2397 9.36565 77.239 8.81099C77.2379 8.51454 77.3013 8.22141 77.425 7.95199C77.5427 7.68957 77.7093 7.452 77.916 7.25199C78.1222 7.05481 78.362 6.89599 78.624 6.78299C78.8954 6.66668 79.1878 6.60745 79.483 6.60899C79.9229 6.6044 80.3521 6.74499 80.704 7.00899C81.067 7.27899 81.25 7.68899 81.25 8.23999C81.2504 8.53742 81.1866 8.83144 81.063 9.10199C80.9462 9.36417 80.7806 9.60173 80.575 9.80199C80.3687 9.99881 80.1289 10.1573 79.867 10.27C79.5949 10.3872 79.3013 10.4462 79.005 10.443ZM82.505 12.361C82.75 12.289 83.024 12.203 83.321 12.109C83.651 12.007 83.9843 11.9207 84.321 11.85C84.7308 11.7613 85.1451 11.6945 85.562 11.65C86.0788 11.595 86.5983 11.5689 87.118 11.572C88.8187 11.572 89.9923 12.0663 90.639 13.055C91.2857 14.0437 91.3987 15.3947 90.978 17.108L89.5 23.3H86.253L87.691 17.242C87.779 16.864 87.847 16.498 87.899 16.142C87.9513 15.8315 87.9472 15.5141 87.887 15.205C87.8349 14.9467 87.6932 14.715 87.487 14.551C87.275 14.384 86.953 14.301 86.517 14.301C86.0854 14.3024 85.6549 14.3466 85.232 14.433L83.116 23.3H79.869L82.506 12.363L82.505 12.361Z" fill="white"/>
</svg>
