
<svg width="150" height="60" viewBox="0 0 150 60" fill="none" xmlns="http://www.w3.org/2000/svg">
<mask id="mask0_11472_63824" style="mask-type:luminance" maskUnits="userSpaceOnUse" x="10" y="15" width="130" height="30">
<path d="M139.997 15.0825H10V44.9179H139.997V15.0825Z" fill="white"/>
</mask>
<g mask="url(#mask0_11472_63824)">
<path d="M59.6327 24.6084C56.4997 24.6084 54.5368 26.1961 54.5368 28.495V28.5458H57.3967V28.3807C57.3967 27.3265 57.9817 26.9581 59.4247 26.9581C60.9456 26.9581 61.4916 27.2884 61.4916 28.495V28.9395L57.4097 29.346C55.3818 29.5492 54.3418 30.4002 54.3418 31.7719C54.3418 33.3342 55.5768 34.2487 57.6177 34.2487C59.7237 34.2487 61.2056 33.3723 61.6346 31.937V34.0709H64.2864V28.622C64.2997 26.1961 62.8046 24.6084 59.6327 24.6084ZM58.4367 32.2927C57.6047 32.2927 57.2017 32.0895 57.2017 31.5941C57.2017 31.1496 57.5007 30.9591 58.1897 30.9082L61.4916 30.5399C61.4916 30.5399 60.9846 32.2546 58.4367 32.2927Z" fill="white"/>
<path d="M81.7062 26.7422C81.1862 25.472 79.7957 24.6083 77.7935 24.6083C74.9725 24.6083 73.3608 26.4755 73.3608 29.4475C73.3608 32.3689 74.9858 34.2613 77.9496 34.2613C79.8735 34.2613 81.3296 33.5374 81.8884 32.1148V34.0835H84.5406V21.6616H81.6934V26.7422H81.7062ZM81.7062 29.4984C81.7062 31.1114 80.7185 31.7211 78.9246 31.7211C77.1046 31.7211 76.2463 31.1241 76.2463 29.4475C76.2463 27.7455 77.1046 27.1486 78.9246 27.1486C80.7446 27.1486 81.7062 27.7455 81.7062 29.3586V29.4984Z" fill="white"/>
<path d="M91.8074 28.7236L89.7796 28.4823C88.5313 28.3299 88.2586 28.1267 88.2586 27.644C88.2586 27.0471 88.6224 26.8057 90.0396 26.8057C91.7813 26.8057 92.1585 27.1995 92.1585 27.9488V28.0632H95.0184V28.0124C95.0184 25.7515 93.2507 24.6084 90.1435 24.6084C86.8808 24.6084 85.4636 25.9039 85.4636 27.5297C85.4636 29.092 86.5297 29.9176 88.4275 30.1208L91.1057 30.4383C92.2235 30.5907 92.5096 30.7305 92.5096 31.2512C92.5096 31.81 92.1457 32.0514 90.6374 32.0514C89.0258 32.0514 88.4924 31.8228 88.4924 30.9972V30.8321H85.6458V30.8828C85.6458 33.0294 87.4136 34.2487 90.6113 34.2487C93.5495 34.2487 95.3173 33.1056 95.3173 31.3528C95.3045 29.8286 94.3556 29.003 91.8074 28.7236Z" fill="white"/>
<path d="M117.105 24.6083C114.778 24.6083 113.478 25.9547 113.101 27.4534V21.6616H110.254V34.0708H113.101V29.4221C113.101 27.8599 113.686 27.1105 115.61 27.1105C117.391 27.1105 118.08 27.6694 118.08 29.2189V34.0708H120.927V28.3806C120.914 26.2341 119.665 24.6083 117.105 24.6083Z" fill="white"/>
<path d="M127.361 24.6084C124.228 24.6084 122.265 26.1961 122.265 28.495V28.5458H125.125V28.3807C125.125 27.3265 125.71 26.9581 127.153 26.9581C128.674 26.9581 129.22 27.2884 129.22 28.495V28.9395L125.138 29.346C123.11 29.5492 122.07 30.4002 122.07 31.7719C122.07 33.3342 123.305 34.2487 125.346 34.2487C127.452 34.2487 128.934 33.3723 129.363 31.937V34.0709H132.015V28.622C132.028 26.1961 130.533 24.6084 127.361 24.6084ZM126.165 32.2927C125.333 32.2927 124.93 32.0895 124.93 31.5941C124.93 31.1496 125.23 30.9591 125.918 30.9082L129.22 30.5399C129.22 30.5399 128.713 32.2546 126.165 32.2927Z" fill="white"/>
<path d="M139.997 27.085V24.786H136.93V22.9951H134.082V24.786H132.587V27.085H134.082V30.7175C134.082 33.0545 135.435 34.0707 137.645 34.0707H139.997V31.5685H138.294C137.293 31.5685 136.93 31.3272 136.93 30.4V27.085H139.997Z" fill="white"/>
<path d="M70.5916 24.8624C69.3438 25.3832 68.7461 26.2723 68.2911 28.1648L68.2778 27.2503V24.7862H65.6389V34.0709H68.4339V30.2859C68.8111 28.2791 70.2016 26.9836 72.0999 26.9836C72.386 26.9836 72.6849 26.9962 73.0099 27.0978V24.7227C72.7238 24.6465 72.3988 24.6084 72.061 24.6084C71.5277 24.6084 70.9949 24.6973 70.5916 24.8624Z" fill="white"/>
<path d="M100.595 24.5068C101.154 24.2655 101.895 24.1511 102.818 24.1511C103.962 24.1511 104.794 24.3544 105.314 24.7481C105.756 25.0911 106.016 25.5991 106.068 26.2723H109.24C109.188 25.3323 108.928 24.5322 108.447 23.8463C107.914 23.0969 107.173 22.5127 106.198 22.1062C105.236 21.6998 104.079 21.4966 102.753 21.4966C101.362 21.4966 100.153 21.7633 99.1393 22.2841C98.1254 22.8048 97.3321 23.5542 96.786 24.5068C96.2405 25.4594 95.9672 26.5898 95.9672 27.8854C95.9672 29.1808 96.2405 30.3113 96.786 31.2639C97.3321 32.2165 98.1254 32.9658 99.1393 33.4866C100.153 34.0074 101.362 34.2741 102.753 34.2741C104.079 34.2741 105.223 34.0709 106.198 33.6644C107.16 33.258 107.914 32.6737 108.447 31.9116C108.928 31.2258 109.188 30.4129 109.24 29.4984H106.068C106.016 30.1589 105.756 30.6669 105.314 31.0225C104.807 31.4163 103.975 31.6195 102.818 31.6195C101.895 31.6195 101.154 31.5052 100.595 31.2639C100.036 31.0225 99.6204 30.6288 99.3732 30.0827C99.126 29.5365 98.996 28.8125 98.996 27.898C98.996 26.9708 99.126 26.2342 99.3732 25.7007C99.6204 25.1291 100.036 24.7481 100.595 24.5068Z" fill="white"/>
<path d="M45.1513 24.5068C45.7103 24.2655 46.4513 24.1511 47.3743 24.1511C48.5183 24.1511 49.3502 24.3544 49.8702 24.7481C50.3122 25.0911 50.5722 25.5991 50.6242 26.2723H53.7961C53.7441 25.3323 53.4841 24.5322 53.0032 23.8463C52.4702 23.0969 51.7292 22.5127 50.7542 22.1062C49.7922 21.6998 48.6353 21.4966 47.3093 21.4966C45.9183 21.4966 44.7093 21.7633 43.6954 22.2841C42.6814 22.8048 41.8884 23.5542 41.3424 24.5068C40.7964 25.4594 40.5234 26.5898 40.5234 27.8854C40.5234 29.1808 40.7964 30.3113 41.3424 31.2639C41.8884 32.2165 42.6814 32.9658 43.6954 33.4866C44.7093 34.0074 45.9183 34.2741 47.3093 34.2741C48.6353 34.2741 49.7792 34.0709 50.7542 33.6644C51.7162 33.258 52.4702 32.6737 53.0032 31.9116C53.4841 31.2258 53.7441 30.4129 53.7961 29.4984H50.6242C50.5722 30.1589 50.3122 30.6669 49.8702 31.0225C49.3632 31.4163 48.5313 31.6195 47.3743 31.6195C46.4513 31.6195 45.7103 31.5052 45.1513 31.2639C44.5923 31.0225 44.1764 30.6288 43.9294 30.0827C43.6824 29.5365 43.5524 28.8125 43.5524 27.898C43.5524 26.9708 43.6824 26.2342 43.9294 25.7007C44.1764 25.1291 44.5923 24.7481 45.1513 24.5068Z" fill="white"/>
<path d="M29.6296 15.0825H16.5389C12.9379 15.0825 10 17.953 10 21.4713V34.2615C10 37.7798 12.9379 40.6503 16.5389 40.6503H25.2617L29.6296 44.9179V40.6503C33.2305 40.6503 36.1684 37.7798 36.1684 34.2615V21.4713C36.1684 17.953 33.2305 15.0825 29.6296 15.0825Z" fill="#3425E3"/>
<path d="M27.5366 22.4744L23.0907 18.8037L18.6318 22.4744C16.6299 24.151 14.3679 26.0435 14.3679 29.7903C14.3679 32.2544 16.4219 34.2612 18.9438 34.2612C20.2958 34.2612 21.5178 33.6896 22.3497 32.7751C22.0898 34.1342 21.2058 35.2392 20.1008 35.8616L20.3608 36.9285H25.8077L26.0677 35.8616C24.9627 35.2392 24.0787 34.1342 23.8187 32.7751C24.6637 33.6896 25.8727 34.2612 27.2246 34.2612C29.7466 34.2612 31.8005 32.2544 31.8005 29.7903C31.8005 26.0435 29.5386 24.151 27.5366 22.4744Z" fill="white"/>
<path d="M27.4196 29.5875C27.3936 29.8415 27.3026 30.032 27.1336 30.1717C26.9386 30.3242 26.6006 30.4004 26.1456 30.4004C25.7817 30.4004 25.4827 30.3495 25.2617 30.2607C25.0407 30.1717 24.8847 30.0193 24.7937 29.8034C24.6897 29.5875 24.6377 29.2953 24.6377 28.9397C24.6377 28.5713 24.6897 28.2792 24.7807 28.0633C24.8717 27.8601 25.0407 27.7077 25.2487 27.6187C25.4697 27.5299 25.7686 27.4791 26.1326 27.4791C26.5876 27.4791 26.9126 27.5552 27.1206 27.7077C27.2896 27.8347 27.3806 28.0252 27.4066 28.292V28.3427H28.8106V28.2792C28.7976 27.8855 28.6806 27.5426 28.4856 27.2631C28.2646 26.9456 27.9526 26.7043 27.5496 26.5392C27.1466 26.374 26.6656 26.2852 26.1196 26.2852C25.5477 26.2852 25.0407 26.3994 24.6247 26.6154C24.1957 26.8313 23.8707 27.1488 23.6367 27.5426C23.4027 27.9363 23.2987 28.419 23.2987 28.9524C23.2987 29.4859 23.4157 29.9685 23.6367 30.3623C23.8707 30.756 24.1957 31.0735 24.6247 31.2895C25.0407 31.5054 25.5477 31.6197 26.1196 31.6197C26.6656 31.6197 27.1466 31.5308 27.5496 31.3656C27.9526 31.2005 28.2646 30.9465 28.4856 30.629C28.6806 30.3369 28.7976 30.0066 28.8106 29.6129V29.5494H27.4196V29.5875Z" fill="#3425E3"/>
<path d="M19.1129 27.6187C19.3339 27.5299 19.6329 27.4791 19.9969 27.4791C20.4519 27.4791 20.7769 27.5552 20.9849 27.7077C21.1539 27.8347 21.2449 28.0252 21.2709 28.292V28.3427H22.6748V28.2792C22.6618 27.8855 22.5448 27.5426 22.3498 27.2631C22.1289 26.9456 21.8169 26.7043 21.4139 26.5392C21.0109 26.374 20.5299 26.2852 19.9839 26.2852C19.4119 26.2852 18.9049 26.3994 18.4889 26.6154C18.0599 26.8313 17.735 27.1488 17.501 27.5426C17.267 27.9363 17.163 28.419 17.163 28.9524C17.163 29.4859 17.28 29.9685 17.501 30.3623C17.735 30.756 18.0599 31.0735 18.4889 31.2895C18.9049 31.5054 19.4119 31.6197 19.9839 31.6197C20.5299 31.6197 21.0109 31.5308 21.4139 31.3656C21.8169 31.2005 22.1289 30.9465 22.3498 30.629C22.5448 30.3369 22.6618 30.0066 22.6748 29.6129V29.5494H21.2709V29.6002C21.2449 29.8542 21.1539 30.0447 20.9849 30.1844C20.7899 30.3369 20.4519 30.413 19.9969 30.413C19.6329 30.413 19.3339 30.3623 19.1129 30.2733C18.8919 30.1844 18.7359 30.032 18.6449 29.8161C18.5409 29.6002 18.4889 29.3081 18.4889 28.9524C18.4889 28.5841 18.5409 28.292 18.6319 28.076C18.7359 27.8601 18.8919 27.7077 19.1129 27.6187Z" fill="#3425E3"/>
</g>
</svg>
