<svg width="150" height="60" viewBox="0 0 150 60" fill="none" xmlns="http://www.w3.org/2000/svg">
<path d="M22.5732 25.0878C22.5732 24.5667 22.7819 24.067 23.1534 23.6985C23.5249 23.33 24.0288 23.123 24.5542 23.123C25.107 23.123 25.6138 23.3515 25.9362 23.717C26.3101 24.0779 26.5253 24.5705 26.5351 25.0878C26.5363 25.3517 26.4839 25.6131 26.381 25.8565C26.2781 26.0998 26.1269 26.3201 25.9362 26.5043C25.5677 26.8698 25.0609 27.0982 24.5542 27.0982C24.0326 27.0885 23.536 26.875 23.1721 26.5043C22.7983 26.1434 22.5831 25.6508 22.5732 25.1335V25.0878ZM27.6408 30.1139C27.6346 29.8521 27.6813 29.5917 27.7781 29.348C27.8749 29.1043 28.0199 28.8823 28.2044 28.695C28.389 28.5077 28.6095 28.3589 28.8529 28.2573C29.0963 28.1557 29.3577 28.1034 29.6217 28.1035C30.6813 28.1035 31.6027 29.0173 31.6027 30.0682C31.6039 30.3321 31.5515 30.5935 31.4486 30.8369C31.3457 31.0803 31.1944 31.3006 31.0038 31.4847C30.5892 31.8502 30.0824 32.0787 29.6217 32.0787C29.3557 32.0799 29.0921 32.0279 28.8467 31.9258C28.6014 31.8238 28.3792 31.6737 28.1936 31.4847C28.0064 31.3075 27.857 31.0949 27.7542 30.8595C27.6513 30.624 27.5971 30.3705 27.5947 30.1139H27.6408ZM19.6709 27.9207C19.1455 27.9207 18.6416 28.1277 18.2701 28.4962C17.8986 28.8646 17.6899 29.3644 17.6899 29.8855C17.6899 30.4338 17.9203 30.9364 18.2888 31.2562C18.6527 31.627 19.1493 31.8404 19.6709 31.8502C20.2237 31.8502 20.7305 31.6674 21.099 31.2562C21.4676 30.8907 21.6979 30.3881 21.6979 29.8855C21.698 29.6236 21.6453 29.3643 21.5428 29.1229C21.4404 28.8815 21.2904 28.6628 21.1015 28.4798C20.9127 28.2967 20.6888 28.1529 20.4431 28.0569C20.1974 27.9609 19.9349 27.9146 19.6709 27.9207ZM24.7385 32.9468C24.4745 32.9407 24.2119 32.9871 23.9662 33.0831C23.7205 33.1791 23.4967 33.3228 23.3078 33.5059C23.119 33.6889 22.9689 33.9076 22.8665 34.149C22.7641 34.3904 22.7114 34.6497 22.7114 34.9116C22.7114 35.9625 23.6328 36.8763 24.6924 36.8763C24.9603 36.8826 25.2267 36.8349 25.4755 36.736C25.7243 36.6372 25.9502 36.4894 26.1397 36.3014C26.3292 36.1135 26.4783 35.8893 26.578 35.6426C26.6776 35.3958 26.7257 35.1316 26.7194 34.8659C26.7095 34.3486 26.4943 33.856 26.1205 33.4951C25.9419 33.3095 25.7275 33.1613 25.4902 33.0593C25.2528 32.9572 24.9972 32.9035 24.7385 32.9011V32.9468Z" fill="#FB8936"/>
<path d="M24.6462 15.4468C23.7249 15.4468 22.8496 15.8123 22.2047 16.452L11.0105 27.5546C10.3624 28.1966 9.99788 29.0676 9.99707 29.9761C9.99707 30.8899 10.3656 31.8037 11.0105 32.3977L15.5251 36.921L17.6902 34.8193L12.8532 29.9761L13.5903 29.2908L24.6462 18.3252L38.5123 32.0322L38.6044 32.1236V32.0322C39.0694 31.4448 39.3282 30.7228 39.3415 29.9761C39.3415 29.0624 38.9729 28.2399 38.328 27.6003L27.0878 16.452C26.4404 15.8091 25.5622 15.4476 24.6462 15.4468Z" fill="#FB8936"/>
<path d="M19.8551 36.9215L17.6899 39.0233L22.2966 43.5922C22.9355 44.1798 23.7747 44.5061 24.646 44.506C25.5673 44.506 26.4887 44.1862 27.0875 43.5465L36.439 34.2715L34.2739 32.1241L24.646 41.6733L19.8551 36.9215ZM79.6034 22.6663C79.4181 22.6602 79.2334 22.6911 79.0604 22.7572C78.8873 22.8233 78.7295 22.9233 78.5963 23.0512C78.463 23.1791 78.3571 23.3323 78.2847 23.5017C78.2124 23.671 78.1752 23.8531 78.1753 24.037C78.1753 24.9051 78.8203 25.5447 79.6034 25.5447C79.8005 25.5583 79.9982 25.5297 80.1833 25.461C80.3683 25.3924 80.5363 25.2851 80.676 25.1466C80.8157 25.008 80.9239 24.8413 80.9931 24.6578C81.0624 24.4743 81.0912 24.2782 81.0775 24.0827C81.0775 23.2146 80.4787 22.6663 79.6034 22.6663ZM99.9187 26.7784C96.9705 26.7784 95.0357 28.4689 95.0357 31.1189V33.6319C95.0357 36.2362 96.8783 37.881 99.9187 37.881C102.959 37.881 104.802 36.2362 104.802 33.6319V31.1189C104.802 28.4689 102.913 26.7784 99.9187 26.7784ZM102.406 33.6319C102.406 35.0025 101.531 35.7793 99.9187 35.7793C98.3064 35.7793 97.4311 35.0025 97.4311 33.5862V31.1189C97.4311 29.6568 98.3064 28.8344 99.9187 28.8344C101.531 28.8344 102.406 29.6568 102.406 31.1189V33.6319ZM108.257 34.7284C107.335 34.7284 106.737 35.3224 106.737 36.2362C106.737 37.15 107.335 37.7439 108.257 37.7439C109.178 37.7439 109.777 37.1043 109.777 36.2362C109.777 35.3224 109.132 34.7284 108.257 34.7284ZM116.318 26.7327C113.37 26.7327 111.435 28.4689 111.435 31.1189V33.6319C111.435 36.2362 113.278 37.881 116.364 37.881C119.359 37.881 121.248 36.2362 121.248 33.6319V31.1189C121.248 28.4689 119.313 26.7327 116.318 26.7327ZM118.852 33.5862C118.852 35.0025 117.931 35.7793 116.318 35.7793C114.706 35.7793 113.831 35.0025 113.831 33.5862V31.1189C113.831 29.6111 114.752 28.8344 116.318 28.8344C117.885 28.8344 118.852 29.6111 118.852 31.1189V33.5862Z" fill="white"/>
<path d="M139.998 27.6463C138.578 27.0689 137.063 26.759 135.529 26.7324C133.686 26.7324 130.599 27.3721 130.599 31.3016V32.9465C130.599 35.0484 131.797 37.2873 135.206 37.2873C136.118 37.307 137.02 37.103 137.832 36.6933C137.878 37.1502 137.694 38.521 136.634 39.2063C135.667 39.846 134.239 39.7089 132.35 38.8408L131.337 40.7142C132.857 41.7651 135.621 42.222 137.602 41.1711C138.191 40.8562 138.7 40.413 139.091 39.8748C139.482 39.3366 139.744 38.7175 139.859 38.064V38.0183C139.951 37.5614 139.998 37.0131 139.998 36.4648V27.6463ZM137.694 34.6828C137.233 35.0484 136.404 35.2768 135.437 35.2768C133.824 35.2768 132.995 34.4544 132.995 32.9465V31.3016C132.995 29.611 133.778 28.8799 135.575 28.8799C136.22 28.8799 137.141 28.9256 137.648 29.1084V34.6828H137.694Z" fill="white"/>
<path d="M129.31 28.8796V26.8693C127.697 26.5951 125.025 26.8693 123.229 27.7831V37.6521H125.578V29.2908C126.782 28.9091 128.048 28.7541 129.31 28.8339V28.8796ZM90.4294 37.5607H92.8249V31.5296C92.8249 28.4227 91.0744 26.7779 87.8497 26.7779C86.3756 26.7779 84.6711 27.1434 83.3352 27.6917V37.6521H85.7306V29.1081C86.2374 28.9253 87.0666 28.8339 87.8497 28.8339C90.0148 28.8339 90.4294 30.4331 90.4294 31.5296V37.6064V37.5607ZM78.406 27.0064H80.8015V37.6064H78.406V27.0064ZM76.5634 34.4995C76.5634 32.215 74.7207 31.6667 72.7859 31.3012C71.4961 31.0271 70.4826 30.8443 70.4826 29.9305C70.4826 29.1538 71.1736 28.6969 72.3713 28.6969C73.2005 28.6969 74.214 28.971 75.0432 29.3822L75.9645 27.6003C74.8129 27.0064 73.6151 26.6865 72.5095 26.6865C70.5287 26.6865 68.2253 27.5089 68.2253 29.8848C68.2253 32.5805 71.3118 33.0831 72.3253 33.2659C73.2927 33.4486 74.2601 33.7228 74.2601 34.5909C74.2601 35.3676 73.523 35.8702 72.2792 35.8702C71.1464 35.8318 70.0528 35.449 69.1467 34.7736L68.2253 36.6012C69.4074 37.4399 70.8259 37.8875 72.2792 37.8805C74.905 37.8805 76.5173 36.5555 76.5173 34.4995H76.5634Z" fill="white"/>
<path d="M65.8763 28.7885C65.5683 28.1786 65.0881 27.6706 64.4943 27.3264C62.3751 26.0927 59.2424 26.7781 58.0907 27.3721L58.7357 29.1998C59.1042 29.017 61.3616 28.2859 62.8358 28.9713L63.0201 29.017L63.2043 29.1541L63.2504 29.1998L63.5729 29.4739C63.8493 29.8851 64.0336 30.3878 64.0336 31.0274V31.2102H63.9414C63.2965 31.0731 62.5594 30.9818 61.8223 30.9818C58.9199 30.9818 57.2615 32.2154 57.2615 34.363C57.2615 35.688 57.8604 37.8812 61.9144 37.8812C62.9279 37.8812 64.4943 37.7442 66.2449 37.1045H66.337V30.9818C66.337 30.5248 66.337 30.1593 66.2449 29.7938C66.1527 29.4282 66.0606 29.1084 65.8763 28.8342V28.7885ZM64.0336 35.5966H63.9875C63.4347 35.7337 62.6054 35.8708 61.9144 35.8708C60.4402 35.8708 59.611 35.3225 59.611 34.363C59.611 33.3577 60.3481 32.8551 61.9144 32.8551C62.5594 32.8551 63.4347 32.9465 63.9875 33.0379V35.551L64.0336 35.5966Z" fill="white"/>
<path d="M47.3113 24.5853C46.1135 25.5905 45.5146 27.007 45.5146 28.6976V32.4443C45.5146 34.1806 46.1135 35.6428 47.3113 36.5566C48.4966 37.4618 49.9623 37.9303 51.4575 37.8817C52.9317 37.8817 54.4059 37.5161 55.6498 36.6937L54.5902 34.6375C54.3598 34.7289 52.1485 35.9169 50.1676 35.3686C48.7855 35.0031 48.0024 33.9065 48.0024 32.3986V28.7433C48.0024 27.1897 48.7855 26.0931 50.1676 25.7276C52.1025 25.1793 54.3138 26.3216 54.5902 26.4587L55.6037 24.4025C54.3636 23.6287 52.9223 23.2317 51.4575 23.2602C49.799 23.2602 48.3248 23.7171 47.3113 24.5853Z" fill="white"/>
</svg>