
<svg width="150" height="60" viewBox="0 0 150 60" fill="none" xmlns="http://www.w3.org/2000/svg">
<path d="M47.4766 29.4632C47.4766 34.1922 50.8742 37.4342 55.3716 37.4342C60.0891 37.4342 62.6068 34.4604 62.9 30.6332L58.9158 30.4626C58.6714 32.169 57.7426 33.7534 55.3472 33.7534C53.074 33.7534 51.7541 32.0715 51.7541 29.4632C51.7541 26.8549 53.074 25.173 55.3472 25.173C57.7426 25.173 58.6714 26.7574 58.9158 28.4638L62.9 28.3175C62.6068 24.4905 60.0891 21.4922 55.3716 21.4922C50.8742 21.4922 47.4766 24.7342 47.4766 29.4632Z" fill="#F6F6F6"/>
<path d="M80.225 29.4632C80.225 24.7342 76.7052 21.4922 72.2322 21.4922C67.7591 21.4922 64.2393 24.7342 64.2393 29.4632C64.2393 34.1922 67.7591 37.4342 72.2322 37.4342C76.7052 37.4342 80.225 34.1922 80.225 29.4632ZM75.9475 29.4632C75.9475 32.0715 74.5054 33.7778 72.2322 33.7778C69.9589 33.7778 68.5168 32.0715 68.5168 29.4632C68.5168 26.8549 69.9589 25.1486 72.2322 25.1486C74.5054 25.1486 75.9475 26.8549 75.9475 29.4632Z" fill="#F6F6F6"/>
<path d="M90.1909 37.1417L96.106 21.7847H91.9752L88.1621 31.9983H88.0643L84.2512 21.7847H79.9004L85.8155 37.1417H90.1909Z" fill="#F6F6F6"/>
<path d="M109.545 33.729H101.503V31.0721H107.541V27.7081H101.503V25.1973H109.325V21.7847H97.4214V37.1417H109.545V33.729Z" fill="#F6F6F6"/>
<path d="M125.131 37.1417C124.619 36.5811 124.545 35.8985 124.325 33.6071C124.154 31.8277 123.225 30.9258 121.636 30.6088C123.518 30.3651 124.912 28.9025 124.912 26.6599C124.912 23.6616 122.932 21.7847 118.948 21.7847H111.175V37.1417H115.257V32.047H118.019C119.412 32.047 120.17 32.437 120.292 34.1921C120.414 35.7766 120.61 36.7273 120.928 37.1417H125.131ZM115.257 28.8537V25.0998H118.214C119.974 25.0998 120.854 25.758 120.854 27.0011C120.854 28.415 119.974 28.8537 118.214 28.8537H115.257Z" fill="#F6F6F6"/>
<path d="M126.406 31.7058C126.406 35.411 129.388 37.4342 133.569 37.4342C137.161 37.4342 139.997 35.801 139.997 32.5346C139.997 30.0239 138.53 28.3419 135.304 27.7813L132.395 27.2694C131.442 27.0988 130.856 26.8305 130.856 26.1237C130.856 25.2705 131.638 24.7342 133.006 24.7342C134.595 24.7342 135.744 25.4655 135.866 27.0499L139.679 26.9768C139.605 23.5642 137.308 21.4922 133.055 21.4922C129.218 21.4922 126.773 23.3692 126.773 26.4893C126.773 29.1707 128.533 30.5845 131.051 31.0477L133.861 31.5352C135.035 31.7546 135.94 31.9008 135.94 32.8028C135.94 33.6559 135.011 34.1678 133.569 34.1678C131.857 34.1678 130.366 33.5097 130.22 31.584L126.406 31.7058Z" fill="#F6F6F6"/>
<path fill-rule="evenodd" clip-rule="evenodd" d="M9.99707 30C9.99707 38.2377 16.7162 45 25.0381 45C33.36 45 40.0792 38.2377 40.0792 30C40.0792 21.7623 33.36 15 25.0381 15C16.7779 15 9.99707 21.7623 9.99707 30ZM37.5522 25.5742H38.2303C38.6618 26.9266 38.9699 28.402 38.9084 30.0004C38.9084 31.5987 38.6618 33.1356 38.1686 34.5495H37.5522C34.3902 34.627 31.675 35.3458 29.1958 36.0021C25.7785 36.9067 22.8095 37.6925 19.7371 36.5168C16.5317 35.2872 15.1755 32.7052 15.1755 30.0619C15.1755 27.4184 16.5933 24.7749 19.7371 23.6069C22.8095 22.4312 25.7785 23.217 29.1958 24.1216C31.675 24.7778 34.3902 25.4966 37.5522 25.5742ZM17.5793 41.4958C17.4891 41.4958 17.4319 41.4628 17.3593 41.4211C17.3328 41.4058 17.3042 41.3893 17.2711 41.3728C19.4903 42.9097 22.2027 43.7704 25.0999 43.7704C29.9698 43.7704 34.2848 41.2499 36.7505 37.4384C34.5908 38.0644 32.7405 38.8612 30.988 39.6159C26.8881 41.3815 23.3228 42.917 17.5793 41.4958ZM25.0391 16.1069C30.0323 16.1069 34.3473 18.7504 36.813 22.6233C34.6187 22.0061 32.7383 21.1954 30.9512 20.425C26.8644 18.6631 23.2657 17.1117 17.5186 18.5659C17.4261 18.5967 17.3182 18.6274 17.2104 18.6582C17.1025 18.6889 16.9946 18.7196 16.9021 18.7504C19.183 17.0905 22.0185 16.1069 25.0391 16.1069Z" fill="#FF5100"/>
</svg>
