
<svg width="100" height="30" viewBox="0 0 100 30" fill="none" xmlns="http://www.w3.org/2000/svg">
<path d="M90.4336 15.0351C90.1866 15.7541 90.0616 16.5041 89.8756 17.2351C89.6826 17.9971 89.4956 18.7611 89.3266 19.5291C89.2796 19.7441 89.1906 19.8121 88.9766 19.8071C88.4316 19.7951 87.8846 19.7961 87.3386 19.8071C87.1176 19.8071 87.0606 19.7581 87.1166 19.5281C87.4506 18.1571 87.7706 16.7821 88.0886 15.4081C88.165 15.1283 88.2011 14.839 88.1956 14.5491C88.1676 14.0231 87.8866 13.7391 87.3656 13.7101C86.4356 13.6581 86.3876 13.6971 86.1736 14.5961C85.7826 16.2391 85.3826 17.8791 84.9986 19.5241C84.9506 19.7311 84.8756 19.8141 84.6556 19.8091C84.1096 19.7951 83.5636 19.7981 83.0176 19.8091C82.8056 19.8091 82.7266 19.7701 82.7846 19.5341C83.3486 17.2341 83.9016 14.9251 84.4606 12.6211C84.4866 12.5141 84.4986 12.4011 84.6416 12.3541C85.9046 11.9381 87.1916 11.7261 88.5156 11.9431C89.5156 12.1081 90.1686 12.6841 90.3706 13.7081C90.3766 13.7361 90.4116 13.7571 90.4336 13.7811V15.0351Z" fill="white"/>
<path d="M52.943 18.9939C52.4137 19.2442 51.8239 19.3379 51.243 19.2639C49.925 19.0989 49.121 18.1919 49.043 16.8039C48.901 14.1559 50.515 12.2389 53.163 11.8929C54.2855 11.7463 55.4269 11.8913 56.477 12.3139C56.661 12.3859 56.76 12.4619 56.704 12.6929C56.171 14.8739 55.65 17.0579 55.122 19.2399C55.0662 19.4526 54.9995 19.6622 54.922 19.8679C54.356 21.4549 53.233 22.3589 51.552 22.5279C50.444 22.6389 49.352 22.5729 48.299 22.1279C48.031 22.0149 47.98 21.9149 48.115 21.6529C48.2916 21.301 48.4449 20.9379 48.574 20.566C48.666 20.3119 48.757 20.238 49.041 20.366C49.8279 20.7293 50.709 20.8363 51.56 20.672C51.948 20.5931 52.297 20.3834 52.5488 20.0779C52.8006 19.7725 52.9397 19.3898 52.943 18.9939ZM51.219 16.308C51.24 16.676 51.24 17.1569 51.719 17.3979C52.243 17.6589 52.759 17.5259 53.251 17.2689C53.3127 17.2364 53.3665 17.1905 53.4083 17.1346C53.4501 17.0788 53.4791 17.0143 53.493 16.946C53.728 15.966 53.961 14.9859 54.203 14.0089C54.261 13.7749 54.181 13.7149 53.953 13.6949C52.375 13.5529 51.23 14.5999 51.219 16.308Z" fill="white"/>
<path d="M32.6615 16.82C32.6565 14.432 34.2185 12.472 36.4975 12.011C37.0086 11.8891 37.5398 11.8779 38.0555 11.978C38.3455 12.044 38.4295 11.934 38.4875 11.678C38.6875 10.785 38.9185 9.89995 39.1155 9.00795C39.1635 8.79095 39.2495 8.69295 39.4655 8.66295C40.0655 8.58095 40.6622 8.48929 41.2555 8.38795C41.5285 8.34195 41.4455 8.50195 41.4145 8.63095C41.1385 9.78629 40.8599 10.9426 40.5785 12.1C40.2255 13.563 39.8685 15.025 39.5225 16.49C39.3074 17.4336 39.3527 18.418 39.6535 19.338C39.7365 19.605 39.6875 19.68 39.4125 19.703C38.9961 19.7401 38.5821 19.8009 38.1725 19.885C37.8875 19.943 37.6935 19.885 37.6245 19.591C37.5415 19.228 37.3915 19.291 37.1385 19.462C36.0185 20.21 34.5765 20.192 33.6545 19.426C32.9275 18.826 32.7365 17.98 32.6625 17.095C32.6545 17.006 32.6615 16.912 32.6615 16.82ZM37.3865 13.73C35.2145 13.675 34.4015 16.43 35.0745 17.714C35.2895 18.124 35.6835 18.189 36.0935 18.155C36.3081 18.1409 36.5168 18.079 36.7042 17.9736C36.8917 17.8682 37.0531 17.722 37.1765 17.546C37.1945 17.522 37.1865 17.479 37.1905 17.446C37.3075 16.338 37.6165 15.27 37.8735 14.191C37.9735 13.77 37.9635 13.757 37.5265 13.733C37.4795 13.728 37.4335 13.731 37.3865 13.73Z" fill="white"/>
<path d="M74.2324 20C72.2584 20 71.1384 18.955 71.0624 17.031C70.9974 15.379 71.5344 13.925 72.8124 12.81C73.8294 11.922 75.0224 11.657 76.3274 11.934C77.5274 12.188 78.2764 13.024 78.4394 14.394C78.6594 16.242 78.1394 17.862 76.6884 19.108C76.0124 19.7059 75.1345 20.0248 74.2324 20ZM73.2454 16.492C73.2564 16.847 73.2564 17.112 73.3284 17.373C73.4924 17.961 73.8934 18.23 74.4994 18.146C75.0484 18.069 75.4304 17.746 75.7154 17.302C76.2105 16.5365 76.408 15.6162 76.2704 14.715C76.1704 13.921 75.6974 13.574 74.9144 13.726C74.6398 13.7845 74.3891 13.9238 74.1944 14.126C73.5004 14.8 73.2794 15.65 73.2454 16.489V16.492Z" fill="white"/>
<path d="M43.9719 20.0003C42.1719 20.0003 41.0779 19.0903 40.9279 17.2553C40.7649 15.2553 41.4559 13.5553 43.2049 12.4153C44.1999 11.7653 45.2999 11.6733 46.4199 12.0003C47.3389 12.2713 47.8979 12.9233 48.1729 13.8273C48.7369 15.6863 47.9049 18.1333 46.3239 19.2633C45.6059 19.7803 44.9169 19.9943 43.9719 20.0003ZM46.1479 15.2653C46.1389 15.1083 46.1359 14.9463 46.1209 14.7853C46.0289 13.8143 45.2209 13.3923 44.3659 13.8723C44.1735 13.9804 44.0037 14.1247 43.8659 14.2973C43.1569 15.1883 42.9559 16.2073 43.1589 17.2973C43.2869 17.9913 43.7449 18.2503 44.4409 18.1193C44.7393 18.0642 45.013 17.9174 45.2239 17.6993C45.8919 17.0263 46.1169 16.1833 46.1479 15.2613V15.2653Z" fill="white"/>
<path d="M60.3162 19.993C59.7082 20.008 59.1542 19.962 58.6292 19.744C57.5522 19.296 57.0452 18.444 56.9052 17.328C56.6282 15.117 57.9562 12.535 60.5222 11.942C61.11 11.7887 61.7268 11.7853 62.3162 11.932C63.1242 12.153 63.7162 12.632 63.8992 13.474C64.1062 14.45 63.8682 15.318 63.0932 15.989C62.4372 16.556 61.6342 16.782 60.7982 16.913C60.3054 16.9953 59.8068 17.0378 59.3072 17.04C59.0862 17.04 59.0562 17.124 59.1072 17.311C59.2362 17.82 59.6432 18.123 60.2842 18.164C60.9352 18.2114 61.5893 18.134 62.2112 17.936C62.4422 17.86 62.4972 17.927 62.5112 18.136C62.5372 18.541 62.5602 18.946 62.6112 19.347C62.6402 19.547 62.5592 19.611 62.3932 19.662C61.7232 19.8833 61.0219 19.9951 60.3162 19.993ZM59.6492 15.514C59.8032 15.496 60.0842 15.479 60.3562 15.426C60.8002 15.339 61.2482 15.246 61.6222 14.966C61.7668 14.8574 61.8736 14.7061 61.9274 14.5334C61.9813 14.3608 61.9795 14.1756 61.9222 14.004C61.7912 13.649 61.4942 13.577 61.1622 13.575C60.3012 13.575 59.5492 14.165 59.2202 15.109C59.0732 15.536 59.0732 15.536 59.6492 15.514Z" fill="white"/>
<path d="M67.7913 20.0091C67.3139 20.0192 66.8382 19.9485 66.3843 19.8001C65.2493 19.3901 64.5843 18.5781 64.4493 17.3921C64.2283 15.4921 64.7293 13.8291 66.3363 12.6721C67.7553 11.6501 69.3313 11.6081 70.9513 12.1821C71.1713 12.2591 71.1653 12.3621 71.0813 12.5401C70.8903 12.9491 70.7063 13.3621 70.5353 13.7791C70.4633 13.9551 70.3823 14.0011 70.2003 13.9201C69.685 13.6954 69.1141 13.6302 68.5613 13.7331C67.5503 13.9001 66.8473 14.7001 66.7123 15.8111C66.6623 16.1421 66.6539 16.478 66.6873 16.8111C66.8073 17.7381 67.2483 18.1491 68.1873 18.1461C68.6309 18.1513 69.0716 18.0747 69.4873 17.9201C69.6763 17.8481 69.7413 17.9051 69.7563 18.0851C69.7913 18.5231 69.8203 18.9631 69.8693 19.4001C69.8903 19.5921 69.7793 19.6431 69.6393 19.6821C69.3153 19.7721 68.9943 19.8821 68.6643 19.9381C68.3749 19.9781 68.0834 20.0018 67.7913 20.0091Z" fill="white"/>
<path d="M79.8052 19.8069C79.5272 19.8069 79.2482 19.7979 78.9692 19.8069C78.7522 19.8159 78.6912 19.7679 78.7492 19.5319C79.1262 17.9939 79.4852 16.4509 79.8492 14.9099C80.0492 14.0549 80.2612 13.2019 80.4552 12.3449C80.5052 12.1229 80.5802 12.0179 80.8392 12.0309C81.3615 12.0579 81.8849 12.0579 82.4072 12.0309C82.7152 12.0149 82.7182 12.1359 82.6612 12.3709C82.1445 14.5043 81.6309 16.6399 81.1202 18.7779C81.0612 19.0249 80.9812 19.2699 80.9472 19.5199C80.9132 19.7699 80.7902 19.8199 80.5702 19.8069C80.3172 19.7999 80.0612 19.8069 79.8052 19.8069Z" fill="white"/>
<path d="M81.9256 11.086C81.1936 11.08 80.7256 10.639 80.7406 9.96502C80.7566 9.17802 81.4596 8.50002 82.2626 8.49902C82.9776 8.49902 83.4626 8.94902 83.4626 9.61402C83.459 9.81179 83.4162 10.0069 83.3369 10.1881C83.2576 10.3693 83.1432 10.533 83.0003 10.6698C82.8575 10.8066 82.689 10.9138 82.5045 10.9853C82.3201 11.0567 82.1233 11.0909 81.9256 11.086Z" fill="white"/>
<path d="M18.5114 6.05688C16.7426 6.05688 15.0136 6.58138 13.5429 7.56405C12.0722 8.54672 10.926 9.94343 10.2491 11.5775C9.57223 13.2117 9.39513 15.0098 9.7402 16.7446C10.0853 18.4793 10.937 20.0728 12.1877 21.3235C13.4384 22.5742 15.0319 23.426 16.7667 23.771C18.5014 24.1161 20.2996 23.939 21.9337 23.2621C23.5678 22.5853 24.9645 21.439 25.9472 19.9683C26.9299 18.4977 27.4544 16.7686 27.4544 14.9999C27.4544 12.6281 26.5122 10.3534 24.835 8.67623C23.1579 6.99909 20.8832 6.05688 18.5114 6.05688ZM18.7914 20.3499H15.2084V15.5879H13.9454V14.4199H15.2084V9.65888H18.2894C19.0184 9.65888 23.8324 9.49288 23.8324 15.0869C23.8324 20.7729 18.7914 20.3499 18.7914 20.3499Z" fill="white"/>
<path d="M18.6314 11.6189H17.2314V14.4189H19.4714V15.5839H17.2314V18.3839H18.7154V18.3699C19.0964 18.3699 21.8354 18.4069 21.8304 15.1179C21.8254 11.8289 19.1604 11.6189 18.6314 11.6189Z" fill="white"/>
</svg>
