
<svg width="150" height="40" viewBox="0 0 150 40" fill="none" xmlns="http://www.w3.org/2000/svg">
<rect x="0.99707" y="0.999756" width="148" height="38" rx="7" stroke="#172F59" stroke-width="2"/>
<g clip-path="url(#clip0_11278_6891)">
<path d="M22.9971 24.9332C22.9971 25.3998 23.3971 25.7332 23.7971 25.7332H24.5971V28.6665C24.5971 29.3332 25.1305 29.8665 25.7971 29.8665C26.4638 29.8665 26.9971 29.3332 26.9971 28.6665V25.7998H28.6638V28.6665C28.6638 29.3332 29.1971 29.8665 29.8638 29.8665C30.5305 29.8665 31.0638 29.3332 31.0638 28.6665V25.7998H31.9971C32.4638 25.7998 32.7971 25.3998 32.7971 24.9998V16.7332H22.9971V24.9332ZM20.9305 16.7332C20.2638 16.7332 19.7305 17.2665 19.7305 17.9332V23.6665C19.7305 24.3332 20.2638 24.8665 20.9305 24.8665C21.5971 24.8665 22.1305 24.3332 22.1305 23.6665V17.9998C22.1971 17.3332 21.5971 16.7332 20.9305 16.7332ZM34.8638 16.7332C34.1971 16.7332 33.6638 17.2665 33.6638 17.9332V23.6665C33.6638 24.3332 34.1971 24.8665 34.8638 24.8665C35.5305 24.8665 36.0638 24.3332 36.0638 23.6665V17.9998C36.1305 17.3332 35.5305 16.7332 34.8638 16.7332ZM30.7971 11.9332L31.8638 10.8665C31.9971 10.7332 31.9971 10.4665 31.8638 10.2665C31.7305 10.1332 31.4638 10.1332 31.2638 10.2665L30.0638 11.4665C29.3971 11.1332 28.6638 10.9332 27.8638 10.9332C27.0638 10.9332 26.3305 11.1332 25.6638 11.4665L24.5305 10.3332C24.3971 10.1998 24.1305 10.1998 23.9305 10.3332C23.7971 10.4665 23.7971 10.7332 23.9305 10.9332L24.9971 11.9998C23.7971 12.8665 22.9971 14.3332 22.9971 15.9998H32.8638C32.8638 14.3332 32.0638 12.8665 30.7971 11.9332ZM26.2638 14.2665H25.4638V13.4665H26.2638V14.2665ZM30.3971 14.2665H29.5971V13.4665H30.3971V14.2665Z" fill="#79C259"/>
</g>
<path d="M42.8801 29.9998L46.9361 20.8998H49.0161L53.0851 29.9998H50.8751L47.5471 21.9658H48.3791L45.0381 29.9998H42.8801ZM44.9081 28.0498L45.4671 26.4508H50.1471L50.7191 28.0498H44.9081ZM58.1372 22.9018C58.6919 22.9018 59.1859 23.0144 59.6192 23.2398C60.0612 23.4564 60.4079 23.7944 60.6592 24.2538C60.9105 24.7044 61.0362 25.2851 61.0362 25.9958V29.9998H59.0082V26.3078C59.0082 25.7444 58.8825 25.3284 58.6312 25.0598C58.3885 24.7911 58.0419 24.6568 57.5912 24.6568C57.2705 24.6568 56.9802 24.7261 56.7202 24.8648C56.4689 24.9948 56.2695 25.1984 56.1222 25.4758C55.9835 25.7531 55.9142 26.1084 55.9142 26.5418V29.9998H53.8862V23.0058H55.8232V24.9428L55.4592 24.3578C55.7105 23.8898 56.0702 23.5301 56.5382 23.2788C57.0062 23.0274 57.5392 22.9018 58.1372 22.9018ZM65.9283 30.1038C65.2696 30.1038 64.6759 29.9564 64.1473 29.6618C63.6186 29.3584 63.1983 28.9381 62.8863 28.4008C62.5829 27.8634 62.4313 27.2308 62.4313 26.5028C62.4313 25.7661 62.5829 25.1291 62.8863 24.5918C63.1983 24.0544 63.6186 23.6384 64.1473 23.3438C64.6759 23.0491 65.2696 22.9018 65.9283 22.9018C66.5176 22.9018 67.0333 23.0318 67.4753 23.2918C67.9173 23.5518 68.2596 23.9461 68.5023 24.4748C68.7449 25.0034 68.8663 25.6794 68.8663 26.5028C68.8663 27.3174 68.7493 27.9934 68.5153 28.5308C68.2813 29.0594 67.9433 29.4538 67.5013 29.7138C67.0679 29.9738 66.5436 30.1038 65.9283 30.1038ZM66.2793 28.4398C66.6086 28.4398 66.9076 28.3618 67.1763 28.2058C67.4449 28.0498 67.6573 27.8288 67.8133 27.5428C67.9779 27.2481 68.0603 26.9014 68.0603 26.5028C68.0603 26.0954 67.9779 25.7488 67.8133 25.4628C67.6573 25.1768 67.4449 24.9558 67.1763 24.7998C66.9076 24.6438 66.6086 24.5658 66.2793 24.5658C65.9413 24.5658 65.6379 24.6438 65.3693 24.7998C65.1006 24.9558 64.8839 25.1768 64.7193 25.4628C64.5633 25.7488 64.4853 26.0954 64.4853 26.5028C64.4853 26.9014 64.5633 27.2481 64.7193 27.5428C64.8839 27.8288 65.1006 28.0498 65.3693 28.2058C65.6379 28.3618 65.9413 28.4398 66.2793 28.4398ZM68.1123 29.9998V28.5698L68.1513 26.4898L68.0213 24.4228V20.3538H70.0493V29.9998H68.1123ZM71.9262 29.9998V23.0058H73.8632V24.9818L73.5902 24.4098C73.7982 23.9158 74.1319 23.5431 74.5912 23.2918C75.0506 23.0318 75.6096 22.9018 76.2682 22.9018V24.7738C76.1816 24.7651 76.1036 24.7608 76.0342 24.7608C75.9649 24.7521 75.8912 24.7478 75.8132 24.7478C75.2586 24.7478 74.8079 24.9081 74.4612 25.2288C74.1232 25.5408 73.9542 26.0304 73.9542 26.6978V29.9998H71.9262ZM80.7513 30.1038C80.006 30.1038 79.343 29.9478 78.7623 29.6358C78.1903 29.3238 77.7353 28.8991 77.3973 28.3618C77.068 27.8158 76.9033 27.1961 76.9033 26.5028C76.9033 25.8008 77.068 25.1811 77.3973 24.6438C77.7353 24.0978 78.1903 23.6731 78.7623 23.3698C79.343 23.0578 80.006 22.9018 80.7513 22.9018C81.488 22.9018 82.1466 23.0578 82.7273 23.3698C83.308 23.6731 83.763 24.0934 84.0923 24.6308C84.4216 25.1681 84.5863 25.7921 84.5863 26.5028C84.5863 27.1961 84.4216 27.8158 84.0923 28.3618C83.763 28.8991 83.308 29.3238 82.7273 29.6358C82.1466 29.9478 81.488 30.1038 80.7513 30.1038ZM80.7513 28.4398C81.0893 28.4398 81.3926 28.3618 81.6613 28.2058C81.93 28.0498 82.1423 27.8288 82.2983 27.5428C82.4543 27.2481 82.5323 26.9014 82.5323 26.5028C82.5323 26.0954 82.4543 25.7488 82.2983 25.4628C82.1423 25.1768 81.93 24.9558 81.6613 24.7998C81.3926 24.6438 81.0893 24.5658 80.7513 24.5658C80.4133 24.5658 80.11 24.6438 79.8413 24.7998C79.5726 24.9558 79.356 25.1768 79.1913 25.4628C79.0353 25.7488 78.9573 26.0954 78.9573 26.5028C78.9573 26.9014 79.0353 27.2481 79.1913 27.5428C79.356 27.8288 79.5726 28.0498 79.8413 28.2058C80.11 28.3618 80.4133 28.4398 80.7513 28.4398ZM85.9419 29.9998V23.0058H87.9699V29.9998H85.9419ZM86.9559 22.0308C86.5832 22.0308 86.2799 21.9224 86.0459 21.7058C85.8119 21.4891 85.6949 21.2204 85.6949 20.8998C85.6949 20.5791 85.8119 20.3104 86.0459 20.0938C86.2799 19.8771 86.5832 19.7688 86.9559 19.7688C87.3285 19.7688 87.6319 19.8728 87.8659 20.0808C88.0999 20.2801 88.2169 20.5401 88.2169 20.8608C88.2169 21.1988 88.0999 21.4804 87.8659 21.7058C87.6405 21.9224 87.3372 22.0308 86.9559 22.0308ZM92.855 30.1038C92.1963 30.1038 91.6027 29.9564 91.074 29.6618C90.5453 29.3584 90.125 28.9381 89.813 28.4008C89.5097 27.8634 89.358 27.2308 89.358 26.5028C89.358 25.7661 89.5097 25.1291 89.813 24.5918C90.125 24.0544 90.5453 23.6384 91.074 23.3438C91.6027 23.0491 92.1963 22.9018 92.855 22.9018C93.4443 22.9018 93.96 23.0318 94.402 23.2918C94.844 23.5518 95.1863 23.9461 95.429 24.4748C95.6717 25.0034 95.793 25.6794 95.793 26.5028C95.793 27.3174 95.676 27.9934 95.442 28.5308C95.208 29.0594 94.87 29.4538 94.428 29.7138C93.9947 29.9738 93.4703 30.1038 92.855 30.1038ZM93.206 28.4398C93.5353 28.4398 93.8343 28.3618 94.103 28.2058C94.3717 28.0498 94.584 27.8288 94.74 27.5428C94.9047 27.2481 94.987 26.9014 94.987 26.5028C94.987 26.0954 94.9047 25.7488 94.74 25.4628C94.584 25.1768 94.3717 24.9558 94.103 24.7998C93.8343 24.6438 93.5353 24.5658 93.206 24.5658C92.868 24.5658 92.5647 24.6438 92.296 24.7998C92.0273 24.9558 91.8107 25.1768 91.646 25.4628C91.49 25.7488 91.412 26.0954 91.412 26.5028C91.412 26.9014 91.49 27.2481 91.646 27.5428C91.8107 27.8288 92.0273 28.0498 92.296 28.2058C92.5647 28.3618 92.868 28.4398 93.206 28.4398ZM95.039 29.9998V28.5698L95.078 26.4898L94.948 24.4228V20.3538H96.976V29.9998H95.039ZM101.482 29.9998L105.538 20.8998H107.618L111.687 29.9998H109.477L106.149 21.9658H106.981L103.64 29.9998H101.482ZM103.51 28.0498L104.069 26.4508H108.749L109.321 28.0498H103.51ZM112.631 29.9998V20.8998H116.57C117.384 20.8998 118.086 21.0341 118.676 21.3028C119.265 21.5628 119.72 21.9398 120.041 22.4338C120.361 22.9278 120.522 23.5171 120.522 24.2018C120.522 24.8778 120.361 25.4628 120.041 25.9568C119.72 26.4508 119.265 26.8321 118.676 27.1008C118.086 27.3608 117.384 27.4908 116.57 27.4908H113.801L114.737 26.5418V29.9998H112.631ZM114.737 26.7758L113.801 25.7748H116.453C117.103 25.7748 117.588 25.6361 117.909 25.3588C118.229 25.0814 118.39 24.6958 118.39 24.2018C118.39 23.6991 118.229 23.3091 117.909 23.0318C117.588 22.7544 117.103 22.6158 116.453 22.6158H113.801L114.737 21.6148V26.7758ZM122.025 29.9998V20.8998H125.964C126.779 20.8998 127.481 21.0341 128.07 21.3028C128.66 21.5628 129.115 21.9398 129.435 22.4338C129.756 22.9278 129.916 23.5171 129.916 24.2018C129.916 24.8778 129.756 25.4628 129.435 25.9568C129.115 26.4508 128.66 26.8321 128.07 27.1008C127.481 27.3608 126.779 27.4908 125.964 27.4908H123.195L124.131 26.5418V29.9998H122.025ZM124.131 26.7758L123.195 25.7748H125.847C126.497 25.7748 126.983 25.6361 127.303 25.3588C127.624 25.0814 127.784 24.6958 127.784 24.2018C127.784 23.6991 127.624 23.3091 127.303 23.0318C126.983 22.7544 126.497 22.6158 125.847 22.6158H123.195L124.131 21.6148V26.7758Z" fill="#6F7D98"/>
<path d="M44.0471 16.9998V9.99976H46.9971C47.7437 9.99976 48.4004 10.1464 48.9671 10.4398C49.5404 10.7331 49.9837 11.1431 50.2971 11.6698C50.6171 12.1964 50.7771 12.8064 50.7771 13.4998C50.7771 14.1931 50.6171 14.8031 50.2971 15.3298C49.9837 15.8564 49.5404 16.2664 48.9671 16.5598C48.4004 16.8531 47.7437 16.9998 46.9971 16.9998H44.0471ZM45.0471 16.1298H46.9371C47.5171 16.1298 48.0171 16.0198 48.4371 15.7998C48.8637 15.5798 49.1937 15.2731 49.4271 14.8798C49.6604 14.4798 49.7771 14.0198 49.7771 13.4998C49.7771 12.9731 49.6604 12.5131 49.4271 12.1198C49.1937 11.7264 48.8637 11.4198 48.4371 11.1998C48.0171 10.9798 47.5171 10.8698 46.9371 10.8698H45.0471V16.1298ZM54.4388 17.0598C53.9055 17.0598 53.4321 16.9431 53.0188 16.7098C52.6055 16.4764 52.2788 16.1564 52.0388 15.7498C51.7988 15.3364 51.6788 14.8698 51.6788 14.3498C51.6788 13.8231 51.7988 13.3564 52.0388 12.9498C52.2788 12.5431 52.6055 12.2264 53.0188 11.9998C53.4321 11.7664 53.9055 11.6498 54.4388 11.6498C54.9655 11.6498 55.4355 11.7664 55.8488 11.9998C56.2688 12.2264 56.5955 12.5431 56.8288 12.9498C57.0688 13.3498 57.1888 13.8164 57.1888 14.3498C57.1888 14.8764 57.0688 15.3431 56.8288 15.7498C56.5955 16.1564 56.2688 16.4764 55.8488 16.7098C55.4355 16.9431 54.9655 17.0598 54.4388 17.0598ZM54.4388 16.2198C54.7788 16.2198 55.0821 16.1431 55.3488 15.9898C55.6221 15.8364 55.8355 15.6198 55.9888 15.3398C56.1421 15.0531 56.2188 14.7231 56.2188 14.3498C56.2188 13.9698 56.1421 13.6431 55.9888 13.3698C55.8355 13.0898 55.6221 12.8731 55.3488 12.7198C55.0821 12.5664 54.7788 12.4898 54.4388 12.4898C54.0988 12.4898 53.7955 12.5664 53.5288 12.7198C53.2621 12.8731 53.0488 13.0898 52.8888 13.3698C52.7288 13.6431 52.6488 13.9698 52.6488 14.3498C52.6488 14.7231 52.7288 15.0531 52.8888 15.3398C53.0488 15.6198 53.2621 15.8364 53.5288 15.9898C53.7955 16.1431 54.0988 16.2198 54.4388 16.2198ZM59.49 16.9998L57.52 11.6998H58.43L60.18 16.4998H59.75L61.57 11.6998H62.38L64.16 16.4998H63.74L65.53 11.6998H66.39L64.41 16.9998H63.49L61.82 12.6198H62.1L60.41 16.9998H59.49ZM70.1941 11.6498C70.6274 11.6498 71.0074 11.7331 71.3341 11.8998C71.6674 12.0664 71.9274 12.3198 72.1141 12.6598C72.3008 12.9998 72.3941 13.4298 72.3941 13.9498V16.9998H71.4341V14.0598C71.4341 13.5464 71.3074 13.1598 71.0541 12.8998C70.8074 12.6398 70.4574 12.5098 70.0041 12.5098C69.6641 12.5098 69.3674 12.5764 69.1141 12.7098C68.8608 12.8431 68.6641 13.0398 68.5241 13.2998C68.3908 13.5598 68.3241 13.8831 68.3241 14.2698V16.9998H67.3641V11.6998H68.2841V13.1298L68.1341 12.7498C68.3074 12.4031 68.5741 12.1331 68.9341 11.9398C69.2941 11.7464 69.7141 11.6498 70.1941 11.6498ZM74.1707 16.9998V9.57976H75.1307V16.9998H74.1707ZM79.2337 17.0598C78.7004 17.0598 78.227 16.9431 77.8137 16.7098C77.4004 16.4764 77.0737 16.1564 76.8337 15.7498C76.5937 15.3364 76.4737 14.8698 76.4737 14.3498C76.4737 13.8231 76.5937 13.3564 76.8337 12.9498C77.0737 12.5431 77.4004 12.2264 77.8137 11.9998C78.227 11.7664 78.7004 11.6498 79.2337 11.6498C79.7604 11.6498 80.2304 11.7664 80.6437 11.9998C81.0637 12.2264 81.3904 12.5431 81.6237 12.9498C81.8637 13.3498 81.9837 13.8164 81.9837 14.3498C81.9837 14.8764 81.8637 15.3431 81.6237 15.7498C81.3904 16.1564 81.0637 16.4764 80.6437 16.7098C80.2304 16.9431 79.7604 17.0598 79.2337 17.0598ZM79.2337 16.2198C79.5737 16.2198 79.877 16.1431 80.1437 15.9898C80.417 15.8364 80.6304 15.6198 80.7837 15.3398C80.937 15.0531 81.0137 14.7231 81.0137 14.3498C81.0137 13.9698 80.937 13.6431 80.7837 13.3698C80.6304 13.0898 80.417 12.8731 80.1437 12.7198C79.877 12.5664 79.5737 12.4898 79.2337 12.4898C78.8937 12.4898 78.5904 12.5664 78.3237 12.7198C78.057 12.8731 77.8437 13.0898 77.6837 13.3698C77.5237 13.6431 77.4437 13.9698 77.4437 14.3498C77.4437 14.7231 77.5237 15.0531 77.6837 15.3398C77.8437 15.6198 78.057 15.8364 78.3237 15.9898C78.5904 16.1431 78.8937 16.2198 79.2337 16.2198ZM86.5525 16.9998V15.8798L86.5025 15.6698V13.7598C86.5025 13.3531 86.3825 13.0398 86.1425 12.8198C85.9092 12.5931 85.5559 12.4798 85.0825 12.4798C84.7692 12.4798 84.4625 12.5331 84.1625 12.6398C83.8625 12.7398 83.6092 12.8764 83.4025 13.0498L83.0025 12.3298C83.2759 12.1098 83.6025 11.9431 83.9825 11.8298C84.3692 11.7098 84.7725 11.6498 85.1925 11.6498C85.9192 11.6498 86.4792 11.8264 86.8725 12.1798C87.2659 12.5331 87.4625 13.0731 87.4625 13.7998V16.9998H86.5525ZM84.8125 17.0598C84.4192 17.0598 84.0725 16.9931 83.7725 16.8598C83.4792 16.7264 83.2525 16.5431 83.0925 16.3098C82.9325 16.0698 82.8525 15.7998 82.8525 15.4998C82.8525 15.2131 82.9192 14.9531 83.0525 14.7198C83.1925 14.4864 83.4159 14.2998 83.7225 14.1598C84.0359 14.0198 84.4559 13.9498 84.9825 13.9498H86.6625V14.6398H85.0225C84.5425 14.6398 84.2192 14.7198 84.0525 14.8798C83.8859 15.0398 83.8025 15.2331 83.8025 15.4598C83.8025 15.7198 83.9059 15.9298 84.1125 16.0898C84.3192 16.2431 84.6059 16.3198 84.9725 16.3198C85.3325 16.3198 85.6459 16.2398 85.9125 16.0798C86.1859 15.9198 86.3825 15.6864 86.5025 15.3798L86.6925 16.0398C86.5659 16.3531 86.3425 16.6031 86.0225 16.7898C85.7025 16.9698 85.2992 17.0598 84.8125 17.0598ZM91.4291 17.0598C90.9158 17.0598 90.4558 16.9464 90.0491 16.7198C89.6491 16.4931 89.3324 16.1764 89.0991 15.7698C88.8658 15.3631 88.7491 14.8898 88.7491 14.3498C88.7491 13.8098 88.8658 13.3398 89.0991 12.9398C89.3324 12.5331 89.6491 12.2164 90.0491 11.9898C90.4558 11.7631 90.9158 11.6498 91.4291 11.6498C91.8758 11.6498 92.2791 11.7498 92.6391 11.9498C92.9991 12.1498 93.2858 12.4498 93.4991 12.8498C93.7191 13.2498 93.8291 13.7498 93.8291 14.3498C93.8291 14.9498 93.7224 15.4498 93.5091 15.8498C93.3024 16.2498 93.0191 16.5531 92.6591 16.7598C92.2991 16.9598 91.8891 17.0598 91.4291 17.0598ZM91.5091 16.2198C91.8424 16.2198 92.1424 16.1431 92.4091 15.9898C92.6824 15.8364 92.8958 15.6198 93.0491 15.3398C93.2091 15.0531 93.2891 14.7231 93.2891 14.3498C93.2891 13.9698 93.2091 13.6431 93.0491 13.3698C92.8958 13.0898 92.6824 12.8731 92.4091 12.7198C92.1424 12.5664 91.8424 12.4898 91.5091 12.4898C91.1691 12.4898 90.8658 12.5664 90.5991 12.7198C90.3324 12.8731 90.1191 13.0898 89.9591 13.3698C89.7991 13.6431 89.7191 13.9698 89.7191 14.3498C89.7191 14.7231 89.7991 15.0531 89.9591 15.3398C90.1191 15.6198 90.3324 15.8364 90.5991 15.9898C90.8658 16.1431 91.1691 16.2198 91.5091 16.2198ZM93.3191 16.9998V15.5698L93.3791 14.3398L93.2791 13.1098V9.57976H94.2391V16.9998H93.3191Z" fill="#6F7D98"/>
<defs>
<clipPath id="clip0_11278_6891">
<rect width="20" height="20" fill="white" transform="translate(17.9971 9.99976)"/>
</clipPath>
</defs>
</svg>
