
<svg width="150" height="60" viewBox="0 0 150 60" fill="none" xmlns="http://www.w3.org/2000/svg">
<g clip-path="url(#clip0_11278_7165)">
<mask id="mask0_11278_7165" style="mask-type:luminance" maskUnits="userSpaceOnUse" x="19" y="4" width="41" height="52">
<path d="M31.4257 48.4122C29.8905 46.1904 29.7612 43.8949 31.5739 40.7918C33.3865 37.6886 39.3599 33.7404 39.3599 33.7404C39.3599 33.7404 42.7816 31.9225 42.7816 30.1228C42.7816 30.0815 42.7799 30.0407 42.7777 29.9999C42.7799 29.9592 42.7816 29.9184 42.7816 29.8771C42.7816 28.0773 39.3599 26.2594 39.3599 26.2594C39.3599 26.2594 39.3555 26.2561 39.3482 26.2517C39.0653 26.0633 33.3416 22.2346 31.5739 19.2081C29.7612 16.1049 29.891 13.8094 31.4257 11.5877C32.9604 9.36597 36.7522 7.97002 42.5225 8.33746C48.2928 8.70491 54.6413 10.4446 59.4012 14.698C59.4012 14.698 55.3392 7.52932 45.0009 5.52795C34.6626 3.52658 26.7096 7.56623 22.1233 11.716C20.9071 12.8162 20.2829 13.8661 20.0771 14.8671C19.5067 17.6419 22.1544 20.0399 24.3427 22.0914C27.2666 24.8321 28.5666 27.5551 28.5428 29.9999C28.5666 32.4448 27.2666 35.1678 24.3427 37.9084C22.1544 39.9599 19.5067 42.3579 20.0765 45.1322C20.2823 46.1332 20.9065 47.1831 22.1227 48.2838C26.7096 52.4336 34.6621 56.4738 45.0004 54.4719C55.3387 52.4705 59.4007 45.3019 59.4007 45.3019C54.6407 49.5553 48.2922 51.2949 42.5219 51.6624C36.7522 52.0298 32.961 50.6339 31.4257 48.4122Z" fill="white"/>
</mask>
<g mask="url(#mask0_11278_7165)">
<path opacity="0.5" d="M27.3116 20.6819L39.3488 26.2524C39.0659 26.064 33.3422 22.2354 31.5744 19.2088C29.7618 16.1057 29.8916 13.8101 31.4263 11.5884C32.961 9.3667 36.7527 7.97076 42.5231 8.3382C48.2934 8.70564 54.6418 10.4453 59.4018 14.6987C59.4018 14.6987 55.3398 7.53005 45.0015 5.52868C34.6632 3.52732 26.7102 7.56696 22.1239 11.7168C20.9077 12.8169 20.2835 13.8669 20.0776 14.8678C20.1708 17.9197 27.3116 20.6819 27.3116 20.6819Z" fill="white"/>
<path opacity="0.5" d="M31.4269 48.4122C29.8916 46.1905 29.7623 43.8949 31.575 40.7918C33.3876 37.6887 39.361 33.7405 39.361 33.7405L27.3116 39.316C27.3116 39.316 20.1681 42.0792 20.0776 45.1322C20.2835 46.1332 20.9077 47.1832 22.1239 48.2839C26.7107 52.4337 34.6632 56.4739 45.0015 54.4719C55.3398 52.4706 59.4018 45.3019 59.4018 45.3019C54.6418 49.5553 48.2934 51.295 42.5231 51.6624C36.7533 52.0299 32.9621 50.6339 31.4269 48.4122Z" fill="white"/>
<path opacity="0.2" d="M27.3106 39.3165L39.36 33.7404C39.36 33.7404 42.7817 31.9225 42.7817 30.1227C42.7817 30.0814 42.7801 30.0406 42.7778 29.9999C42.7801 29.9591 42.7817 29.9184 42.7817 29.877C42.7817 28.0773 39.36 26.2594 39.36 26.2594C39.36 26.2594 39.3556 26.2561 39.3484 26.2517L27.3106 20.6822C27.3106 20.6822 20.1699 17.9201 20.0766 14.8682C19.5063 17.643 22.154 20.041 24.3422 22.0925C27.2662 24.8331 28.5662 27.5562 28.5424 30.001C28.5662 32.4458 27.2662 35.1688 24.3422 37.9095C22.1545 39.9604 19.5068 42.3584 20.0766 45.1327C20.1671 42.0802 27.3106 39.3165 27.3106 39.3165Z" fill="white"/>
</g>
<path d="M49.5478 31.2079C49.5478 31.4933 49.6915 31.707 49.9789 31.8497C50.2658 31.9924 50.6298 32.0662 51.0703 32.0706C51.5103 32.0755 51.9414 32.0568 52.3631 32.0155C52.7848 31.9742 53.1831 31.9257 53.5582 31.8706C53.9333 31.8155 54.1491 31.788 54.2046 31.788C54.2418 32.5884 54.082 33.1542 53.7252 33.4853C53.3684 33.8163 52.6527 33.9822 51.5774 33.9822C50.0949 33.9822 49.0058 33.683 48.3111 33.0853C47.6159 32.4876 47.2686 31.4525 47.2686 29.98C47.2686 29.244 47.3634 28.6204 47.5532 28.1097C47.7429 27.599 48.0209 27.2107 48.3871 26.9435C48.7533 26.6769 49.1606 26.4879 49.6105 26.3777C50.0599 26.2676 50.5859 26.2119 51.1879 26.2119C52.337 26.2119 53.1826 26.4532 53.7247 26.9363C54.2667 27.4195 54.538 28.1901 54.538 29.2478C54.538 29.6527 54.4593 29.9772 54.3017 30.2207C54.1441 30.4647 53.9377 30.6278 53.683 30.7104C53.4278 30.7931 53.1221 30.8531 52.7659 30.89C52.4091 30.9269 52.0568 30.9385 51.7095 30.9247C51.3622 30.911 50.9865 30.9269 50.5837 30.9732C50.1803 31.0195 49.8347 31.0972 49.5478 31.2079ZM49.4785 29.7585C49.6361 29.6483 49.8929 29.5745 50.2497 29.5376C50.6065 29.5007 50.9399 29.4803 51.2506 29.4754C51.5608 29.471 51.8365 29.4065 52.0779 29.282C52.3187 29.158 52.4347 28.9625 52.4252 28.6953C52.4252 28.4562 52.2355 28.2585 51.8554 28.102C51.3272 27.8811 50.8129 27.8629 50.3124 28.0469C49.6172 28.2959 49.3392 28.8661 49.4785 29.7585Z" fill="white"/>
<path d="M63.4897 28.8343V33.8578C63.1651 33.876 62.8871 33.8738 62.6557 33.8506C62.4238 33.8275 62.2041 33.7746 61.9955 33.692C61.7869 33.6094 61.6343 33.4733 61.5366 33.2849C61.4395 33.0965 61.3952 32.8596 61.4046 32.5742V29.5934V29.5659V28.8756C61.2659 28.2041 60.635 27.9369 59.5143 28.0752C58.9306 28.149 58.5921 28.2041 58.4995 28.241C58.5272 28.3974 58.5411 28.5814 58.5411 28.793V32.5742C58.5499 32.8596 58.5039 33.0965 58.4024 33.2849C58.3003 33.4733 58.1471 33.6094 57.9435 33.692C57.7393 33.7746 57.5218 33.8281 57.2905 33.8506C57.0585 33.8738 56.7806 33.876 56.4565 33.8578V27.137C56.4565 26.5393 57.4247 26.217 59.3617 26.1708C62.1042 26.0969 63.4802 26.985 63.4897 28.8343Z" fill="white"/>
<path d="M70.7593 23.2166C70.8986 23.3179 71.0722 23.3824 71.2803 23.4099C71.4889 23.4375 71.6787 23.4512 71.8501 23.4512C72.0216 23.4512 72.1858 23.4766 72.3434 23.5273C72.5009 23.5779 72.6236 23.6997 72.7118 23.893C72.8 24.0864 72.8438 24.3668 72.8438 24.7348V32.8774C72.8344 32.8868 72.7906 32.9397 72.7118 33.0361C72.633 33.1325 72.5609 33.2107 72.4965 33.2708C72.4316 33.3308 72.3112 33.4085 72.1353 33.5054C71.9594 33.6018 71.7647 33.6779 71.5516 33.733C71.3386 33.788 71.0512 33.8387 70.69 33.885C70.3288 33.9307 69.9204 33.9539 69.4665 33.9539C68.0395 33.9539 67.0153 33.6481 66.3944 33.0361C65.7735 32.4246 65.4634 31.4055 65.4634 29.9792C65.4634 29.4272 65.5372 28.9325 65.6859 28.4957C65.834 28.0588 66.031 27.7019 66.2768 27.4259C66.522 27.1499 66.8116 26.9202 67.1456 26.7356C67.4791 26.5516 67.8176 26.4227 68.1604 26.3494C68.5033 26.2762 68.8601 26.2393 69.2307 26.2393C69.9443 26.2393 70.4541 26.3494 70.7599 26.5703V23.2166H70.7593ZM70.7593 30.1175V28.158C70.6389 28.1211 70.5069 28.0891 70.3632 28.0616C70.2195 28.034 70.0414 28.0131 69.8277 27.9993C69.6147 27.9856 69.4127 27.9878 69.223 28.0065C69.0332 28.0252 68.8357 28.0803 68.6321 28.1723C68.4284 28.2643 68.252 28.3861 68.1039 28.5381C67.9557 28.6901 67.8348 28.9017 67.7427 29.1727C67.65 29.4443 67.6039 29.7638 67.6039 30.1318C67.6039 30.4816 67.6594 30.7852 67.771 31.0424C67.8819 31.3002 68.019 31.498 68.181 31.6357C68.343 31.774 68.5422 31.877 68.7785 31.9464C69.0149 32.0158 69.228 32.0566 69.4177 32.0704C69.6075 32.0842 69.8139 32.0797 70.0364 32.0566C70.2588 32.034 70.4136 32.0131 70.5019 31.9944C70.5901 31.9762 70.6711 31.9574 70.7449 31.9393H70.7588C70.7682 31.9387 70.7682 31.3316 70.7593 30.1175Z" fill="white"/>
<path d="M74.8175 30.0347C74.808 29.9796 74.8014 29.9058 74.7964 29.8138C74.7914 29.7218 74.8058 29.5427 74.838 29.2755C74.8702 29.0089 74.9234 28.7533 74.9978 28.5098C75.0716 28.2663 75.2014 27.9969 75.3867 27.7022C75.572 27.408 75.8012 27.1552 76.0747 26.9431C76.3477 26.7316 76.7161 26.5547 77.18 26.4115C77.6432 26.2688 78.1715 26.1978 78.7646 26.1978C79.1818 26.1978 79.5658 26.2303 79.9181 26.2942C80.2704 26.3586 80.5733 26.4462 80.8286 26.5564C81.0832 26.6666 81.3102 26.8048 81.5099 26.9706C81.7091 27.1365 81.8733 27.2995 82.0032 27.4604C82.133 27.6212 82.2418 27.8124 82.33 28.0333C82.4176 28.2542 82.4848 28.4454 82.5314 28.6062C82.5774 28.7671 82.6102 28.956 82.6285 29.172C82.6468 29.3885 82.6584 29.5515 82.6634 29.6617C82.6679 29.7719 82.6679 29.9124 82.6634 30.0826C82.6584 30.2528 82.6562 30.347 82.6562 30.3658C82.6562 30.5128 82.6512 30.6467 82.6423 30.7662C82.6329 30.8858 82.6052 31.0747 82.5591 31.332C82.5125 31.5898 82.4482 31.8195 82.3644 32.0223C82.2811 32.225 82.1491 32.4453 81.9682 32.6844C81.7873 32.9241 81.5743 33.124 81.329 33.2849C81.0832 33.4458 80.7637 33.5818 80.3697 33.692C79.9758 33.8022 79.533 33.8578 79.0426 33.8578C78.5327 33.8578 78.0788 33.8259 77.6804 33.7614C77.2821 33.697 76.9436 33.6121 76.6656 33.5063C76.3877 33.4006 76.1446 33.2557 75.936 33.0717C75.7274 32.8877 75.5582 32.6993 75.4289 32.5059C75.2991 32.3126 75.1925 32.0735 75.1093 31.7881C75.0261 31.5033 74.9634 31.229 74.9218 30.9668C74.8802 30.7045 74.8452 30.3938 74.8175 30.0347ZM76.8881 30.1592C76.9159 30.4814 76.9552 30.7365 77.0063 30.9249C77.0573 31.1133 77.15 31.3001 77.2843 31.484C77.4185 31.668 77.6199 31.8014 77.889 31.8845C78.1576 31.9672 78.5005 32.0085 78.9177 32.0085C79.2417 32.0085 79.5197 31.9578 79.7516 31.8564C79.983 31.7551 80.1544 31.6405 80.266 31.5116C80.3769 31.3827 80.4652 31.2268 80.5301 31.0422C80.595 30.8582 80.6322 30.7205 80.641 30.628C80.6499 30.536 80.6549 30.4346 80.6549 30.3244C80.6549 30.3156 80.6549 30.2671 80.6549 30.1796C80.6549 30.092 80.6549 30.0187 80.6549 29.9586C80.6549 29.8992 80.6499 29.8094 80.641 29.6893C80.6316 29.5697 80.6155 29.4662 80.5922 29.3786C80.5689 29.291 80.5367 29.188 80.4951 29.0679C80.4535 28.9483 80.4025 28.8448 80.3425 28.7572C80.2821 28.6696 80.2033 28.5803 80.1062 28.4878C80.0091 28.3958 79.8998 28.3198 79.7794 28.2603C79.659 28.2008 79.5131 28.1523 79.3416 28.1154C79.1702 28.0785 78.9826 28.0603 78.7785 28.0603C78.4078 28.0603 78.0927 28.111 77.833 28.2123C77.5733 28.3137 77.3836 28.431 77.2632 28.5644C77.1428 28.6977 77.0501 28.8729 76.9852 29.0888C76.9203 29.3053 76.8853 29.4733 76.8809 29.5923C76.8759 29.7119 76.8787 29.8639 76.8881 30.0479C76.8881 30.1041 76.8881 30.1404 76.8881 30.1592Z" fill="white"/>
<path d="M89.7313 26.198C89.7219 26.2167 89.7241 26.3131 89.7385 26.4878C89.7524 26.6624 89.7501 26.8304 89.7313 26.9913C89.7124 27.1521 89.6758 27.3251 89.6203 27.5086C89.5648 27.6926 89.4511 27.8396 89.2797 27.9504C89.1082 28.0605 88.8879 28.1162 88.6194 28.1162C88.2305 28.1162 87.9292 28.13 87.7161 28.1575C87.5031 28.185 87.3127 28.2539 87.1463 28.3646C86.9793 28.4748 86.8683 28.6318 86.8128 28.834C86.7574 29.0367 86.7296 29.3127 86.7296 29.662V34.0784C86.5626 33.9589 86.3423 33.8647 86.0694 33.7953C85.7958 33.7264 85.5645 33.6735 85.3741 33.6366C85.1838 33.5997 85.0152 33.4917 84.867 33.3121C84.7189 33.1325 84.6445 32.8731 84.6445 32.5326V28.834C84.6445 28.7789 84.6468 28.7029 84.6517 28.6065C84.6562 28.5101 84.6728 28.3767 84.7006 28.206C84.7283 28.0358 84.7744 27.8655 84.8393 27.6953C84.9042 27.5251 85.0013 27.3482 85.1311 27.1637C85.261 26.9797 85.418 26.8188 85.6038 26.6806C85.7892 26.5423 86.0277 26.4277 86.3196 26.3357C86.6114 26.2437 86.9382 26.198 87.2994 26.198C87.9203 26.198 88.3786 26.198 88.6754 26.198C88.9717 26.198 89.1343 26.198 89.162 26.198C89.1898 26.198 89.243 26.198 89.3218 26.198C89.3995 26.198 89.5365 26.198 89.7313 26.198Z" fill="white"/>
<path d="M93.5138 36.9074C93.3468 36.7879 93.1265 36.7163 92.8535 36.6937C92.58 36.6705 92.3486 36.659 92.1583 36.659C91.968 36.659 91.7993 36.5598 91.6512 36.362C91.5031 36.1643 91.4287 35.8398 91.4287 35.3892V27.2471C91.4376 27.2383 91.482 27.1848 91.5608 27.0884C91.6395 26.992 91.7111 26.916 91.776 26.8609C91.841 26.8058 91.9614 26.7276 92.1372 26.6262C92.3131 26.5249 92.5079 26.4466 92.7209 26.3916C92.934 26.3365 93.2214 26.2858 93.5826 26.2395C93.9438 26.1938 94.3516 26.1707 94.806 26.1707C96.2331 26.1707 97.2567 26.4764 97.8781 27.0884C98.499 27.7005 98.8097 28.7191 98.8097 30.1453C98.8097 30.8356 98.6988 31.4333 98.4763 31.9395C98.2538 32.4458 97.9553 32.8347 97.5796 33.1057C97.2046 33.3773 96.8056 33.5751 96.3845 33.6991C95.9628 33.823 95.5156 33.8853 95.0435 33.8853C94.4043 33.8853 93.8944 33.8208 93.5143 33.6919V36.9074H93.5138ZM93.5138 30.007V31.9665C93.6619 32.0128 93.8217 32.0492 93.9932 32.0767C94.1646 32.1042 94.3799 32.1274 94.6396 32.1456C94.8987 32.1643 95.14 32.1367 95.3625 32.0629C95.585 31.9897 95.7981 31.8833 96.0017 31.7456C96.2053 31.6079 96.3679 31.387 96.4883 31.0835C96.6087 30.7799 96.6692 30.4163 96.6692 29.9932C96.6692 29.6434 96.6115 29.3399 96.4955 29.0826C96.3795 28.8254 96.2453 28.6271 96.0921 28.4893C95.939 28.3516 95.7376 28.248 95.4874 28.1786C95.2371 28.1098 95.0285 28.0685 94.862 28.0547C94.695 28.0409 94.487 28.0475 94.2367 28.0756C93.9865 28.1032 93.8334 28.1219 93.7779 28.1307C93.7224 28.1401 93.6392 28.1582 93.5277 28.1858H93.5138C93.5044 28.1852 93.5044 28.7929 93.5138 30.007Z" fill="white"/>
<path d="M102.853 26.4603C103.306 26.2763 104.067 26.1843 105.132 26.1843C105.651 26.1843 106.096 26.2719 106.467 26.4466C106.837 26.6212 107.106 26.8217 107.273 27.047C107.44 27.2723 107.567 27.5302 107.655 27.8199C107.743 28.1097 107.792 28.3262 107.801 28.4683C107.81 28.611 107.81 28.7327 107.801 28.8341V33.8576C106.411 34.0416 105.716 33.6141 105.716 32.5741C105.716 32.1879 105.716 31.6816 105.716 31.0558C105.725 29.6852 105.661 28.8501 105.521 28.5509C105.383 28.2518 104.947 28.0932 104.215 28.075C103.76 28.075 103.306 28.1576 102.853 28.3234V32.5741C102.871 33.126 102.697 33.4874 102.332 33.6577C101.965 33.8279 101.444 33.8945 100.768 33.8576V23.0928C100.935 23.2123 101.155 23.2839 101.428 23.3065C101.701 23.3297 101.933 23.3412 102.124 23.3412C102.313 23.3412 102.483 23.4404 102.631 23.6381C102.779 23.8359 102.853 24.1604 102.853 24.611V26.4603H102.853Z" fill="white"/>
<path d="M110.123 25.4114C109.91 25.1905 109.803 24.9283 109.803 24.6247C109.803 24.3212 109.912 24.0612 110.13 23.8452C110.348 23.6293 110.609 23.5208 110.915 23.5208C111.221 23.5208 111.483 23.6293 111.701 23.8452C111.918 24.0617 112.028 24.3212 112.028 24.6247C112.028 24.9283 111.919 25.1883 111.701 25.4042C111.483 25.6207 111.221 25.7287 110.915 25.7287C110.609 25.7287 110.345 25.6229 110.123 25.4114ZM111.944 27.578C111.944 27.1274 111.869 26.8029 111.721 26.6052C111.573 26.4074 111.404 26.3082 111.214 26.3082C111.024 26.3082 110.792 26.2967 110.519 26.2735C110.245 26.2509 110.026 26.1793 109.859 26.0598V33.857C110.535 33.8939 111.056 33.8273 111.422 33.657C111.788 33.4868 111.962 33.1254 111.943 32.5734V27.578H111.944Z" fill="white"/>
<path d="M121.034 28.8343V33.8578C120.709 33.876 120.431 33.8738 120.2 33.8506C119.968 33.8275 119.748 33.7746 119.539 33.692C119.331 33.6094 119.178 33.4733 119.081 33.2849C118.983 33.0965 118.939 32.8596 118.949 32.5742V29.5934V29.5659V28.8756C118.81 28.2041 118.179 27.9369 117.058 28.0752C116.475 28.149 116.136 28.2041 116.043 28.241C116.071 28.3974 116.085 28.5814 116.085 28.793V32.5742C116.094 32.8596 116.048 33.0965 115.946 33.2849C115.844 33.4733 115.691 33.6094 115.487 33.692C115.283 33.7746 115.066 33.8281 114.834 33.8506C114.602 33.8738 114.325 33.876 114 33.8578V27.137C114 26.5393 114.969 26.217 116.906 26.1708C119.648 26.0969 121.024 26.985 121.034 28.8343Z" fill="white"/>
<path d="M123.563 28.1302C123.563 28.1027 123.558 28.0658 123.549 28.02C123.539 27.9743 123.537 27.8845 123.542 27.7507C123.546 27.6173 123.56 27.4906 123.583 27.3711C123.606 27.2516 123.653 27.116 123.722 26.964C123.792 26.8119 123.884 26.6836 124 26.5778C124.116 26.4721 124.273 26.3823 124.473 26.3084C124.672 26.2352 124.906 26.1983 125.175 26.1983C125.258 26.1983 125.388 26.1983 125.564 26.1983C125.805 26.1894 126.053 26.1894 126.307 26.1983C126.562 26.2076 126.817 26.2192 127.072 26.233C127.327 26.2467 127.575 26.2859 127.815 26.3503C128.056 26.4148 128.285 26.493 128.503 26.585C128.721 26.677 128.921 26.8081 129.101 26.9783C129.282 27.1485 129.439 27.3441 129.574 27.565C129.708 27.7859 129.812 28.0575 129.887 28.3792C129.96 28.7015 129.998 29.0645 129.998 29.4694V29.5658V29.6622V29.7724V29.8688V29.979V30.0892V30.2131V30.3508V30.4891V30.6549V30.8758V30.986C129.998 31.3634 129.956 31.706 129.873 32.014C129.79 32.3225 129.685 32.5731 129.56 32.7659C129.435 32.9593 129.28 33.1295 129.094 33.2766C128.909 33.4237 128.735 33.5316 128.573 33.6011C128.411 33.6699 128.223 33.725 128.01 33.7669C127.797 33.8082 127.632 33.8335 127.517 33.8429C127.401 33.8523 127.265 33.8567 127.107 33.8567H125.189C125.161 33.8567 125.12 33.8545 125.064 33.8495C125.009 33.8451 124.904 33.8313 124.751 33.8082C124.598 33.7851 124.452 33.7509 124.313 33.7046C124.175 33.6589 124.019 33.5829 123.848 33.4771C123.676 33.3713 123.53 33.2474 123.41 33.1047C123.29 32.962 123.188 32.7758 123.104 32.5456C123.021 32.3158 122.979 32.058 122.979 31.7727C122.979 31.267 123.044 30.8411 123.174 30.4963C123.304 30.1514 123.501 29.8842 123.765 29.6958C124.029 29.5074 124.323 29.3763 124.648 29.3025C124.972 29.2292 125.366 29.1923 125.829 29.1923C126.635 29.1923 127.185 29.1394 127.476 29.0337C127.768 28.9279 127.914 28.7643 127.914 28.5439C127.914 28.231 127.611 28.0195 127.004 27.9093C126.397 27.7991 125.753 27.776 125.072 27.8404C124.39 27.9049 123.887 28.0013 123.563 28.1302ZM127.969 30.2142C127.932 30.2605 127.879 30.3156 127.809 30.38C127.74 30.4445 127.585 30.5299 127.344 30.6351C127.103 30.7409 126.853 30.7937 126.593 30.7937C126.139 30.7937 125.771 30.8488 125.488 30.9596C125.205 31.0697 125.064 31.2267 125.064 31.4289C125.064 31.668 125.166 31.8476 125.37 31.9671C125.573 32.0867 125.981 32.1467 126.593 32.1467C126.843 32.1467 127.035 32.1445 127.17 32.1396C127.304 32.1352 127.429 32.1004 127.545 32.036C127.661 31.9715 127.742 31.912 127.788 31.8564C127.834 31.8013 127.874 31.684 127.906 31.5044C127.939 31.3248 127.957 31.1524 127.962 30.9871C127.966 30.8213 127.969 30.564 127.969 30.2142Z" fill="white"/>
</g>
<defs>
<clipPath id="clip0_11278_7165">
<rect width="110" height="50" fill="white" transform="translate(20 5)"/>
</clipPath>
</defs>
</svg>
