
<svg width="100" height="30" viewBox="0 0 100 30" fill="none" xmlns="http://www.w3.org/2000/svg">
<path d="M34.2675 12.785H33.2105V11.011C33.2113 10.8853 33.1849 10.761 33.1331 10.6466C33.0814 10.5321 33.0054 10.4303 32.9105 10.348C32.8119 10.2641 32.6963 10.2028 32.5716 10.1683C32.4469 10.1337 32.3161 10.1268 32.1885 10.148C31.9853 10.1836 31.8015 10.2904 31.6699 10.4493C31.5383 10.6082 31.4676 10.8087 31.4705 11.015V12.781H30.4775C30.2473 12.7841 30.0274 12.877 29.8647 13.0399C29.702 13.2027 29.6093 13.4227 29.6065 13.653C29.6053 13.7677 29.627 13.8815 29.6703 13.9877C29.7137 14.0939 29.7778 14.1904 29.8589 14.2715C29.94 14.3527 30.0365 14.4168 30.1428 14.4601C30.249 14.5035 30.3628 14.5252 30.4775 14.524H31.4705V20.333C31.4708 20.564 31.5626 20.7855 31.7258 20.9489C31.8891 21.1124 32.1105 21.2044 32.3415 21.205C32.5717 21.2018 32.7916 21.1089 32.9543 20.9461C33.117 20.7832 33.2096 20.5632 33.2125 20.333V14.528H34.2695C34.3843 14.5293 34.4982 14.5077 34.6045 14.4644C34.7109 14.4211 34.8075 14.357 34.8887 14.2759C34.9699 14.1948 35.0341 14.0982 35.0776 13.9919C35.121 13.8856 35.1427 13.7718 35.1415 13.657C35.1414 13.5423 35.1187 13.4288 35.0747 13.3229C35.0307 13.2171 34.9662 13.1209 34.8851 13.0399C34.8039 12.959 34.7076 12.8948 34.6017 12.851C34.4957 12.8073 34.3821 12.7848 34.2675 12.785Z" fill="white"/>
<path d="M23.4005 12.6379H23.3935C21.1535 12.6379 19.3315 14.5869 19.3315 16.9829C19.3315 19.3789 21.1535 21.3279 23.3935 21.3279C24.8935 21.3279 26.2405 20.6109 26.9025 19.4569L26.9175 19.4279C27.0091 19.2569 27.0414 19.0603 27.0095 18.8689C26.9859 18.727 26.927 18.5933 26.8382 18.4801C26.7495 18.3669 26.6337 18.2778 26.5015 18.2209C26.3132 18.1394 26.1021 18.1268 25.9054 18.1854C25.7086 18.2439 25.5388 18.3697 25.4255 18.5409C24.9255 19.2579 24.2975 19.5769 23.3975 19.5769C22.3035 19.5769 21.5395 18.7679 21.2335 17.8499H26.6005C26.8341 17.8502 27.0583 17.7578 27.2238 17.593C27.3893 17.4282 27.4827 17.2045 27.4835 16.9709C27.4735 14.5789 25.6445 12.6379 23.4005 12.6379ZM21.2335 16.1079C21.5385 15.1899 22.3005 14.3799 23.4005 14.3799C24.4745 14.3799 25.2645 15.1799 25.5695 16.1079H21.2335Z" fill="white"/>
<path d="M41.3824 12.6579C40.6747 12.6579 39.9852 12.8827 39.4134 13.2999V7.60489C39.4132 7.37397 39.3213 7.15258 39.158 6.98929C38.9947 6.826 38.7734 6.73415 38.5424 6.73389C38.3122 6.73673 38.0922 6.82938 37.9293 6.99209C37.7664 7.15479 37.6735 7.37468 37.6704 7.60489V20.2999C37.6695 20.4257 37.6959 20.5501 37.7477 20.6648C37.7995 20.7794 37.8754 20.8814 37.9704 20.9639C38.0691 21.0475 38.1848 21.1087 38.3094 21.1433C38.4341 21.1778 38.5648 21.1848 38.6924 21.1639C38.8958 21.1282 39.0798 21.0213 39.2114 20.8622C39.343 20.7031 39.4135 20.5023 39.4104 20.2959V17.3959C39.4104 17.3839 39.4104 17.3259 39.4014 17.2579C39.4014 17.2109 39.3914 17.1579 39.3904 17.1369V17.1009C39.3334 16.2219 39.5614 15.4389 40.0164 14.9549C40.3564 14.5919 40.8164 14.4069 41.3844 14.4069C42.4994 14.4069 43.0074 15.4629 43.0074 16.4439V20.2999C43.0061 20.4147 43.0277 20.5286 43.071 20.6349C43.1143 20.7413 43.1784 20.8379 43.2595 20.9191C43.3406 21.0003 43.4372 21.0645 43.5435 21.1079C43.6497 21.1514 43.7636 21.1731 43.8784 21.1719C44.1094 21.1714 44.3308 21.0793 44.4941 20.9158C44.6573 20.7524 44.7492 20.5309 44.7494 20.2999V16.4369C44.7514 14.6049 43.5714 12.6579 41.3824 12.6579Z" fill="white"/>
<path d="M82.2001 12.866L82.1811 12.86C82.052 12.8211 81.9156 12.8132 81.7828 12.8368C81.6501 12.8604 81.5248 12.9149 81.4171 12.996C81.3075 13.0771 81.2183 13.1825 81.1566 13.304C81.0948 13.4255 81.0621 13.5597 81.0611 13.696V16.17C81.0611 17.775 80.8391 19.617 79.1121 19.617C77.9971 19.617 77.4891 18.562 77.4891 17.581V13.7C77.4888 13.469 77.397 13.2477 77.2337 13.0844C77.0704 12.9211 76.849 12.8292 76.6181 12.829C76.388 12.8321 76.1683 12.9248 76.0056 13.0875C75.8429 13.2502 75.7502 13.4699 75.7471 13.7V17.585C75.7471 18.56 76.0471 19.475 76.5951 20.163C76.8594 20.4929 77.1864 20.7671 77.5573 20.9699C77.9282 21.1727 78.3356 21.2999 78.7559 21.3444C79.1763 21.3888 79.6013 21.3495 80.0064 21.2288C80.4115 21.1081 80.7886 20.9083 81.1161 20.641C81.1762 20.8098 81.2876 20.9556 81.4345 21.0582C81.5815 21.1607 81.7569 21.2148 81.9361 21.213C82.1672 21.2127 82.3887 21.1207 82.552 20.9572C82.7153 20.7937 82.8071 20.5721 82.8071 20.341V13.712C82.8074 13.5251 82.7489 13.3429 82.64 13.1911C82.5311 13.0393 82.3772 12.9255 82.2001 12.866Z" fill="white"/>
<path d="M51.5402 12.6379H51.5332C49.2932 12.6379 47.4702 14.5869 47.4702 16.9829C47.4702 19.3789 49.2932 21.3279 51.5332 21.3279C53.0332 21.3279 54.3802 20.6109 55.0422 19.4569L55.0572 19.4279C55.1487 19.2569 55.1811 19.0603 55.1492 18.8689C55.1256 18.727 55.0667 18.5933 54.9779 18.4801C54.8892 18.3669 54.7734 18.2778 54.6412 18.2209C54.4528 18.1394 54.2418 18.1268 54.0451 18.1854C53.8483 18.2439 53.6784 18.3697 53.5652 18.5409C53.0652 19.2579 52.4372 19.5769 51.5372 19.5769C50.4432 19.5769 49.6792 18.7679 49.3732 17.8499H54.7392C54.9729 17.8502 55.1971 17.7578 55.3628 17.5931C55.5285 17.4283 55.6222 17.2046 55.6232 16.9709C55.6182 14.5789 53.7872 12.6379 51.5402 12.6379ZM49.3732 16.1079C49.6792 15.1889 50.4432 14.3799 51.5372 14.3799C52.6112 14.3799 53.4012 15.1799 53.7062 16.1079H49.3732Z" fill="white"/>
<path d="M94.78 12.6582C94.2578 12.6595 93.743 12.7813 93.2755 13.014C92.8081 13.2468 92.4007 13.5843 92.085 14.0002C91.7885 13.5825 91.3954 13.2428 90.9392 13.01C90.4829 12.7772 89.9772 12.6582 89.465 12.6632C88.7327 12.6622 88.0201 12.8999 87.435 13.3402C87.3834 13.2096 87.3007 13.0936 87.194 13.0022C87.0954 12.9184 86.9798 12.8571 86.8551 12.8225C86.7304 12.788 86.5996 12.7811 86.472 12.8022C86.2688 12.8378 86.085 12.9447 85.9534 13.1035C85.8218 13.2624 85.7511 13.4629 85.754 13.6692V20.3002C85.753 20.426 85.7793 20.5505 85.8311 20.6651C85.8829 20.7798 85.959 20.8818 86.054 20.9642C86.2141 21.0996 86.4173 21.1734 86.627 21.1722C86.6759 21.1721 86.7247 21.1681 86.773 21.1602C86.9776 21.126 87.1633 21.0197 87.2963 20.8605C87.4293 20.7013 87.5008 20.4997 87.498 20.2922V17.4402C87.5087 17.3629 87.5087 17.2845 87.498 17.2072V17.2002C87.462 16.1632 87.681 15.3672 88.132 14.9002C88.455 14.5662 88.892 14.4002 89.467 14.4002C90.748 14.4002 91.09 15.6662 91.09 16.4132V20.3002C91.0887 20.415 91.1103 20.5289 91.1535 20.6352C91.1968 20.7416 91.2609 20.8382 91.3421 20.9194C91.4232 21.0007 91.5197 21.0649 91.626 21.1083C91.7323 21.1517 91.8462 21.1734 91.961 21.1722C92.1921 21.1719 92.4136 21.08 92.5769 20.9164C92.7403 20.7529 92.832 20.5313 92.832 20.3002V17.3002C92.832 16.3002 93.24 14.4002 94.782 14.4002C96.062 14.4002 96.404 15.6662 96.404 16.4132V20.3002C96.4027 20.415 96.4243 20.5289 96.4675 20.6352C96.5108 20.7416 96.5749 20.8382 96.6561 20.9194C96.7372 21.0007 96.8337 21.0649 96.94 21.1083C97.0463 21.1517 97.1602 21.1734 97.275 21.1722C97.5062 21.1719 97.7278 21.08 97.8913 20.9165C98.0548 20.753 98.1467 20.5314 98.147 20.3002V16.4132C98.149 14.5932 96.968 12.6582 94.78 12.6582Z" fill="white"/>
<path d="M68.945 12.6379H68.937C66.697 12.6379 64.875 14.5869 64.875 16.9829C64.875 19.3789 66.697 21.3279 68.937 21.3279C70.437 21.3279 71.785 20.6109 72.446 19.4569L72.462 19.4279C72.5535 19.2569 72.5859 19.0603 72.554 18.8689C72.5304 18.727 72.4715 18.5933 72.3827 18.4801C72.2939 18.3669 72.1782 18.2778 72.046 18.2209C71.8576 18.1394 71.6466 18.1268 71.4498 18.1854C71.2531 18.2439 71.0832 18.3697 70.97 18.5409C70.47 19.2579 69.842 19.5769 68.941 19.5769C67.848 19.5769 67.084 18.7679 66.778 17.8499H72.14C72.3737 17.8502 72.5979 17.7578 72.7636 17.5931C72.9293 17.4283 73.0229 17.2046 73.024 16.9709C73.019 14.5789 71.189 12.6379 68.945 12.6379ZM66.778 16.1079C67.084 15.1889 67.848 14.3799 68.941 14.3799C70.016 14.3799 70.806 15.1799 71.111 16.1079H66.778Z" fill="white"/>
<path d="M62.1631 12.7889C61.4331 12.7889 60.75 13.0949 60.191 13.5319C60.1608 13.3255 60.0576 13.1367 59.9001 12.9999C59.8014 12.9162 59.6857 12.855 59.5611 12.8205C59.4364 12.7859 59.3057 12.7789 59.1781 12.7999C58.9748 12.8355 58.7908 12.9423 58.6591 13.1012C58.5273 13.26 58.4564 13.4606 58.4591 13.6669V20.2759C58.4581 20.391 58.4802 20.5052 58.5239 20.6117C58.5676 20.7182 58.6322 20.8148 58.7138 20.896C58.7954 20.9773 58.8923 21.0414 58.999 21.0846C59.1057 21.1279 59.2199 21.1494 59.335 21.1479C59.385 21.1479 59.4348 21.1439 59.4841 21.1359C59.6874 21.1003 59.8714 20.9933 60.003 20.8342C60.1346 20.6751 60.2052 20.4744 60.2021 20.2679V17.3679C60.2021 16.6049 60.4021 14.7999 62.292 14.5259C62.5094 14.5021 62.7097 14.3973 62.8532 14.2324C62.9966 14.0674 63.0726 13.8544 63.066 13.6359C63.066 13.5257 63.0437 13.4166 63.0004 13.3152C62.9571 13.2138 62.8937 13.1222 62.8141 13.0459C62.6392 12.8781 62.4054 12.7858 62.1631 12.7889Z" fill="white"/>
<path d="M8.70107 20.9017L1.85107 16.9297L8.70107 26.4137L15.5501 16.9297L8.70107 20.9067V20.9017Z" fill="white"/>
<path d="M15.5501 15.6561L8.70107 4.49512L1.85107 15.6561L8.70107 19.6331L15.5501 15.6561Z" fill="white"/>
</svg>
