
<svg width="150" height="60" viewBox="0 0 150 60" fill="none" xmlns="http://www.w3.org/2000/svg">
<path d="M58.4886 40.3454C58.4886 44.63 56.0851 47.2425 51.1735 47.2425C46.2619 47.2425 43.8584 44.7345 43.8584 40.3454V32.6123H47.8295V40.3454C47.8295 42.749 48.6655 43.794 51.1735 43.794C53.577 43.794 54.5176 42.749 54.5176 40.3454V32.6123H58.4886V40.3454Z" fill="white"/>
<path d="M67.371 47.1385C64.5495 47.1385 62.0414 46.3025 60.0559 44.526L62.7729 41.809C64.1315 42.9585 65.908 43.69 67.6845 43.69C69.7745 43.69 70.2971 43.1675 70.2971 42.645C70.2971 42.436 70.1926 41.9135 68.3115 41.4955C67.998 41.391 65.908 40.9729 65.5945 40.8684C63.0865 40.2414 60.3694 39.3009 60.3694 36.5839C60.3694 34.0759 62.9819 32.1948 67.162 32.1948C69.9836 32.1948 72.2826 33.1353 74.0591 34.8074L71.3421 37.5244C70.1926 36.3749 68.625 35.7479 66.953 35.7479C65.072 35.7479 64.3405 36.2704 64.3405 36.6884C64.3405 37.1064 64.7585 37.2109 67.0575 37.8379C67.371 37.9424 69.043 38.3604 69.3565 38.3604C72.4916 39.0919 74.2681 40.7639 74.2681 42.7495C74.2681 45.153 71.9691 47.1385 67.371 47.1385Z" fill="white"/>
<path d="M92.7653 47.0335H88.3762L86.8087 44.1075L87.0177 43.794H80.1206L80.3296 44.1075L78.8666 47.0335H74.4775L82.0016 32.6123H85.2412L92.7653 47.0335ZM85.2412 40.5544L84.9277 40.2409L84.0917 38.5689L83.6737 37.4194L83.2557 38.5689L82.4197 40.2409L82.0016 40.6589H85.2412V40.5544Z" fill="white"/>
<path d="M59.4294 27.4915H55.9808V26.4465C55.3538 27.0735 53.5773 27.5961 52.1143 27.5961C46.9937 27.5961 43.9631 24.7745 43.9631 20.2809C43.9631 15.7874 47.0982 12.7568 52.3233 12.7568C54.9358 12.7568 57.2348 13.6973 58.5933 15.0559L55.9808 17.6684C55.5628 17.1459 54.9358 16.8324 54.3088 16.5189C53.5773 16.4144 52.9503 16.2054 52.2188 16.3099C49.1882 16.3099 47.9342 17.7729 47.9342 20.3854C47.9342 22.8935 49.1882 24.252 52.1143 24.252C54.0998 24.252 55.2493 23.416 55.5628 22.2665L55.8763 21.953H50.8602L59.4294 18.6089V27.4915Z" fill="white"/>
<path d="M78.5529 27.4915H74.1638L72.5963 24.5655L72.8053 24.252H66.1172L66.3262 24.5655L64.8632 27.4915H60.4741L67.9982 13.0703H71.2378L78.5529 27.4915ZM71.1333 21.1169L70.7153 20.6989L69.8793 19.0269L69.4613 17.8774L69.0432 19.0269L68.2072 20.6989L67.8937 21.1169H71.1333Z" fill="white"/>
<path d="M96.1094 27.492H92.1383V20.5949L91.5113 22.0579L87.8538 27.701L84.1962 22.0579L83.5692 20.5949V27.5965H79.5981V13.0708H82.8377L87.1223 20.1769L87.8538 21.6399L88.4808 20.0724L92.8698 12.9663H96.1094V27.492Z" fill="white"/>
<path d="M126.101 27.4915H113.979V13.0703H117.95V23.7295L117.636 24.043H126.101V27.4915Z" fill="white"/>
<path d="M140 27.4915H127.042V13.0703H140V16.4144H130.699L131.013 16.7279V18.0864L130.699 18.5044H139.164V21.9529H130.699L131.013 22.2664V23.7295L130.699 24.043H140V27.4915Z" fill="white"/>
<path d="M110.635 19.9674C111.053 19.5494 111.366 19.2359 111.471 18.8179C111.68 18.3999 111.784 17.8774 111.784 17.4594C111.784 15.0558 109.799 13.0703 106.246 13.0703H98.5127V16.4144H106.141C107.604 16.4144 107.813 16.9369 107.813 17.4594C107.813 17.8774 107.604 18.5044 106.141 18.5044H98.5127V27.4915H106.455C110.112 27.4915 112.516 25.8195 112.516 22.998C112.516 22.3709 112.411 21.7439 112.098 21.2214C111.68 20.6989 111.262 20.1764 110.635 19.9674ZM106.455 24.043H102.066L102.379 23.7295V21.9529L102.066 21.6394H106.35C108.022 21.6394 108.336 22.2664 108.336 22.8935C108.44 23.5205 108.127 24.043 106.455 24.043Z" fill="white"/>
<path d="M14.1799 35.7478C15.2249 37.6288 16.479 39.5098 17.8375 41.1818C24.1076 39.3008 32.5722 35.6433 37.5883 28.6417C38.1108 26.6561 38.4243 24.6706 38.6333 22.5806C31.5272 31.0452 20.1365 34.4937 14.1799 35.7478Z" fill="white"/>
<path d="M38.9469 17.0419C38.9469 14.1159 38.8424 12.2349 38.8424 12.2349C38.8424 12.2349 34.7669 17.1464 25.0482 17.1464H23.7942C14.1801 17.1464 10.1045 12.2349 10.1045 12.2349C10.1045 12.2349 9.16399 24.148 12.926 33.1352C19.0916 31.8811 32.9903 27.9101 38.9469 17.0419Z" fill="white"/>
<path d="M19.823 43.5852C21.1815 45.1527 22.749 46.5112 24.4211 47.7652C28.7056 44.5257 32.1542 40.4501 34.7667 35.7476C30.0641 39.6141 24.4211 42.1221 19.823 43.5852Z" fill="white"/>
</svg>
