
<svg width="100" height="30" viewBox="0 0 100 30" fill="none" xmlns="http://www.w3.org/2000/svg">
<path d="M18.553 6.03003C20.3271 6.02983 22.0615 6.55575 23.5367 7.54126C25.012 8.52678 26.1618 9.92763 26.8409 11.5667C27.52 13.2057 27.6977 15.0093 27.3518 16.7494C27.0058 18.4895 26.1515 20.0878 24.8971 21.3424C23.6426 22.597 22.0443 23.4514 20.3043 23.7976C18.5643 24.1438 16.7607 23.9662 15.1215 23.2873C13.4824 22.6084 12.0815 21.4587 11.0958 19.9836C10.1101 18.5085 9.58398 16.7742 9.58398 15C9.58398 12.6212 10.5289 10.3398 12.2109 8.65764C13.8929 6.97546 16.1742 6.03029 18.553 6.03003ZM17.131 9.48303L15.736 14.755L14.775 15.127L14.313 16.857L15.274 16.494L14.474 19.51H23.054L23.643 17.272H18.48L19.069 15.079L20.011 14.725L20.473 12.995L19.53 13.358L20.554 9.48003H17.131V9.48303Z" fill="white"/>
<path d="M31.4131 20.477L33.7601 9.271H36.0601L34.1111 18.6H39.8111L39.4211 20.473L31.4131 20.477Z" fill="white"/>
<path d="M42.5999 12.359H44.7899L43.0899 20.477H40.8999L42.5999 12.359ZM43.2419 9.271H45.4359L45.0229 11.258H42.8249L43.2419 9.271Z" fill="white"/>
<path d="M45.8003 13.9869L46.1363 12.3589H47.2063L47.4743 11.0589L49.9893 9.5459L49.4003 12.3589H50.7383L50.4003 13.9869H49.0553L48.3443 17.3869C48.2176 18.0042 48.154 18.3559 48.1533 18.4419C48.1495 18.5154 48.1619 18.5888 48.1898 18.6569C48.2176 18.725 48.2601 18.7861 48.3143 18.8359C48.4213 18.9299 48.6143 18.9769 48.8953 18.9769C48.9953 18.9769 49.2343 18.9599 49.6213 18.9239L49.2773 20.5519C48.8947 20.6288 48.5055 20.6673 48.1153 20.6669C47.3406 20.6669 46.7776 20.5176 46.4263 20.2189C46.075 19.9202 45.8996 19.5066 45.9003 18.9779C45.9003 18.7286 45.9946 18.1529 46.1833 17.2509L46.8633 13.9869H45.8003Z" fill="white"/>
<path d="M58.3652 17.0999H52.8652C52.8652 17.1869 52.8572 17.2529 52.8572 17.2999C52.8572 17.8399 53.0115 18.2756 53.3202 18.6069C53.4611 18.7663 53.6347 18.8934 53.8292 18.9797C54.0237 19.066 54.2344 19.1094 54.4472 19.1069C55.1758 19.1069 55.7425 18.7296 56.1472 17.9749L58.1132 18.2999C57.7312 19.0899 57.2205 19.6823 56.5812 20.0769C55.9343 20.4741 55.1881 20.6797 54.4292 20.6699C53.3378 20.6699 52.4512 20.3246 51.7692 19.6339C51.0872 18.9433 50.7458 18.0299 50.7452 16.8939C50.7297 15.8321 51.0534 14.7931 51.6692 13.9279C52.5105 12.7559 53.7105 12.1699 55.2692 12.1699C56.2618 12.1699 57.0515 12.4769 57.6382 13.0909C58.2248 13.7049 58.5178 14.5649 58.5172 15.6709C58.5229 16.1516 58.4719 16.6312 58.3652 17.0999ZM56.5162 15.7599C56.5212 15.6599 56.5232 15.5899 56.5232 15.5389C56.5232 14.9389 56.3882 14.4879 56.1182 14.1859C55.9814 14.0359 55.8133 13.9177 55.6258 13.8398C55.4383 13.7618 55.236 13.726 55.0332 13.7349C54.8061 13.7357 54.5814 13.7814 54.3721 13.8692C54.1627 13.9571 53.9728 14.0854 53.8132 14.2469C53.4538 14.5876 53.2108 15.0919 53.0842 15.7599H56.5162Z" fill="white"/>
<path d="M64.672 17.4191L66.8 17.7631C66.4493 18.7111 65.9297 19.4321 65.241 19.9261C64.5434 20.4233 63.7046 20.6834 62.848 20.6681C61.814 20.6681 60.9937 20.3597 60.387 19.7431C59.7803 19.1264 59.4783 18.2787 59.481 17.2001C59.4772 16.3362 59.6654 15.4823 60.032 14.7001C60.3862 13.9294 60.9643 13.2834 61.691 12.8461C62.4216 12.3974 63.2637 12.1632 64.121 12.1701C65.079 12.1701 65.8433 12.4197 66.414 12.9191C66.9847 13.4184 67.306 14.0757 67.378 14.8911L65.291 15.1131C65.2403 14.6591 65.1013 14.3257 64.874 14.1131C64.6313 13.8929 64.3114 13.7776 63.984 13.7921C63.545 13.7978 63.1234 13.9651 62.8 14.2621C62.4333 14.5781 62.1517 15.0507 61.955 15.6801C61.7683 16.2519 61.6692 16.8486 61.661 17.4501C61.661 17.9294 61.7783 18.2987 62.013 18.5581C62.122 18.6836 62.2572 18.7836 62.4091 18.851C62.561 18.9183 62.7259 18.9515 62.892 18.9481C63.2643 18.9401 63.6227 18.8053 63.908 18.5661C64.236 18.3114 64.4907 17.9291 64.672 17.4191Z" fill="white"/>
<path d="M68.2008 17.106C68.2008 15.602 68.6248 14.402 69.4728 13.506C70.3208 12.61 71.4354 12.163 72.8168 12.165C74.0168 12.165 74.9521 12.4947 75.6228 13.154C76.2934 13.8134 76.6298 14.7014 76.6318 15.818C76.6542 17.0727 76.2041 18.2899 75.3708 19.228C74.5241 20.188 73.3964 20.668 71.9878 20.668C71.283 20.6818 70.5853 20.5243 69.9548 20.209C69.3875 19.9263 68.9244 19.4713 68.6318 18.909C68.3442 18.3518 68.1963 17.7331 68.2008 17.106ZM74.4528 15.539C74.4528 15.019 74.3011 14.6024 73.9978 14.289C73.846 14.1331 73.6632 14.0107 73.4611 13.9297C73.2591 13.8487 73.0423 13.811 72.8248 13.819C72.3661 13.8136 71.9199 13.9689 71.5638 14.258C71.1938 14.5527 70.9061 14.9784 70.7008 15.535C70.5096 16.0266 70.4061 16.5478 70.3948 17.075C70.3948 17.6564 70.5528 18.1177 70.8688 18.459C71.0189 18.6251 71.2032 18.7568 71.4089 18.8452C71.6146 18.9336 71.837 18.9765 72.0608 18.971C72.6608 18.971 73.1654 18.7137 73.5748 18.199C74.1581 17.4697 74.4494 16.583 74.4488 15.539H74.4528Z" fill="white"/>
<path d="M79.134 12.359H81.328L79.628 20.477H77.437L79.134 12.359ZM79.776 9.271H81.97L81.557 11.258H79.363L79.776 9.271Z" fill="white"/>
<path d="M83.5144 12.359H85.5934L85.3794 13.413C85.8129 13.0209 86.304 12.6975 86.8354 12.454C87.2865 12.2631 87.7716 12.1658 88.2614 12.168C88.9281 12.168 89.4541 12.359 89.8394 12.741C90.2247 13.123 90.417 13.63 90.4164 14.262C90.4164 14.5467 90.3324 15.087 90.1644 15.883L89.2094 20.477H87.0154L87.9784 15.867C88.1217 15.179 88.193 14.769 88.1924 14.637C88.1989 14.5155 88.1803 14.394 88.1376 14.2801C88.0949 14.1661 88.0291 14.0623 87.9444 13.975C87.8505 13.8915 87.741 13.8273 87.6223 13.7861C87.5035 13.7449 87.3778 13.7276 87.2524 13.735C86.9311 13.735 86.5744 13.87 86.1824 14.14C85.7879 14.412 85.4695 14.7804 85.2574 15.21C85.0941 15.526 84.9104 16.1707 84.7064 17.144L84.0114 20.477H81.8174L83.5144 12.359Z" fill="white"/>
</svg>
