
<svg width="150" height="60" viewBox="0 0 150 60" fill="none" xmlns="http://www.w3.org/2000/svg">
<path fill-rule="evenodd" clip-rule="evenodd" d="M19.8339 17.0478L18.4566 17.4188C17.7659 17.6048 17.4572 18.4143 17.8471 19.0166L19.818 22.0608C20.0664 22.4444 20.532 22.6238 20.9718 22.5053L21.2674 22.4257L21.5628 22.3461C22.0026 22.2276 22.3167 21.8382 22.341 21.3812L22.5337 17.7542C22.5719 17.0366 21.9018 16.4908 21.2112 16.6768L19.8339 17.0478Z" fill="#60CBF7"/>
<path fill-rule="evenodd" clip-rule="evenodd" d="M19.8339 17.0478L18.4566 17.4188C17.7659 17.6048 17.4572 18.4143 17.8471 19.0166L19.818 22.0608C20.0664 22.4444 20.532 22.6238 20.9718 22.5053L21.2674 22.4257L21.5628 22.3461C22.0026 22.2276 22.3167 21.8382 22.341 21.3812L22.5337 17.7542C22.5719 17.0366 21.9018 16.4908 21.2112 16.6768L19.8339 17.0478Z" fill="#60CBF7"/>
<path fill-rule="evenodd" clip-rule="evenodd" d="M26.7459 42.9482L28.1233 42.5772C28.8138 42.3911 29.1227 41.5817 28.7327 40.9794L26.7617 37.9351C26.5135 37.5516 26.0478 37.3722 25.6079 37.4907L25.3125 37.5703L25.017 37.6499C24.5772 37.7683 24.2631 38.1578 24.2388 38.6147L24.0461 42.2418C24.008 42.9593 24.678 43.5052 25.3686 43.3191L26.7459 42.9482Z" fill="#ECA07C"/>
<path fill-rule="evenodd" clip-rule="evenodd" d="M26.7459 42.9482L28.1233 42.5772C28.8138 42.3911 29.1227 41.5817 28.7327 40.9794L26.7617 37.9351C26.5135 37.5516 26.0478 37.3722 25.6079 37.4907L25.3125 37.5703L25.017 37.6499C24.5772 37.7683 24.2631 38.1578 24.2388 38.6147L24.0461 42.2418C24.008 42.9593 24.678 43.5052 25.3686 43.3191L26.7459 42.9482Z" fill="#ECA07C"/>
<path fill-rule="evenodd" clip-rule="evenodd" d="M19.8403 42.9502L21.2175 43.3211C21.9082 43.507 22.5782 42.9611 22.5402 42.2435L22.3479 38.6165C22.3237 38.1596 22.0097 37.7702 21.5699 37.6518L21.2744 37.5722L20.9789 37.4926C20.5391 37.3742 20.0734 37.5536 19.825 37.9373L17.8538 40.9817C17.4638 41.584 17.7724 42.3934 18.4631 42.5794L19.8403 42.9502Z" fill="#60CBF7"/>
<path fill-rule="evenodd" clip-rule="evenodd" d="M19.8403 42.9502L21.2175 43.3211C21.9082 43.507 22.5782 42.9611 22.5402 42.2435L22.3479 38.6165C22.3237 38.1596 22.0097 37.7702 21.5699 37.6518L21.2744 37.5722L20.9789 37.4926C20.5391 37.3742 20.0734 37.5536 19.825 37.9373L17.8538 40.9817C17.4638 41.584 17.7724 42.3934 18.4631 42.5794L19.8403 42.9502Z" fill="#60CBF7"/>
<path fill-rule="evenodd" clip-rule="evenodd" d="M26.739 17.0457L25.3618 16.6749C24.6712 16.4889 24.0012 17.0348 24.0391 17.7524L24.2315 21.3794C24.2557 21.8363 24.5698 22.2257 25.0095 22.3442L25.305 22.4237L25.6005 22.5033C26.0403 22.6217 26.506 22.4422 26.7544 22.0587L28.7256 19.0142C29.1156 18.4119 28.8069 17.6025 28.1164 17.4165L26.739 17.0457Z" fill="#535FFB"/>
<path fill-rule="evenodd" clip-rule="evenodd" d="M26.739 17.0457L25.3618 16.6749C24.6712 16.4889 24.0012 17.0348 24.0391 17.7524L24.2315 21.3794C24.2557 21.8363 24.5698 22.2257 25.0095 22.3442L25.305 22.4237L25.6005 22.5033C26.0403 22.6217 26.506 22.4422 26.7544 22.0587L28.7256 19.0142C29.1156 18.4119 28.8069 17.6025 28.1164 17.4165L26.739 17.0457Z" fill="#535FFB"/>
<path fill-rule="evenodd" clip-rule="evenodd" d="M13.8584 39.4822L14.8666 40.4955C15.3721 41.0036 16.2239 40.8675 16.548 40.2269L18.1858 36.989C18.3922 36.5811 18.314 36.086 17.992 35.7624L17.7757 35.5451L17.5594 35.3277C17.2375 35.0041 16.745 34.9255 16.339 35.1329L13.1174 36.779C12.48 37.1047 12.3446 37.9608 12.8502 38.4689L13.8584 39.4822Z" fill="#535FFB"/>
<path fill-rule="evenodd" clip-rule="evenodd" d="M13.8584 39.4822L14.8666 40.4955C15.3721 41.0036 16.2239 40.8675 16.548 40.2269L18.1858 36.989C18.3922 36.5811 18.314 36.086 17.992 35.7624L17.7757 35.5451L17.5594 35.3277C17.2375 35.0041 16.745 34.9255 16.339 35.1329L13.1174 36.779C12.48 37.1047 12.3446 37.9608 12.8502 38.4689L13.8584 39.4822Z" fill="#535FFB"/>
<path fill-rule="evenodd" clip-rule="evenodd" d="M32.7208 20.5139L31.7127 19.5007C31.2071 18.9926 30.3553 19.1286 30.0313 19.7692L28.3934 23.0071C28.1871 23.4151 28.2653 23.9101 28.5872 24.2337L28.8035 24.4511L29.0198 24.6685C29.3418 24.9921 29.8343 25.0707 30.2402 24.8633L33.4618 23.2171C34.0992 22.8915 34.2346 22.0354 33.729 21.5272L32.7208 20.5139Z" fill="#9F4EFF"/>
<path fill-rule="evenodd" clip-rule="evenodd" d="M32.7208 20.5139L31.7127 19.5007C31.2071 18.9926 30.3553 19.1286 30.0313 19.7692L28.3934 23.0071C28.1871 23.4151 28.2653 23.9101 28.5872 24.2337L28.8035 24.4511L29.0198 24.6685C29.3418 24.9921 29.8343 25.0707 30.2402 24.8633L33.4618 23.2171C34.0992 22.8915 34.2346 22.0354 33.729 21.5272L32.7208 20.5139Z" fill="#9F4EFF"/>
<path fill-rule="evenodd" clip-rule="evenodd" d="M10.4045 33.5266L10.7734 34.9108C10.9585 35.605 11.7638 35.9152 12.3631 35.5232L15.3922 33.5419C15.7739 33.2924 15.9524 32.8243 15.8346 32.3822L15.7554 32.0853L15.6763 31.7883C15.5585 31.3463 15.171 31.0307 14.7164 31.0063L11.1076 30.8131C10.3936 30.7748 9.85051 31.4483 10.0355 32.1424L10.4045 33.5266Z" fill="#9F4EFF"/>
<path fill-rule="evenodd" clip-rule="evenodd" d="M10.4045 33.5266L10.7734 34.9108C10.9585 35.605 11.7638 35.9152 12.3631 35.5232L15.3922 33.5419C15.7739 33.2924 15.9524 32.8243 15.8346 32.3822L15.7554 32.0853L15.6763 31.7883C15.5585 31.3463 15.171 31.0307 14.7164 31.0063L11.1076 30.8131C10.3936 30.7748 9.85051 31.4483 10.0355 32.1424L10.4045 33.5266Z" fill="#9F4EFF"/>
<path fill-rule="evenodd" clip-rule="evenodd" d="M10.4027 26.5552L10.0336 27.9395C9.84851 28.6336 10.3916 29.307 11.1055 29.2687L14.7143 29.075C15.169 29.0506 15.5565 28.735 15.6743 28.293L15.7535 27.9959L15.8327 27.699C15.9506 27.2569 15.7721 26.7889 15.3905 26.5393L12.3615 24.5585C11.7623 24.1665 10.9569 24.4768 10.7718 25.171L10.4027 26.5552Z" fill="#CF4461"/>
<path fill-rule="evenodd" clip-rule="evenodd" d="M10.4027 26.5552L10.0336 27.9395C9.84851 28.6336 10.3916 29.307 11.1055 29.2687L14.7143 29.075C15.169 29.0506 15.5565 28.735 15.6743 28.293L15.7535 27.9959L15.8327 27.699C15.9506 27.2569 15.7721 26.7889 15.3905 26.5393L12.3615 24.5585C11.7623 24.1665 10.9569 24.4768 10.7718 25.171L10.4027 26.5552Z" fill="#CF4461"/>
<path fill-rule="evenodd" clip-rule="evenodd" d="M13.8539 20.521L12.8456 21.5344C12.34 22.0425 12.4753 22.8986 13.1127 23.2243L16.3341 24.87C16.74 25.0774 17.2325 24.9987 17.5545 24.6751L17.7708 24.4577L17.9871 24.2403C18.3091 23.9167 18.3874 23.4216 18.1811 23.0137L16.5436 19.776C16.2196 19.1354 15.3678 18.9994 14.8622 19.5076L13.8539 20.521Z" fill="#ECA07C"/>
<path fill-rule="evenodd" clip-rule="evenodd" d="M13.8539 20.521L12.8456 21.5344C12.34 22.0425 12.4753 22.8986 13.1127 23.2243L16.3341 24.87C16.74 25.0774 17.2325 24.9987 17.5545 24.6751L17.7708 24.4577L17.9871 24.2403C18.3091 23.9167 18.3874 23.4216 18.1811 23.0137L16.5436 19.776C16.2196 19.1354 15.3678 18.9994 14.8622 19.5076L13.8539 20.521Z" fill="#ECA07C"/>
<path fill-rule="evenodd" clip-rule="evenodd" d="M32.7252 39.476L33.7334 38.4626C34.2391 37.9545 34.1038 37.0984 33.4665 36.7728L30.245 35.127C29.8391 34.9196 29.3465 34.9983 29.0246 35.322L28.8083 35.5394L28.592 35.7568C28.27 36.0804 28.1917 36.5754 28.398 36.9834L30.0355 40.2211C30.3595 40.8617 31.2113 40.9976 31.7169 40.4894L32.7252 39.476Z" fill="#CF4461"/>
<path fill-rule="evenodd" clip-rule="evenodd" d="M32.7252 39.476L33.7334 38.4626C34.2391 37.9545 34.1038 37.0984 33.4665 36.7728L30.245 35.127C29.8391 34.9196 29.3465 34.9983 29.0246 35.322L28.8083 35.5394L28.592 35.7568C28.27 36.0804 28.1917 36.5754 28.398 36.9834L30.0355 40.2211C30.3595 40.8617 31.2113 40.9976 31.7169 40.4894L32.7252 39.476Z" fill="#CF4461"/>
<path fill-rule="evenodd" clip-rule="evenodd" d="M23.5642 33.6489C23.1004 34.0754 22.8845 34.738 23.0602 35.3884C23.3124 36.3224 24.2766 36.8775 25.2137 36.6284C26.1508 36.3793 26.7059 35.4203 26.4537 34.4863C26.2784 33.8376 25.7598 33.3717 25.1453 33.231L24.7498 31.7646C25.2419 31.4012 25.5632 30.8472 25.6336 30.2406L27.119 29.8452C27.5484 30.3038 28.2111 30.5177 28.8607 30.345C29.7978 30.0959 30.3529 29.1369 30.1007 28.2029C29.8484 27.269 28.8843 26.7138 27.9472 26.9629C27.2959 27.136 26.8291 27.6522 26.6896 28.2644L25.206 28.6593C24.8396 28.1698 24.2831 27.8499 23.6747 27.7791L23.2796 26.3146C23.7435 25.8881 23.9595 25.2255 23.7838 24.5749C23.5316 23.6411 22.5675 23.0858 21.6304 23.335C20.6933 23.584 20.1381 24.5431 20.3903 25.477C20.5656 26.1257 21.0841 26.5916 21.6985 26.7323L22.094 28.1988C21.6018 28.5622 21.2806 29.1162 21.2102 29.7228L19.7248 30.1182C19.2954 29.6597 18.6329 29.446 17.9834 29.6186C17.0463 29.8677 16.4911 30.8268 16.7433 31.7608C16.9956 32.6947 17.9597 33.2498 18.8968 33.0008C19.5482 32.8276 20.0151 32.3113 20.1545 31.6989L21.6379 31.3041C22.0043 31.7935 22.5608 32.1134 23.1691 32.1842L23.5642 33.6489Z" fill="white"/>
<path fill-rule="evenodd" clip-rule="evenodd" d="M23.5642 33.6489C23.1004 34.0754 22.8845 34.738 23.0602 35.3884C23.3124 36.3224 24.2766 36.8775 25.2137 36.6284C26.1508 36.3793 26.7059 35.4203 26.4537 34.4863C26.2784 33.8376 25.7598 33.3717 25.1453 33.231L24.7498 31.7646C25.2419 31.4012 25.5632 30.8472 25.6336 30.2406L27.119 29.8452C27.5484 30.3038 28.2111 30.5177 28.8607 30.345C29.7978 30.0959 30.3529 29.1369 30.1007 28.2029C29.8484 27.269 28.8843 26.7138 27.9472 26.9629C27.2959 27.136 26.8291 27.6522 26.6896 28.2644L25.206 28.6593C24.8396 28.1698 24.2831 27.8499 23.6747 27.7791L23.2796 26.3146C23.7435 25.8881 23.9595 25.2255 23.7838 24.5749C23.5316 23.6411 22.5675 23.0858 21.6304 23.335C20.6933 23.584 20.1381 24.5431 20.3903 25.477C20.5656 26.1257 21.0841 26.5916 21.6985 26.7323L22.094 28.1988C21.6018 28.5622 21.2806 29.1162 21.2102 29.7228L19.7248 30.1182C19.2954 29.6597 18.6329 29.446 17.9834 29.6186C17.0463 29.8677 16.4911 30.8268 16.7433 31.7608C16.9956 32.6947 17.9597 33.2498 18.8968 33.0008C19.5482 32.8276 20.0151 32.3113 20.1545 31.6989L21.6379 31.3041C22.0043 31.7935 22.5608 32.1134 23.1691 32.1842L23.5642 33.6489Z" fill="white"/>
<path d="M43.3014 29.1521C46.6926 29.1521 49.4425 26.4773 49.4425 22.9899C49.4425 19.5025 46.6926 16.8276 43.3014 16.8276C39.9103 16.8276 37.1603 19.5025 37.1603 22.9899C37.1603 26.4773 39.9103 29.1521 43.3014 29.1521ZM43.3014 26.5111C41.3781 26.5111 39.8597 25.106 39.8597 22.9899C39.8597 20.8737 41.3781 19.4686 43.3014 19.4686C45.2247 19.4686 46.7432 20.8737 46.7432 22.9899C46.7432 25.106 45.2247 26.5111 43.3014 26.5111Z" fill="white"/>
<path d="M56.3278 20.2134C55.2143 20.2134 54.3707 20.6197 53.9152 21.2461V20.4504H51.3845V28.915H53.9152V24.2933C53.9152 23.0914 54.5563 22.5496 55.4843 22.5496C56.2941 22.5496 56.952 23.0406 56.952 24.0902V28.915H59.4827V23.7177C59.4827 21.4323 58.0318 20.2134 56.3278 20.2134Z" fill="white"/>
<path d="M61.7268 28.9145H64.2575V16.5562H61.7268V28.9145Z" fill="white"/>
<path d="M67.8807 19.706C68.7074 19.706 69.3991 19.0119 69.3991 18.1823C69.3991 17.3528 68.7074 16.6587 67.8807 16.6587C67.054 16.6587 66.3623 17.3528 66.3623 18.1823C66.3623 19.0119 67.054 19.706 67.8807 19.706ZM66.6154 28.9155H69.146V20.4508H66.6154V28.9155Z" fill="white"/>
<path d="M76.4475 20.2134C75.3339 20.2134 74.4904 20.6197 74.0349 21.2461V20.4504H71.5042V28.915H74.0349V24.2933C74.0349 23.0914 74.676 22.5496 75.6039 22.5496C76.4137 22.5496 77.0719 23.0406 77.0719 24.0902V28.915H79.6026V23.7177C79.6026 21.4323 78.1515 20.2134 76.4475 20.2134Z" fill="white"/>
<path d="M84.1073 25.6984H90.0964C90.1635 25.3768 90.1974 25.0382 90.1974 24.6827C90.1974 22.1264 88.3753 20.2134 85.9124 20.2134C83.2468 20.2134 81.4247 22.1602 81.4247 24.6827C81.4247 27.2051 83.2129 29.152 86.0976 29.152C87.7006 29.152 88.949 28.5595 89.7756 27.4083L87.7515 26.2402C87.4138 26.6126 86.8231 26.8835 86.1315 26.8835C85.2038 26.8835 84.4274 26.5788 84.1073 25.6984ZM84.0564 23.8024C84.2924 22.939 84.9339 22.465 85.8955 22.465C86.6543 22.465 87.4138 22.8205 87.6837 23.8024H84.0564Z" fill="white"/>
<path d="M43.3014 43.3728C45.4609 43.3728 47.3505 42.3063 48.3628 40.6303L46.0345 39.2759C45.5285 40.1902 44.4993 40.7319 43.3014 40.7319C41.2094 40.7319 39.8597 39.3267 39.8597 37.2106C39.8597 35.0944 41.2094 33.6893 43.3014 33.6893C44.4993 33.6893 45.5116 34.2311 46.0345 35.1452L48.3628 33.7909C47.3337 32.1149 45.4441 31.0483 43.3014 31.0483C39.7416 31.0483 37.1603 33.7232 37.1603 37.2106C37.1603 40.698 39.7416 43.3728 43.3014 43.3728Z" fill="white"/>
<path d="M56.2565 34.6716V35.4673C55.6997 34.8239 54.8731 34.4346 53.7427 34.4346C51.5325 34.4346 49.7104 36.3814 49.7104 38.9039C49.7104 41.4263 51.5325 43.3732 53.7427 43.3732C54.8731 43.3732 55.6997 42.9838 56.2565 42.3405V43.1362H58.7872V34.6716H56.2565ZM54.2488 40.9693C53.0847 40.9693 52.2412 40.1736 52.2412 38.9039C52.2412 37.6342 53.0847 36.8385 54.2488 36.8385C55.4129 36.8385 56.2565 37.6342 56.2565 38.9039C56.2565 40.1736 55.4129 40.9693 54.2488 40.9693Z" fill="white"/>
<path d="M63.4633 37.1432C63.4633 36.8385 63.7332 36.6692 64.1719 36.6692C64.7286 36.6692 65.066 36.974 65.3022 37.4141L67.4617 36.246C66.7532 35.044 65.5384 34.4346 64.1719 34.4346C62.4173 34.4346 60.8651 35.3657 60.8651 37.211C60.8651 40.1397 65.0154 39.6488 65.0154 40.5799C65.0154 40.9185 64.7117 41.1047 64.1044 41.1047C63.3621 41.1047 62.8896 40.7491 62.6703 40.1058L60.4771 41.3586C61.135 42.7299 62.4173 43.3732 64.1044 43.3732C65.9265 43.3732 67.6136 42.5436 67.6136 40.5968C67.6136 37.4649 63.4633 38.1082 63.4633 37.1432Z" fill="white"/>
<path d="M70.6487 33.9266C71.4754 33.9266 72.167 33.2326 72.167 32.403C72.167 31.5735 71.4754 30.8794 70.6487 30.8794C69.822 30.8794 69.1302 31.5735 69.1302 32.403C69.1302 33.2326 69.822 33.9266 70.6487 33.9266ZM69.3833 43.1361H71.914V34.6715H69.3833V43.1361Z" fill="white"/>
<path d="M79.2153 34.4346C78.1018 34.4346 77.2582 34.8408 76.8026 35.4673V34.6716H74.272V43.1362H76.8026V38.5145C76.8026 37.3125 77.444 36.7708 78.3717 36.7708C79.1814 36.7708 79.8391 37.2618 79.8391 38.3113V43.1362H82.3698V37.9389C82.3698 35.6535 80.9194 34.4346 79.2153 34.4346Z" fill="white"/>
<path d="M88.6633 43.3732C91.1432 43.3732 93.1341 41.4263 93.1341 38.9039C93.1341 36.3814 91.1432 34.4346 88.6633 34.4346C86.1828 34.4346 84.1925 36.3814 84.1925 38.9039C84.1925 41.4263 86.1828 43.3732 88.6633 43.3732ZM88.6633 40.9015C87.5668 40.9015 86.7232 40.1058 86.7232 38.9039C86.7232 37.7019 87.5668 36.9062 88.6633 36.9062C89.7598 36.9062 90.6034 37.7019 90.6034 38.9039C90.6034 40.1058 89.7598 40.9015 88.6633 40.9015Z" fill="white"/>
<path d="M97.3024 37.1432C97.3024 36.8385 97.5723 36.6692 98.0111 36.6692C98.5678 36.6692 98.9055 36.974 99.1415 37.4141L101.301 36.246C100.593 35.044 99.3775 34.4346 98.0111 34.4346C96.2568 34.4346 94.7046 35.3657 94.7046 37.211C94.7046 40.1397 98.8546 39.6488 98.8546 40.5799C98.8546 40.9185 98.5508 41.1047 97.9439 41.1047C97.2014 41.1047 96.7288 40.7491 96.5097 40.1058L94.316 41.3586C94.9745 42.7299 96.2568 43.3732 97.9439 43.3732C99.766 43.3732 101.452 42.5436 101.452 40.5968C101.452 37.4649 97.3024 38.1082 97.3024 37.1432Z" fill="white"/>
<path d="M104.574 43.3723C105.451 43.3723 106.177 42.6444 106.177 41.764C106.177 40.8837 105.451 40.1558 104.574 40.1558C103.697 40.1558 102.971 40.8837 102.971 41.764C102.971 42.6444 103.697 43.3723 104.574 43.3723Z" fill="white"/>
<path d="M111.691 43.3727C110.415 43.3727 109.352 42.949 108.501 42.1016C107.662 41.2541 107.242 40.2058 107.242 38.9569C107.242 37.708 107.662 36.6598 108.501 35.8123C109.352 34.9648 110.415 34.541 111.691 34.541C112.496 34.541 113.235 34.7362 113.906 35.1265C114.589 35.5168 115.114 36.0353 115.484 36.6821L113.285 37.9533C112.983 37.3288 112.44 37.0166 111.657 37.0166C111.109 37.0166 110.655 37.2006 110.297 37.5686C109.939 37.9254 109.76 38.3882 109.76 38.9569C109.76 39.5256 109.939 39.994 110.297 40.3619C110.655 40.7188 111.109 40.8972 111.657 40.8972C112.451 40.8972 112.994 40.585 113.285 39.9605L115.484 41.215C115.114 41.873 114.594 42.397 113.923 42.7873C113.252 43.1777 112.507 43.3727 111.691 43.3727Z" fill="white"/>
<path d="M124.104 42.1016C123.243 42.949 122.191 43.3727 120.949 43.3727C119.707 43.3727 118.655 42.949 117.794 42.1016C116.932 41.2429 116.501 40.1947 116.501 38.9569C116.501 37.7191 116.932 36.6765 117.794 35.829C118.655 34.9703 119.707 34.541 120.949 34.541C122.191 34.541 123.243 34.9703 124.104 35.829C124.966 36.6765 125.397 37.7191 125.397 38.9569C125.397 40.1947 124.966 41.2429 124.104 42.1016ZM119.572 40.3787C119.942 40.7467 120.4 40.9307 120.949 40.9307C121.498 40.9307 121.956 40.7467 122.326 40.3787C122.694 40.0107 122.88 39.5367 122.88 38.9569C122.88 38.377 122.694 37.9031 122.326 37.5352C121.956 37.1671 121.498 36.9832 120.949 36.9832C120.4 36.9832 119.942 37.1671 119.572 37.5352C119.204 37.9031 119.019 38.377 119.019 38.9569C119.019 39.5367 119.204 40.0107 119.572 40.3787Z" fill="white"/>
<path d="M136.808 34.541C137.77 34.541 138.542 34.8588 139.124 35.4944C139.706 36.1189 139.997 36.9553 139.997 38.0035V43.1386H137.479V38.2209C137.479 37.7972 137.373 37.4627 137.16 37.2173C136.959 36.972 136.662 36.8493 136.271 36.8493C135.856 36.8493 135.532 36.9887 135.297 37.2675C135.073 37.5463 134.961 37.931 134.961 38.4216V43.1386H132.444V38.2209C132.444 37.7972 132.338 37.4627 132.125 37.2173C131.923 36.972 131.627 36.8493 131.235 36.8493C130.822 36.8493 130.497 36.9887 130.262 37.2675C130.038 37.5463 129.926 37.931 129.926 38.4216V43.1386H127.409V34.7752H129.926V35.5446C130.385 34.8756 131.135 34.541 132.175 34.541C133.149 34.541 133.882 34.909 134.374 35.645C134.889 34.909 135.7 34.541 136.808 34.541Z" fill="white"/>
<path d="M43.3014 29.1521C46.6926 29.1521 49.4425 26.4773 49.4425 22.9899C49.4425 19.5025 46.6926 16.8276 43.3014 16.8276C39.9103 16.8276 37.1603 19.5025 37.1603 22.9899C37.1603 26.4773 39.9103 29.1521 43.3014 29.1521ZM43.3014 26.5111C41.3781 26.5111 39.8597 25.106 39.8597 22.9899C39.8597 20.8737 41.3781 19.4686 43.3014 19.4686C45.2247 19.4686 46.7432 20.8737 46.7432 22.9899C46.7432 25.106 45.2247 26.5111 43.3014 26.5111Z" fill="white"/>
<path d="M56.3278 20.2134C55.2143 20.2134 54.3707 20.6197 53.9152 21.2461V20.4504H51.3845V28.915H53.9152V24.2933C53.9152 23.0914 54.5563 22.5496 55.4843 22.5496C56.2941 22.5496 56.952 23.0406 56.952 24.0902V28.915H59.4827V23.7177C59.4827 21.4323 58.0318 20.2134 56.3278 20.2134Z" fill="white"/>
<path d="M61.7268 28.9145H64.2575V16.5562H61.7268V28.9145Z" fill="white"/>
<path d="M67.8807 19.706C68.7074 19.706 69.3991 19.0119 69.3991 18.1823C69.3991 17.3528 68.7074 16.6587 67.8807 16.6587C67.054 16.6587 66.3623 17.3528 66.3623 18.1823C66.3623 19.0119 67.054 19.706 67.8807 19.706ZM66.6154 28.9155H69.146V20.4508H66.6154V28.9155Z" fill="white"/>
<path d="M76.4475 20.2134C75.3339 20.2134 74.4904 20.6197 74.0349 21.2461V20.4504H71.5042V28.915H74.0349V24.2933C74.0349 23.0914 74.676 22.5496 75.6039 22.5496C76.4137 22.5496 77.0719 23.0406 77.0719 24.0902V28.915H79.6026V23.7177C79.6026 21.4323 78.1515 20.2134 76.4475 20.2134Z" fill="white"/>
<path d="M84.1073 25.6984H90.0964C90.1635 25.3768 90.1974 25.0382 90.1974 24.6827C90.1974 22.1264 88.3753 20.2134 85.9124 20.2134C83.2468 20.2134 81.4247 22.1602 81.4247 24.6827C81.4247 27.2051 83.2129 29.152 86.0976 29.152C87.7006 29.152 88.949 28.5595 89.7756 27.4083L87.7515 26.2402C87.4138 26.6126 86.8231 26.8835 86.1315 26.8835C85.2038 26.8835 84.4274 26.5788 84.1073 25.6984ZM84.0564 23.8024C84.2924 22.939 84.9339 22.465 85.8955 22.465C86.6543 22.465 87.4138 22.8205 87.6837 23.8024H84.0564Z" fill="white"/>
<path d="M43.3014 43.3728C45.4609 43.3728 47.3505 42.3063 48.3628 40.6303L46.0345 39.2759C45.5285 40.1902 44.4993 40.7319 43.3014 40.7319C41.2094 40.7319 39.8597 39.3267 39.8597 37.2106C39.8597 35.0944 41.2094 33.6893 43.3014 33.6893C44.4993 33.6893 45.5116 34.2311 46.0345 35.1452L48.3628 33.7909C47.3337 32.1149 45.4441 31.0483 43.3014 31.0483C39.7416 31.0483 37.1603 33.7232 37.1603 37.2106C37.1603 40.698 39.7416 43.3728 43.3014 43.3728Z" fill="white"/>
<path d="M56.2565 34.6716V35.4673C55.6997 34.8239 54.8731 34.4346 53.7427 34.4346C51.5325 34.4346 49.7104 36.3814 49.7104 38.9039C49.7104 41.4263 51.5325 43.3732 53.7427 43.3732C54.8731 43.3732 55.6997 42.9838 56.2565 42.3405V43.1362H58.7872V34.6716H56.2565ZM54.2488 40.9693C53.0847 40.9693 52.2412 40.1736 52.2412 38.9039C52.2412 37.6342 53.0847 36.8385 54.2488 36.8385C55.4129 36.8385 56.2565 37.6342 56.2565 38.9039C56.2565 40.1736 55.4129 40.9693 54.2488 40.9693Z" fill="white"/>
<path d="M63.4633 37.1432C63.4633 36.8385 63.7332 36.6692 64.1719 36.6692C64.7286 36.6692 65.066 36.974 65.3022 37.4141L67.4617 36.246C66.7532 35.044 65.5384 34.4346 64.1719 34.4346C62.4173 34.4346 60.8651 35.3657 60.8651 37.211C60.8651 40.1397 65.0154 39.6488 65.0154 40.5799C65.0154 40.9185 64.7117 41.1047 64.1044 41.1047C63.3621 41.1047 62.8896 40.7491 62.6703 40.1058L60.4771 41.3586C61.135 42.7299 62.4173 43.3732 64.1044 43.3732C65.9265 43.3732 67.6136 42.5436 67.6136 40.5968C67.6136 37.4649 63.4633 38.1082 63.4633 37.1432Z" fill="white"/>
<path d="M70.6487 33.9266C71.4754 33.9266 72.167 33.2326 72.167 32.403C72.167 31.5735 71.4754 30.8794 70.6487 30.8794C69.822 30.8794 69.1302 31.5735 69.1302 32.403C69.1302 33.2326 69.822 33.9266 70.6487 33.9266ZM69.3833 43.1361H71.914V34.6715H69.3833V43.1361Z" fill="white"/>
<path d="M79.2153 34.4346C78.1018 34.4346 77.2582 34.8408 76.8026 35.4673V34.6716H74.272V43.1362H76.8026V38.5145C76.8026 37.3125 77.444 36.7708 78.3717 36.7708C79.1814 36.7708 79.8391 37.2618 79.8391 38.3113V43.1362H82.3698V37.9389C82.3698 35.6535 80.9194 34.4346 79.2153 34.4346Z" fill="white"/>
<path d="M88.6633 43.3732C91.1432 43.3732 93.1341 41.4263 93.1341 38.9039C93.1341 36.3814 91.1432 34.4346 88.6633 34.4346C86.1828 34.4346 84.1925 36.3814 84.1925 38.9039C84.1925 41.4263 86.1828 43.3732 88.6633 43.3732ZM88.6633 40.9015C87.5668 40.9015 86.7232 40.1058 86.7232 38.9039C86.7232 37.7019 87.5668 36.9062 88.6633 36.9062C89.7598 36.9062 90.6034 37.7019 90.6034 38.9039C90.6034 40.1058 89.7598 40.9015 88.6633 40.9015Z" fill="white"/>
<path d="M97.3024 37.1432C97.3024 36.8385 97.5723 36.6692 98.0111 36.6692C98.5678 36.6692 98.9055 36.974 99.1415 37.4141L101.301 36.246C100.593 35.044 99.3775 34.4346 98.0111 34.4346C96.2568 34.4346 94.7046 35.3657 94.7046 37.211C94.7046 40.1397 98.8546 39.6488 98.8546 40.5799C98.8546 40.9185 98.5508 41.1047 97.9439 41.1047C97.2014 41.1047 96.7288 40.7491 96.5097 40.1058L94.316 41.3586C94.9745 42.7299 96.2568 43.3732 97.9439 43.3732C99.766 43.3732 101.452 42.5436 101.452 40.5968C101.452 37.4649 97.3024 38.1082 97.3024 37.1432Z" fill="white"/>
<path d="M104.574 43.3723C105.451 43.3723 106.177 42.6444 106.177 41.764C106.177 40.8837 105.451 40.1558 104.574 40.1558C103.697 40.1558 102.971 40.8837 102.971 41.764C102.971 42.6444 103.697 43.3723 104.574 43.3723Z" fill="white"/>
<path d="M111.691 43.3727C110.415 43.3727 109.352 42.949 108.501 42.1016C107.662 41.2541 107.242 40.2058 107.242 38.9569C107.242 37.708 107.662 36.6598 108.501 35.8123C109.352 34.9648 110.415 34.541 111.691 34.541C112.496 34.541 113.235 34.7362 113.906 35.1265C114.589 35.5168 115.114 36.0353 115.484 36.6821L113.285 37.9533C112.983 37.3288 112.44 37.0166 111.657 37.0166C111.109 37.0166 110.655 37.2006 110.297 37.5686C109.939 37.9254 109.76 38.3882 109.76 38.9569C109.76 39.5256 109.939 39.994 110.297 40.3619C110.655 40.7188 111.109 40.8972 111.657 40.8972C112.451 40.8972 112.994 40.585 113.285 39.9605L115.484 41.215C115.114 41.873 114.594 42.397 113.923 42.7873C113.252 43.1777 112.507 43.3727 111.691 43.3727Z" fill="white"/>
<path d="M124.104 42.1016C123.243 42.949 122.191 43.3727 120.949 43.3727C119.707 43.3727 118.655 42.949 117.794 42.1016C116.932 41.2429 116.501 40.1947 116.501 38.9569C116.501 37.7191 116.932 36.6765 117.794 35.829C118.655 34.9703 119.707 34.541 120.949 34.541C122.191 34.541 123.243 34.9703 124.104 35.829C124.966 36.6765 125.397 37.7191 125.397 38.9569C125.397 40.1947 124.966 41.2429 124.104 42.1016ZM119.572 40.3787C119.942 40.7467 120.4 40.9307 120.949 40.9307C121.498 40.9307 121.956 40.7467 122.326 40.3787C122.694 40.0107 122.88 39.5367 122.88 38.9569C122.88 38.377 122.694 37.9031 122.326 37.5352C121.956 37.1671 121.498 36.9832 120.949 36.9832C120.4 36.9832 119.942 37.1671 119.572 37.5352C119.204 37.9031 119.019 38.377 119.019 38.9569C119.019 39.5367 119.204 40.0107 119.572 40.3787Z" fill="white"/>
<path d="M136.808 34.541C137.77 34.541 138.542 34.8588 139.124 35.4944C139.706 36.1189 139.997 36.9553 139.997 38.0035V43.1386H137.479V38.2209C137.479 37.7972 137.373 37.4627 137.16 37.2173C136.959 36.972 136.662 36.8493 136.271 36.8493C135.856 36.8493 135.532 36.9887 135.297 37.2675C135.073 37.5463 134.961 37.931 134.961 38.4216V43.1386H132.444V38.2209C132.444 37.7972 132.338 37.4627 132.125 37.2173C131.923 36.972 131.627 36.8493 131.235 36.8493C130.822 36.8493 130.497 36.9887 130.262 37.2675C130.038 37.5463 129.926 37.931 129.926 38.4216V43.1386H127.409V34.7752H129.926V35.5446C130.385 34.8756 131.135 34.541 132.175 34.541C133.149 34.541 133.882 34.909 134.374 35.645C134.889 34.909 135.7 34.541 136.808 34.541Z" fill="white"/>
</svg>
