
<svg width="150" height="60" viewBox="0 0 150 60" fill="none" xmlns="http://www.w3.org/2000/svg">
<path d="M33.244 29.9999C33.244 23.1056 28.356 18.9116 21.606 18.9116C14.885 18.9116 9.99707 23.1056 9.99707 29.9999C9.99707 36.8942 14.885 41.0882 21.6351 41.0882C28.356 41.0882 33.244 36.8942 33.244 29.9999ZM23.6718 32.7289C23.6718 34.5099 23.0899 35.86 21.6351 35.86C20.1512 35.86 19.5984 34.5099 19.5984 32.7289V27.2997C19.5984 25.4899 20.1222 24.1398 21.606 24.1398C23.0607 24.1685 23.6426 25.5186 23.6718 27.2997V32.7289Z" fill="#ED1C24"/>
<path d="M53.7378 40.5718V24.9448H45.9694V33.4477C45.4457 35.4012 44.6019 35.9756 43.8455 35.9756C42.9727 35.9756 42.9144 34.7691 42.9144 33.3903V24.9448H35.1169V35.7458C35.1169 38.7046 37.1536 40.9165 39.8885 40.9165C42.769 40.9165 44.922 39.1068 45.9694 37.2396V40.5718H53.7378Z" fill="#ED1C24"/>
<path d="M69.0082 39.3649V35.2859C67.9607 36.0902 65.2548 36.0328 65.2548 33.8496V29.397H69.0082V24.9445H65.2548V20.5781H59.4067L57.7775 24.9445H55.0425V29.397H57.4865V35.487C57.4865 38.9628 60.1341 40.9162 63.4801 40.9162C65.0512 40.9162 68.0771 40.3704 69.0082 39.3649Z" fill="#ED1C24"/>
<path d="M78.2352 40.5707V19.457H70.4668V40.5707H78.2352Z" fill="#ED1C24"/>
<path d="M98.9413 32.8728C98.912 27.8457 94.8973 24.6284 89.369 24.6284C83.8411 24.6284 79.8259 27.8457 79.8259 32.8728C79.8259 37.9286 83.8411 40.9161 89.369 40.8874C94.9266 40.8874 98.9413 37.8999 98.9413 32.8728ZM90.7075 34.9698C90.7075 35.9752 90.3289 36.7508 89.369 36.7508C88.409 36.7508 88.0307 35.9752 88.0307 34.9698V30.6321C88.0307 29.598 88.409 28.8225 89.369 28.8225C90.3289 28.8511 90.7075 29.6268 90.7075 30.6321V34.9698Z" fill="#ED1C24"/>
<path d="M118.887 32.8728C118.858 27.8457 114.843 24.6284 109.315 24.6284C103.787 24.6284 99.7719 27.8457 99.7719 32.8728C99.7719 37.9286 103.787 40.9161 109.315 40.8874C114.872 40.8874 118.887 37.8999 118.887 32.8728ZM110.653 34.9698C110.653 35.9752 110.275 36.7508 109.315 36.7508C108.355 36.7508 107.976 35.9752 107.976 34.9698V30.6321C107.976 29.598 108.355 28.8225 109.315 28.8225C110.275 28.8511 110.653 29.6268 110.653 30.6321V34.9698Z" fill="#ED1C24"/>
<path d="M139.997 40.5707L133.829 32.039L139.59 24.9437H131.414L127.806 30.258V19.457H120.445V40.5707H127.806V34.7393L131.734 40.5707H139.997Z" fill="#ED1C24"/>
</svg>
