
<svg width="150" height="40" viewBox="0 0 150 40" fill="none" xmlns="http://www.w3.org/2000/svg">
<g clip-path="url(#clip0_11278_6899)">
<mask id="mask0_11278_6899" style="mask-type:luminance" maskUnits="userSpaceOnUse" x="0" y="7" width="150" height="25">
<path d="M149.108 7.99976H0.885742V31.9998H149.108V7.99976Z" fill="white"/>
</mask>
<g mask="url(#mask0_11278_6899)">
<path opacity="0.2" fill-rule="evenodd" clip-rule="evenodd" d="M19.0357 17.8815L12.784 24.1319L8.52661 19.8755L12.7577 15.6191L14.0191 16.8803C14.3345 17.1956 14.755 17.3795 15.2017 17.3795C15.6485 17.3795 16.069 17.1956 16.3843 16.8803L18.1976 15.0674C18.8546 14.4105 18.8546 13.3596 18.1976 12.729L13.9666 8.49896C13.6512 8.18367 13.2307 7.99976 12.784 7.99976C12.3372 7.99976 11.9167 8.18367 11.6014 8.49896L1.37849 18.7195C0.721493 19.3763 0.721493 20.4273 1.37849 21.0578L11.6014 31.2782C11.9167 31.5936 12.3372 31.7776 12.784 31.7776C13.2307 31.7776 13.6512 31.5936 13.9666 31.2782L22.7178 22.5292L23.9267 21.3206L23.9135 21.3073L23.2694 21.9512C23.2432 21.9774 23.217 22.0037 23.1905 22.03C22.6387 22.5554 21.9292 22.8182 21.1934 22.8182C20.405 22.8182 19.6691 22.5029 19.1173 21.9512C18.5654 21.3994 18.25 20.6637 18.25 19.8755C18.25 19.1148 18.5119 18.4328 19.0357 17.8815Z" fill="white"/>
<path opacity="0.5" d="M41.0083 21.0578L30.7854 31.2782C30.4701 31.5936 30.0497 31.7776 29.603 31.7776C29.1561 31.7776 28.7357 31.5936 28.4203 31.2782L24.163 27.022C23.5061 26.3651 23.5061 25.3142 24.163 24.6836L25.9763 22.8707C26.2916 22.5554 26.7121 22.3978 27.1588 22.3978C27.6057 22.3978 28.0261 22.5817 28.3414 22.8707L29.5241 24.053L29.603 24.1319L33.8603 19.8755L29.603 15.6191L23.2694 21.9512C23.2432 21.9774 23.217 22.0037 23.1905 22.03C22.6387 22.5554 21.9292 22.8182 21.1934 22.8182C20.405 22.8182 19.6691 22.5029 19.1173 21.9512C18.5654 21.3994 18.25 20.6637 18.25 19.8755C18.25 19.1136 18.5128 18.4305 19.0384 17.8787C19.0647 17.8524 19.091 17.8261 19.1173 17.7998L19.1435 17.7736L19.1698 17.7473L28.4203 8.49896C28.7357 8.18367 29.1561 7.99976 29.603 7.99976C30.0497 7.99976 30.4701 8.18367 30.7854 8.49896L41.0083 18.7195C41.639 19.35 41.639 20.401 41.0083 21.0578Z" fill="white"/>
<g opacity="0.5">
<path d="M69.5457 20.3153C68.2702 19.0945 66.6148 18.4705 64.5526 18.4705C62.4902 18.4705 60.8348 19.1216 59.5324 20.3967C58.2568 21.6719 57.6055 23.2725 57.6055 25.1988C57.6055 27.2335 58.2568 28.8614 59.5324 30.1093C60.8348 31.3301 62.4902 31.9541 64.5253 31.9541C66.5335 31.9541 68.1888 31.3301 69.4913 30.0551C70.1426 29.4311 70.6582 28.6986 70.9839 27.8847C71.3095 27.0708 71.4724 26.1755 71.4724 25.1988C71.4995 23.164 70.8482 21.5362 69.5457 20.3153ZM67.4291 28.1831C66.7235 28.9427 65.7737 29.3226 64.5253 29.3226C63.4399 29.3226 62.4359 28.9427 61.6759 28.156C60.9162 27.3421 60.5906 26.3654 60.5906 25.1988C60.5906 24.0051 60.9706 23.0012 61.7033 22.2416C62.4359 21.4819 63.3857 21.1021 64.5253 21.1021C65.6108 21.1021 66.5606 21.4819 67.3204 22.2416C68.0804 23.0012 68.4331 23.9779 68.4331 25.1988C68.4602 26.3925 68.1346 27.3963 67.4291 28.1831Z" fill="white"/>
<path d="M80.1831 24.3322H76.4924V21.3479H80.7529C80.97 21.3479 81.1329 21.1851 81.1329 20.9681V19.069C81.1329 18.8519 80.97 18.6892 80.7529 18.6892H74.0231C73.806 18.6892 73.6431 18.8519 73.6431 19.069V31.3589C73.6431 31.576 73.806 31.7387 74.0231 31.7387H76.1127C76.3298 31.7387 76.4924 31.576 76.4924 31.3589V26.991H80.1831C80.4002 26.991 80.5629 26.8282 80.5629 26.6112V24.7121C80.5629 24.495 80.3731 24.3322 80.1831 24.3322Z" fill="white"/>
<path d="M86.3973 21.3479V31.386C86.3973 31.6031 86.5601 31.766 86.7773 31.766H88.8668C89.0839 31.766 89.2467 31.6031 89.2467 31.386V21.3479H92.8559C93.073 21.3479 93.2357 21.1851 93.2357 20.9681V19.069C93.2357 18.8519 93.073 18.6892 92.8559 18.6892H82.8153C82.5981 18.6892 82.4355 18.8519 82.4355 19.069V20.9681C82.4355 21.1851 82.5981 21.3479 82.8153 21.3479H86.3973Z" fill="white"/>
<path d="M98.2279 26.3654C98.879 26.6638 99.3675 26.9894 99.7204 27.2878C100.046 27.5863 100.236 27.8847 100.236 28.2102C100.236 28.5629 100.1 28.8342 99.8559 29.0513C99.6117 29.2412 99.2861 29.3497 98.879 29.3497C98.3364 29.3497 97.8208 29.2141 97.2781 28.9699C96.8981 28.78 96.5726 28.5629 96.301 28.2916C96.1384 28.1289 95.8941 28.156 95.7584 28.3188L94.5915 29.7295C94.483 29.8652 94.483 30.028 94.5644 30.1636C94.8899 30.679 95.4057 31.0861 96.1112 31.4117C96.9524 31.7915 97.8479 31.9813 98.7977 31.9813C100.1 31.9813 101.131 31.6286 101.972 30.8961C102.678 30.3535 103.139 29.5667 103.221 28.6986C103.302 27.8033 103.166 27.0708 102.841 26.4468C102.57 25.9313 102.244 25.5515 101.864 25.2802C101.457 24.9817 101.023 24.7376 100.561 24.4663C100.073 24.2221 99.6388 24.0051 99.2319 23.8423C98.8248 23.6524 98.4721 23.4353 98.1735 23.164C97.9021 22.8927 97.7392 22.5672 97.7392 22.1873C97.7392 21.8618 97.875 21.5905 98.1192 21.4006C98.3906 21.2107 98.7435 21.1293 99.1504 21.1293C99.5846 21.1293 99.9375 21.1835 100.236 21.3192C100.426 21.4006 100.616 21.5362 100.833 21.699C100.996 21.8346 101.24 21.8075 101.376 21.6176L102.461 20.0983C102.57 19.9355 102.542 19.7185 102.407 19.61C101.538 18.8503 100.372 18.4705 98.879 18.4705C97.6037 18.4705 96.5997 18.8232 95.8397 19.5557C95.0799 20.2882 94.7001 21.1564 94.7001 22.1873C94.7001 22.6485 94.7544 23.0826 94.8899 23.4896C95.0528 23.8965 95.2428 24.2492 95.4328 24.4934C95.6499 24.7647 95.9212 25.036 96.2739 25.2802C96.6268 25.5243 96.9252 25.7414 97.1966 25.877C97.5224 26.0398 97.8479 26.2026 98.2279 26.3654Z" fill="white"/>
<path d="M110.983 31.493L113.696 23.0284L116.437 31.493C116.492 31.6557 116.627 31.737 116.79 31.737H118.988C119.151 31.737 119.286 31.6286 119.341 31.4659L122.814 19.1759C122.869 18.9317 122.706 18.7146 122.462 18.7146H120.508C120.345 18.7146 120.182 18.8232 120.155 18.986L117.903 27.3149L115.352 18.986C115.298 18.8232 115.162 18.7146 114.999 18.7146H112.638C112.475 18.7146 112.34 18.8232 112.285 18.986L109.816 27.342L107.591 19.0131C107.536 18.8503 107.401 18.7418 107.238 18.7418H104.796C104.551 18.7418 104.362 18.986 104.443 19.203L108.079 31.493C108.133 31.6557 108.269 31.7644 108.432 31.7644H110.63C110.793 31.737 110.928 31.6286 110.983 31.493Z" fill="white"/>
<path d="M125.311 31.7387H127.4C127.617 31.7387 127.78 31.576 127.78 31.3589V19.069C127.78 18.8519 127.617 18.6892 127.4 18.6892H125.311C125.093 18.6892 124.931 18.8519 124.931 19.069V31.3589C124.958 31.576 125.121 31.7387 125.311 31.7387Z" fill="white"/>
<path d="M133.968 26.3656C134.619 26.664 135.107 26.9896 135.46 27.288C135.786 27.5864 135.976 27.8849 135.976 28.2104C135.976 28.5631 135.84 28.8344 135.596 29.0515C135.352 29.2414 135.026 29.3499 134.619 29.3499C134.076 29.3499 133.56 29.2143 133.018 28.9701C132.638 28.7802 132.312 28.5631 132.041 28.2918C131.878 28.1291 131.634 28.1562 131.498 28.319L130.331 29.7297C130.223 29.8654 130.223 30.0282 130.304 30.1638C130.63 30.6792 131.145 31.0864 131.851 31.4119C132.692 31.7917 133.588 31.9815 134.537 31.9815C135.84 31.9815 136.871 31.6288 137.712 30.8964L137.848 30.7879C138.554 30.1096 138.988 29.1871 138.988 28.2376C138.988 27.5593 138.852 26.9625 138.581 26.4741C138.309 25.9586 137.984 25.5788 137.604 25.3075C137.197 25.0091 136.762 24.7649 136.301 24.4936C135.813 24.2494 135.379 24.0324 134.972 23.8696C134.564 23.6797 134.212 23.4627 133.913 23.1914C133.642 22.9201 133.479 22.5945 133.479 22.2147C133.479 21.8891 133.615 21.6178 133.859 21.4279C134.13 21.238 134.483 21.1566 134.89 21.1566C135.324 21.1566 135.677 21.2108 135.976 21.3465C136.166 21.4279 136.356 21.5636 136.573 21.7263C136.735 21.862 136.98 21.8348 137.115 21.6449L138.201 20.1256C138.309 19.9629 138.282 19.7458 138.146 19.6373C137.278 18.8777 136.111 18.4978 134.619 18.4978C133.343 18.4978 132.339 18.8505 131.58 19.583C130.82 20.3156 130.44 21.1837 130.44 22.2147C130.44 22.6759 130.494 23.11 130.63 23.5169C130.792 23.9239 130.982 24.2766 131.172 24.5207C131.39 24.792 131.661 25.0633 132.014 25.3075C132.366 25.5517 132.665 25.7687 132.936 25.9044C133.262 26.04 133.588 26.2028 133.968 26.3656Z" fill="white"/>
<path d="M144.007 26.3656C144.659 26.664 145.147 26.9896 145.5 27.288C145.826 27.5864 146.016 27.8849 146.016 28.2104C146.016 28.5631 145.88 28.8344 145.636 29.0515C145.391 29.2414 145.066 29.3499 144.659 29.3499C144.116 29.3499 143.6 29.2143 143.058 28.9701C142.678 28.7802 142.352 28.5631 142.081 28.2918C141.918 28.1291 141.674 28.1562 141.538 28.319L140.371 29.7297C140.263 29.8654 140.263 30.0282 140.344 30.1638C140.67 30.6792 141.185 31.0864 141.891 31.4119C142.732 31.7917 143.628 31.9815 144.577 31.9815C145.88 31.9815 146.911 31.6288 147.752 30.8964L147.888 30.7879C148.594 30.1096 149.028 29.1871 149.028 28.2376C149.028 27.5593 148.892 26.9625 148.621 26.4741C148.349 25.9586 148.024 25.5788 147.644 25.3075C147.237 25.0091 146.802 24.7649 146.341 24.4936C145.853 24.2494 145.418 24.0324 145.012 23.8696C144.604 23.6797 144.252 23.4627 143.953 23.1914C143.682 22.9201 143.519 22.5945 143.519 22.2147C143.519 21.8891 143.655 21.6178 143.899 21.4279C144.17 21.238 144.523 21.1566 144.93 21.1566C145.364 21.1566 145.717 21.2108 146.016 21.3465C146.206 21.4279 146.395 21.5636 146.612 21.7263C146.775 21.862 147.02 21.8348 147.155 21.6449L148.241 20.1256C148.349 19.9629 148.322 19.7458 148.186 19.6373C147.318 18.8777 146.151 18.4978 144.659 18.4978C143.383 18.4978 142.379 18.8505 141.619 19.583C140.86 20.3156 140.48 21.1837 140.48 22.2147C140.48 22.6759 140.534 23.11 140.67 23.5169C140.832 23.9239 141.022 24.2766 141.212 24.5207C141.43 24.792 141.701 25.0633 142.054 25.3075C142.406 25.5517 142.705 25.7687 142.976 25.9044C143.275 26.04 143.628 26.2028 144.007 26.3656Z" fill="white"/>
<path d="M50.8754 26.3671C51.5265 26.6656 52.0149 26.9911 52.3678 27.2896C52.6934 27.588 52.8834 27.8864 52.8834 28.212C52.8834 28.5647 52.7478 28.836 52.5034 29.053C52.2591 29.2429 51.9336 29.3514 51.5265 29.3514C50.9838 29.3514 50.4683 29.2158 49.9256 28.9716C49.5456 28.7817 49.22 28.5647 48.9487 28.2934C48.7858 28.1306 48.5416 28.1577 48.4058 28.3205L47.2389 29.7313C47.1305 29.8669 47.1305 30.0297 47.2118 30.1654C47.5376 30.6809 48.0531 31.0878 48.7587 31.4133C49.5998 31.7931 50.4954 31.9831 51.4451 31.9831C52.7476 31.9831 53.7789 31.6304 54.62 30.8978L54.7287 30.7893C55.4343 30.1111 55.8685 29.1887 55.8956 28.212C55.8956 27.5337 55.7598 26.9369 55.4885 26.4214C55.2171 25.9059 54.8916 25.5261 54.5116 25.2548C54.1045 24.9564 53.6703 24.7122 53.2089 24.4409C52.7205 24.1967 52.2865 23.9797 51.8794 23.8169C51.4723 23.627 51.1196 23.4099 50.8209 23.1386C50.5496 22.8673 50.3869 22.5418 50.3869 22.162C50.3869 21.8364 50.5225 21.5651 50.7667 21.3752C51.038 21.1853 51.3909 21.1039 51.798 21.1039C52.232 21.1039 52.5849 21.1581 52.8834 21.2938C53.0734 21.3752 53.2634 21.5108 53.4805 21.6736C53.6431 21.8093 53.8874 21.7821 54.0231 21.5922L55.1085 20.0729C55.2171 19.9101 55.19 19.6931 55.0543 19.5846C54.186 18.8249 53.0191 18.4451 51.5265 18.4451C50.2511 18.4451 49.2471 18.7978 48.4871 19.5303C47.7274 20.2628 47.3476 21.131 47.3476 22.162C47.3476 22.6232 47.4018 23.0572 47.5374 23.4642C47.7003 23.8712 47.8903 24.2238 48.0803 24.468C48.2974 24.7393 48.5687 25.0106 48.9214 25.2548C49.2743 25.499 49.5727 25.716 49.844 25.8517C50.1698 26.0416 50.4954 26.2044 50.8754 26.3671Z" fill="white"/>
<path d="M49.9377 12.3641V14.5556H48.4414V8.10997C48.7281 8.10997 49.043 8.1069 49.3859 8.10076C49.735 8.09462 50.0872 8.09155 50.4425 8.09155C51.3652 8.09155 52.0385 8.29413 52.4623 8.69929C52.8801 9.09217 53.089 9.60169 53.089 10.2278C53.089 10.8294 52.8677 11.342 52.425 11.7656C51.9823 12.183 51.3963 12.3917 50.667 12.3917C50.3428 12.3917 50.0997 12.3825 49.9377 12.3641ZM50.5921 9.47277C50.5859 9.47277 50.5579 9.47584 50.5081 9.48198C50.4581 9.48198 50.3803 9.48505 50.2743 9.49119C50.1683 9.49119 50.0561 9.49119 49.9377 9.49119V10.9645C50.1994 10.9952 50.427 11.0105 50.6203 11.0105C50.8759 11.0105 51.0848 10.9461 51.2468 10.8172C51.415 10.6821 51.4992 10.4826 51.4992 10.2186C51.4992 9.72139 51.197 9.47277 50.5921 9.47277Z" fill="white"/>
<path d="M53.8481 11.3331C53.8481 10.3816 54.1692 9.58969 54.8112 8.9574C55.4596 8.31897 56.2981 7.99976 57.3267 7.99976C58.3492 7.99976 59.1814 8.30362 59.8234 8.91136C60.4781 9.5191 60.8054 10.3263 60.8054 11.3331C60.8054 12.303 60.475 13.101 59.8141 13.7272C59.1596 14.3534 58.3303 14.6664 57.3267 14.6664C56.3105 14.6664 55.4752 14.3626 54.8205 13.7548C54.1723 13.1471 53.8481 12.3398 53.8481 11.3331ZM55.4379 11.3331C55.4379 11.8794 55.6216 12.3429 55.9894 12.7235C56.3512 13.098 56.7967 13.2852 57.3267 13.2852C57.9252 13.2852 58.3896 13.1041 58.7201 12.7419C59.0505 12.3675 59.2156 11.8978 59.2156 11.3331C59.2156 10.7499 59.0347 10.2803 58.6732 9.92425C58.3054 9.56207 57.8565 9.38098 57.3267 9.38098C56.7781 9.38098 56.3261 9.56207 55.9707 9.92425C55.6154 10.2864 55.4379 10.756 55.4379 11.3331Z" fill="white"/>
<path d="M69.0498 8.10913H70.4898L68.6478 14.5548H67.2169L65.8518 10.4112L64.5051 14.5548H63.0745L61.1387 8.10913H62.8314L63.9347 12.1791L65.1598 8.10913H66.6654L67.9276 12.1791L69.0498 8.10913Z" fill="white"/>
<path d="M75.4273 14.5548H71.4531V8.10913H75.3337V9.49035H72.9491V10.6229H75.0531V12.0042H72.9491V13.1736H75.4273V14.5548Z" fill="white"/>
<path d="M78.4499 12.2996V14.5556H76.9536V8.10997C77.309 8.10997 77.7016 8.1069 78.1319 8.10076C78.5621 8.09462 78.9112 8.09155 79.1792 8.09155C80.7939 8.09155 81.6012 8.77909 81.6012 10.1542C81.6012 11.0381 81.2334 11.6582 80.4976 12.0142L82.4054 14.5556H80.5912L79.0014 12.2996H78.4499ZM79.1043 9.47277C79.0981 9.47277 79.0701 9.47584 79.0203 9.48198C78.9703 9.48198 78.8923 9.48505 78.7865 9.49119C78.6805 9.49119 78.5683 9.49119 78.4499 9.49119V10.9184H78.9921C79.6716 10.9184 80.0114 10.6698 80.0114 10.1726C80.0114 9.70605 79.709 9.47277 79.1043 9.47277Z" fill="white"/>
<path d="M87.3414 14.5548H83.3672V8.10913H87.2479V9.49035H84.8632V10.6229H86.9672V12.0042H84.8632V13.1736H87.3414V14.5548Z" fill="white"/>
<path d="M89.0261 14.557H88.8672V8.11136H88.9981C89.2786 8.11136 89.5903 8.10829 89.9332 8.10216C90.0641 8.10216 90.2074 8.10216 90.3634 8.10216C90.5254 8.09602 90.6501 8.09295 90.7374 8.09295C90.8248 8.08681 90.8901 8.08374 90.9337 8.08374C92.1619 8.08374 93.0814 8.38454 93.6923 8.98613C94.3032 9.58773 94.6088 10.352 94.6088 11.279C94.6088 12.2304 94.2814 13.0193 93.627 13.6454C92.9786 14.2654 92.0559 14.5754 90.859 14.5754C90.6159 14.5754 90.3446 14.5724 90.0454 14.5662C89.7461 14.5601 89.4063 14.557 89.0261 14.557ZM90.915 9.46496C90.6719 9.46496 90.4881 9.47417 90.3634 9.49259V13.1758C90.5379 13.1881 90.7188 13.1942 90.9057 13.1942C91.5666 13.1942 92.0839 13.0254 92.4581 12.6878C92.8321 12.3502 93.019 11.8806 93.019 11.279C93.019 10.708 92.829 10.263 92.4485 9.94378C92.0683 9.62457 91.5572 9.46496 90.915 9.46496Z" fill="white"/>
<path d="M97.9409 14.5381V8.12922C98.6703 8.09239 99.331 8.07397 99.9234 8.07397C100.646 8.07397 101.192 8.21823 101.56 8.50676C101.934 8.78914 102.121 9.17895 102.121 9.67619C102.121 10.3085 101.871 10.7873 101.373 11.1126V11.1311C101.653 11.2354 101.878 11.4134 102.046 11.6651C102.22 11.9168 102.308 12.2299 102.308 12.6044C102.308 13.2489 102.077 13.7431 101.616 14.0869C101.161 14.4245 100.562 14.5933 99.8205 14.5933C98.9538 14.5933 98.3274 14.5749 97.9409 14.5381ZM100.017 11.9506H99.4369V13.1568C99.5743 13.1937 99.7425 13.2121 99.9421 13.2121C100.522 13.2121 100.812 12.985 100.812 12.5307C100.812 12.144 100.547 11.9506 100.017 11.9506ZM99.9045 9.45519C99.7923 9.45519 99.6365 9.46747 99.4369 9.49203V10.6614H99.9327C100.394 10.6614 100.625 10.4527 100.625 10.0353C100.625 9.85728 100.556 9.71609 100.419 9.61173C100.282 9.50737 100.11 9.45519 99.9045 9.45519Z" fill="white"/>
<path d="M107.49 8.10913H109.108L106.789 11.9305V14.5548H105.292V11.9305L102.992 8.10913H104.703L106.106 10.5493L107.49 8.10913Z" fill="white"/>
</g>
</g>
</g>
<defs>
<clipPath id="clip0_11278_6899">
<rect width="150" height="40" fill="white" transform="translate(-0.00292969 -0.000244141)"/>
</clipPath>
</defs>
</svg>
