
<svg width="100" height="30" viewBox="0 0 100 30" fill="none" xmlns="http://www.w3.org/2000/svg">
<path d="M22.9579 23.8841C22.5703 24.2325 22.1165 24.4992 21.6235 24.6683C21.1306 24.8373 20.6086 24.9053 20.0889 24.8681C17.9749 24.6951 16.4889 23.2281 16.1889 21.0241C15.9229 19.0111 16.3939 17.2411 18.1189 16.0071C19.0154 15.3736 20.1268 15.1221 21.2088 15.3077C22.2908 15.4933 23.2548 16.101 23.8889 16.9971C24.0029 17.16 24.1058 17.3304 24.1969 17.5071C24.3729 17.8641 24.3609 18.0561 23.9589 18.1551C23.9019 18.1551 23.8529 18.1961 23.7989 18.2121C23.4799 18.3271 23.1719 18.5931 22.8439 18.5321C22.5159 18.4711 22.5079 18.0241 22.3279 17.7701C22.1151 17.4658 21.8297 17.2194 21.4976 17.0532C21.1655 16.8871 20.7972 16.8065 20.426 16.8187C20.0549 16.8309 19.6926 16.9356 19.3722 17.1232C19.0517 17.3108 18.7832 17.5755 18.5909 17.8931C18.1974 18.5139 17.9802 19.23 17.9626 19.9648C17.945 20.6995 18.1276 21.4252 18.4909 22.0641C18.9909 22.9701 19.9339 23.3551 21.0399 23.1961C21.4542 23.1314 21.8391 22.9422 22.1435 22.6538C22.448 22.3654 22.6577 21.9914 22.7449 21.5811C22.8449 21.2081 22.7449 21.1181 22.3799 21.1381C21.9499 21.1631 21.5109 21.1381 21.0799 21.1381C20.6489 21.1381 20.5469 21.0151 20.5429 20.6181C20.5429 19.6341 20.5229 19.6341 21.4739 19.6341H24.0309C24.3309 19.6341 24.4409 19.7291 24.4159 20.0441V24.1441C24.4159 24.5541 24.2399 24.6971 23.8589 24.6691C23.7836 24.6651 23.7081 24.6651 23.6329 24.6691C23.1829 24.6631 22.6829 24.7491 22.9579 23.8841Z" fill="white"/>
<path d="M16.1997 7.75385V3.65385C16.1997 3.43585 16.1467 3.19085 16.5357 3.19085C17.8797 3.23585 19.2287 3.10385 20.5687 3.27185C21.1468 3.33349 21.6893 3.58141 22.1143 3.97823C22.5392 4.37505 22.8237 4.89927 22.9247 5.47185C23.1707 6.81585 22.6997 7.87185 21.5317 8.47185C21.2447 8.61985 21.2487 8.72985 21.3837 8.97185C21.9287 9.94685 22.4537 10.9309 23.0237 11.9019C23.2077 12.2299 23.1997 12.3529 22.7697 12.3489C20.9617 12.3159 21.3927 12.5209 20.5977 11.0949C20.2527 10.4839 19.9417 9.86485 19.6057 9.24285C19.4617 8.97985 18.1837 8.79985 18.0117 9.02485C17.9578 9.14273 17.9378 9.27324 17.9537 9.40185V11.7339C17.9537 12.1769 17.7737 12.3339 17.3437 12.3449C16.2367 12.3779 16.2367 12.3859 16.2367 11.2589L16.1997 7.75385ZM17.9127 6.11385V7.18785C17.9127 7.37685 17.9127 7.52785 18.1757 7.51985C18.8177 7.54982 19.4611 7.52809 20.0997 7.45485C20.4292 7.41623 20.73 7.24856 20.9362 6.98859C21.1424 6.72862 21.2371 6.39754 21.1997 6.06785V6.04485C21.1964 5.72084 21.071 5.40999 20.8486 5.17438C20.6261 4.93877 20.323 4.79574 19.9997 4.77385C19.7741 4.74619 19.547 4.7325 19.3197 4.73285C17.9127 4.69985 17.9127 4.69985 17.9127 6.10585V6.11385Z" fill="white"/>
<path d="M34.4367 18.7158C36.0267 17.6508 37.0467 17.6958 38.2237 18.8758C38.5588 18.4997 38.9917 18.2239 39.4742 18.0791C39.9567 17.9344 40.4699 17.9263 40.9567 18.0558C41.3817 18.1341 41.7653 18.3601 42.0398 18.6938C42.3143 19.0276 42.462 19.4477 42.4567 19.8798C42.4857 21.2978 42.4567 22.7198 42.4817 24.1418C42.4817 24.4908 42.3547 24.6498 41.9817 24.6628C40.9037 24.7118 40.9037 24.7238 40.9037 23.6498V20.6378C40.9037 19.9128 40.6737 19.6138 40.1287 19.4868C39.8575 19.433 39.5761 19.4672 39.3256 19.5843C39.0751 19.7013 38.8685 19.8952 38.7357 20.1378C38.5247 20.5446 38.4257 21.0001 38.4487 21.4578V24.1828C38.4487 24.5558 38.3427 24.6708 37.9657 24.6668C36.8797 24.6668 36.8797 24.6668 36.8797 23.6088V20.8268C36.8797 20.0068 36.5597 19.5478 35.9567 19.4658C35.6321 19.4526 35.313 19.5518 35.0531 19.7468C34.7933 19.9418 34.6088 20.2205 34.5307 20.5358C34.3808 21.2217 34.3326 21.9259 34.3877 22.6258V24.0998C34.3877 24.5098 34.2157 24.6738 33.8017 24.6618C32.5717 24.6288 32.8217 24.8048 32.8097 23.6898V18.9168C32.8097 18.6468 32.7897 18.3308 33.0847 18.2288C33.4851 18.1058 33.9133 18.1058 34.3137 18.2288C34.4737 18.2528 34.3507 18.5238 34.4367 18.7158Z" fill="white"/>
<path d="M67.6651 23.683C67.0877 24.095 66.39 24.3039 65.6811 24.277C65.2833 24.2649 64.8919 24.1731 64.5301 24.007C63.1941 23.384 62.6001 21.5 63.2101 19.839C63.4597 19.1761 63.9457 18.629 64.5745 18.303C65.2033 17.9769 65.9305 17.895 66.6161 18.073C66.9917 18.2005 67.3384 18.401 67.6361 18.663C67.7961 18.253 68.9151 17.963 69.2261 18.22C69.3451 18.32 69.2961 18.466 69.2961 18.589C69.2961 20.483 69.3201 22.38 69.2961 24.273C69.2671 25.798 68.5961 26.503 67.0961 26.732C66.311 26.873 65.504 26.834 64.7361 26.618C64.3878 26.5206 64.0715 26.3327 63.8193 26.0734C63.5671 25.8142 63.388 25.4929 63.3001 25.142C63.2001 24.835 63.3001 24.732 63.6001 24.732H64.6201C64.6971 24.7224 64.7754 24.7328 64.8472 24.7622C64.919 24.7916 64.982 24.8391 65.0301 24.9C65.2576 25.2011 65.582 25.4145 65.9486 25.5041C66.3151 25.5938 66.7014 25.5542 67.0421 25.392C67.5911 25.142 67.7921 24.638 67.6651 23.683ZM64.6281 21.163C64.6281 22.204 65.2341 22.851 66.1931 22.847C67.1521 22.843 67.7631 22.204 67.7631 21.138C67.7631 20.072 67.1771 19.392 66.2021 19.392C65.2271 19.392 64.6201 20.056 64.6281 21.142V21.163Z" fill="white"/>
<path d="M45.3669 18.6C45.6772 18.3507 46.0359 18.1686 46.4203 18.0653C46.8047 17.962 47.2064 17.9398 47.5999 18C49.2149 18.3 50.2559 19.889 50.0589 21.754C50.0213 22.0738 49.9543 22.3894 49.8589 22.697C49.2979 24.553 47.2589 25.565 45.4819 24.237C45.2239 24.975 44.6049 24.61 44.1549 24.623C43.7049 24.636 43.8139 24.156 43.8139 23.869V16.134C43.8139 15.671 43.9249 15.512 44.4049 15.534C45.5359 15.587 45.3919 15.362 45.4049 16.534C45.3709 17.184 45.3669 17.839 45.3669 18.6ZM48.4569 21.3C48.4249 21.0458 48.3768 20.794 48.3129 20.546C48.2368 20.2396 48.0629 19.9663 47.8174 19.7678C47.5719 19.5693 47.2684 19.4563 46.9529 19.446C46.6277 19.4381 46.3087 19.5362 46.0441 19.7254C45.7795 19.9146 45.5836 20.1847 45.4859 20.495C45.2539 21.125 45.2787 21.821 45.5549 22.433C45.6535 22.6927 45.8294 22.916 46.0587 23.0728C46.2881 23.2296 46.56 23.3123 46.8379 23.31C47.1232 23.3222 47.406 23.2513 47.6519 23.1059C47.8977 22.9606 48.0961 22.7469 48.2229 22.491C48.3855 22.1133 48.4653 21.7051 48.4569 21.294V21.3Z" fill="white"/>
<path d="M69.9149 11.9001C69.7379 12.2771 68.7429 12.5601 68.3779 12.3391C68.2339 12.2531 68.2669 12.1091 68.2669 11.9821V3.70008C68.2669 3.35908 68.3899 3.23608 68.7299 3.21608C69.8119 3.15508 69.8119 3.14608 69.8119 4.26908V5.80008C69.8119 6.08708 69.8489 6.24708 70.1889 6.05808C72.2379 4.93908 74.1519 6.38608 74.4469 8.40208C74.5286 8.96399 74.5093 9.53596 74.3899 10.0911C74.0369 11.8001 72.0289 13.4911 69.9149 11.9001ZM72.8729 9.03108C72.8678 8.8242 72.8501 8.61782 72.8199 8.41308C72.7648 8.06331 72.591 7.74317 72.3277 7.50644C72.0643 7.2697 71.7276 7.13081 71.3739 7.11308C71.038 7.08724 70.7039 7.18344 70.4332 7.38403C70.1624 7.58462 69.9731 7.87614 69.8999 8.20508C69.6896 8.88381 69.7483 9.61745 70.0639 10.2541C70.1859 10.5031 70.3805 10.7092 70.622 10.8453C70.8636 10.9813 71.1408 11.0409 71.4169 11.0161C71.6741 11.0133 71.9246 10.9337 72.1362 10.7876C72.3479 10.6415 72.5111 10.4355 72.6049 10.1961C72.7809 9.83798 72.872 9.4441 72.8709 9.04508L72.8729 9.03108Z" fill="white"/>
<path d="M39.2771 6.35197C39.6138 6.06094 40.0168 5.85686 40.4507 5.75758C40.8845 5.65831 41.3361 5.66687 41.766 5.78251C42.1958 5.89815 42.5907 6.11735 42.9162 6.42094C43.2417 6.72453 43.4878 7.10325 43.6331 7.52397C44.0164 8.48176 44.0497 9.54406 43.7271 10.524C43.2271 12.098 41.3011 13.282 39.2651 11.917C39.2651 12.585 39.2361 13.196 39.2651 13.803C39.2931 14.29 39.1461 14.471 38.6331 14.454C37.6791 14.417 37.6741 14.454 37.6741 13.491V6.95497C37.6741 5.72497 37.5191 5.90497 38.8381 5.87697C39.1701 5.86897 39.3061 5.97897 39.2771 6.35197ZM39.2481 9.05197C39.2151 10.175 39.7481 10.945 40.6091 11.031C41.6501 11.131 42.3341 10.388 42.3421 9.13097C42.3421 7.99597 41.7231 7.20497 40.7971 7.17197C39.8711 7.13897 39.2771 7.90897 39.2481 9.04897V9.05197Z" fill="white"/>
<path d="M31.7003 24.6462H30.2163C30.1423 24.6462 30.0163 24.6462 29.9993 24.6182C29.6993 24.0402 29.3553 24.4702 29.0443 24.5852C28.3887 24.8382 27.6673 24.8642 26.9953 24.6592C26.5961 24.5488 26.2419 24.3155 25.9829 23.9924C25.7239 23.6693 25.5732 23.2728 25.5523 22.8592C25.5395 22.4495 25.6499 22.0454 25.8692 21.699C26.0884 21.3527 26.4065 21.08 26.7823 20.9162C27.3484 20.704 27.9348 20.5502 28.5323 20.4572C28.8063 20.3872 29.0893 20.3462 29.3513 20.2642C29.5363 20.2112 29.8143 20.2322 29.8183 19.9452C29.8218 19.8213 29.7912 19.6988 29.7298 19.591C29.6684 19.4833 29.5787 19.3944 29.4703 19.3342C29.1327 19.1483 28.7351 19.1039 28.3649 19.2108C27.9946 19.3176 27.6819 19.567 27.4953 19.9042C27.4704 19.9841 27.4167 20.0518 27.3446 20.0942C27.2724 20.1365 27.1871 20.1504 27.1053 20.1332L26.5403 20.1012C25.8103 20.0512 25.7203 19.9372 26.0233 19.2812C26.1351 19.0189 26.3032 18.7844 26.5158 18.5943C26.7283 18.4042 26.9801 18.2631 27.2533 18.1812C28.1382 17.8854 29.0914 17.861 29.9903 18.1112C30.9993 18.3692 31.4083 18.8942 31.4293 19.9432C31.4493 21.1152 31.4293 22.2912 31.4293 23.4632C31.3838 23.8768 31.4793 24.2937 31.7003 24.6462ZM28.2953 23.4172C29.4143 23.4172 29.9593 22.8312 29.8523 21.7782C29.8523 21.6222 29.8523 21.4832 29.6063 21.5482C29.0283 21.7042 28.4303 21.8022 27.8523 21.9582C27.7339 21.9749 27.6217 22.0209 27.5256 22.092C27.4296 22.1631 27.3529 22.257 27.3024 22.3653C27.2519 22.4736 27.2293 22.5928 27.2366 22.7121C27.2439 22.8314 27.2809 22.9469 27.3443 23.0482C27.4521 23.1886 27.5957 23.2973 27.7601 23.3629C27.9244 23.4286 28.1034 23.4487 28.2783 23.4212L28.2953 23.4172Z" fill="white"/>
<path d="M27.7159 9.43016C27.0889 9.43016 26.4659 9.45916 25.8389 9.43016C25.3759 9.40516 25.3919 9.59016 25.5279 9.93016C25.6546 10.1994 25.8428 10.4351 26.0773 10.6182C26.3118 10.8014 26.586 10.9269 26.8779 10.9847C27.1697 11.0425 27.4711 11.0309 27.7577 10.9509C28.0443 10.871 28.3081 10.7248 28.5279 10.5242C28.6669 10.3972 28.7489 10.0942 29.0069 10.2172C29.3945 10.4105 29.7672 10.6324 30.1219 10.8812C30.1999 10.9302 30.0889 11.0442 30.0359 11.1182C29.3639 12.1512 27.6709 12.7572 26.2779 12.4792C24.8849 12.2012 24.0199 11.2492 23.7529 9.75416C23.4859 8.25916 24.0689 6.83216 25.1379 6.14716C25.5908 5.84411 26.1142 5.66271 26.6575 5.62042C27.2009 5.57813 27.7459 5.67637 28.2403 5.90569C28.7347 6.135 29.1618 6.48769 29.4805 6.92981C29.7991 7.37193 29.9987 7.88862 30.0599 8.43016C30.2279 9.63016 30.2809 9.41416 29.1869 9.43016C28.6999 9.43816 28.2079 9.43016 27.7159 9.43016ZM26.8999 8.27816H28.0269C28.3999 8.27816 28.4369 8.13116 28.3219 7.83216C28.2219 7.54545 28.0279 7.30102 27.7713 7.13868C27.5147 6.97634 27.2107 6.90566 26.9089 6.93816C26.595 6.95014 26.2924 7.0585 26.0423 7.24852C25.7921 7.43853 25.6066 7.70098 25.5109 8.00016C25.4459 8.25816 25.5559 8.28616 25.7609 8.28216C26.1379 8.27416 26.5149 8.28216 26.8919 8.28216L26.8999 8.27816Z" fill="white"/>
<path d="M81.4753 9.42991H79.5413C79.1683 9.42991 79.1313 9.56491 79.2343 9.87191C79.4228 10.3279 79.7847 10.6903 80.2404 10.8795C80.6961 11.0687 81.2082 11.0692 81.6643 10.8809C81.8803 10.7912 82.0777 10.662 82.2463 10.4999C82.3354 10.3713 82.4719 10.2833 82.6258 10.2552C82.7797 10.2271 82.9385 10.2612 83.0673 10.3499C83.0944 10.3687 83.1198 10.3898 83.1433 10.4129C84.0333 10.9629 84.0433 10.9629 83.2433 11.6429C81.2433 13.3599 78.1693 12.5279 77.5633 10.1099C77.1533 8.39691 77.7843 6.68791 79.1163 6.00991C81.4313 4.84591 83.9163 6.44391 83.8823 9.05891C83.8823 9.33391 83.7923 9.42391 83.5253 9.41991C82.8363 9.42191 82.1563 9.42991 81.4753 9.42991ZM80.6563 8.27791H81.7873C82.0873 8.27791 82.1433 8.19191 82.0533 7.91391C81.9689 7.62019 81.7878 7.36359 81.5393 7.18571C81.2908 7.00783 80.9895 6.9191 80.6843 6.93391C80.3635 6.93434 80.0511 7.03597 79.7915 7.22432C79.5319 7.41267 79.3383 7.67813 79.2383 7.98291C79.1683 8.22891 79.2673 8.28291 79.4843 8.28291C79.8843 8.27491 80.2793 8.28291 80.6763 8.28291L80.6563 8.27791Z" fill="white"/>
<path d="M47.961 12.5321C47.5305 12.5371 47.1032 12.4572 46.7036 12.297C46.3039 12.1369 45.9398 11.8995 45.6319 11.5985C45.3241 11.2975 45.0785 10.9388 44.9094 10.5429C44.7402 10.147 44.6507 9.7216 44.646 9.29109C44.644 9.18428 44.648 9.07744 44.658 8.97108C44.727 6.94208 46.158 5.61908 48.207 5.69208C50.051 5.75008 51.395 7.27808 51.338 9.24508C51.281 11.2121 49.862 12.5851 47.961 12.5321ZM49.661 9.07708C49.6698 8.74364 49.6013 8.4127 49.461 8.11008C49.3379 7.79942 49.1178 7.53676 48.8336 7.36111C48.5493 7.18546 48.2159 7.1062 47.883 7.13508C47.5609 7.13685 47.248 7.24225 46.9905 7.43567C46.7329 7.62909 46.5445 7.90026 46.453 8.20908C46.2401 8.80476 46.259 9.45872 46.506 10.0411C46.655 10.426 46.9437 10.7406 47.3144 10.922C47.6851 11.1035 48.1106 11.1385 48.506 11.0201C49.219 10.8311 49.657 10.1141 49.657 9.07708H49.661Z" fill="white"/>
<path d="M53.7152 6.43433C54.2891 5.91668 55.043 5.64455 55.8152 5.67633C56.2968 5.67577 56.76 5.8607 57.1088 6.19272C57.4576 6.52474 57.6651 6.97834 57.6882 7.45933C57.7532 8.95033 57.7252 10.4503 57.7452 11.9673C57.7452 12.2453 57.6392 12.3763 57.3352 12.3763C56.1472 12.4713 56.1512 12.4763 56.1512 11.3033V8.45933C56.1512 7.73733 55.8192 7.33633 55.2702 7.25933C54.9682 7.20667 54.6573 7.26356 54.3935 7.41976C54.1297 7.57595 53.9303 7.82119 53.8312 8.11133C53.7159 8.45299 53.6647 8.81305 53.6802 9.17333V11.7873C53.6802 12.1973 53.5852 12.3693 53.1392 12.3653C52.0532 12.3653 52.0532 12.3863 52.0532 11.3003V6.64333C52.0532 5.87733 52.0532 5.87733 52.7992 5.87333C52.8945 5.87933 52.99 5.87933 53.0852 5.87333C53.4562 5.82833 53.7512 5.88533 53.7152 6.43433Z" fill="white"/>
<path d="M61.485 12.5323C60.5115 12.5316 59.5643 12.2159 58.785 11.6323C58.535 11.4433 58.502 11.3083 58.785 11.1323C58.9118 11.049 59.0285 10.9513 59.133 10.8413C59.441 10.5133 59.691 10.4063 60.109 10.7753C60.3911 11.0059 60.7278 11.1598 61.0867 11.2224C61.4456 11.2849 61.8146 11.2539 62.158 11.1323C62.482 11.0413 62.773 10.8693 62.773 10.4803C62.773 10.0913 62.436 10.0253 62.137 9.95133C61.404 9.76733 60.637 9.72233 59.937 9.40233C58.625 8.80233 58.4 7.35333 59.453 6.38233C59.629 6.2065 59.838 6.06717 60.068 5.97233C60.703 5.69743 61.4004 5.59878 62.0867 5.68677C62.773 5.77476 63.4229 6.04613 63.968 6.47233C64.28 6.70633 64.415 6.93533 64.009 7.20633C63.9478 7.25057 63.8927 7.30269 63.845 7.36133C63.517 7.71833 63.271 7.98433 62.821 7.40633C62.411 6.90633 61.763 6.85333 61.136 6.96433C60.804 7.02133 60.485 7.15233 60.456 7.53833C60.427 7.92433 60.772 8.07433 61.087 8.14833C61.677 8.28333 62.276 8.38233 62.866 8.50933C63.825 8.70933 64.378 9.23433 64.505 10.0173C64.5528 10.4343 64.4733 10.8559 64.277 11.2268C64.0807 11.5977 63.7767 11.9005 63.405 12.0953C62.8164 12.4121 62.1528 12.5632 61.485 12.5323Z" fill="white"/>
<path d="M33.6997 12.5239C32.8284 12.4848 31.9897 12.1818 31.2947 11.6549C31.0317 11.4629 30.9627 11.3069 31.2947 11.1179C31.3594 11.0782 31.4186 11.0301 31.4707 10.9749C31.8477 10.5859 32.1547 10.3479 32.6997 10.8479C32.9803 11.064 33.3132 11.2021 33.6644 11.2481C34.0156 11.2941 34.3728 11.2464 34.6997 11.1099C34.852 11.084 34.9902 11.0046 35.0893 10.8861C35.1885 10.7675 35.2421 10.6175 35.2407 10.4629C35.2407 10.0979 34.9297 10.0239 34.6467 9.96291C34.0397 9.82291 33.4167 9.72091 32.8227 9.55291C31.8227 9.26191 31.2857 8.64691 31.2577 7.83591C31.264 7.39857 31.4101 6.97473 31.6746 6.62638C31.9391 6.27803 32.3081 6.02346 32.7277 5.89991C33.3336 5.67405 33.9871 5.60593 34.6266 5.70197C35.2661 5.798 35.8708 6.05503 36.3837 6.44891C36.7517 6.71991 36.8747 6.96191 36.4367 7.26891C36.4064 7.29006 36.3788 7.31492 36.3547 7.34291C36.0067 7.75291 35.7357 7.96191 35.2477 7.39991C34.7597 6.83791 34.0717 6.83591 33.3997 7.04091C33.2686 7.0652 33.15 7.13419 33.0641 7.23613C32.9782 7.33806 32.9304 7.46663 32.9287 7.59991C32.9285 7.72492 32.9737 7.84574 33.056 7.9399C33.1382 8.03407 33.2518 8.0952 33.3757 8.11191C34.0187 8.26791 34.6707 8.38691 35.3137 8.52191C36.3137 8.73891 36.8707 9.27191 36.9857 10.1219C37.0112 10.5396 36.9121 10.9554 36.701 11.3166C36.4898 11.6779 36.1761 11.9682 35.7997 12.1509C35.1471 12.4653 34.4206 12.5943 33.6997 12.5239Z" fill="white"/>
<path d="M58.0419 18.8271C58.4687 18.3969 59.0188 18.1103 59.6159 18.0071C59.9073 17.9345 60.2114 17.9284 60.5055 17.9894C60.7996 18.0504 61.0762 18.1769 61.3147 18.3594C61.5532 18.5419 61.7476 18.7759 61.8833 19.0438C62.0191 19.3117 62.0928 19.6068 62.0989 19.9071C62.1649 21.3411 62.1239 22.7751 62.1399 24.2221C62.1399 24.5341 62.0219 24.6321 61.7019 24.6651C60.5589 24.7301 60.5589 24.7381 60.5589 23.6161V20.7761C60.5589 20.0871 60.2219 19.6401 59.6899 19.5461C59.3879 19.4936 59.0771 19.5495 58.8123 19.7039C58.5476 19.8583 58.3459 20.1014 58.2429 20.3901C58.1179 20.7483 58.0569 21.1257 58.0629 21.5051V24.1731C58.0629 24.5461 57.9319 24.6651 57.5629 24.6731C56.4629 24.6731 56.4629 24.7011 56.4629 23.6361V18.8001C56.4629 18.2841 56.6439 18.1121 57.1229 18.1651C57.2359 18.1771 57.3499 18.1771 57.4629 18.1651C57.8699 18.0851 58.1529 18.1881 58.0419 18.8271Z" fill="white"/>
<path d="M76.7461 7.8191V11.8001C76.7461 12.2591 76.6311 12.4311 76.1461 12.4231C75.1211 12.4021 75.1211 12.4231 75.1211 11.4141V4.0141C75.1211 3.1951 75.1211 3.1951 75.9411 3.1951C76.0543 3.2031 76.1679 3.2031 76.2811 3.1951C76.6381 3.1491 76.7281 3.3131 76.7241 3.6541V7.8001L76.7461 7.8191Z" fill="white"/>
<path d="M52.5058 20.06V24.089C52.5058 24.499 52.4238 24.663 51.9728 24.659C50.9238 24.659 50.9238 24.659 50.9238 23.609V16.233C50.9238 15.983 50.8048 15.618 51.1038 15.52C51.5248 15.4028 51.9698 15.4028 52.3908 15.52C52.5668 15.565 52.4908 15.82 52.4908 15.983C52.5034 17.3377 52.5084 18.6967 52.5058 20.06Z" fill="white"/>
<path d="M53.6939 21.3473V18.5693C53.6939 18.2493 53.7759 18.1593 54.1039 18.1593C55.2879 18.1593 55.2879 18.1223 55.2879 19.2943V24.0603C55.2879 24.5323 55.1409 24.6833 54.6689 24.6713C53.6899 24.6713 53.6899 24.6713 53.6899 23.6873L53.6939 21.3473Z" fill="white"/>
<path d="M65.4151 9.10026V6.25826C65.4151 5.96726 65.4891 5.87726 65.7921 5.84826C67.0001 5.81126 67.0001 5.80026 67.0001 7.01626V11.6723C67.0001 12.1723 66.8811 12.3813 66.3321 12.3563C65.4181 12.3113 65.4141 12.3563 65.4141 11.4133L65.4151 9.10026Z" fill="white"/>
<path d="M54.7921 15.7332H54.0551C53.9192 15.7332 53.8091 15.8433 53.8091 15.9792V16.7162C53.8091 16.852 53.9192 16.9622 54.0551 16.9622H54.7921C54.9279 16.9622 55.0381 16.852 55.0381 16.7162V15.9792C55.0381 15.8433 54.9279 15.7332 54.7921 15.7332Z" fill="white"/>
<path d="M66.5738 3.43799H65.8368C65.701 3.43799 65.5908 3.54813 65.5908 3.68399V4.42099C65.5908 4.55685 65.701 4.66699 65.8368 4.66699H66.5738C66.7097 4.66699 66.8198 4.55685 66.8198 4.42099V3.68399C66.8198 3.54813 66.7097 3.43799 66.5738 3.43799Z" fill="white"/>
</svg>
