
<svg width="100" height="30" viewBox="0 0 100 30" fill="none" xmlns="http://www.w3.org/2000/svg">
<path d="M53.3545 20.24C52.4745 20.24 51.6245 20.14 50.8045 19.94C49.9845 19.74 49.3095 19.48 48.7795 19.16L49.9195 16.58C50.4195 16.87 50.9745 17.105 51.5845 17.285C52.2045 17.455 52.8045 17.54 53.3845 17.54C53.7245 17.54 53.9895 17.52 54.1795 17.48C54.3795 17.43 54.5245 17.365 54.6145 17.285C54.7045 17.195 54.7495 17.09 54.7495 16.97C54.7495 16.78 54.6445 16.63 54.4345 16.52C54.2245 16.41 53.9445 16.32 53.5945 16.25C53.2545 16.17 52.8795 16.09 52.4695 16.01C52.0595 15.92 51.6445 15.805 51.2245 15.665C50.8145 15.525 50.4345 15.34 50.0845 15.11C49.7445 14.88 49.4695 14.58 49.2595 14.21C49.0495 13.83 48.9445 13.36 48.9445 12.8C48.9445 12.15 49.1245 11.56 49.4845 11.03C49.8545 10.49 50.3995 10.06 51.1195 9.74C51.8495 9.42 52.7545 9.26 53.8345 9.26C54.5445 9.26 55.2445 9.335 55.9345 9.485C56.6245 9.635 57.2445 9.865 57.7945 10.175L56.7295 12.74C56.2095 12.48 55.7045 12.285 55.2145 12.155C54.7345 12.025 54.2645 11.96 53.8045 11.96C53.4645 11.96 53.1945 11.99 52.9945 12.05C52.7945 12.11 52.6495 12.19 52.5595 12.29C52.4795 12.39 52.4395 12.5 52.4395 12.62C52.4395 12.8 52.5445 12.945 52.7545 13.055C52.9645 13.155 53.2395 13.24 53.5795 13.31C53.9295 13.38 54.3095 13.455 54.7195 13.535C55.1395 13.615 55.5545 13.725 55.9645 13.865C56.3745 14.005 56.7495 14.19 57.0895 14.42C57.4395 14.65 57.7195 14.95 57.9295 15.32C58.1395 15.69 58.2445 16.15 58.2445 16.7C58.2445 17.34 58.0595 17.93 57.6895 18.47C57.3295 19 56.7895 19.43 56.0695 19.76C55.3495 20.08 54.4445 20.24 53.3545 20.24ZM64.8029 20.24C63.9529 20.24 63.1629 20.105 62.4329 19.835C61.7129 19.565 61.0879 19.185 60.5579 18.695C60.0279 18.195 59.6129 17.61 59.3129 16.94C59.0229 16.27 58.8779 15.54 58.8779 14.75C58.8779 13.95 59.0229 13.22 59.3129 12.56C59.6129 11.89 60.0279 11.31 60.5579 10.82C61.0879 10.32 61.7129 9.935 62.4329 9.665C63.1629 9.395 63.9529 9.26 64.8029 9.26C65.6629 9.26 66.4529 9.395 67.1729 9.665C67.8929 9.935 68.5179 10.32 69.0479 10.82C69.5779 11.31 69.9879 11.89 70.2779 12.56C70.5779 13.22 70.7279 13.95 70.7279 14.75C70.7279 15.54 70.5779 16.27 70.2779 16.94C69.9879 17.61 69.5779 18.195 69.0479 18.695C68.5179 19.185 67.8929 19.565 67.1729 19.835C66.4529 20.105 65.6629 20.24 64.8029 20.24ZM64.8029 17.375C65.1329 17.375 65.4379 17.315 65.7179 17.195C66.0079 17.075 66.2579 16.905 66.4679 16.685C66.6879 16.455 66.8579 16.18 66.9779 15.86C67.0979 15.53 67.1579 15.16 67.1579 14.75C67.1579 14.34 67.0979 13.975 66.9779 13.655C66.8579 13.325 66.6879 13.05 66.4679 12.83C66.2579 12.6 66.0079 12.425 65.7179 12.305C65.4379 12.185 65.1329 12.125 64.8029 12.125C64.4729 12.125 64.1629 12.185 63.8729 12.305C63.5929 12.425 63.3429 12.6 63.1229 12.83C62.9129 13.05 62.7479 13.325 62.6279 13.655C62.5079 13.975 62.4479 14.34 62.4479 14.75C62.4479 15.16 62.5079 15.53 62.6279 15.86C62.7479 16.18 62.9129 16.455 63.1229 16.685C63.3429 16.905 63.5929 17.075 63.8729 17.195C64.1629 17.315 64.4729 17.375 64.8029 17.375ZM72.0127 20V9.5H75.5527V17.255H80.2927V20H72.0127Z" fill="white"/>
<path d="M44.0203 20.2794L40.4482 24.0529C40.3705 24.1348 40.2765 24.2002 40.1721 24.2449C40.0677 24.2895 39.9551 24.3126 39.8413 24.3125H22.9079C22.8271 24.3125 22.748 24.2892 22.6805 24.2456C22.6129 24.2019 22.5597 24.1398 22.5275 24.0668C22.4953 23.9938 22.4855 23.9132 22.4992 23.8347C22.5129 23.7563 22.5495 23.6835 22.6047 23.6253L26.1794 19.8519C26.2569 19.7701 26.3505 19.7049 26.4546 19.6602C26.5587 19.6156 26.6709 19.5924 26.7845 19.5922H43.717C43.7978 19.5922 43.8768 19.6155 43.9444 19.6591C44.0119 19.7028 44.065 19.7649 44.0974 19.8379C44.1295 19.9109 44.1394 19.9916 44.1257 20.07C44.112 20.1484 44.0753 20.2212 44.0203 20.2794ZM40.4482 12.6807C40.3705 12.5988 40.2765 12.5334 40.1721 12.4887C40.0677 12.4441 39.9551 12.4211 39.8413 12.4211H22.9079C22.8271 12.4211 22.748 12.4444 22.6805 12.488C22.6129 12.5317 22.5597 12.5938 22.5275 12.6668C22.4953 12.7398 22.4855 12.8205 22.4992 12.8989C22.5129 12.9773 22.5495 13.0501 22.6047 13.1083L26.1794 16.8818C26.2569 16.9635 26.3505 17.0287 26.4546 17.0734C26.5587 17.118 26.6709 17.1412 26.7845 17.1414H43.717C43.7978 17.1414 43.8768 17.1181 43.9444 17.0745C44.0119 17.0308 44.065 16.9687 44.0974 16.8957C44.1295 16.8227 44.1394 16.742 44.1257 16.6636C44.112 16.5852 44.0753 16.5124 44.0203 16.4542L40.4482 12.6807ZM22.9079 9.97024H39.8413C39.9551 9.97028 40.0677 9.94728 40.1721 9.90261C40.2765 9.85794 40.3705 9.79259 40.4482 9.71062L44.0203 5.93716C44.0753 5.87897 44.112 5.80619 44.1257 5.72775C44.1394 5.64932 44.1295 5.56865 44.0974 5.49566C44.065 5.42267 44.0119 5.36054 43.9444 5.3169C43.8768 5.27325 43.7978 5.25 43.717 5.25H26.7845C26.6709 5.25019 26.5587 5.27333 26.4546 5.31799C26.3505 5.36264 26.2569 5.42786 26.1794 5.50961L22.6056 9.28308C22.5505 9.3412 22.5139 9.41392 22.5001 9.49225C22.4864 9.5706 22.4962 9.6512 22.5283 9.72416C22.5604 9.79712 22.6134 9.85924 22.6808 9.90296C22.7482 9.94667 22.8271 9.97005 22.9079 9.97024Z" fill="white"/>
</svg>
