
<svg width="150" height="60" viewBox="0 0 150 60" fill="none" xmlns="http://www.w3.org/2000/svg">
<path d="M44.3533 21.6025H46.9048L47.1366 20.301C47.3842 18.8444 46.8269 18.1626 45.4205 18.1626H41.6174C40.1635 18.1626 39.4219 18.8286 39.1585 20.301L38.8499 22.0827C38.6181 23.477 39.2671 23.9414 40.6429 24.2676L43.5031 24.98C43.8118 25.0571 43.8592 25.1352 43.8118 25.4138L43.6264 26.5453C43.5801 26.7627 43.5031 26.8398 43.2861 26.8398H40.8126C40.565 26.8398 40.5344 26.7627 40.565 26.5453L40.7661 25.4455H38.2304L37.9828 26.8704C37.7205 28.3112 38.2768 29.0089 39.6832 29.0089H43.6727C45.1265 29.0089 45.884 28.327 46.1316 26.8704L46.4718 24.9642C46.7194 23.5699 46.0389 23.1055 44.6788 22.7793L41.8186 22.0816C41.4941 22.0046 41.4478 21.9117 41.4941 21.632L41.6796 20.6251C41.7101 20.3929 41.8028 20.3306 42.004 20.3306H44.308C44.5239 20.3306 44.5703 20.3929 44.5239 20.6251L44.3543 21.6014L44.3533 21.6025Z" fill="white"/>
<path d="M48.6891 18.1641L48.333 20.178H49.632L48.4415 26.9953H47.1425L46.7865 29.0093H52.2288L52.5849 26.9953H51.0078L51.3481 25.0744H54.6718C56.1403 25.0744 56.8831 24.3925 57.1454 22.9359L57.609 20.3025C57.8565 18.8459 57.2992 18.1641 55.8928 18.1641H48.688H48.6891ZM54.6265 22.6108C54.596 22.8283 54.5032 22.9053 54.2862 22.9053H51.72L52.1835 20.3331H54.7351C54.9826 20.3331 55.0132 20.3954 54.9668 20.6276L54.6265 22.6108Z" fill="white"/>
<path d="M63.7503 29.0089C65.2188 29.0089 65.9616 28.327 66.2238 26.8704L67.3679 20.301C67.6302 18.8444 67.074 18.1626 65.6518 18.1626H61.3999C59.9461 18.1626 59.2045 18.8286 58.9411 20.301L57.7971 26.8704C57.5347 28.3112 58.0909 29.0089 59.4984 29.0089H63.7503ZM61.4463 20.6884C61.4769 20.4562 61.5695 20.3939 61.7708 20.3939H64.4919C64.7395 20.3939 64.77 20.4562 64.7395 20.6884L63.7187 26.483C63.6723 26.7005 63.5954 26.7775 63.3784 26.7775H60.6572C60.4255 26.7775 60.3791 26.7005 60.4255 26.483L61.4463 20.6884Z" fill="white"/>
<path d="M77.8139 20.301C78.0762 18.8444 77.52 18.1626 76.0978 18.1626H68.8919L68.5516 20.1765H69.8506L68.6444 26.9939H67.3454L66.9894 29.0078H72.0914L72.4474 26.9939H71.2106L71.5815 24.8713H73.0353L74.1636 29.0078H77.1323L77.4883 26.9939H76.2052L75.5404 24.5768C76.6382 24.4217 77.2102 23.7556 77.442 22.4848L77.8128 20.3L77.8139 20.301ZM71.9386 22.7951L72.3874 20.3158H74.9536C75.1855 20.3158 75.2318 20.3781 75.1855 20.6103L74.861 22.5007C74.8146 22.7329 74.7377 22.7951 74.5049 22.7951H71.9386Z" fill="white"/>
<path d="M88.8501 18.1641H79.2637L78.5684 22.1306H80.687L81.0114 20.2402H82.4031L81.2285 26.9953H79.7598L79.4038 29.0093H84.9241L85.28 26.9953H83.7958L84.9715 20.2402H86.3628L86.0389 22.1306H88.1572L88.8523 18.1641H88.8501Z" fill="white"/>
<path d="M94.6802 21.6025H97.2321L97.4636 20.301C97.7115 18.8444 97.154 18.1626 95.7473 18.1626H91.9442C90.4909 18.1626 89.7492 18.8286 89.4855 20.301L89.1766 22.0827C88.9452 23.477 89.5944 23.9414 90.9696 24.2676L93.8303 24.98C94.1392 25.0571 94.1865 25.1352 94.1392 25.4138L93.9536 26.5453C93.907 26.7627 93.8303 26.8398 93.6132 26.8398H91.1394C90.8922 26.8398 90.8614 26.7627 90.8922 26.5453L91.0928 25.4455H88.5574L88.3102 26.8704C88.0472 28.3112 88.604 29.0089 90.0115 29.0089H94.0009C95.455 29.0089 96.2124 28.327 96.4596 26.8704L96.8 24.9642C97.0473 23.5699 96.3672 23.1055 95.0056 22.7793L92.1456 22.0816C91.821 22.0046 91.7751 21.9117 91.821 21.632L92.0066 20.6251C92.0374 20.3929 92.1298 20.3306 92.3312 20.3306H94.6351C94.8508 20.3306 94.8974 20.3929 94.8508 20.6251L94.681 21.6014L94.6802 21.6025Z" fill="white"/>
<path d="M99.9444 20.178L98.7383 26.9953H97.4391L97.0836 29.0093H104.382C105.851 29.0093 106.593 28.3116 106.979 26.0813C107.274 24.439 107.119 23.6948 106.222 23.4626C107.151 23.1988 107.505 22.5021 107.769 20.9685C108.14 18.8459 107.584 18.1641 106.176 18.1641H98.9863L98.6459 20.178H99.9444ZM102.093 22.4557L102.48 20.2866H104.97C105.264 20.2866 105.31 20.3637 105.125 21.3717C104.955 22.3628 104.863 22.4567 104.583 22.4567H102.093V22.4557ZM101.32 26.8867L101.753 24.3925H104.366C104.66 24.3925 104.69 24.4696 104.489 25.6317C104.273 26.7938 104.211 26.8867 103.933 26.8867H101.32Z" fill="white"/>
<path d="M114.349 29.0089C115.818 29.0089 116.56 28.327 116.823 26.8704L117.967 20.301C118.23 18.8444 117.674 18.1626 116.251 18.1626H111.999C110.545 18.1626 109.803 18.8286 109.54 20.301L108.396 26.8704C108.134 28.3112 108.69 29.0089 110.097 29.0089H114.349ZM112.045 20.6884C112.076 20.4562 112.168 20.3939 112.37 20.3939H115.091C115.339 20.3939 115.369 20.4562 115.339 20.6884L114.317 26.483C114.271 26.7005 114.194 26.7775 113.978 26.7775H111.256C111.024 26.7775 110.978 26.7005 111.024 26.483L112.045 20.6884Z" fill="white"/>
<path d="M124.496 29.0089C125.965 29.0089 126.708 28.327 126.97 26.8704L128.114 20.301C128.378 18.8444 127.82 18.1626 126.398 18.1626H122.146C120.692 18.1626 119.95 18.8286 119.687 20.301L118.543 26.8704C118.28 28.3112 118.837 29.0089 120.245 29.0089H124.496ZM122.192 20.6884C122.223 20.4562 122.316 20.3939 122.517 20.3939H125.238C125.485 20.3939 125.517 20.4562 125.485 20.6884L124.465 26.483C124.418 26.7005 124.342 26.7775 124.125 26.7775H121.403C121.171 26.7775 121.125 26.7005 121.171 26.483L122.192 20.6884Z" fill="white"/>
<path d="M135.807 22.5644L138.312 20.178H139.657L139.997 18.1641H135.234L134.879 20.178H135.636L132.591 23.2146L133.117 20.178H134.043L134.399 18.1641H129.653L129.298 20.178H130.596L129.405 26.9953H128.106L127.751 29.0093H132.745L133.101 26.9953H131.926L132.08 26.1119L133.904 24.3767L135.435 29.0093H138.42L138.776 26.9953H137.384L135.807 22.5644Z" fill="white"/>
<path d="M46.456 33.3166C46.7184 31.86 46.1621 31.1782 44.7399 31.1782H37.5341L37.1938 33.1921H38.4927L37.2865 40.0095H35.9876L35.6315 42.0234H40.7335L41.0896 40.0095H39.8528L40.2236 37.8869H41.6774L42.8057 42.0234H45.7744L46.1305 40.0095H44.8473L44.1826 37.5924C45.2803 37.4372 45.8523 36.7712 46.0841 35.5005L46.455 33.3156L46.456 33.3166ZM40.5807 35.8107L41.0295 33.3314H43.5958C43.8276 33.3314 43.8739 33.3936 43.8276 33.6259L43.5031 35.5162C43.4567 35.7484 43.3788 35.8107 43.147 35.8107H40.5807Z" fill="white"/>
<path d="M54.391 34.6022H56.5095L57.1121 31.1782H48.3914L48.0353 33.1921H49.3343L48.1438 40.0095H46.8449L46.4888 42.0234H55.1937L55.7963 38.5993H53.6778L53.446 39.9008H50.7407L51.1431 37.5924H54.7302L55.101 35.4392H51.5139L51.9005 33.3008H54.6217L54.3899 34.6022H54.391Z" fill="white"/>
<path d="M68.7023 33.1921L69.0426 31.1782H64.2334L63.8774 33.1921H64.8055L62.1149 39.2031L61.527 33.1921H62.4857L62.826 31.1782H58.0789L57.7229 33.1921H58.9133L60.1659 42.0234H63.1504L67.4951 33.1921H68.7013H68.7023Z" fill="white"/>
<path d="M73.3919 33.1921H74.7677L75.1237 31.1782H69.8047L69.4487 33.1921H70.8245L69.634 40.0095H68.2582L67.9021 42.0234H73.2211L73.5772 40.0095H72.2013L73.3919 33.1921Z" fill="white"/>
<path d="M82.1595 34.6022H84.2781L84.8806 31.1782H76.1599L75.8039 33.1921H77.1028L75.9124 40.0095H74.6134L74.2573 42.0234H82.9623L83.5649 38.5993H81.4463L81.2146 39.9008H78.5092L78.9116 37.5924H82.4987L82.8696 35.4392H79.2825L79.6691 33.3008H82.3902L82.1585 34.6022H82.1595Z" fill="white"/>
<path d="M100.8 33.1917L101.139 31.1779H96.3457L95.9903 33.1917H97.1498L95.202 38.8776L94.6302 31.1768H92.3262L89.0792 38.8776L89.1258 33.1917H90.2695L90.6099 31.1779H85.8473L85.4911 33.1917H86.6814L87.13 42.023H89.9133L92.8515 35.1285L93.3775 42.023H96.0519L99.6085 33.1917H100.8Z" fill="white"/>
<path d="M17.6601 27.9746L15.0643 29.8682L17.5263 29.8714L19.5079 36.2317L18.5502 36.9316L19.2508 39.5281L22.7453 40.9308L26.2396 39.5281L26.9402 36.9316L25.9826 36.2317L27.9673 29.8724L30.4262 29.8682L28.1486 28.2058L29.7214 27.2464H33.3306C33.8142 26.9424 34.1756 26.4769 34.3483 25.9323C34.5991 25.1132 34.3768 24.1738 33.6857 23.1405L31.2553 19.5075L31.2616 24.0936H25.2684L24.928 23.0476H30.2103V18.7549L31.4891 17.9771L34.5538 22.5589C35.8538 24.501 35.5683 25.9513 35.1016 26.8273C34.8866 27.2274 34.598 27.582 34.2493 27.8723C34.0196 28.0633 33.6888 28.2913 33.4213 28.2913H30.0101L32.667 30.244L31.5608 30.9184H28.7343L27.2025 35.8286L28.1444 36.5147L27.0951 40.3598L22.7484 42.0233L18.4018 40.3598L17.3514 36.5147L18.2911 35.8286L16.7594 30.9184H13.9328L12.8267 30.244L15.4867 28.2913H12.0703C11.8017 28.2913 11.4708 28.0633 11.2422 27.8723C10.8935 27.582 10.6038 27.2274 10.3889 26.8273C9.92224 25.9513 9.6378 24.501 10.9378 22.5589L14.0024 17.9771L15.2813 18.7549V23.0487H20.5646L20.2242 24.0947H14.2363V19.5086L11.8069 23.1416C11.1158 24.1749 10.8925 25.1143 11.1443 25.9333C11.3171 26.478 11.6774 26.9434 12.1609 27.2475H16.4633L17.6611 27.9767L17.6601 27.9746Z" fill="#025BFF"/>
<path d="M19.1589 32.5631L20.5454 28.2894L16.9119 25.6486H21.404L22.7914 21.376L24.1788 25.6486H28.6677L25.0364 28.2894L26.4238 32.5631L22.7924 29.9223L19.1589 32.5631ZM22.7903 28.6293L24.4338 29.8252L23.8059 27.8905L25.4503 26.6946H23.4182L22.7903 24.7599L22.1625 26.6946H20.1303L21.7747 27.8905L21.1469 29.8252L22.7903 28.6293Z" fill="#025BFF"/>
</svg>
