
<svg width="150" height="60" viewBox="0 0 150 60" fill="none" xmlns="http://www.w3.org/2000/svg">
<path d="M28.6982 33.3139C28.6982 33.3139 26.9823 31.8938 20.7101 31.8938C14.4379 31.8938 12.7811 33.3139 12.7811 33.3139L11.361 26.9234C12.4261 29.4086 15.9763 30.3553 16.8639 30.3553C17.3965 30.3553 19.7633 27.2192 20.6509 23.0181C21.5385 27.2192 23.9645 30.3553 24.4379 30.3553C25.3255 30.4145 28.8166 29.4678 29.8817 26.9234L28.6982 33.3139Z" fill="url(#paint0_linear_11567_52951)"/>
<path d="M30 28.343C30.7692 28.343 31.3609 27.7513 31.3609 26.982C31.3609 26.2128 30.7692 25.6211 30 25.6211C29.2308 25.6211 28.639 26.2128 28.639 26.982C28.639 27.7513 29.2308 28.343 30 28.343Z" fill="url(#paint1_linear_11567_52951)"/>
<path d="M20.6508 24.4967C21.5976 24.4967 22.3076 23.7867 22.3076 22.8399C22.3076 21.9523 21.5384 21.1831 20.6508 21.1831C19.7041 21.1831 18.994 21.8932 18.994 22.8399C18.994 23.7867 19.7632 24.4967 20.6508 24.4967Z" fill="url(#paint2_linear_11567_52951)"/>
<path d="M11.3609 28.343C12.1302 28.343 12.7219 27.7513 12.7219 26.982C12.7219 26.2128 12.1302 25.6211 11.3609 25.6211C10.5917 25.6211 10 26.2128 10 26.982C10 27.7513 10.5917 28.343 11.3609 28.343Z" fill="url(#paint3_linear_11567_52951)"/>
<path d="M27.8698 34.2605V36.7457C27.574 36.6274 27.219 36.509 26.8048 36.3907V33.8463C26.3906 33.7279 25.9172 33.6096 25.3846 33.4913V36.0948C24.8521 36.0356 24.3196 35.9765 23.787 35.9173V33.2546C23.1361 33.1954 22.4261 33.1362 21.716 33.1362V35.799C21.361 35.799 21.0651 35.799 20.7101 35.799C20.3551 35.799 20.0592 35.799 19.7042 35.799V33.1362C18.9941 33.1362 18.2841 33.1954 17.6332 33.2546V35.9173C17.0414 35.9765 16.5089 36.0356 16.0355 36.0948V33.4913C15.503 33.5504 15.0296 33.6688 14.6154 33.8463V36.3907C14.2012 36.509 13.8462 36.6274 13.5503 36.7457V34.2605C13.0178 34.4972 12.7219 34.8522 12.7219 35.1481V37.5149C12.7219 38.3433 15.5622 38.9942 15.6213 38.6984C15.6805 38.5208 14.4379 38.4025 14.4379 38.0475C14.4379 37.3374 17.219 36.7457 20.5917 36.7457C24.0237 36.7457 26.7456 37.3374 26.7456 38.0475C26.7456 38.4025 25.503 38.5208 25.5622 38.6984C25.6805 38.935 28.4616 38.3433 28.4616 37.5149V35.1481C28.6982 34.793 28.4024 34.4972 27.8698 34.2605Z" fill="url(#paint4_linear_11567_52951)"/>
<path d="M28.6982 33.3139C28.6982 33.3139 26.9823 31.8938 20.7101 31.8938C14.4379 31.8938 12.7811 33.3139 12.7811 33.3139L11.361 26.9234C12.4261 29.4086 15.9763 30.3553 16.8639 30.3553C17.3965 30.3553 19.7633 27.2192 20.6509 23.0181C21.5385 27.2192 23.9645 30.3553 24.4379 30.3553C25.3255 30.4145 28.8166 29.4678 29.8817 26.9234L28.6982 33.3139Z" fill="url(#paint5_linear_11567_52951)"/>
<path d="M30 28.343C30.7692 28.343 31.3609 27.7513 31.3609 26.982C31.3609 26.2128 30.7692 25.6211 30 25.6211C29.2308 25.6211 28.639 26.2128 28.639 26.982C28.639 27.7513 29.2308 28.343 30 28.343Z" fill="url(#paint6_linear_11567_52951)"/>
<path d="M20.6508 24.4967C21.5976 24.4967 22.3076 23.7867 22.3076 22.8399C22.3076 21.9523 21.5384 21.1831 20.6508 21.1831C19.7041 21.1831 18.994 21.8932 18.994 22.8399C18.994 23.7867 19.7632 24.4967 20.6508 24.4967Z" fill="url(#paint7_linear_11567_52951)"/>
<path d="M11.3609 28.343C12.1302 28.343 12.7219 27.7513 12.7219 26.982C12.7219 26.2128 12.1302 25.6211 11.3609 25.6211C10.5917 25.6211 10 26.2128 10 26.982C10 27.7513 10.5917 28.343 11.3609 28.343Z" fill="url(#paint8_linear_11567_52951)"/>
<path d="M27.8698 34.2605V36.7457C27.574 36.6274 27.219 36.509 26.8048 36.3907V33.8463C26.3906 33.7279 25.9172 33.6096 25.3846 33.4913V36.0948C24.8521 36.0356 24.3196 35.9765 23.787 35.9173V33.2546C23.1361 33.1954 22.4261 33.1362 21.716 33.1362V35.799C21.361 35.799 21.0651 35.799 20.7101 35.799C20.3551 35.799 20.0592 35.799 19.7042 35.799V33.1362C18.9941 33.1362 18.2841 33.1954 17.6332 33.2546V35.9173C17.0414 35.9765 16.5089 36.0356 16.0355 36.0948V33.4913C15.503 33.5504 15.0296 33.6688 14.6154 33.8463V36.3907C14.2012 36.509 13.8462 36.6274 13.5503 36.7457V34.2605C13.0178 34.4972 12.7219 34.8522 12.7219 35.1481V37.5149C12.7219 38.3433 15.5622 38.9942 15.6213 38.6984C15.6805 38.5208 14.4379 38.4025 14.4379 38.0475C14.4379 37.3374 17.219 36.7457 20.5917 36.7457C24.0237 36.7457 26.7456 37.3374 26.7456 38.0475C26.7456 38.4025 25.503 38.5208 25.5622 38.6984C25.6805 38.935 28.4616 38.3433 28.4616 37.5149V35.1481C28.6982 34.793 28.4024 34.4972 27.8698 34.2605Z" fill="#63AC48"/>
<path d="M68.639 36.6272H60.4142V27.1006H68.5799V29.2899H62.7219L62.8994 29.5266V30.4142L62.7219 30.7101H68.0473V32.9586H62.7219L62.8994 33.1953V34.142L62.7219 34.3787H68.5799L68.639 36.6272Z" fill="#63AC48"/>
<path d="M77.7514 36.6272H69.5857V27.1006H77.7514V29.2899H71.8934L72.0709 29.5266V30.4142L71.8934 30.7101H77.2188V32.9586H71.8934L72.0709 33.1953V34.142L71.8934 34.3787H77.7514V36.6272Z" fill="#63AC48"/>
<path d="M41.0652 36.6271C39.2309 36.6271 37.6332 36.0946 36.3906 34.9703L38.1066 33.2543C38.9942 33.9644 40.1184 34.4378 41.2427 34.4378C42.6036 34.4378 42.8995 34.0827 42.8995 33.7869C42.8995 33.6685 42.8403 33.3135 41.6569 33.0768C41.4794 33.0177 40.1184 32.7218 39.9409 32.6626C38.3433 32.2484 36.5681 31.6567 36.5681 29.9407C36.5681 28.3431 38.2249 27.1597 40.9468 27.1597C42.7812 27.1597 44.2013 27.7514 45.3847 28.8165L43.6096 30.4733C42.8995 29.7632 41.8936 29.349 40.8285 29.349C39.6451 29.349 39.1717 29.704 39.1717 29.9407C39.1717 30.1774 39.4675 30.2958 40.8877 30.6508C41.0652 30.71 42.1303 31.0058 42.367 31.0058C44.3788 31.4792 45.503 32.5443 45.503 33.7869C45.4439 35.3845 44.0238 36.6271 41.0652 36.6271Z" fill="#63AC48"/>
<path d="M91.1243 36.6271C89.2899 36.6271 87.6923 36.0946 86.4497 34.9703L88.1657 33.2543C89.0533 33.9644 90.1775 34.4378 91.3018 34.4378C92.6627 34.4378 92.9586 34.0827 92.9586 33.7869C92.9586 33.6685 92.8994 33.3135 91.716 33.0768C91.5385 33.0177 90.1775 32.7218 90 32.6626C88.4024 32.2484 86.6272 31.6567 86.6272 29.9407C86.6272 28.3431 88.284 27.1597 91.0059 27.1597C92.8402 27.1597 94.2604 27.7514 95.4438 28.8165L93.7278 30.5324C93.0178 29.8224 92.0118 29.4082 90.9467 29.4082C89.7633 29.4082 89.2899 29.7632 89.2899 29.9999C89.2899 30.2366 89.5858 30.3549 91.0059 30.71C91.1834 30.7691 92.2485 31.065 92.4852 31.065C94.497 31.5384 95.6213 32.6035 95.6213 33.8461C95.503 35.3845 94.0828 36.6271 91.1243 36.6271Z" fill="#63AC48"/>
<path d="M59.8225 27.1006L57.4556 36.6272H54.142L52.781 30.7692L51.4201 36.6272H48.1065L45.7396 27.1006H48.639L49.7633 33.6095L51.3018 27.1006H54.2603L55.7988 33.5503L56.9231 27.1006H59.8225Z" fill="#63AC48"/>
<path d="M86.2129 30.2959C86.2129 30.8876 86.0945 31.4201 85.7987 31.8935C85.562 32.3669 85.1478 32.7219 84.5561 33.0177C84.0235 33.3136 83.3726 33.4319 82.6034 33.4319H81.3016V36.6864H78.6389V27.1006H82.6626C83.4318 27.1006 84.0827 27.2189 84.6152 27.5148C85.1478 27.8106 85.562 28.1657 85.8578 28.639C86.0945 29.1124 86.2129 29.645 86.2129 30.2959ZM82.3667 31.3018C83.136 31.3018 83.491 30.9467 83.491 30.2367C83.491 29.5266 83.136 29.1716 82.3667 29.1716H81.065L81.3016 29.4083V31.0651L81.065 31.3018H82.3667Z" fill="#63AC48"/>
<path d="M130.059 36.5089H127.87V35.858C127.456 36.2722 126.331 36.568 125.385 36.568C122.13 36.568 120.177 34.7337 120.177 31.8935C120.177 29.0532 122.189 27.1006 125.503 27.1006C127.16 27.1006 128.639 27.6923 129.527 28.5799L127.87 30.2367C127.574 29.8816 127.219 29.7041 126.805 29.5266C126.331 29.4674 125.917 29.3491 125.444 29.4083C123.491 29.4083 122.722 30.355 122.722 32.0118C122.722 33.6095 123.55 34.497 125.385 34.497C126.627 34.497 127.396 33.9645 127.574 33.2544L127.751 33.0769H124.556L130.059 30.9467V36.5089Z" fill="url(#paint9_linear_11567_52951)"/>
<path d="M135.503 36.6271C133.669 36.6271 132.071 36.0946 130.828 34.9703L132.544 33.2543C133.432 33.9644 134.556 34.4378 135.68 34.4378C137.041 34.4378 137.337 34.0827 137.337 33.7869C137.337 33.6685 137.278 33.3135 136.095 33.0768C135.917 33.0177 134.556 32.7218 134.379 32.6626C132.781 32.2484 131.006 31.6567 131.006 29.9407C131.006 28.3431 132.663 27.1597 135.385 27.1597C137.219 27.1597 138.639 27.7514 139.822 28.8165L138.106 30.5324C137.396 29.8224 136.391 29.4082 135.325 29.4082C134.142 29.4082 133.669 29.7632 133.669 29.9999C133.669 30.2366 133.964 30.3549 135.385 30.71C135.562 30.7691 136.627 31.065 136.864 31.065C138.876 31.5384 140 32.6035 140 33.8461C139.941 35.3845 138.462 36.6271 135.503 36.6271Z" fill="url(#paint10_linear_11567_52951)"/>
<path d="M119.053 36.6273H116.391L112.84 31.3019L112.604 30.9468L112.84 31.6569V36.6865H110.177V27.1007H112.84L116.391 32.4853L116.509 32.7811L116.391 32.0711V27.0415H119.053V36.6273Z" fill="url(#paint11_linear_11567_52951)"/>
<path d="M108.698 27.4556V36.6272H106.035V27.1006H108.343L108.698 27.4556Z" fill="url(#paint12_linear_11567_52951)"/>
<path d="M101.834 36.6272L98.8165 32.426V36.6272H96.1538V27.1006H98.8165V31.2426L101.775 27.1006H104.852L101.361 31.716L105.03 36.6272H101.834Z" fill="url(#paint13_linear_11567_52951)"/>
<defs>
<linearGradient id="paint0_linear_11567_52951" x1="20.6213" y1="21.8015" x2="20.6213" y2="38.7873" gradientUnits="userSpaceOnUse">
<stop offset="0.1093" stop-color="#F5BB41"/>
<stop offset="0.4946" stop-color="#F7C945"/>
<stop offset="0.9428" stop-color="#F5BB41"/>
</linearGradient>
<linearGradient id="paint1_linear_11567_52951" x1="30" y1="21.801" x2="30" y2="38.7868" gradientUnits="userSpaceOnUse">
<stop offset="0.1093" stop-color="#F5BB41"/>
<stop offset="0.4946" stop-color="#F7C945"/>
<stop offset="0.9428" stop-color="#F5BB41"/>
</linearGradient>
<linearGradient id="paint2_linear_11567_52951" x1="20.6508" y1="21.8009" x2="20.6508" y2="38.7866" gradientUnits="userSpaceOnUse">
<stop offset="0.1093" stop-color="#F5BB41"/>
<stop offset="0.4946" stop-color="#F7C945"/>
<stop offset="0.9428" stop-color="#F5BB41"/>
</linearGradient>
<linearGradient id="paint3_linear_11567_52951" x1="11.3609" y1="21.801" x2="11.3609" y2="38.7868" gradientUnits="userSpaceOnUse">
<stop offset="0.1093" stop-color="#F5BB41"/>
<stop offset="0.4946" stop-color="#F7C945"/>
<stop offset="0.9428" stop-color="#F5BB41"/>
</linearGradient>
<linearGradient id="paint4_linear_11567_52951" x1="20.633" y1="21.8013" x2="20.633" y2="38.7871" gradientUnits="userSpaceOnUse">
<stop offset="0.1093" stop-color="#F5BB41"/>
<stop offset="0.4946" stop-color="#F7C945"/>
<stop offset="0.9428" stop-color="#F5BB41"/>
</linearGradient>
<linearGradient id="paint5_linear_11567_52951" x1="20.6213" y1="21.8015" x2="20.6213" y2="38.7873" gradientUnits="userSpaceOnUse">
<stop offset="0.1093" stop-color="#F5BB41"/>
<stop offset="0.4946" stop-color="#F7C945"/>
<stop offset="0.9428" stop-color="#F5BB41"/>
</linearGradient>
<linearGradient id="paint6_linear_11567_52951" x1="30" y1="21.801" x2="30" y2="38.7868" gradientUnits="userSpaceOnUse">
<stop offset="0.1093" stop-color="#F5BB41"/>
<stop offset="0.4946" stop-color="#F7C945"/>
<stop offset="0.9428" stop-color="#F5BB41"/>
</linearGradient>
<linearGradient id="paint7_linear_11567_52951" x1="20.6508" y1="21.8009" x2="20.6508" y2="38.7866" gradientUnits="userSpaceOnUse">
<stop offset="0.1093" stop-color="#F5BB41"/>
<stop offset="0.4946" stop-color="#F7C945"/>
<stop offset="0.9428" stop-color="#F5BB41"/>
</linearGradient>
<linearGradient id="paint8_linear_11567_52951" x1="11.3609" y1="21.801" x2="11.3609" y2="38.7868" gradientUnits="userSpaceOnUse">
<stop offset="0.1093" stop-color="#F5BB41"/>
<stop offset="0.4946" stop-color="#F7C945"/>
<stop offset="0.9428" stop-color="#F5BB41"/>
</linearGradient>
<linearGradient id="paint9_linear_11567_52951" x1="125.118" y1="27.3912" x2="125.118" y2="36.64" gradientUnits="userSpaceOnUse">
<stop offset="0.1093" stop-color="#F5BB41"/>
<stop offset="0.4946" stop-color="#F7C945"/>
<stop offset="0.9428" stop-color="#F5BB41"/>
</linearGradient>
<linearGradient id="paint10_linear_11567_52951" x1="135.414" y1="27.3911" x2="135.414" y2="36.6399" gradientUnits="userSpaceOnUse">
<stop offset="0.1093" stop-color="#F5BB41"/>
<stop offset="0.4946" stop-color="#F7C945"/>
<stop offset="0.9428" stop-color="#F5BB41"/>
</linearGradient>
<linearGradient id="paint11_linear_11567_52951" x1="114.615" y1="27.3913" x2="114.615" y2="36.6401" gradientUnits="userSpaceOnUse">
<stop offset="0.1093" stop-color="#F5BB41"/>
<stop offset="0.4946" stop-color="#F7C945"/>
<stop offset="0.9428" stop-color="#F5BB41"/>
</linearGradient>
<linearGradient id="paint12_linear_11567_52951" x1="107.367" y1="27.3912" x2="107.367" y2="36.64" gradientUnits="userSpaceOnUse">
<stop offset="0.1093" stop-color="#F5BB41"/>
<stop offset="0.4946" stop-color="#F7C945"/>
<stop offset="0.9428" stop-color="#F5BB41"/>
</linearGradient>
<linearGradient id="paint13_linear_11567_52951" x1="100.592" y1="27.3909" x2="100.592" y2="36.6266" gradientUnits="userSpaceOnUse">
<stop offset="0.1093" stop-color="#F5BB41"/>
<stop offset="0.4946" stop-color="#F7C945"/>
<stop offset="0.9428" stop-color="#F5BB41"/>
</linearGradient>
</defs>
</svg>
