
<svg width="100" height="30" viewBox="0 0 100 30" fill="none" xmlns="http://www.w3.org/2000/svg">
<path d="M24.9992 13.8711V15.4871C24.9302 15.4931 24.5602 15.5251 23.8212 15.5251C23.2052 15.5251 22.7592 15.4981 22.6042 15.4871V13.8691C20.2262 13.9741 18.4502 14.3891 18.4502 14.8841C18.4502 15.3791 20.2252 15.7941 22.6042 15.8991V15.8971C22.7572 15.9051 23.1912 15.9221 23.8102 15.9221C24.5842 15.9221 24.9312 15.9021 24.9992 15.8971V15.9001C27.3722 15.7931 29.1432 15.3801 29.1432 14.8851C29.1432 14.3901 27.3732 13.9771 24.9992 13.8701V13.8711Z" fill="white"/>
<path d="M23.9603 5.25806C18.5803 5.25806 14.2183 9.62006 14.2183 15.0001C14.2183 20.3801 18.5803 24.7421 23.9603 24.7421C29.3403 24.7421 33.7023 20.3801 33.7023 15.0001C33.7023 9.62006 29.3403 5.25806 23.9603 5.25806ZM25.0003 16.2951V20.9341H22.6053V16.2951C19.9143 16.1701 17.8893 15.6371 17.8893 14.9981C17.8893 14.3591 19.9133 13.8261 22.6053 13.7031V12.2561H19.2923V10.0491H28.3103V12.2561H24.9973V13.7031L24.9993 13.7051C27.6873 13.8291 29.7073 14.3631 29.7073 15.0001C29.7073 15.6371 27.6873 16.1721 24.9993 16.2951H25.0003Z" fill="white"/>
<path d="M41.9773 10.6519V12.9919H44.2513V14.7479H41.9613V18.3079C41.9613 19.0939 42.3953 19.4779 43.0313 19.4779C43.3493 19.4779 43.7173 19.3779 44.0183 19.2269L44.5873 20.9659C44.0033 21.1989 43.5173 21.2999 42.8993 21.3169C41.1103 21.3839 39.9403 20.3649 39.9403 18.3079V14.7479H38.4023V12.9919H39.9403V10.8699L41.9783 10.6519H41.9773ZM81.1843 12.8819L81.3343 13.8339C81.9703 12.8139 82.8223 12.6639 83.6583 12.6639C84.4943 12.6639 85.3293 12.9979 85.7803 13.4489L84.8613 15.2199C84.4433 14.8689 84.0593 14.6839 83.3903 14.6839C82.3203 14.6839 81.3343 15.2529 81.3343 16.7729V21.1189H79.2953V12.8779L81.1843 12.8809V12.8819ZM76.1863 16.0409C76.0533 14.9709 75.2173 14.4359 74.0473 14.4359C72.9443 14.4359 72.0413 14.9719 71.7403 16.0409H76.1873H76.1863ZM71.7073 17.7289C71.8403 18.7489 72.7273 19.4849 74.1643 19.4849C74.9163 19.4849 75.9033 19.1999 76.3713 18.7159L77.6743 20.0029C76.8053 20.9049 75.3843 21.3409 74.1303 21.3409C71.2893 21.3409 69.5993 19.5849 69.5993 16.9449C69.5993 14.3049 71.3053 12.6319 73.9803 12.6319C76.6553 12.6319 78.4613 14.3379 78.1433 17.7299H71.7073V17.7289ZM62.7143 9.41992V13.9999C63.4503 13.0479 64.3523 12.7629 65.2893 12.7629C67.6293 12.7629 68.6663 14.3509 68.6663 16.7759V21.1219H66.6273V16.7929C66.6273 15.2879 65.8413 14.6539 64.7543 14.6539C63.5503 14.6539 62.7153 15.6739 62.7153 16.9109V21.1239H60.6763V9.42292L62.7153 9.42092L62.7143 9.41992ZM57.2983 10.5569V12.8969H59.5723V14.6529H57.2823V18.2129C57.2823 18.9989 57.7173 19.3829 58.3523 19.3829C58.6703 19.3829 59.0383 19.2829 59.3393 19.1319L59.9083 20.8709C59.3243 21.1039 58.8383 21.2049 58.2203 21.2219C56.4313 21.2889 55.2613 20.2679 55.2613 18.2129V14.6529H53.7233V12.8969H55.2613V10.7749L57.2993 10.5569H57.2983ZM51.6643 16.0399C51.5313 14.9699 50.6953 14.4349 49.5253 14.4349C48.4223 14.4349 47.5193 14.9709 47.2183 16.0399H51.6653H51.6643ZM47.1853 17.7279C47.3183 18.7479 48.2053 19.4839 49.6423 19.4839C50.3943 19.4839 51.3813 19.1989 51.8493 18.7149L53.1523 20.0019C52.2833 20.9039 50.8623 21.3399 49.6083 21.3399C46.7653 21.3399 45.0773 19.5839 45.0773 16.9439C45.0773 14.3039 46.7833 12.6309 49.4563 12.6309C52.1293 12.6309 53.9353 14.3369 53.6193 17.7289H47.1853V17.7279Z" fill="white"/>
</svg>
