
<svg width="100" height="30" viewBox="0 0 100 30" fill="none" xmlns="http://www.w3.org/2000/svg">
<path d="M14.0689 4.15527C14.2589 4.24427 14.4689 4.24627 14.6689 4.28727C15.1959 4.39427 15.7249 4.48727 16.2529 4.58727C16.7529 4.67927 17.2589 4.76627 17.7609 4.85927C18.3859 4.97427 19.0099 5.09327 19.6349 5.20827C20.1349 5.30127 20.6349 5.38827 21.1419 5.48127C21.7669 5.59627 22.3899 5.71527 23.0149 5.82927C23.7279 5.95927 24.4419 6.08227 25.1539 6.21227C25.8659 6.34227 26.5769 6.48227 27.2879 6.61227C28.0439 6.75127 28.8009 6.88427 29.5569 7.02127C29.7709 7.05927 29.9839 7.10927 30.1999 7.13627C30.3719 7.15727 30.4559 7.29327 30.5619 7.39227C31.0829 7.87627 31.5909 8.37227 32.1059 8.86327C32.8606 9.58327 33.6166 10.3023 34.3739 11.0203C34.5399 11.1773 34.5479 11.1773 34.4049 11.3523C33.9629 11.8933 33.5159 12.4303 33.0729 12.9703C32.6839 13.4433 32.2969 13.9203 31.9079 14.3943C31.5189 14.8683 31.1149 15.3533 30.7199 15.8343C30.3249 16.3153 29.9439 16.7843 29.5549 17.2583C29.2419 17.6393 28.9269 18.0183 28.6139 18.3983L27.5919 19.6443C27.1979 20.1256 26.8029 20.6069 26.4069 21.0883L25.2389 22.5083C24.8389 22.9936 24.4413 23.4783 24.0459 23.9623L22.8729 25.4003C22.7879 25.5003 22.7009 25.6003 22.6039 25.7173C22.4489 25.3273 22.3039 24.9493 22.1479 24.5713C21.1659 22.0979 20.1833 19.6259 19.1999 17.1553C17.4993 12.8813 15.7993 8.60761 14.0999 4.33427C14.0769 4.27627 14.0619 4.21527 14.0439 4.15527H14.0689ZM25.8089 12.0473C25.8475 12.0603 25.8893 12.0603 25.9279 12.0473C26.2909 11.9823 26.6539 11.9153 27.0169 11.8473L31.4249 11.0473L32.5349 10.8473C32.5099 10.8193 32.4999 10.8053 32.4879 10.7943C31.7179 10.0633 30.9449 9.33427 30.1799 8.59427C30.0799 8.50027 30.0339 8.50427 29.9339 8.58727C28.6093 9.69661 27.2819 10.8036 25.9519 11.9083C25.9019 11.9503 25.8359 11.9773 25.8119 12.0463L25.7909 12.0553C25.7909 12.0553 25.7989 12.0623 25.8029 12.0623C25.8069 12.0623 25.8179 12.0573 25.8089 12.0473ZM16.3269 6.74727L16.3019 6.76527L22.5569 22.5003C22.5927 22.3693 22.6168 22.2355 22.6289 22.1003C22.7623 21.0149 22.8956 19.9296 23.0289 18.8443C23.1496 17.8443 23.2699 16.8443 23.3899 15.8443C23.5026 14.9063 23.6173 13.9686 23.7339 13.0313C23.7422 12.9884 23.7377 12.944 23.721 12.9037C23.7043 12.8633 23.6761 12.8287 23.6399 12.8043C21.2799 10.8489 18.9203 8.89294 16.5609 6.93627C16.4839 6.87227 16.4049 6.80927 16.3269 6.74627V6.74727ZM32.3509 12.0553C32.3266 12.0537 32.3023 12.0537 32.2779 12.0553L30.4579 12.3853C28.6379 12.7153 26.8176 13.0439 24.9969 13.3713C24.8689 13.3943 24.8219 13.4363 24.8079 13.5713C24.7219 14.3543 24.6249 15.1353 24.5299 15.9173C24.4259 16.7879 24.3206 17.6593 24.2139 18.5313C24.1113 19.3866 24.0066 20.2429 23.8999 21.1003C23.8429 21.5713 23.7869 22.0423 23.7259 22.5523C26.6149 19.0393 29.4769 15.5533 32.3509 12.0543V12.0553ZM17.1589 5.90027L17.1489 5.93227L17.7389 6.42227C19.8783 8.19561 22.0169 9.96927 24.1549 11.7433C24.2499 11.8223 24.2969 11.7993 24.3749 11.7343C25.4909 10.8009 26.6083 9.86961 27.7269 8.94027L28.8039 8.04027L17.1589 5.90027Z" fill="white"/>
<path d="M85.9582 21.2939C85.8982 21.2939 85.8682 21.2449 85.8382 21.2109C85.6262 20.9649 85.4012 20.7309 85.1892 20.4859C85.0892 20.3649 84.9732 20.2489 84.8662 20.1309C84.6482 19.8899 84.4252 19.6539 84.2182 19.4049C84.1282 19.2959 84.0282 19.1929 83.9312 19.0879C83.6992 18.8369 83.4682 18.5879 83.2472 18.3239C83.1612 18.2239 83.0652 18.1239 82.9772 18.0239C82.6862 17.6929 82.3772 17.3749 82.0842 17.0489C81.8452 16.7869 81.6032 16.5259 81.3722 16.2549C81.1052 15.9409 80.8222 15.6409 80.5492 15.3309C80.3582 15.1149 80.1592 14.9039 79.9662 14.6889C79.6752 14.3649 79.3832 14.0419 79.0952 13.7169C78.9102 13.5079 78.7192 13.3009 78.5312 13.0939C78.3132 12.8539 78.0912 12.6179 77.8832 12.3689C77.7832 12.2539 77.6772 12.1469 77.5752 12.0349C77.5023 11.9704 77.4396 11.8952 77.3892 11.8119C77.3665 11.8563 77.3595 11.907 77.3692 11.9559C77.3692 14.7559 77.3692 17.5582 77.3692 20.3629C77.3692 20.5379 77.3692 20.5379 77.1882 20.5379C76.8822 20.5379 76.5752 20.5379 76.2682 20.5379C76.1772 20.5379 76.1592 20.5099 76.1592 20.4239C76.1592 16.5226 76.1592 12.6226 76.1592 8.72389C76.1592 8.69489 76.1592 8.66489 76.1592 8.60889C76.3592 8.82989 76.5442 9.02989 76.7262 9.23089C77.0052 9.54089 77.2812 9.85289 77.5602 10.1639C78.1055 10.7719 78.6515 11.3796 79.1982 11.9869C79.5432 12.3709 79.8912 12.7519 80.2372 13.1359C80.6952 13.6459 81.1512 14.1589 81.6102 14.6689C81.8772 14.9689 82.1482 15.2589 82.4152 15.5559C82.8772 16.0689 83.3362 16.5849 83.7982 17.0979C84.0982 17.4259 84.3982 17.7509 84.7212 18.1089V17.9149C84.7212 15.1149 84.7212 12.3172 84.7212 9.52189C84.7212 9.40189 84.7472 9.36389 84.8742 9.36689C85.2342 9.37589 85.5952 9.36689 85.9552 9.36689L85.9582 21.2939Z" fill="white"/>
<path d="M60.6463 20.5421C60.2123 20.5421 59.7793 20.5421 59.3463 20.5421C59.2663 20.5421 59.2373 20.5011 59.2063 20.4421C59.0343 20.1121 58.8609 19.7824 58.6863 19.4531C58.4313 18.9691 58.1773 18.4841 57.9203 18.0001C57.6293 17.4501 57.3343 16.9001 57.0483 16.3501C57.0316 16.3077 57.0014 16.2719 56.9623 16.2484C56.9233 16.2249 56.8776 16.2149 56.8323 16.2201C55.9983 16.2254 55.1649 16.2254 54.3323 16.2201C54.2263 16.2201 54.1973 16.2471 54.1973 16.3551C54.1973 17.7021 54.1973 19.0491 54.1973 20.3961C54.1973 20.5161 54.1683 20.5451 54.0503 20.5421C53.7353 20.5331 53.4193 20.5361 53.1033 20.5421C53.0233 20.5421 52.9973 20.5251 52.9973 20.4421C52.9973 18.6674 52.9973 16.8924 52.9973 15.1171C52.9973 15.0061 53.0463 15.0081 53.1263 15.0081C54.4783 15.0081 55.8313 15.0081 57.1843 15.0081C57.8653 15.0081 58.4143 14.7261 58.8573 14.2381C59.1266 13.9403 59.3008 13.5687 59.3573 13.1711C59.4046 12.8813 59.3941 12.585 59.3262 12.2994C59.2583 12.0137 59.1344 11.7444 58.9617 11.507C58.789 11.2695 58.5709 11.0687 58.32 10.9161C58.0692 10.7635 57.7905 10.6622 57.5003 10.6181C57.3552 10.598 57.2087 10.589 57.0623 10.5911C55.4303 10.5911 53.7973 10.5911 52.1623 10.5911C52.0513 10.5911 52.0233 10.6151 52.0233 10.7291C52.0233 13.9364 52.0233 17.1441 52.0233 20.3521C52.0233 20.5471 52.0233 20.5471 51.8233 20.5471C51.5303 20.5471 51.2373 20.5471 50.9443 20.5471C50.8513 20.5471 50.8223 20.5261 50.8233 20.4291C50.8233 19.9561 50.8233 19.4831 50.8233 19.0101C50.8233 15.8521 50.8233 12.6938 50.8233 9.53509C50.8233 9.41209 50.8433 9.37109 50.9793 9.37209C53.0533 9.37209 55.1273 9.37209 57.2023 9.37809C57.6808 9.37085 58.1552 9.46741 58.5928 9.6611C59.0304 9.85479 59.4209 10.141 59.7373 10.5001C60.2012 11.0016 60.496 11.6361 60.5803 12.3141C60.6865 13.0888 60.5268 13.8766 60.1271 14.5487C59.7275 15.2208 59.1116 15.7374 58.3803 16.0141C58.3003 16.0441 58.2803 16.0571 58.3263 16.1401C58.8723 17.1601 59.4156 18.1811 59.9563 19.2031C60.1743 19.6151 60.3919 20.0268 60.6093 20.4381C60.6311 20.4686 60.6439 20.5046 60.6463 20.5421Z" fill="white"/>
<path d="M68.2361 20.5371C65.1591 20.5151 63.0081 18.0891 62.7481 15.6201C62.5711 13.9281 63.0331 12.4201 64.1881 11.1681C65.3431 9.9161 66.8091 9.3241 68.5161 9.3751C69.9868 9.42577 71.3781 10.0551 72.3873 11.1262C73.3965 12.1973 73.942 13.6236 73.9051 15.0948C73.8682 16.566 73.2519 17.9631 72.1903 18.9823C71.1286 20.0015 69.7075 20.5602 68.2361 20.5371ZM72.6871 14.9581C72.6716 13.8082 72.2045 12.7106 71.3865 11.9022C70.5685 11.0939 69.4654 10.6397 68.3154 10.6379C67.1655 10.6361 66.0609 11.0867 65.2404 11.8924C64.4198 12.6981 63.9492 13.7943 63.9301 14.9441C63.9241 17.3441 65.8901 19.3251 68.2681 19.3251C68.8455 19.3305 69.4183 19.2216 69.9535 19.0047C70.4887 18.7878 70.9757 18.4672 71.3864 18.0613C71.7972 17.6554 72.1235 17.1722 72.3468 16.6396C72.57 16.1071 72.6856 15.5356 72.6871 14.9581Z" fill="white"/>
<path d="M43.4821 9.37209C45.0691 9.37209 46.6551 9.37209 48.2421 9.37209C48.3571 9.37209 48.3821 9.40209 48.3791 9.51209C48.3711 9.82709 48.3741 10.1431 48.3791 10.4581C48.3791 10.5471 48.3641 10.5811 48.2641 10.5811C45.0721 10.5811 41.8808 10.5811 38.6901 10.5811C38.5971 10.5811 38.5791 10.5511 38.5801 10.4661C38.5851 10.1511 38.5871 9.83509 38.5801 9.52009C38.5801 9.40709 38.5991 9.37109 38.7231 9.37209C40.3091 9.37409 41.9001 9.37209 43.4821 9.37209Z" fill="white"/>
<path d="M42.9922 16.5999C42.9922 17.8666 42.9922 19.1333 42.9922 20.3999C42.9922 20.5129 42.9662 20.5419 42.8532 20.5389C42.5382 20.5309 42.2222 20.5329 41.9062 20.5389C41.8192 20.5389 41.7832 20.5269 41.7832 20.4249C41.7832 17.8836 41.7832 15.3429 41.7832 12.8029C41.7832 12.7129 41.8082 12.6899 41.8952 12.6909C42.2202 12.6909 42.5452 12.6979 42.8692 12.6909C42.9782 12.6909 42.9912 12.7259 42.9902 12.8199C42.9902 14.0813 42.9909 15.3413 42.9922 16.5999Z" fill="white"/>
<path d="M45.1611 16.618C45.1611 17.878 45.1611 19.1387 45.1611 20.4C45.1611 20.511 45.1371 20.543 45.0231 20.54C44.7081 20.531 44.3921 20.534 44.0771 20.54C43.9841 20.54 43.9561 20.522 43.9561 20.424C43.9561 17.884 43.9561 15.3443 43.9561 12.805C43.9561 12.719 43.9751 12.69 44.0661 12.692C44.3861 12.692 44.7061 12.698 45.0261 12.692C45.1261 12.692 45.1601 12.715 45.1601 12.823C45.1587 14.0877 45.1591 15.3527 45.1611 16.618Z" fill="white"/>
<path d="M78.3667 14.488C78.7587 14.923 79.1417 15.35 79.5267 15.774C79.5426 15.7923 79.5546 15.8136 79.562 15.8366C79.5694 15.8596 79.572 15.884 79.5697 15.908C79.5697 17.416 79.5697 18.9244 79.5697 20.433C79.5697 20.524 79.5417 20.545 79.4547 20.544C79.1217 20.539 78.7887 20.544 78.4547 20.544C78.3907 20.544 78.3477 20.544 78.3477 20.457C78.3477 18.4797 78.3477 16.5034 78.3477 14.528C78.3518 14.5138 78.3582 14.5003 78.3667 14.488Z" fill="white"/>
<path d="M25.8095 12.0471C25.8185 12.0571 25.8155 12.0641 25.8035 12.0661C25.7915 12.0681 25.7955 12.0661 25.7915 12.0591L25.8125 12.0501L25.8095 12.0471Z" fill="white"/>
<path d="M68.3103 15.757C68.1014 15.7497 67.9034 15.6615 67.7581 15.511C67.6129 15.3606 67.5317 15.1597 67.5317 14.9505C67.5317 14.7414 67.6129 14.5405 67.7581 14.39C67.9034 14.2396 68.1014 14.1514 68.3103 14.144C68.5193 14.1514 68.7173 14.2396 68.8625 14.39C69.0078 14.5405 69.0889 14.7414 69.0889 14.9505C69.0889 15.1597 69.0078 15.3606 68.8625 15.511C68.7173 15.6615 68.5193 15.7497 68.3103 15.757Z" fill="white"/>
</svg>
