
<svg width="100" height="30" viewBox="0 0 100 30" fill="none" xmlns="http://www.w3.org/2000/svg">
<path d="M47.7862 20L52.4663 13.46L52.4513 15.935L47.9213 9.5H51.8963L54.5363 13.4L52.8413 13.415L55.4213 9.5H59.2313L54.7013 15.8V13.34L59.4563 20H55.4062L52.7663 15.92L54.4013 15.905L51.8213 20H47.7862ZM59.8794 20V9.5H63.4194V17.255H68.1594V20H59.8794ZM69.1372 20V9.5H72.0472L76.2472 16.355H74.7172L78.7972 9.5H81.7072L81.7372 20H78.5122L78.4822 14.36H78.9922L76.2022 19.055H74.6422L71.7322 14.36H72.3622V20H69.1372Z" fill="white"/>
<path fill-rule="evenodd" clip-rule="evenodd" d="M38.4982 9.19502L41.2588 7.78852L44.4948 6.13758V8.11832L41.2307 9.78187L39.6516 10.586L25.5982 17.7465L24.8154 18.1452L24.021 18.5507L21.5679 19.801V17.8193L22.4011 17.3944C22.7112 17.2364 22.9677 16.9902 23.1382 16.6868C23.3087 16.3833 23.3857 16.0362 23.3595 15.6892C23.3407 15.4441 23.3313 15.198 23.3313 14.951C23.3311 13.1624 23.8255 11.4086 24.7597 9.88339C25.694 8.35818 27.0317 7.12098 28.6251 6.30852C30.2185 5.49605 32.0055 5.13997 33.7887 5.27962C35.5718 5.41926 37.2816 6.04921 38.7291 7.09982L38.4934 7.2201L36.9133 8.0252C35.7053 7.35059 34.3422 7.00326 32.9587 7.01759C31.5753 7.03193 30.2196 7.40744 29.0259 8.10694C27.8322 8.80644 26.842 9.80564 26.1534 11.0056C25.4647 12.2055 25.1015 13.5646 25.0996 14.9481C25.0998 15.2948 25.1225 15.6412 25.1675 15.985L38.4982 9.19502ZM26.3966 19.3161L44.4948 10.1011V12.076L43.6606 12.5008C43.3508 12.6591 43.0946 12.9054 42.9242 13.2088C42.7539 13.5122 42.677 13.8592 42.7032 14.2061C42.7217 14.4525 42.7314 14.7018 42.7314 14.9511C42.7308 16.7394 42.2358 18.4928 41.3012 20.0174C40.3666 21.5421 39.0286 22.7787 37.4352 23.5906C35.8418 24.4025 34.0549 24.7581 32.2721 24.6181C30.4892 24.4782 28.7798 23.848 27.3326 22.7974L29.0456 21.9244L29.1426 21.873C30.3508 22.5504 31.7151 22.9 33.1002 22.8872C34.4853 22.8743 35.8429 22.4994 37.0383 21.7997C38.2337 21.1 39.2252 20.0998 39.9146 18.8984C40.6039 17.697 40.967 16.3362 40.9679 14.9511C40.9678 14.6021 40.9451 14.2534 40.9 13.9073L27.5557 20.707L24.7951 22.1135L21.5679 23.7577V21.7779L24.8174 20.1221L26.3966 19.3161Z" fill="white"/>
</svg>
