
<svg width="100" height="30" viewBox="0 0 100 30" fill="none" xmlns="http://www.w3.org/2000/svg">
<path fill-rule="evenodd" clip-rule="evenodd" d="M43.9442 6H40.8027L35.8319 10.9173C35.1082 11.6306 34.1329 12.0304 33.1168 12.0304C32.1007 12.0304 31.1254 11.6306 30.4017 10.9173L25.4347 6H22.2906L28.831 12.4732C31.2003 14.8162 35.0388 14.8162 37.4065 12.4732L43.9442 6ZM22.25 23.9999H25.3936L30.4048 19.0426C31.1285 18.3294 32.1038 17.9295 33.1199 17.9295C34.136 17.9295 35.1113 18.3294 35.8349 19.0426L40.8444 23.9999H43.9859L37.4057 17.4867C35.0364 15.1437 31.1978 15.1437 28.8302 17.4867L22.25 23.9999Z" fill="white"/>
<path d="M51.4046 12.9581L53.3732 9.00114H56.6772L53.3273 14.9071L56.7626 20.9508H53.4487L51.4505 16.9085L49.4491 20.9508H46.145L49.5803 14.9071L46.2303 9.00114H49.5376L51.4046 12.9581ZM61.927 16.6952H60.3619V20.9147H57.4975V9.00114H62.1894C63.6233 9.00114 64.7093 9.30628 65.4935 9.95921C65.8904 10.2744 66.2075 10.6787 66.419 11.1393C66.6305 11.5999 66.7304 12.1039 66.7107 12.6103C66.7355 13.341 66.5547 14.064 66.1891 14.6971C65.8058 15.2859 65.263 15.7536 64.624 16.0456L67.1012 20.8688V21H64.0137L61.927 16.6952ZM60.4045 14.4805H62.2321C62.4547 14.5039 62.6798 14.4769 62.8905 14.4013C63.1013 14.3258 63.2923 14.2037 63.4494 14.0441C63.7387 13.7056 63.893 13.2721 63.8825 12.8269C63.8984 12.605 63.8681 12.3823 63.7936 12.1728C63.719 11.9633 63.6018 11.7715 63.4494 11.6096C63.2896 11.454 63.0981 11.3348 62.8881 11.26C62.678 11.1853 62.4542 11.1568 62.2321 11.1765H60.4045V14.4805ZM71.1894 16.8691V20.9147H68.325V9.00114H73.1088C73.9498 8.98389 74.7833 9.16249 75.5434 9.52283C76.2096 9.84398 76.7765 10.3394 77.1839 10.9567C77.5774 11.5967 77.7736 12.3385 77.7483 13.0893C77.7658 13.6187 77.6613 14.145 77.4428 14.6275C77.2243 15.1099 76.8977 15.5357 76.4883 15.8717C75.6615 16.5673 74.5197 16.9151 73.053 16.9151H71.1861L71.1894 16.8691ZM71.1894 14.6544H73.0563C73.2859 14.6776 73.5178 14.6506 73.736 14.5753C73.9541 14.4999 74.1532 14.378 74.3195 14.218C74.4745 14.0667 74.5938 13.8828 74.6687 13.6796C74.7436 13.4764 74.7723 13.2591 74.7526 13.0434C74.7823 12.5565 74.6277 12.0763 74.3195 11.6982C74.1692 11.525 73.9816 11.3881 73.7707 11.2977C73.5599 11.2073 73.3314 11.1659 73.1023 11.1765H71.1894V14.6544Z" fill="white"/>
</svg>
